<?xml version="1.0" encoding="utf-8"?>
<svg fill="none" height="780" viewBox="0 0 767 780" width="767" xmlns="http://www.w3.org/2000/svg">
<g clip-path="url(#clip0_827_7449)">
<path class="relleno" d="M125.9 527.9C134.1 556.3 118.2 748.3 379.3 756.7C616.5 764.3 626.1 636.8 631.4 625.5C654.3 576.9 628.8 485.5 631.4 455.6C612.8 450.8 600.8 436.1 567.9 431.2C525.4 424.9 483.5 429 442.5 442.3C407 453.8 376.6 474.8 347.5 498.9C317.2 524.1 282.1 536.8 244.1 541C201.1 545.8 167.2 540 125.9 527.9Z" fill="#00bfa6"/>
<path d="M483.2 298.9V162.9H501.3C507.1 162.9 511.8 158.3 511.8 152.6V115.6C511.8 101.2 499.8 89.6001 485.1 89.6001H292.3C277.6 89.6001 265.6 101.3 265.6 115.6V152.6C265.6 158.3 270.3 162.9 276.1 162.9H294.1V298.9C188.6 337.3 118.3 435.6 118.3 546C118.3 634.3 163.3 716.3 238.7 765.4C240.4 766.5 242.5 767.1 244.5 767.1H532.8C534.9 767.1 536.9 766.5 538.6 765.4C614.1 716.4 659.1 634.4 659.1 546C659.1 435.6 588.7 337.2 483.2 298.9ZM286.6 115.6C286.6 112.6 289.1 110.1 292.2 110.1H485C488.1 110.1 490.6 112.6 490.6 115.6V142.4H286.6V115.6ZM538.8 734C273.6 779.5 140.4 716.8 139.3 546C139.3 441.9 207.1 349.4 308 315.8C312.3 314.4 315.1 310.5 315.1 306.1V162.9H462.1V306.2C462.1 310.6 465 314.5 469.2 315.9C570.2 349.4 638 441.9 638 546C638 626.5 606.8 688.6 538.8 734Z" fill="black"/>
</g>
<defs>
<clipPath id="clip0_827_7449">
<rect fill="white" height="780" width="767"/>
</clipPath>
</defs>
</svg>