<?xml version="1.0" encoding="utf-8"?>
<svg height="780" viewBox="0 0 767 780" width="767" xmlns="http://www.w3.org/2000/svg">
<g clip-path="url(#clip0_827_7452)">
<path class="relleno" d="M563.4 377.4C569.5 396.5 656.2 454 642.6 605.3C636 679 607.8 764.8 521.8 779.4C139.3 844 75.2 622.9 169.9 437C182 427.6 185.9 410.5 208.5 397.4C237.6 380.5 269.8 373.4 304.5 375.5C334.5 377.3 502.5 440.2 563.4 377.4Z" fill="#00bfa6"/>
<path d="M483.2 329.9V193.9H501.3C507.1 193.9 511.8 189.3 511.8 183.6V146.6C511.8 132.2 499.8 120.6 485.1 120.6H292.3C277.6 120.6 265.6 132.3 265.6 146.6V183.6C265.6 189.3 270.3 193.9 276.1 193.9H294.1V329.9C188.6 368.3 118.3 466.6 118.3 577C118.3 665.3 163.3 747.3 238.7 796.4C240.4 797.5 242.5 798.1 244.5 798.1H532.8C534.9 798.1 536.9 797.5 538.6 796.4C614.1 747.4 659.1 665.4 659.1 577C659.1 466.6 588.7 368.2 483.2 329.9ZM286.6 146.6C286.6 143.6 289.1 141.1 292.2 141.1H485C488.1 141.1 490.6 143.6 490.6 146.6V173.4H286.6V146.6ZM538.8 765C273.6 810.5 140.4 747.8 139.3 577C139.3 472.9 207.1 380.4 308 346.8C312.3 345.4 315.1 341.5 315.1 337.1V193.9H462.1V337.2C462.1 341.6 465 345.5 469.2 346.9C570.2 380.4 638 472.9 638 577C638 657.5 606.8 719.6 538.8 765Z" fill="black"/>
</g>
<defs>
<clipPath id="clip0_827_7452">
<rect fill="white" height="780" width="767"/>
</clipPath>
</defs>
</svg>