<?xml version="1.0" encoding="utf-8"?>
<svg fill="none" height="780" viewBox="0 0 767 780" width="767" xmlns="http://www.w3.org/2000/svg">
<path d="M483.167 265.914V129.892H501.267C507.087 129.892 511.799 125.297 511.799 119.622V82.5853C511.799 68.2282 499.812 56.5498 485.089 56.5498H292.284C277.561 56.5498 265.584 68.2282 265.584 82.5853V119.622C265.584 125.297 270.297 129.892 276.117 129.892H294.076V265.925C188.601 304.253 118.275 402.624 118.275 513.035C118.275 601.295 163.27 683.319 238.646 732.447C240.361 733.569 242.403 734.172 244.487 734.172H532.744C534.818 734.172 536.848 733.58 538.575 732.457C614.038 683.488 659.087 601.464 659.087 513.035C659.098 402.603 588.717 304.231 483.167 265.914ZM286.638 82.5853C286.638 79.5572 289.168 77.0797 292.284 77.0797H485.099C488.216 77.0797 490.746 79.5466 490.746 82.5853V109.351H286.638V82.5853ZM538.834 700.968C273.582 746.484 140.414 683.839 139.328 513.035C139.328 408.956 207.114 316.46 308.006 282.876C312.263 281.457 315.129 277.55 315.129 273.156V129.892H462.113V273.156C462.113 277.55 464.98 281.457 469.247 282.876C570.204 316.439 638.034 408.935 638.034 513.035C638.034 593.545 606.838 655.631 538.834 700.968Z" fill="black"/>
<path d="M170.805 493.256C170.436 511.277 172.184 428.999 170.805 493.256V493.256Z" fill="black"/>
</svg>