<?xml version="1.0" encoding="utf-8"?>
<svg fill="none" height="780" viewBox="0 0 767 780" width="767" xmlns="http://www.w3.org/2000/svg">
<g clip-path="url(#clip0_827_7446)">
<path class="relleno" d="M631.5 621.3C594.5 687.3 501.9 734.1 393.4 734.1C263.8 734.1 156.7 667.2 140.3 580.5C150.2 579.4 191.5 574.8 213.2 573.1C252.7 569.9 291.6 572 329.9 578.8C362.9 584.7 391.2 595.4 418.2 607.7C446.4 620.5 479 627 514.4 629.2C554.5 631.6 593.1 627.5 631.5 621.3Z" fill="#00bfa6"/>
<path d="M483.2 265.9V129.9H501.3C507.1 129.9 511.8 125.3 511.8 119.6V82.6001C511.8 68.2001 499.8 56.6001 485.1 56.6001H292.3C277.6 56.6001 265.6 68.3001 265.6 82.6001V119.6C265.6 125.3 270.3 129.9 276.1 129.9H294.1V265.9C188.6 304.3 118.3 402.6 118.3 513C118.3 601.3 163.3 683.3 238.7 732.4C240.4 733.5 242.5 734.1 244.5 734.1H532.8C534.9 734.1 536.9 733.5 538.6 732.4C614.1 683.4 659.1 601.4 659.1 513C659.1 402.6 588.7 304.2 483.2 265.9ZM286.6 82.6001C286.6 79.6001 289.1 77.1001 292.2 77.1001H485C488.1 77.1001 490.6 79.6001 490.6 82.6001V109.4H286.6V82.6001ZM538.8 701C273.6 746.5 140.4 683.8 139.3 513C139.3 408.9 207.1 316.4 308 282.8C312.3 281.4 315.1 277.5 315.1 273.1V129.9H462.1V273.2C462.1 277.6 465 281.5 469.2 282.9C570.2 316.4 638 408.9 638 513C638 593.5 606.8 655.6 538.8 701Z" fill="black"/>
</g>
<defs>
<clipPath id="clip0_827_7446">
<rect fill="white" height="780" width="767"/>
</clipPath>
</defs>
</svg>