<svg width="171" height="225" viewBox="0 0 171 225" fill="none" xmlns="http://www.w3.org/2000/svg">
<path d="M116.5 53.9004C116.5 59.8004 116.7 65.4004 116.4 71.1004C116.2 75.6004 118 78.6004 121.8 80.9004C131.2 86.5004 140.1 92.9004 147.9 100.7C176.8 129.6 172.4 177.4 138.7 200.4C135.2 202.8 131 204.3 131 210.2C131 213 127 214.7 124.1 216C114.4 220.4 103.9 221.2 93.5004 221.7C79.6004 222.4 65.6004 222.3 51.8004 218.9C47.9004 217.9 44.2004 216.7 40.8004 214.6C39.1004 213.6 36.7004 212.2 36.8004 210.4C37.2004 205.2 33.3004 203.7 30.1004 201.7C-3.39958 180.9 -9.19954 131.4 18.4005 102.4C25.8005 94.6004 33.9004 87.7004 43.1004 82.4004C48.5004 79.3004 51.1004 75.3004 51.0004 69.2004C51.0004 65.9004 51.5005 62.5004 50.9005 59.2004C50.1005 54.7004 52.1004 54.4004 55.5004 55.0004C74.1004 58.1004 92.6005 57.3004 111.2 54.9004C113 54.7004 114.6 54.3004 116.5 53.9004Z" fill="#E9D9EC"/>
<path d="M87.2999 57.4006C72.8999 57.6006 61 56.6006 49.2 54.2006C40.5 52.4006 36.4999 41.5006 41.7999 34.3006C43.4999 32.0006 45.6999 32.0006 48.0999 32.5006C72.9999 37.7006 98 37.1006 122.9 32.4006C124.9 32.0006 126.9 31.5006 128.5 33.3006C132.3 37.4006 131.2 42.3006 130.8 47.1006C130.5 51.0006 127.4 52.5006 124 53.4006C111.1 56.3006 98.0999 57.5006 87.2999 57.4006Z" fill="#E7D5EA"/>
<path d="M123.2 9.50079C122.3 15.8008 121.2 22.0008 120.8 28.2008C120.6 31.0008 119.5 32.0008 117 32.3008C109.9 33.1008 102.9 34.4008 95.7 34.7008C81.6 35.3008 67.5 35.0008 53.4 33.0008C50.4 32.6008 49.1 31.3008 48.7 28.4008C47.9 22.0008 46.9 15.7008 46 9.30078C71.6 15.1008 97.1 15.1008 123.2 9.50079Z" fill="#EEC5DE"/>
<path d="M44.2998 8.5009C49.2998 5.0009 54.6998 4.40091 60.0998 3.70091C79.2998 1.10091 98.3998 0.800901 117.3 6.0009C119.2 6.5009 122.2 6.90091 122.2 8.70091C122.2 11.1009 119 11.1009 117.2 11.6009C102.4 15.2009 87.1998 14.6009 72.0998 14.3009C64.4998 14.1009 56.8998 13.4009 49.4998 11.3009C47.6998 10.8009 45.9998 10.3009 44.2998 8.5009Z" fill="#EEC5DE"/>
<path d="M118.8 32.4004L98.7002 35.0004V14.1004L121.7 10.4004L118.8 32.4004Z" fill="#C999B3"/>
<path d="M105.9 81.7002C105.9 81.7002 160.8 110.5 151.7 150C151.7 150 150.1 184.7 123.2 200.7C123.2 200.7 114.9 206 93.5996 208.2C93.5996 208.2 126.1 209.6 144.3 197.7C144.3 197.7 165.6 188.4 167.8 147.9C167.8 147.9 171.4 119.4 138.7 92.4002C138.7 92.4002 132.8 87.7002 122.6 81.8002L108.1 75.7002L105.9 81.7002Z" fill="#D5C2E0"/>
<path d="M117.2 61H105.9V81.7H117.2V61Z" fill="#D5C2E0"/>
<path d="M117.2 62.0008C117.2 62.0008 114.8 66.6008 82.2 66.3008C55.6 66.0008 52 62.0008 52 62.0008V55.1008L84.6 59.3008L117.1 54.8008L117.2 62.0008Z" fill="#D5C2E0"/>
<path d="M72.7996 92.3008C76.3996 94.3008 79.9996 96.4008 82.8996 99.3008C84.0996 100.501 85.2996 101.701 86.4996 102.901C88.7996 105.301 90.5996 108.001 92.1996 111.001C94.6996 115.701 95.9996 120.801 96.0996 126.101C96.1996 130.001 96.2996 133.801 96.1996 137.701C96.0996 141.801 95.5996 145.901 93.8996 149.801C93.8996 149.801 93.8996 149.901 93.8996 150.101C93.9996 150.001 94.0996 150.001 94.1996 149.901C96.3996 147.001 98.4996 143.901 100.1 140.501C101.8 137.001 102.8 133.301 103.3 129.501C103.6 127.001 103.6 124.401 103.8 121.901C103.8 121.601 103.8 121.401 103.8 121.101C103.9 121.101 103.9 121.101 104 121.001C104.2 121.201 104.3 121.501 104.5 121.701C105.3 123.001 106 124.401 106.8 125.701C108.6 128.501 109.5 131.601 110.6 134.701C112 138.401 112.4 142.301 112.4 146.201C112.4 149.201 112 152.101 110.9 154.901C110 157.301 109 159.801 107.8 162.101C106.8 164.101 105.5 166.001 104.2 167.901C103.2 169.401 102.1 170.701 100.8 172.001C98.7996 174.101 96.6996 176.001 94.5996 178.001C95.6996 171.701 97.8996 165.701 98.0996 159.201C96.2996 160.301 94.5996 161.401 92.8996 162.401C91.1996 163.401 89.3996 164.301 87.3996 165.301C86.4996 163.801 85.5996 162.401 84.8996 161.001C82.7996 157.201 81.1996 153.101 80.0996 148.901C78.9996 144.801 78.6996 140.601 78.7996 136.401C78.7996 136.101 78.7996 135.901 78.7996 135.601C78.7996 135.501 78.7996 135.501 78.6996 135.301C77.6996 136.101 76.5996 136.701 75.6996 137.501C73.5996 139.501 71.6996 141.601 70.0996 144.101C68.4996 146.501 67.4996 149.201 66.5996 151.901C64.7996 157.301 64.8996 162.701 65.4996 168.201C65.8996 171.401 66.8996 174.401 67.5996 177.401C67.5996 177.601 67.6996 177.701 67.6996 178.001C66.9996 177.501 66.2996 177.101 65.6996 176.601C63.8996 174.901 62.1996 173.201 60.4996 171.401C58.7996 169.601 57.4996 167.401 56.1996 165.301C54.4996 162.601 53.6996 159.701 52.7996 156.801C51.6996 152.901 51.6996 149.001 52.4996 145.101C53.1996 141.801 54.1996 138.501 55.6996 135.401C56.7996 133.301 57.7996 131.201 58.8996 129.101C60.0996 126.801 61.2996 124.601 62.4996 122.401C63.2996 120.901 64.1996 119.401 64.9996 117.801C66.3996 115.101 67.7996 112.401 69.2996 109.701C71.9996 105.001 72.8996 99.9008 72.5996 94.5008C72.5996 93.8008 72.4996 93.0008 72.3996 92.3008C72.6996 92.3008 72.6996 92.3008 72.7996 92.3008Z" fill="#B1A0CE"/>
<path d="M116.3 54.8008C116.3 60.5008 116.4 66.2008 116.2 72.0008C116.1 76.1008 117.6 79.6009 120.9 82.1009C122.9 83.6009 125.2 84.8008 127.3 86.1008C129.5 87.5008 131.7 89.0008 133.9 90.6008C138.1 93.6008 142.2 96.9008 145.9 100.501C157.5 111.401 165.2 125.801 166.6 141.801C168 156.901 163.9 172.101 155.2 184.401C150.7 190.801 144.9 196.401 138.3 200.601C135.2 202.601 132 204.601 131.1 208.401C130.9 209.301 131 210.201 130.8 211.201C130.7 212.001 130 212.601 129.3 213.101C127.7 214.301 125.6 215.101 123.8 215.901C113.8 220.201 102.6 220.701 91.9 221.101C80.5 221.601 69 221.401 57.8 219.101C52.5 218.001 47.3 216.601 42.6 213.801C41.8 213.301 41 212.901 40.4 212.301C39.5 211.501 39.7 210.901 39.6 209.801C39.4 207.901 38.7 206.201 37.4 204.801C36.2 203.501 34.6 202.601 33.1 201.701C31.4 200.701 29.8 199.701 28.3 198.501C25.3 196.301 22.5 193.801 20 191.101C10 180.201 4.30003 165.701 3.70003 151.001C3.00003 135.901 7.50001 120.701 16.8 108.701C19.6 105.101 22.8 101.901 26.1 98.8008C29.9 95.2008 33.8 91.9008 38.1 88.9008C40.2 87.4008 42.3 86.1008 44.5 84.8008C46.4 83.7008 48.2 82.6008 49.8 81.0008C52.6 78.1008 53.9 74.4008 54 70.4008C54 67.7008 54.3 64.9009 54.2 62.2009C54.1 60.9009 53.8 59.7008 53.8 58.5008C53.8 58.1008 53.8 57.4009 54 57.2009C54.8 56.4009 57.8 57.3008 58.7 57.4008C61.5 57.8008 64.4 58.2008 67.2 58.5008C78.8 59.6008 90.6 59.3008 102.2 58.3008C107.6 57.8008 113 57.1009 118.3 56.1009C120.2 55.7009 119.4 52.8009 117.5 53.2009C105.9 55.4009 94 56.2009 82.2 56.2009C76.3 56.2009 70.4 55.9009 64.5 55.2009C61.7 54.9009 58.9 54.3008 56.1 54.0008C54.7 53.8008 53 53.9008 51.9 55.0008C50.6 56.3008 50.7 58.2008 50.9 59.9008C51.3 62.8008 51.1 65.6008 51 68.4008C50.9 70.6008 51 72.7008 50.3 74.8008C49.7 76.5008 48.6 78.1008 47.3 79.3008C45.6 80.9008 43.4 82.0009 41.4 83.2009C39.2 84.6009 37 86.0008 34.9 87.6008C30.6 90.7008 26.6 94.2008 22.8 97.9008C16.7 103.801 11.4 110.301 7.70003 117.901C4.30003 124.801 2.20001 132.301 1.30001 140.001C-0.49999 155.101 2.90002 170.901 11 183.801C15.1 190.401 20.4 196.101 26.5 200.701C28.1 201.901 29.7 203.001 31.5 204.001C32.9 204.901 34.5 205.601 35.7 206.901C36.2 207.501 36.6 208.201 36.8 208.901C37.1 210.001 36.8 211.101 37.1 212.201C37.7 214.101 39.8 215.301 41.4 216.301C46 219.101 51.1 220.601 56.4 221.701C62.1 222.901 67.9 223.601 73.7 223.901C79.5 224.201 85.4 224.201 91.3 224.001C96.8 223.801 102.3 223.501 107.8 222.901C113.3 222.201 118.7 221.101 123.8 219.101C126 218.201 128.2 217.301 130.2 216.201C131.8 215.301 133.5 214.001 134 212.101C134.3 211.101 134.1 210.101 134.4 209.101C134.6 208.201 135 207.401 135.5 206.701C136.5 205.401 138 204.501 139.4 203.601C142.8 201.401 146.1 198.901 149.1 196.201C160.7 185.401 168 170.701 169.8 155.001C171.6 139.501 167.6 123.401 158.9 110.501C153.6 102.601 146.5 96.1008 138.9 90.3008C134.7 87.1008 130.3 84.1008 125.7 81.3008C123.9 80.2008 121.9 79.1008 120.7 77.3008C119.6 75.6008 119.4 73.7009 119.5 71.7009C119.7 66.1009 119.6 60.4008 119.6 54.8008C119.3 52.9008 116.3 52.9008 116.3 54.8008Z" fill="#9170AF"/>
<path d="M87.2998 55.9009C79.9998 56.0009 72.7998 55.8009 65.5998 55.1009C62.2998 54.8009 58.9998 54.4009 55.6998 53.8009C52.9998 53.4009 49.8998 53.1009 47.3998 52.0009C43.0998 50.0009 40.6998 45.3009 40.9998 40.7009C41.0998 38.5009 41.9998 35.5009 43.8998 34.2009C44.8998 33.5009 46.1998 33.6009 47.2998 33.8009C49.1998 34.1009 51.0998 34.6009 52.9998 34.9009C68.2998 37.6009 83.8998 38.2009 99.3998 37.0009C107.2 36.4009 115 35.3009 122.8 33.9009C124 33.7009 125.6 33.1009 126.8 33.8009C128.1 34.5009 129 36.4009 129.4 37.7009C130.2 40.6009 129.7 43.7009 129.4 46.6009C129 49.8009 126.6 51.1009 123.7 51.8009C119.6 52.8009 115.5 53.6009 111.4 54.3009C103.3 55.4009 95.2998 56.0009 87.2998 55.9009C85.3998 55.9009 85.3998 58.9009 87.2998 58.9009C94.8998 59.0009 102.6 58.5009 110.1 57.4009C114.3 56.8009 118.5 56.0009 122.6 55.1009C125.5 54.4009 128.6 53.6009 130.6 51.2009C132.5 48.8009 132.5 45.2009 132.6 42.3009C132.8 39.0009 132.2 35.7009 130.1 33.0009C129 31.6009 127.7 30.7009 125.9 30.6009C124.2 30.5009 122.4 31.0009 120.7 31.3009C116.4 32.1009 112 32.7009 107.7 33.3009C90.7998 35.3009 73.5998 35.3009 56.7998 32.7009C54.6998 32.4009 52.5998 32.0009 50.3998 31.6009C48.6998 31.3009 46.8998 30.8009 45.1998 30.9009C41.9998 31.2009 40.0998 33.8009 38.9998 36.6009C36.9998 41.6009 38.1998 47.4009 41.5998 51.4009C43.2998 53.4009 45.5998 54.9009 48.1998 55.6009C51.5998 56.5009 55.1998 57.0009 58.6998 57.5009C66.1998 58.5009 73.6998 59.0009 81.2998 59.1009C83.3998 59.1009 85.4998 59.1009 87.4998 59.1009C89.1998 58.8009 89.2998 55.8009 87.2998 55.9009Z" fill="#9170AF"/>
<path d="M121.2 9.10081C120.7 13.0008 120 16.9008 119.5 20.8008C119.3 22.6008 119 24.4008 118.9 26.3008C118.8 27.4008 119 29.2008 118.1 30.1008C117.4 30.9008 115.9 30.8008 115 30.9008C112.9 31.2008 110.9 31.4008 108.8 31.7008C104.9 32.2008 101 32.8008 97.1003 33.0008C89.3003 33.5008 81.3004 33.5008 73.5004 33.2008C69.6004 33.0008 65.6004 32.8008 61.7004 32.4008C59.9004 32.2008 58.1003 32.0008 56.3003 31.8008C54.7003 31.6008 52.8003 31.6008 51.3003 30.9008C50.3003 30.4008 49.9004 29.6008 49.7004 28.5008C49.3004 26.4008 49.1003 24.1008 48.8003 22.0008C48.2003 17.6008 47.5004 13.2008 46.9004 8.80079C46.3004 9.40079 45.7003 10.0008 45.1003 10.6008C65.0003 15.1008 85.5004 16.1008 105.7 13.6008C111.5 12.9008 117.3 11.9008 123 10.7008C124.9 10.3008 124.1 7.40079 122.2 7.80079C102.6 12.0008 82.5003 13.1008 62.6003 10.6008C57.0003 9.90081 51.4003 8.90081 45.8003 7.60081C44.6003 7.30081 43.8004 8.30079 44.0004 9.40079C44.6004 13.6008 45.3004 17.9008 45.9004 22.1008C46.2004 24.2008 46.4003 26.3008 46.8003 28.5008C47.0003 29.8008 47.4004 31.0008 48.2004 32.0008C50.2004 34.4008 54.0003 34.3008 56.8003 34.7008C61.0003 35.2008 65.3003 35.6008 69.6003 35.8008C78.1003 36.3008 86.7004 36.3008 95.2004 35.9008C99.4004 35.7008 103.5 35.2008 107.7 34.6008C109.8 34.3008 111.9 34.0008 114.1 33.7008C115.7 33.5008 117.5 33.5008 118.9 32.8008C122.3 31.3008 121.8 26.8008 122.2 23.7008C122.7 18.9008 123.5 14.2008 124.2 9.40079C124.3 8.60079 124 7.80081 123.2 7.60081C122.3 7.80081 121.3 8.30081 121.2 9.10081Z" fill="#9170AF"/>
<path d="M45.7998 9.80048C49.8998 7.00048 54.6998 6.00047 59.5998 5.30047C64.8998 4.60047 70.1998 4.0005 75.4998 3.7005C86.2998 3.0005 97.0998 3.3005 107.8 5.2005C110.4 5.7005 113 6.20048 115.6 6.90048C117.4 7.40048 119.5 7.60049 121.2 8.50049C121.6 8.70049 121.7 8.8005 121.3 9.2005C120.8 9.7005 119.8 9.70048 119.2 9.90048C116.9 10.3005 114.7 10.9005 112.4 11.3005C101.8 13.2005 90.8999 13.2005 80.1999 13.0005C74.0999 12.9005 68.0998 12.8005 62.0998 12.1005C59.0998 11.7005 56.0998 11.2005 53.0998 10.5005C50.5998 9.90049 48.0998 9.40049 46.2998 7.50049C44.8998 6.10049 42.7999 8.30049 44.1999 9.60049C45.9999 11.4005 48.0998 12.2005 50.4998 12.9005C53.2998 13.6005 56.0999 14.2005 58.8999 14.6005C64.6999 15.5005 70.4999 15.7005 76.3999 15.8005C88.1999 16.1005 100.1 16.3005 111.8 14.3005C114.4 13.9005 117 13.2005 119.6 12.7005C121.3 12.4005 123.2 12.0005 124.1 10.4005C126.8 5.70048 118.9 4.60048 116.2 3.90048C104.7 1.00048 92.8998 0.100481 81.0998 0.400481C74.4998 0.600481 67.9998 1.20049 61.4998 2.10049C55.4998 2.90049 49.5998 3.8005 44.4998 7.2005C42.6998 8.3005 44.1998 10.9005 45.7998 9.80048Z" fill="#9170AF"/>
<path d="M71.9997 93.6008C79.3997 97.6008 86.0997 103.201 90.1997 110.601C92.2997 114.301 93.6997 118.401 94.1997 122.601C94.7997 127.001 94.5997 131.601 94.5997 136.001C94.5997 138.501 94.4997 141.001 94.0997 143.401C93.8997 144.601 93.5997 145.801 93.1997 146.901C92.8997 147.801 92.1997 148.901 92.2997 149.901C92.2997 151.001 93.5997 151.901 94.5997 151.201C95.5997 150.501 96.1997 149.401 96.8997 148.501C97.6997 147.401 98.3997 146.301 99.0997 145.201C100.6 142.801 101.8 140.301 102.8 137.701C104.7 132.401 105.3 126.601 105.2 121.001C104.8 121.501 104.5 122.001 104.1 122.401C104.2 122.401 104.2 122.401 104.3 122.301C103.7 122.101 103.2 121.801 102.6 121.601C103.7 123.201 104.6 125.001 105.6 126.701C106.6 128.401 107.4 130.301 108.1 132.201C109.5 136.101 110.6 139.801 110.8 143.901C111 148.201 110.3 152.001 108.8 156.001C107.3 159.701 105.5 163.201 103.2 166.501C100.5 170.401 97.0997 173.501 93.5997 176.701C94.3997 177.201 95.2997 177.701 96.0997 178.201C97.2997 171.801 99.3997 165.501 99.5997 159.001C99.5997 157.901 98.2997 157.101 97.2997 157.701C93.7997 159.801 90.1997 161.901 86.5997 163.801C87.2997 164.001 87.9997 164.201 88.6997 164.301C85.8997 159.701 83.5997 155.201 81.9997 150.001C81.1997 147.401 80.6997 144.901 80.3997 142.201C80.2997 140.801 80.1997 139.401 80.1997 138.001C80.1997 136.901 80.3997 135.701 80.0997 134.701C79.8997 133.801 78.6997 133.201 77.8997 133.801C76.2997 135.001 74.6997 136.101 73.2997 137.501C71.8997 138.901 70.5997 140.501 69.3997 142.101C67.0997 145.401 65.4997 149.301 64.4997 153.201C63.3997 157.301 63.2997 161.501 63.5997 165.701C63.7997 167.901 64.0997 170.101 64.5997 172.201C65.0997 174.201 65.7997 176.201 66.1997 178.301C66.8997 177.701 67.6997 177.201 68.3997 176.601C65.8997 174.901 63.7997 172.601 61.6997 170.401C59.6997 168.301 57.9997 165.701 56.6997 163.101C53.7997 157.601 52.6997 151.001 53.9997 144.901C55.2997 138.801 58.1997 133.501 61.0997 128.101C64.0997 122.501 67.0997 116.801 70.1997 111.201C71.7997 108.301 73.0997 105.301 73.6997 102.101C74.2997 98.8008 74.1997 95.6008 73.9997 92.3008C73.4997 92.8008 72.9997 93.3008 72.4997 93.8008C72.5997 93.8008 72.5997 93.8008 72.6997 93.8008C74.5997 93.8008 74.5997 90.8008 72.6997 90.8008C72.5997 90.8008 72.5997 90.8008 72.4997 90.8008C71.6997 90.8008 70.8997 91.5008 70.9997 92.3008C71.1997 95.3008 71.3997 98.3008 70.7997 101.401C70.1997 104.401 69.0997 107.101 67.5997 109.801C64.2997 115.601 61.1997 121.601 58.0997 127.501C55.0997 133.201 52.0997 138.701 50.8997 145.101C49.6997 151.501 50.8997 157.801 53.5997 163.701C54.9997 166.701 56.8997 169.701 59.0997 172.101C61.3997 174.701 63.9997 177.301 66.8997 179.301C68.0997 180.101 69.2997 178.801 69.0997 177.601C68.3997 173.801 67.0997 170.201 66.6997 166.301C66.3997 162.401 66.3997 158.401 67.2997 154.601C68.1997 150.901 69.6997 147.301 71.7997 144.201C73.8997 141.201 76.3997 138.801 79.3997 136.701C78.6997 136.401 77.8997 136.101 77.1997 135.801C77.4997 136.801 77.1997 138.201 77.1997 139.301C77.1997 140.701 77.2997 142.101 77.4997 143.501C77.7997 146.301 78.3997 148.901 79.1997 151.601C80.7997 156.801 83.2997 161.501 86.0997 166.101C86.4997 166.801 87.3997 167.001 88.1997 166.601C91.7997 164.701 95.3997 162.601 98.8997 160.501C98.0997 160.101 97.3997 159.601 96.5997 159.201C96.2997 165.501 94.2997 171.501 93.1997 177.601C92.8997 179.101 94.5997 180.101 95.6997 179.101C98.8997 176.201 102.1 173.201 104.7 169.701C107.3 166.201 109.4 162.501 111 158.501C112.7 154.401 113.8 150.401 113.8 146.001C113.8 141.501 113 137.301 111.4 133.101C110.6 131.001 109.9 128.801 108.8 126.801C108.3 125.701 107.6 124.701 107 123.701C106.4 122.601 105.8 121.401 105.1 120.401C104.7 119.901 104.1 119.501 103.4 119.701C103.3 119.701 103.3 119.701 103.2 119.801C102.6 120.001 102.1 120.601 102.1 121.201C102.2 126.301 101.7 131.501 100.1 136.301C99.2997 138.601 98.1997 140.901 96.9997 143.001C96.3997 144.001 95.7997 145.001 95.0997 146.001C94.6997 146.501 94.2997 147.101 93.9997 147.601C93.6997 148.001 93.3997 148.601 92.9997 148.901C93.7997 149.301 94.4997 149.801 95.2997 150.201C95.2997 149.901 95.6997 149.401 95.7997 149.001C95.9997 148.501 96.0997 148.001 96.2997 147.501C96.5997 146.401 96.8997 145.301 97.0997 144.201C97.4997 142.001 97.5997 139.701 97.6997 137.401C97.7997 132.601 97.8997 127.701 97.2997 123.001C96.7997 118.701 95.4997 114.501 93.5997 110.601C91.5997 106.601 88.7997 103.201 85.6997 100.101C82.0997 96.5008 78.0997 93.7008 73.5997 91.2008C71.8997 90.1008 70.2997 92.7008 71.9997 93.6008Z" fill="#9376B3"/>
<path d="M122.1 48.3007L104.4 50.9007C101.1 51.4007 97.9999 49.1007 97.4999 45.8007C96.9999 42.5007 99.2999 39.4007 102.6 38.9007L120.3 36.3007C123.6 35.8007 126.7 38.1007 127.2 41.4007C127.7 44.8007 125.4 47.8007 122.1 48.3007Z" fill="#D5C2E0"/>
</svg>
