<svg width="152" height="236" viewBox="0 0 152 236" fill="none" xmlns="http://www.w3.org/2000/svg">
<path d="M49.8001 55.4992C67.3001 61.4992 84.2001 61.1992 101.4 54.6992C101.4 62.4992 101.6 69.8992 101.3 77.1992C101.1 82.1992 102.9 85.3992 106.3 88.1992C119.8 99.3992 132.4 111.699 141.3 128.199C157.5 158.399 149 192.999 132.9 214.699C123.7 227.099 112.1 231.399 98.8001 232.699C79.7001 234.599 60.7001 234.299 41.6001 230.799C30.4001 228.699 23.4001 220.399 17.3001 211.299C-5.09991 178.299 -4.89991 143.899 22.6001 110.699C29.4001 102.499 36.6001 94.9992 44.8001 88.5992C48.4001 85.7992 50.3001 82.3992 50.0001 77.0992C49.5001 70.1992 49.8001 63.1992 49.8001 55.4992Z" fill="#E9D9EC"/>
<path d="M74.1996 56.3992C64.1996 56.7992 54.5996 54.8991 45.5996 49.7991C39.5996 46.3991 37.1996 40.4991 39.2996 33.9991C40.4996 30.1991 42.4996 27.1991 46.7996 29.5991C58.5996 36.0991 71.1996 36.0991 83.7996 35.0991C91.1996 34.4991 98.3996 32.8991 105 29.1991C107 28.0991 107.9 29.0992 109 30.3992C114 36.0992 112.6 44.9991 106 48.7991C96.0996 54.4991 85.2996 56.7992 74.1996 56.3992Z" fill="#E9D9EC"/>
<path d="M90.0998 89.4992C90.0998 89.4992 95.1998 107.499 111 121.899C139.5 147.899 140.4 181.699 129.9 201.599C129.9 201.599 117.6 222.599 93.2998 229.399C87.5998 230.999 81.5998 233.899 69.7998 233.199C69.7998 233.199 104.6 237.199 119.6 228.499C119.6 228.499 155.7 203.099 150.1 152.199C150.1 152.199 140.3 126.399 131 112.499C125.5 104.399 102.2 85.6992 102.2 85.6992L90.0998 89.4992Z" fill="#DAC7E2"/>
<path d="M45.2998 8.39941C65.2998 14.4994 85.0998 14.8994 105.3 8.6994C104.6 15.9994 103.7 23.3994 103.2 30.8994C103 33.3994 101.5 33.7994 100.1 34.2994C84.0998 39.7994 67.9998 39.8994 51.8998 35.4994C49.4998 34.8994 48.2998 33.4994 47.9998 30.1994C47.4998 22.8994 46.2998 15.6994 45.2998 8.39941Z" fill="#EEC5DE"/>
<path d="M73.9005 1.79931C84.6005 1.79931 93.4005 2.49931 102.101 5.29931C103.601 5.79931 105.601 5.89933 105.701 7.99933C105.701 9.99933 103.701 10.6993 102.301 11.1993C90.4005 15.2993 78.1005 15.4993 65.8005 14.3993C60.1005 13.8993 54.3005 13.0993 48.9005 10.7993C47.6005 10.1993 45.3005 10.0993 45.5005 7.89935C45.6005 5.89935 47.7005 5.69934 49.2005 5.19934C57.8005 2.29934 66.6005 1.59931 73.9005 1.79931Z" fill="#EEC5DE"/>
<path d="M102.4 34.4L82.2998 37.3V14.6L105.4 10.5L102.4 34.4Z" fill="#C999B3"/>
<path d="M44.9002 9.7992C60.3002 14.2992 76.3002 15.5992 92.2002 13.0992C96.8002 12.3992 101.3 11.2992 105.8 9.99921C105.2 9.49921 104.5 8.99918 103.9 8.59918C103.2 15.4992 102.5 22.3992 101.8 29.3992C101.7 30.3992 101.6 30.9992 100.6 31.3992C99.2002 31.9992 97.7002 32.2992 96.3002 32.6992C93.0002 33.5992 89.6002 34.3992 86.2002 34.8992C79.5002 35.8992 72.6002 35.9992 65.8002 35.2992C62.4002 34.8992 59.1002 34.3992 55.8002 33.5992C53.8002 33.0992 50.7002 32.9992 50.0002 30.6992C49.5002 29.0992 49.6002 27.1992 49.4002 25.5992C49.2002 23.6992 48.9002 21.7992 48.7002 19.8992C48.2002 15.8992 47.5002 11.9992 47.0002 7.99921C46.9002 7.19921 45.9002 6.79921 45.2002 6.99921C44.3002 7.19921 44.0002 7.9992 44.2002 8.7992C44.7002 12.6992 45.3002 16.5992 45.9002 20.4992C46.1002 22.2992 46.4002 24.0992 46.6002 25.8992C46.8002 27.6992 46.8002 29.4992 47.2002 31.2992C47.8002 33.6992 49.6002 35.0992 51.9002 35.7992C55.6002 36.7992 59.5002 37.4992 63.3002 38.0992C70.7002 39.0992 78.1002 39.1992 85.5002 38.1992C89.1002 37.6992 92.7002 36.9992 96.3002 36.0992C98.0002 35.6992 99.7002 35.1992 101.3 34.5992C102.4 34.1992 103.4 33.7992 104.1 32.8992C105.2 31.4992 105.1 29.6992 105.3 28.0992C105.5 25.9992 105.7 23.8992 105.9 21.7992C106.3 17.4992 106.8 13.1992 107.3 8.7992C107.4 7.7992 106.3 7.09923 105.4 7.39923C95.7002 10.1992 85.8002 11.6992 75.7002 11.5992C65.7002 11.4992 55.8002 9.89918 46.2002 7.09918C43.9002 6.39918 43.1002 9.2992 44.9002 9.7992Z" fill="#9170AF"/>
<path d="M102.3 65.9998C102.3 65.9998 82.3004 69.0998 75.6004 69.0998C68.9004 69.0998 48.9004 65.9998 48.9004 65.9998V58.0998L101.4 54.7998L102.3 65.9998Z" fill="#DAC7E2"/>
<path d="M102.2 63.8994H90.0996V89.4994H102.2V63.8994Z" fill="#DAC7E2"/>
<path d="M49.5001 56.9998C58.0001 59.8998 66.9001 61.4998 75.8001 61.2998C84.7001 61.1998 93.5001 59.2999 101.9 56.1999C101.3 55.6999 100.6 55.1998 100 54.7998C100 59.3998 100.1 63.9998 100.1 68.5998C100.1 70.8998 100.1 73.1999 100 75.3999C99.9001 77.2999 99.8001 79.0998 100.2 80.9998C100.8 84.1998 102.6 86.8999 105 88.9999C107.9 91.4999 110.9 93.9999 113.8 96.4999C125.5 107.1 136.2 119.4 142.7 134C149.1 148.4 150.3 164.6 147.1 180C145.6 187.2 143.2 194.2 140 200.8C136.9 207.1 133.1 213.4 128.2 218.5C123.5 223.4 117.7 226.9 111.3 228.9C103.9 231.2 96.1001 231.7 88.4001 232.1C79.1001 232.6 69.8001 232.5 60.5001 231.8C55.8001 231.4 51.1001 230.9 46.5001 230.1C42.6001 229.5 38.8001 228.8 35.3001 227C29.1001 223.8 24.4001 218.4 20.5001 212.8C15.9001 206.2 11.8001 199.3 8.80007 191.8C3.20007 178.1 1.50007 163.1 4.90007 148.6C8.70007 132.2 18.2001 118.2 29.3001 105.9C32.1001 102.7 35.1001 99.6998 38.2001 96.7998C41.1001 94.0998 44.4001 91.6999 47.3001 88.9999C49.7001 86.7999 51.3001 83.9998 51.7001 80.7998C52.0001 78.8998 51.8001 76.9998 51.7001 75.0998C51.6001 72.9998 51.6001 70.8998 51.6001 68.7998C51.6001 64.3998 51.7001 59.9999 51.7001 55.6999C51.7001 53.7999 48.7001 53.7999 48.7001 55.6999C48.7001 60.1999 48.6001 64.7998 48.6001 69.2998C48.6001 71.4998 48.6001 73.5998 48.7001 75.7998C48.8001 77.6998 48.9001 79.4998 48.5001 81.2998C47.7001 84.6998 45.3001 86.6998 42.7001 88.7998C39.4001 91.4998 36.2001 94.3999 33.1001 97.3999C20.9001 109.5 10.0001 123.5 4.30007 139.8C-0.699933 154.1 -1.19993 169.5 2.90007 184.1C5.10007 191.8 8.40007 199.1 12.4001 206C16.2001 212.4 20.5001 219 26.0001 224.1C28.6001 226.5 31.5001 228.7 34.7001 230.1C38.4001 231.8 42.4001 232.5 46.4001 233.1C55.7001 234.6 65.2001 235.3 74.6001 235.4C83.7001 235.5 92.9001 235.1 102 233.9C108.7 233 115.4 231.2 121.3 227.7C127.6 224 132.6 218.6 136.6 212.6C140.7 206.6 143.9 200.1 146.4 193.3C151.8 178.7 153.4 162.7 150.2 147.4C146.8 131.2 137.7 116.9 126.6 104.9C121.3 99.0999 115.4 93.6998 109.4 88.5998C106.8 86.3998 104.3 84.3998 103.5 80.9998C103 79.0998 103.2 77.1998 103.3 75.2998C103.4 72.9998 103.4 70.7998 103.4 68.4998C103.4 63.8998 103.3 59.2999 103.3 54.6999C103.3 53.7999 102.3 52.8998 101.4 53.2998C93.3001 56.2998 84.8001 58.0998 76.1001 58.2998C67.4001 58.3998 58.8001 56.8998 50.6001 54.0998C48.5001 53.4998 47.7001 56.3998 49.5001 56.9998Z" fill="#9C7EB8"/>
<path d="M74.2001 56.5996C68.1001 56.7996 62.0001 56.1997 56.2001 54.3997C53.2001 53.4997 50.4001 52.2997 47.6001 50.8997C45.4001 49.6997 43.3001 48.2996 41.9001 46.1996C39.4001 42.4996 39.5001 36.9996 42.1001 33.2996C43.6001 31.0996 45.5001 32.2996 47.4001 33.2996C50.2001 34.6996 53.1001 35.8996 56.1001 36.6996C61.9001 38.2996 68.0001 38.8996 74.0001 38.7996C80.1001 38.7996 86.2001 38.3996 92.2001 37.1996C95.2001 36.5996 98.2001 35.6996 101.1 34.4996C102.5 33.8996 103.8 33.2996 105.1 32.5996C105.5 32.3996 106.2 31.7997 106.7 31.8997C107.2 31.9997 107.6 32.5997 107.9 32.8997C110.8 36.0997 111.6 40.7996 109.7 44.5996C108.5 47.0996 106.5 48.5997 104.1 49.8997C101 51.4997 97.8001 52.8997 94.5001 53.8997C87.8001 55.9997 81.0001 56.7996 74.2001 56.5996C72.3001 56.4996 72.3001 59.4996 74.2001 59.5996C81.0001 59.7996 87.8001 59.0996 94.3001 57.0996C97.5001 56.0996 100.7 54.8997 103.7 53.3997C106.3 52.0997 108.8 50.7996 110.6 48.4996C113.7 44.5996 114.4 39.1996 112.4 34.5996C111.5 32.5996 109.8 29.6996 107.5 28.9996C106 28.5996 104.7 29.2996 103.5 29.9996C101.9 30.7996 100.2 31.5996 98.5001 32.1996C92.1001 34.4996 85.3001 35.2996 78.5001 35.5996C71.8001 35.8996 65.0001 35.7996 58.5001 34.1996C55.1001 33.3996 51.9001 32.1996 48.8001 30.5996C46.4001 29.3996 43.9001 27.9996 41.3001 29.6996C39.2001 31.0996 38.2001 33.6996 37.6001 35.9996C36.9001 38.5996 36.8001 41.2997 37.5001 43.8997C39.4001 50.5997 46.0001 53.8996 52.0001 56.1996C59.0001 58.8996 66.6001 59.8996 74.1001 59.5996C76.1001 59.4996 76.1001 56.4996 74.2001 56.5996Z" fill="#9C7EB8"/>
<path d="M73.9003 3.29958C81.7003 3.29958 89.6003 3.59957 97.3003 5.09957C99.1003 5.49957 100.8 5.89958 102.5 6.29958C103.4 6.49958 104.9 6.7996 103.3 7.4996C101.7 8.1996 99.8003 8.49962 98.0003 8.89962C95.9003 9.39962 93.8002 9.79957 91.7002 10.0996C83.2002 11.2996 74.5003 11.1996 65.9003 10.5996C61.7003 10.2996 57.5003 9.89962 53.4003 8.89962C51.6003 8.49962 49.9002 7.79962 48.2002 7.39962C48.0002 7.39962 46.8003 7.09962 46.8003 6.89962C46.8003 6.99962 47.6002 6.59957 47.7002 6.59957C56.1002 3.79957 65.2003 3.19958 73.9003 3.29958C75.8003 3.29958 75.8003 0.299583 73.9003 0.299583C69.3003 0.199583 64.8002 0.399595 60.2002 0.999595C55.7002 1.49959 50.9003 2.19961 46.6003 3.69961C45.0003 4.19961 43.7003 5.39958 43.9003 7.29958C44.1003 8.99958 45.5003 9.79961 47.0003 10.1996C49.0003 10.7996 51.0003 11.4996 53.1003 11.8996C55.4003 12.3996 57.8002 12.7996 60.2002 12.9996C70.2002 14.1996 80.5003 14.4996 90.5003 13.1996C95.0003 12.5996 99.9002 11.9996 104.2 10.2996C105.8 9.69958 107.2 8.49957 107.1 6.59957C107 4.69957 105.4 3.79962 103.8 3.39962C93.9003 0.899619 84.0003 0.0996071 73.9003 0.199607C72.0003 0.299607 72.0003 3.29958 73.9003 3.29958Z" fill="#9170AF"/>
<path d="M104 48.9001L98.8001 50.6C95.1001 51.8 91.1001 49.8001 89.9001 46.0001C88.7001 42.3001 90.7001 38.3 94.5001 37.1L99.7001 35.4001C103.4 34.2001 107.4 36.2001 108.6 40.0001C109.7 43.8001 107.7 47.7001 104 48.9001Z" fill="#DAC7E2"/>
<path d="M68.8002 153.1C69.6002 148.6 71.4002 143.6 74.2002 139.2C79.3002 131.1 86.2002 126.5 94.2002 124.1C94.7002 124 95.2002 123.8 95.6002 123.7C98.4002 123 99.1002 123.3 99.9002 126.5C103.7 141.7 103.1 156.3 95.1002 169.5C92.0002 174.7 87.7002 178.3 83.6002 182.2C80.8002 184.9 78.2002 188 75.6002 191C75.1002 191.5 74.9002 192.6 74.9002 193.4C75.0002 196.7 75.2002 200 75.4002 203.3C75.5002 204.4 75.6002 205.3 74.5002 205.6C73.5002 205.9 72.7002 205.3 72.5002 204.1C72.2002 201.1 71.8002 198.1 71.9002 195.1C72.1002 191.2 71.5002 187.5 70.8002 183.8C70.6002 182.8 70.3002 182.5 69.4002 182.4C56.4002 181.1 46.6002 170.5 43.7002 155.5C42.8002 151.1 42.5002 146.6 43.1002 142C43.4002 139.5 44.1002 138.8 46.1002 139.1C52.2002 140.1 58.0002 142.3 62.9002 147.1C65.2002 149.3 67.1002 151.3 68.8002 153.1Z" fill="#B4B7CD"/>
<path d="M71.6 183.499C64 181.799 57.2 177.999 52.6 171.599C48.2 165.399 45.8 157.699 44.8 150.199C44.3 146.599 44 142.699 44.9 139.099C44.4 139.399 44 139.6 43.5 139.9C46.5 141 49.6 141.899 52.6 143.199C54.7 144.199 56.8 145.299 58.9 146.499C63.1 149.099 67.1 152.699 68.7 157.499C69.5 159.999 69.4 162.799 69.6 165.399C69.8 169.299 69.9 173.099 70 176.999C70 178.699 70.1 180.399 70.2 182.099C70.2 182.999 70.2 184 70.4 184.9C70.8 186.3 72.9 185.699 72.6 184.299C72.5 183.999 72.6 184.299 72.6 184.199C72.6 183.999 72.6 183.899 72.6 183.699C72.6 183.199 72.5 182.699 72.5 182.099C72.4 180.499 72.4 179 72.3 177.4C72.2 173.4 72.1 169.499 71.9 165.499C71.8 162.699 71.8 159.599 71 156.899C69.5 151.999 65.7 148.199 61.6 145.399C59.3 143.899 56.9 142.699 54.5 141.499C51.2 139.899 47.7 138.899 44.3 137.699C43.7 137.499 43.1 137.899 42.9 138.499C42.1 141.799 42.2 145.399 42.6 148.799C43.1 152.899 43.9 156.999 45.2 160.999C47.7 168.799 52 175.999 58.9 180.699C62.6 183.199 66.9 184.799 71.3 185.799C72.4 185.999 73 183.899 71.6 183.499Z" fill="#8D7CB8"/>
<path d="M70.2996 153.999C71.7996 145.999 75.6996 138.399 81.7996 132.999C84.3996 130.699 87.4996 128.799 90.6996 127.399C92.2996 126.699 93.9996 126.199 95.6996 125.699C96.2996 125.499 96.8996 125.399 97.4996 125.299C97.7996 125.299 97.7996 125.299 97.9996 125.699C98.6996 127.399 98.9996 129.299 99.3996 131.099C99.7996 133.199 100.2 135.299 100.4 137.399C100.9 141.499 100.9 145.699 100.5 149.799C99.5996 157.999 96.5996 166.499 91.2996 172.899C88.6996 176.099 85.5996 178.799 82.6996 181.599C81.0996 183.099 79.5996 184.699 78.0996 186.399C77.3996 187.199 76.6996 187.999 75.9996 188.799C75.3996 189.499 74.5996 190.299 74.0996 191.199C73.0996 193.099 73.4996 195.399 73.5996 197.399C73.6996 199.699 73.6996 202.099 73.9996 204.399C74.0996 204.799 74.0996 204.899 74.0996 204.799C74.0996 204.799 73.9996 203.999 73.9996 203.699C73.8996 202.499 73.7996 201.299 73.6996 200.099C73.4996 197.799 73.6996 195.499 73.5996 193.199C73.4996 190.899 73.1996 188.499 72.8996 186.199C72.5996 184.599 72.5996 182.399 70.8996 181.599C70.1996 181.299 69.3996 181.299 68.6996 181.199C67.8996 181.099 67.0996 180.899 66.2996 180.699C64.7996 180.299 63.2996 179.799 61.8996 179.099C56.0996 176.299 51.5996 171.299 48.7996 165.599C47.1996 162.399 46.1996 158.999 45.4996 155.599C44.9996 153.199 44.6996 150.799 44.6996 148.299C44.5996 146.199 44.5996 143.799 45.0996 141.699C45.0996 141.499 45.1996 141.099 45.3996 140.999C45.8996 140.699 47.0996 141.199 47.5996 141.299C49.4996 141.699 51.3996 142.199 53.2996 142.899C57.1996 144.399 60.4996 146.799 63.3996 149.799C64.8996 151.299 66.3996 152.899 67.7996 154.399C69.0996 155.799 71.2996 153.699 69.8996 152.299C66.5996 148.899 63.4996 145.199 59.3996 142.599C55.7996 140.299 51.6996 138.999 47.5996 138.199C46.0996 137.899 44.2996 137.599 43.0996 138.899C41.7996 140.299 41.7996 142.599 41.6996 144.299C41.3996 149.199 41.8996 154.099 43.1996 158.799C45.0996 165.999 48.8996 172.999 54.6996 177.799C57.3996 179.999 60.3996 181.799 63.6996 182.899C65.3996 183.499 66.9996 183.799 68.7996 184.099C68.9996 184.099 69.7996 184.399 69.5996 184.099C69.8996 184.399 69.7996 185.199 69.8996 185.499C70.0996 186.799 70.2996 188.199 70.4996 189.499C71.0996 194.599 70.4996 199.699 71.3996 204.799C71.6996 206.599 73.2996 207.999 75.1996 207.399C77.4996 206.699 77.1996 204.299 77.0996 202.399C76.8996 199.699 76.6996 196.899 76.6996 194.199C76.6996 193.199 76.7996 192.599 77.3996 191.799C78.1996 190.799 79.0996 189.799 79.9996 188.799C83.0996 185.199 86.5996 182.099 89.9996 178.799C96.5996 172.299 101 163.999 102.9 154.899C104.8 145.699 104.1 136.199 101.9 127.199C101.5 125.699 101.2 123.899 99.9996 122.899C98.8996 121.899 97.3996 121.999 96.0996 122.299C92.2996 123.099 88.4996 124.699 85.1996 126.699C77.6996 131.199 72.2996 138.399 69.3996 146.499C68.5996 148.599 68.0996 150.699 67.6996 152.899C66.9996 155.099 69.8996 155.899 70.2996 153.999Z" fill="#8D7CB8"/>
<path d="M72.4004 192.2L94.4004 131.3L75.3004 193.2L72.4004 192.2Z" fill="#8D7CB8"/>
<path d="M84.0002 158.899L75.7002 145.199L86.4002 157.099L84.0002 158.899Z" fill="#8D7CB8"/>
<path d="M84.7998 157.1L96.2998 152.5L85.5998 158.9L84.7998 157.1Z" fill="#8D7CB8"/>
<path d="M78.6 174L76.5 157L80.6 173.7L78.6 174Z" fill="#8D7CB8"/>
<path d="M78.2002 176.1L90.0002 170L79.8002 178.6L78.2002 176.1Z" fill="#8D7CB8"/>
<path d="M69.9998 183.8L54.2998 156.8L72.4998 182.1L69.9998 183.8Z" fill="#8D7CB8"/>
</svg>
