<svg width="131" height="226" viewBox="0 0 131 226" fill="none" xmlns="http://www.w3.org/2000/svg">
<path d="M129.3 151.6C129.3 165.8 129.1 181.4 129.4 197.1C129.6 206.3 125.4 212.2 117.4 215.9C108.4 220.1 98.5996 221.3 88.7996 221.9C70.6996 223 52.4996 223.1 34.3996 221C26.5996 220.1 18.9996 218.7 12.1996 214.6C5.89962 210.8 2.09961 205.6 2.09961 197.6C2.29961 165.6 2.19959 133.6 2.29959 101.6C2.29959 89.9999 12.7996 78.3999 26.2996 74.0999C29.4996 73.0999 34.1996 74.5 35.6996 70.9C36.8996 68.1 36.3996 64.2999 35.7996 61.0999C34.9996 56.5999 37.2996 56.6999 40.4996 57.1999C57.3996 59.9999 74.2996 59.8999 91.1996 57.1999C94.2996 56.6999 95.7996 56.9999 95.7996 60.9999C95.5996 71.3999 95.7996 71.2999 105.4 74.7999C113.9 77.8999 121.1 82.6999 125.6 90.7999C127.3 93.8999 128.3 97.0999 128.5 100.7C129.6 117.1 128.8 133.6 129.3 151.6Z" fill="#E7D8EC"/>
<path d="M65.7997 59.4007C54.5997 59.6007 43.5997 58.6006 32.5997 56.2006C23.4997 54.2006 18.6997 39.6007 25.0997 32.7006C26.7997 30.9007 28.4997 29.0007 31.8997 32.4007C35.4997 36.0007 41.5997 35.7006 46.5997 36.0006C62.6997 36.9006 78.8997 37.4007 94.8997 34.2006C96.9997 33.8006 98.9997 33.3006 100.9 31.5006C103.6 28.9006 106 31.9007 107.4 34.2006C112.9 43.8007 108.3 54.0006 97.5997 56.5006C87.0997 58.9006 76.4997 59.3007 65.7997 59.4007Z" fill="#E7D7EB"/>
<path d="M31.2002 9.80078C54.4002 16.2008 77.3002 16.1008 100.7 10.5008C100 17.7008 99.3002 25.1008 98.6002 32.4008C98.4002 34.5008 96.6002 34.2008 95.2002 34.5008C81.1002 37.3008 66.9002 38.0008 52.6002 36.9008C47.3002 36.5008 42.0002 36.2008 36.9002 34.8008C35.0002 34.3008 33.8002 33.9008 33.6002 31.4008C33.1002 24.2008 32.0002 17.0008 31.2002 9.80078Z" fill="#EEC5DE"/>
<path d="M62.9994 15.9C53.8994 15.2 46.1993 15.2 38.7993 13.2C37.1993 12.8 35.5994 12.2 34.0994 11.6C32.6994 11.1 30.8993 10.7 30.7993 8.99998C30.6993 7.19998 32.7994 6.89998 33.9994 6.49998C41.1994 3.69998 48.8994 3.09995 56.4994 2.59995C68.6994 1.79995 80.7994 2.8 92.6994 5.4C94.5994 5.8 96.4993 6.6 98.2993 7.4C99.1993 7.8 100.099 8.29998 100.199 9.49998C100.299 11.1 98.9994 11.4 97.9994 11.8C93.4994 13.6 88.7994 14.7 83.9994 15C76.4994 15.5 68.9994 16.5 62.9994 15.9Z" fill="#EEC5DE"/>
<path d="M97.9998 33.9004L79.7998 36.6003V15.3004L100.7 11.4004L97.9998 33.9004Z" fill="#C999B3"/>
<path d="M96.4995 108.6C97.8995 107.4 99.4995 106.8 101.499 107.1C103.999 107.5 105.8 109.3 106.2 111.8C106.5 114 105.099 116.2 102.899 117.1C102.199 117.4 101.999 117.7 101.999 118.4C101.999 121.4 101.999 124.5 101.999 127.5C101.999 127.9 102.1 128.2 102.6 128.4C104.9 129.3 106.1 130.9 106.2 133.2C106.3 135.4 105.199 137.1 102.999 138.1C100.799 139.1 98.6995 138.7 96.7995 137.2C96.6995 137.1 96.6995 137.1 96.4995 137C93.2995 138.8 89.9995 140.5 86.6995 142.3C87.2995 145.5 85.8995 147.7 82.6995 148.9C82.6995 152.4 82.6995 156 82.6995 159.6C82.9995 159.7 83.3995 159.8 83.6995 160C85.7995 160.9 86.8995 162.5 86.9995 164.6C87.0995 166.8 85.9995 168.5 83.8995 169.5C81.8995 170.5 79.7995 170.3 77.9995 169C77.4995 168.6 77.0995 168.6 76.4995 168.9C73.4995 170.6 70.4995 172.2 67.3995 173.8C67.8995 176.2 67.2995 178.3 64.9995 179.7C63.0995 180.9 60.9995 180.9 58.9995 179.8C56.6995 178.4 55.9995 176.4 56.4995 173.9C53.1995 172.1 49.9995 170.4 46.6995 168.6C44.6995 170.2 42.4995 170.7 40.0995 169.6C37.9995 168.6 36.9995 167 37.0995 164.8C37.1995 162.2 38.6995 160.6 41.2995 159.8C41.2995 156.2 41.2995 152.7 41.2995 149.1C39.2995 148.5 37.7995 147.3 37.2995 145.3C36.8995 143.9 37.0995 142.5 37.8995 141.2C39.3995 138.9 43.2995 137.4 46.7995 140.3C49.9995 138.5 53.2995 136.8 56.5995 135C56.5995 134.1 56.3995 133.1 56.5995 132.3C56.9995 130.6 58.1995 129.4 59.8995 128.7C60.3995 128.5 60.5995 128.2 60.5995 127.7C60.5995 124.6 60.5995 121.5 60.5995 118.4C60.5995 118.1 60.3995 117.7 60.0995 117.5C56.8995 116.1 55.8995 114.1 56.5995 110.8C53.1995 108.7 49.8995 106.7 46.3995 104.6C45.1995 105.4 43.9995 106 42.4995 106C39.2995 106 36.6995 103.3 36.8995 100.4C37.0995 97.4001 40.0995 95.0001 43.0995 95.4001C46.4995 95.8001 48.6995 98.7001 47.9995 101.7C47.8995 102.3 47.9995 102.5 48.4995 102.8C51.4995 104.6 54.3995 106.4 57.3995 108.2C57.8995 108.5 58.1995 108.6 58.6995 108.2C60.6995 106.9 63.1995 106.9 65.0995 108.3C65.6995 108.7 66.0995 108.7 66.6995 108.4C69.4995 106.9 72.2995 105.4 75.0995 103.9C75.5995 103.6 75.6995 103.4 75.5995 102.8C75.1995 100.6 75.9995 98.7001 77.9995 97.5001C79.9995 96.2001 82.0995 96.2001 84.1995 97.5001C86.1995 98.7001 86.9995 100.5 86.6995 102.7C86.5995 103.4 86.7995 103.7 87.3995 104C90.4995 105.3 93.4995 107 96.4995 108.6ZM57.8995 137C54.5995 138.8 51.2995 140.6 48.0995 142.4C48.6995 145.5 47.4995 147.5 44.5995 148.8C44.3995 148.9 44.0995 149.2 44.0995 149.5C44.0995 152.7 44.0995 156 44.0995 159.2C44.0995 159.4 44.2995 159.8 44.5995 159.9C47.4995 161.2 48.4995 162.8 48.2995 165.8C48.2995 166 48.3995 166.4 48.5995 166.5C51.6995 168.2 54.8995 169.9 57.9995 171.6C60.9995 169.5 62.7995 169.5 66.1995 171.6C69.2995 169.9 72.3995 168.3 75.4995 166.5C75.6995 166.4 75.8995 166 75.8995 165.7C75.5995 162.9 76.6995 161.1 79.3995 159.9C79.5995 159.8 79.8995 159.5 79.8995 159.3C79.8995 155.9 79.8995 152.4 79.8995 149C79.4995 148.8 79.1995 148.7 78.8995 148.6C76.7995 147.7 75.4995 145.5 75.7995 143.5C75.9995 142.5 75.5995 142.1 74.7995 141.8C74.6995 141.7 74.4995 141.7 74.3995 141.6C71.5995 140.1 68.7995 138.6 66.0995 137.1C63.2995 139.3 60.0995 138.9 57.8995 137ZM95.0995 110.9C91.7995 109.1 88.4995 107.3 85.2995 105.6C82.7995 107.8 79.5995 107.6 77.1995 105.6C74.0995 107.3 70.8995 109 67.7995 110.7C67.5995 110.8 67.4995 111.1 67.4995 111.3C67.8995 114.1 66.6995 116.1 63.8995 117.2C63.6995 117.3 63.3995 117.6 63.3995 117.8C63.3995 121.2 63.3995 124.7 63.3995 128.1C66.8995 129.6 67.9995 131.3 67.4995 134.7C70.7995 136.5 73.9995 138.3 77.2995 140C79.8995 137.8 82.9995 138 85.3995 140C88.5995 138.2 91.8995 136.4 95.0995 134.7C94.5995 131.6 95.5995 129.7 98.5995 128.3C98.7995 128.2 98.9995 127.9 98.9995 127.7C98.9995 124.3 98.9995 120.9 98.9995 117.5C95.7995 116.4 94.3995 113.8 95.0995 110.9Z" fill="#BEA3CE"/>
<path d="M30.7994 12.5008C48.5994 17.0008 67.0994 18.2008 85.3994 15.9008C90.6994 15.2008 95.8994 14.3008 101.199 13.2008C100.599 12.7008 99.8994 12.2008 99.2994 11.8008C98.8994 15.3008 98.5994 18.9008 98.1994 22.4008C97.9994 24.2008 97.7994 26.0008 97.6994 27.7008C97.5994 28.5008 97.4994 29.3008 97.3994 30.1008C97.3994 30.5008 97.3994 31.9008 97.0994 32.2008C96.8994 32.5008 96.0994 32.4008 95.7994 32.5008C95.1994 32.6008 94.4994 32.7008 93.8994 32.8008C92.0994 33.1008 90.3994 33.4008 88.5994 33.7008C84.9994 34.2008 81.4994 34.6008 77.8994 34.8008C70.7994 35.3008 63.6994 35.4008 56.4994 35.0008C52.9994 34.8008 49.3994 34.6008 45.8994 34.3008C42.6994 34.0008 39.0994 33.8008 36.0994 32.6008C34.6994 32.1008 34.9994 30.5008 34.8994 29.2008C34.6994 27.2008 34.4994 25.3008 34.1994 23.3008C33.6994 19.2008 33.0994 15.1008 32.5994 11.1008C32.3994 9.20078 29.3994 9.20078 29.5994 11.1008C30.0994 15.2008 30.6994 19.3008 31.1994 23.3008C31.3994 25.1008 31.5994 26.9008 31.7994 28.7008C31.9994 30.3008 31.7994 32.2008 32.6994 33.7008C33.2994 34.7008 34.3994 35.2008 35.4994 35.6008C37.1994 36.1008 38.8994 36.4008 40.5994 36.7008C44.4994 37.3008 48.4994 37.5008 52.4994 37.8008C60.2994 38.3008 67.9994 38.4008 75.7994 38.0008C79.7994 37.8008 83.7994 37.4008 87.7994 36.8008C89.5994 36.6008 91.2994 36.3008 93.0994 36.0008C94.5994 35.8008 96.1994 35.7008 97.6994 35.2008C99.3994 34.7008 99.8994 33.3008 100.099 31.6008C100.299 29.5008 100.499 27.4008 100.799 25.3008C101.299 20.8008 101.699 16.3008 102.199 11.8008C102.299 10.8008 101.199 10.2008 100.299 10.4008C82.7994 14.2008 64.5994 15.3008 46.7994 12.8008C41.6994 12.1008 36.5994 11.0008 31.5994 9.80079C29.6994 9.10079 28.8994 12.0008 30.7994 12.5008Z" fill="#9C7EB8"/>
<path d="M95.3002 60.1006H81.2002V77.8006H95.3002V60.1006Z" fill="#D7C5E2"/>
<path d="M95.3002 66.5006C95.3002 66.5006 90.3002 70.5006 65.5002 70.5006C58.1002 70.5006 36.2002 67.7006 36.2002 67.7006V57.9006L91.1002 57.1006L95.3002 66.5006Z" fill="#D7C5E2"/>
<path d="M81.2002 77.8004C81.2002 77.8004 115.8 84.3003 114.7 105.6L117.9 201.5C117.9 201.5 111.2 220.1 89.0002 223C89.0002 223 115.5 222.7 125.8 210.7C125.8 210.7 129 196.8 129.2 180.4L128.6 101.7C128.6 101.7 129.8 83.0004 105.5 75.8004L88.3002 70.4004L81.2002 77.8004Z" fill="#D7C5E2"/>
<path d="M127.9 152.8C127.9 162.5 127.8 172.2 127.8 181.9C127.8 187 127.8 192 127.9 197.1C128 200.6 127.8 204.1 126.2 207.3C122.8 214.1 115.1 217 108.2 218.9C98.9998 221.4 89.2998 221.7 79.7998 222.1C69.7998 222.5 59.6998 222.6 49.5998 222C44.5998 221.7 39.4998 221.3 34.4998 220.7C30.0998 220.2 25.7998 219.5 21.4998 218.2C14.6998 216.1 7.09982 212.1 4.59982 205C3.19982 201 3.69983 196.7 3.69983 192.6C3.69983 187.5 3.6998 182.4 3.7998 177.4C3.8998 157.1 3.79981 136.8 3.89981 116.4C3.89981 111.6 3.69982 106.7 3.99982 101.9C4.19982 98.5001 5.29982 95.3001 6.99982 92.4001C10.7998 85.8001 17.0998 80.7001 24.0998 77.9001C25.6998 77.3001 27.1998 76.7001 28.8998 76.5001C30.3998 76.4001 32.0998 76.4001 33.5998 76.0001C37.2998 74.9001 38.1998 71.0001 38.0998 67.5001C37.9998 65.4001 37.4998 63.3001 37.3998 61.2001C37.3998 60.1001 37.3998 59.8001 38.3998 59.8001C40.1998 59.8001 41.9998 60.3001 43.6998 60.5001C46.0998 60.8001 48.5998 61.1001 50.9998 61.4001C60.9998 62.4001 70.9998 62.4001 80.9998 61.4001C83.3998 61.2001 85.8998 60.9001 88.2998 60.5001C89.4998 60.3001 90.6998 60.1001 91.8998 60.0001C92.4998 59.9001 93.0998 59.8001 93.6998 59.9001C94.4998 60.1001 94.3998 61.3001 94.3998 62.1001C94.3998 63.7001 94.2998 65.3001 94.3998 66.9001C94.4998 68.8001 94.5998 71.0001 95.7998 72.6001C97.0998 74.4001 99.0998 75.3001 101.1 76.1001C104.3 77.4001 107.5 78.4001 110.6 80.0001C113.9 81.7001 117 83.8001 119.6 86.5001C122.4 89.3001 124.8 92.8001 126 96.6001C127.5 100.9 127.4 105.6 127.5 110.1C127.8 119.5 127.7 128.9 127.8 138.4C127.8 143 127.8 147.9 127.9 152.8C127.9 154.7 130.9 154.7 130.9 152.8C130.6 142.6 130.8 132.5 130.7 122.3C130.7 117.5 130.6 112.6 130.4 107.8C130.2 103.2 130.1 98.5001 128.3 94.1001C125.2 86.6001 119.1 80.8001 112 77.2001C108.7 75.5001 105.3 74.4001 101.9 73.0001C100.9 72.6001 99.9998 72.2001 99.0998 71.6001C98.4998 71.2001 98.0998 70.8001 97.7998 70.1001C96.9998 68.4001 97.1998 65.4001 97.2998 63.3001C97.3998 60.4001 97.1998 56.9001 93.5998 56.6001C91.6998 56.5001 89.7998 57.0001 87.8998 57.3001C85.2998 57.7001 82.5998 58.0001 79.8998 58.2001C74.6998 58.7001 69.5998 58.9001 64.3998 58.8001C59.1998 58.8001 54.0998 58.4001 48.8998 57.9001C46.1998 57.6001 43.5998 57.2001 40.8998 56.8001C39.5998 56.6001 38.1998 56.3001 36.8998 56.7001C33.1998 57.6001 34.3998 62.0001 34.6998 64.7001C34.9998 66.8001 35.1998 69.2001 34.3998 71.3001C33.7998 72.7001 32.4998 73.0001 31.0998 73.2001C29.4998 73.3001 27.8998 73.3001 26.3998 73.7001C24.3998 74.2001 22.4998 75.1001 20.6998 75.9001C17.0998 77.6001 13.6998 79.9001 10.7998 82.7001C5.4998 87.6001 1.39982 94.4001 0.999817 101.8C0.699817 106.9 0.899811 112.1 0.899811 117.3C0.899811 122.5 0.899811 127.8 0.899811 133C0.899811 143.5 0.899811 154 0.899811 164.5C0.899811 175.1 0.899805 185.7 0.799805 196.2C0.799805 200.2 0.899823 204 2.59982 207.7C4.09982 210.8 6.49983 213.4 9.19983 215.4C16.4998 220.8 25.6998 222.5 34.4998 223.6C44.8998 224.8 55.3998 225.3 65.8998 225.3C76.0998 225.3 86.2998 225 96.3998 223.9C101.2 223.4 105.9 222.6 110.5 221.2C114.6 220 118.8 218.4 122.4 215.9C128.3 211.7 131 205.3 131 198.2C130.9 187.9 130.8 177.5 130.9 167.2C130.9 162.4 130.9 157.6 130.9 152.7C130.9 150.8 127.9 150.8 127.9 152.8Z" fill="#8B6EA1"/>
<path d="M65.7997 58.6C57.5997 58.7 49.3997 58.3 41.3997 57C39.3997 56.7 37.3997 56.3001 35.3997 55.9001C33.9997 55.6001 32.4997 55.4 31.2997 54.8C29.1997 53.8 27.5997 52.2 26.3997 50.3C23.9997 46.5 22.7997 41.3 24.5997 37C24.9997 36 25.4997 35.2001 26.1997 34.4001C26.6997 33.8001 27.4997 32.8001 28.2997 32.7001C29.4997 32.4001 30.5997 33.9 31.2997 34.6C32.4997 35.6 33.7997 36.3 35.2997 36.8C38.1997 37.8 41.3997 37.9 44.3997 38C48.1997 38.2 51.9997 38.4 55.7997 38.6C63.9997 38.9 72.2997 39 80.4997 38.3C84.5997 38 88.6997 37.4001 92.7997 36.7001C94.4997 36.4001 96.2997 36.1 97.8997 35.5C98.5997 35.2 99.2997 34.9 99.9997 34.5C100.8 34 101.4 33.3 102.2 32.8C104.5 31.3 106.7 36.8001 107.2 38.2001C108.1 40.7001 108.4 43.3001 107.7 45.9001C106.3 51.6001 101.4 54.7001 96.0997 55.9001C88.0997 57.7001 79.9997 58.3 71.7997 58.5C69.7997 58.6 67.7997 58.6 65.7997 58.6C63.8997 58.6 63.8997 61.6 65.7997 61.6C74.5997 61.5 83.4997 61.2001 92.1997 59.7001C95.8997 59.1001 99.7997 58.4 103.1 56.5C105.6 55.1 107.8 53.0001 109.2 50.4001C112.2 45.0001 111.4 38.4 108.1 33.3C106.4 30.7 103.4 28.2 100.3 30.5C99.4997 31.1 98.8997 31.7001 98.0997 32.2001C97.2997 32.7001 96.3997 32.9 95.3997 33.1C93.3997 33.6 91.2997 33.9001 89.1997 34.2001C80.2997 35.6001 71.2997 35.9001 62.2997 35.7001C57.7997 35.6001 53.2997 35.4001 48.8997 35.2001C45.2997 35.0001 41.5997 35.1001 38.0997 34.4001C36.5997 34.1001 34.9997 33.6001 33.7997 32.7001C32.3997 31.7001 31.3997 30.3 29.6997 29.8C27.0997 29.1 24.9997 31.0001 23.4997 32.9001C20.1997 37.1001 20.0997 43 21.7997 47.8C23.5997 52.8 27.2997 57.1 32.6997 58.3C41.2997 60.2 50.1997 61.2 58.9997 61.5C61.2997 61.6 63.4997 61.6 65.7997 61.5C67.6997 61.6 67.6997 58.6 65.7997 58.6Z" fill="#8B6EA1"/>
<path d="M63.4999 14.4003C54.6999 13.7003 45.6999 13.8003 37.2999 11.0003C36.3999 10.7003 35.4999 10.3003 34.5999 10.0003C34.0999 9.8003 33.0999 9.60028 32.7999 9.10028C32.4999 8.30028 35.1999 7.7003 35.6999 7.5003C40.0999 5.9003 44.6999 5.10028 49.3999 4.60028C59.1999 3.60028 68.9999 3.40033 78.6999 4.40033C83.5999 4.90033 88.5999 5.60029 93.3999 6.80029C94.3999 7.10029 95.4999 7.50033 96.4999 7.90033C97.0999 8.20033 98.7999 8.60029 99.0999 9.30029C99.2999 9.90029 98.7999 10.0003 98.2999 10.1003C97.1999 10.5003 96.0999 10.9003 94.9999 11.3003C89.7999 13.0003 84.4999 13.3003 79.0999 13.8003C73.8999 14.4003 68.5999 14.9003 63.4999 14.4003C61.5999 14.2003 61.5999 17.2003 63.4999 17.4003C68.7999 17.9003 74.0999 17.4003 79.3999 16.9003C84.9999 16.4003 90.4999 16.1003 95.7999 14.3003C96.8999 13.9003 97.9999 13.5003 99.0999 13.1003C99.9999 12.8003 100.8 12.4003 101.4 11.7003C102.8 10.0003 102 7.6003 100.3 6.5003C99.3999 5.9003 98.1999 5.50028 97.1999 5.10028C95.7999 4.50028 94.4999 4.10029 92.9999 3.80029C90.2999 3.20029 87.5999 2.70029 84.8999 2.30029C73.5999 0.600289 62.2999 0.500301 50.9999 1.5003C45.6999 2.0003 40.3999 2.7003 35.3999 4.5003C33.7999 5.1003 31.4999 5.5003 30.3999 7.0003C29.2999 8.6003 29.7999 10.7003 31.3999 11.8003C32.1999 12.3003 33.0999 12.6003 33.9999 13.0003C35.3999 13.5003 36.6999 14.0003 38.0999 14.4003C40.6999 15.2003 43.3999 15.7003 46.0999 16.1003C51.8999 16.9003 57.6999 17.0003 63.5999 17.5003C65.3999 17.5003 65.3999 14.5003 63.4999 14.4003Z" fill="#9C7EB8"/>
<path d="M96.9997 109.1C98.7997 107.7 101.2 107.2 103.2 108.5C104.8 109.5 105.8 111.6 105.2 113.5C104.9 114.5 104.2 115.401 103.3 115.901C102.7 116.301 101.9 116.4 101.5 117C101 117.7 101.1 118.5 101.1 119.3C101.1 120.6 101.1 121.9 101.1 123.1C101.1 124.4 101.1 125.701 101.1 126.901C101.1 127.601 101.1 128.201 101.6 128.701C102.1 129.201 102.9 129.301 103.5 129.701C104.3 130.301 104.8 131.001 105.1 131.901C105.6 133.901 104.9 135.901 103.1 136.901C100.8 138.201 98.7997 137.601 96.7997 136.201C96.5997 136.001 96.2997 136.101 95.9997 136.201C92.6997 138.001 89.4997 139.8 86.1997 141.5C85.8997 141.7 85.7997 142 85.8997 142.3C86.3997 145.1 84.9997 147 82.3997 148C82.0997 148.1 81.7997 148.401 81.7997 148.701C81.7997 152.301 81.7997 155.801 81.7997 159.401C81.7997 159.801 81.9997 160 82.3997 160.1C84.4997 160.9 86.1997 162.301 86.1997 164.701C86.0997 167.301 83.7997 169.1 81.2997 169.1C80.4997 169.1 79.7997 168.9 79.1997 168.5C78.6997 168.3 78.2997 167.901 77.7997 167.701C76.7997 167.401 75.8997 168.1 75.0997 168.5C72.3997 170 69.7997 171.4 67.0997 172.8C66.7997 173 66.6997 173.3 66.7997 173.6C67.3997 176.7 65.2997 179.5 61.9997 179.5C58.7997 179.4 56.8997 176.601 57.3997 173.701C57.4997 173.401 57.3997 173.001 57.0997 172.901C53.7997 171.101 50.4997 169.3 47.2997 167.6C46.9997 167.4 46.6997 167.501 46.3997 167.701C44.9997 168.801 43.3997 169.401 41.6997 168.901C40.2997 168.501 38.8997 167.601 38.2997 166.201C37.1997 163.401 39.0997 161 41.6997 160.1C41.9997 160 42.2997 159.701 42.2997 159.401C42.2997 155.801 42.2997 152.301 42.2997 148.701C42.2997 148.401 42.0997 148.1 41.6997 148C38.6997 147 36.6997 143.6 39.0997 140.8C41.0997 138.4 44.3997 138.8 46.5997 140.6C46.7997 140.8 47.0997 140.7 47.3997 140.6C50.6997 138.8 53.8997 137.1 57.1997 135.3C57.3997 135.2 57.5997 134.901 57.5997 134.701C57.5997 133.201 57.3997 131.9 58.2997 130.6C59.0997 129.6 60.1997 129.501 61.0997 128.701C61.8997 128.101 61.6997 127 61.6997 126.1C61.6997 124.6 61.6997 123 61.6997 121.5C61.6997 120.3 61.8997 118.8 61.5997 117.6C61.2997 116.6 60.4997 116.4 59.6997 116C57.6997 114.8 57.1997 113.001 57.5997 110.701C57.6997 110.401 57.5997 110.001 57.2997 109.901C53.8997 107.801 50.4997 105.801 47.0997 103.701C46.8997 103.601 46.5997 103.601 46.2997 103.701C43.6997 105.501 39.8997 105.4 38.3997 102.3C36.9997 99.6005 39.0997 96.5005 41.8997 95.9005C44.6997 95.4005 47.7997 97.5005 47.6997 100.5C47.6997 101.5 47.2997 102.3 48.1997 103C49.4997 104.1 51.1997 104.901 52.6997 105.701C54.1997 106.601 55.6997 107.7 57.2997 108.6C58.7997 109.4 59.4997 108.201 60.9997 107.901C62.5997 107.501 63.8997 108.1 65.2997 108.8C66.5997 109.5 67.5997 108.7 68.6997 108.1C70.1997 107.3 71.7997 106.4 73.2997 105.6C74.2997 105.1 76.2997 104.5 76.6997 103.3C76.7997 102.8 76.6997 102.3 76.5997 101.8C76.5997 101.1 76.6997 100.4 76.8997 99.8005C77.5997 98.2005 79.3997 97.1005 81.1997 97.0005C83.0997 96.9005 85.1997 98.1005 85.9997 99.8005C86.2997 100.5 86.3997 101.3 86.2997 102C86.2997 102.5 86.1997 103 86.3997 103.5C86.7997 104.1 87.5997 104.4 88.1997 104.8C89.0997 105.3 89.8997 105.701 90.7997 106.201C92.6997 107.201 94.4997 108.201 96.3997 109.201C97.1997 109.701 97.9997 108.401 97.1997 107.901C95.2997 106.901 93.4997 105.901 91.5997 104.901C90.6997 104.401 89.8997 104 88.9997 103.5C88.4997 103.3 87.8997 103.1 87.7997 102.5C87.6997 102.1 87.8997 101.7 87.8997 101.3C87.7997 98.3005 85.1997 95.9005 82.2997 95.5005C79.3997 95.1005 76.1997 97.0005 75.3997 99.9005C75.1997 100.501 75.1997 101.2 75.1997 101.8C75.1997 102 75.3997 102.6 75.2997 102.8C75.1997 103.1 74.0997 103.5 73.8997 103.6C72.1997 104.5 70.3997 105.501 68.6997 106.401C68.1997 106.701 67.6997 107.001 67.1997 107.201C66.5997 107.501 66.1997 107.4 65.5997 107.1C64.8997 106.8 64.2997 106.4 63.4997 106.3C62.0997 106 60.5997 106.3 59.2997 107C58.6997 107.3 58.4997 107.4 57.7997 107C57.3997 106.8 56.9997 106.501 56.4997 106.201C55.5997 105.601 54.6997 105.1 53.7997 104.5C52.8997 103.9 51.9997 103.4 51.0997 102.8C50.6997 102.5 50.1997 102.3 49.7997 102C49.2997 101.6 49.2997 101.6 49.2997 101.1C49.4997 98.4005 48.3997 96.0005 45.7997 94.9005C43.1997 93.7005 40.1997 94.2005 38.2997 96.3005C36.1997 98.6005 36.0997 102 38.1997 104.3C40.5997 106.9 44.3997 106.901 47.1997 104.901C46.8997 104.901 46.6997 104.901 46.3997 104.901C49.7997 107.001 53.1997 109 56.5997 111.1C56.4997 110.8 56.3997 110.5 56.2997 110.3C55.8997 112.1 55.8997 114.1 57.0997 115.6C57.5997 116.3 58.2997 116.8 59.0997 117.3C59.2997 117.4 59.5997 117.501 59.8997 117.701C60.3997 118.001 60.2997 118.2 60.2997 118.8C60.2997 119.6 60.2997 120.401 60.2997 121.201C60.2997 122.701 60.2997 124.3 60.2997 125.8C60.2997 126.1 60.3997 126.7 60.2997 127C60.1997 127.5 60.2997 127.4 59.7997 127.6C59.2997 127.9 58.7997 128.001 58.3997 128.401C56.2997 129.901 56.1997 132.1 56.1997 134.5C56.2997 134.3 56.3997 134.101 56.5997 133.901C53.2997 135.701 50.0997 137.401 46.7997 139.201C47.0997 139.201 47.2997 139.201 47.5997 139.201C44.5997 136.901 40.0997 136.9 37.7997 140.3C36.5997 142 36.4997 144.2 37.3997 146.1C38.1997 147.8 39.7997 148.801 41.5997 149.401C41.3997 149.201 41.1997 148.901 40.9997 148.701C40.9997 152.301 40.9997 155.801 40.9997 159.401C41.1997 159.201 41.3997 158.901 41.5997 158.701C39.8997 159.301 38.2997 160.201 37.4997 161.901C36.6997 163.501 36.6997 165.5 37.3997 167.1C38.1997 168.8 39.9997 170.001 41.7997 170.401C43.9997 170.901 45.9997 170.101 47.7997 168.701C47.4997 168.701 47.1997 168.8 46.8997 168.8C50.1997 170.6 53.4997 172.4 56.6997 174.1C56.5997 173.8 56.4997 173.5 56.3997 173.3C56.0997 175.1 56.1997 176.901 57.2997 178.401C58.4997 180.001 60.4997 181 62.4997 181.1C64.4997 181.1 66.5997 180.1 67.7997 178.5C68.9997 177 69.0997 175.1 68.7997 173.3C68.6997 173.6 68.5997 173.9 68.4997 174.1C70.1997 173.2 71.7997 172.301 73.4997 171.401C74.2997 171.001 75.0997 170.5 75.8997 170.1C76.2997 169.9 76.7997 169.601 77.1997 169.401C77.8997 169.101 78.0997 169.2 78.6997 169.5C79.9997 170.1 81.0997 170.6 82.5997 170.5C83.8997 170.4 85.1997 169.8 86.2997 169C88.0997 167.6 88.7997 165.3 88.2997 163.1C87.7997 160.7 85.7997 159.4 83.5997 158.5C83.7997 158.7 83.9997 159.001 84.1997 159.201C84.1997 155.601 84.1997 152.1 84.1997 148.5C83.9997 148.7 83.7997 149.001 83.5997 149.201C86.9997 147.901 88.7997 145.301 88.1997 141.701C88.0997 142.001 87.9997 142.3 87.8997 142.5C91.1997 140.7 94.3997 138.901 97.6997 137.201C97.3997 137.201 97.1997 137.201 96.8997 137.201C98.4997 138.301 99.9997 139.101 102 138.901C103.7 138.701 105.3 137.9 106.4 136.6C108.4 134.2 108 130.301 105.5 128.401C105 128.001 103.8 127.7 103.4 127.1C103.2 126.8 103.4 125.801 103.4 125.401C103.4 124.701 103.4 124.001 103.4 123.201C103.4 122.001 103.4 120.8 103.4 119.6C103.4 119.1 103.3 118.401 103.4 117.901C103.6 117.201 104.2 117.2 104.7 116.8C107.6 115.1 108.5 111.4 106.6 108.6C105.6 107.1 104.1 106.201 102.3 105.901C100.2 105.501 98.2997 106.3 96.5997 107.6C95.1997 108.7 96.2997 109.7 96.9997 109.1Z" fill="#9777B4"/>
<path d="M57.4993 136.3C54.1993 138.1 50.8993 139.9 47.6993 141.7C47.3993 141.9 47.2993 142.2 47.3993 142.5C47.5993 143.9 47.4993 145.4 46.4993 146.5C45.6993 147.4 43.9993 147.7 43.4993 148.9C43.1993 149.7 43.3993 150.9 43.3993 151.8C43.3993 152.8 43.3993 153.7 43.3993 154.7C43.3993 155.8 43.3993 157 43.3993 158.1C43.3993 158.8 43.2993 159.5 43.7993 160C44.1993 160.5 44.8993 160.7 45.4993 161C46.0993 161.4 46.5993 161.8 46.9993 162.4C47.3993 163 47.4993 163.6 47.5993 164.3C47.5993 164.9 47.4993 165.6 47.6993 166.2C47.8993 166.9 48.4993 167.1 49.0993 167.4C49.9993 167.9 50.9993 168.4 51.8993 168.9C53.7993 170 55.7993 171 57.6993 172C57.8993 172.1 58.1993 172.2 58.4993 172C59.7993 171.1 61.1993 170.3 62.8993 170.6C63.6993 170.8 64.3993 171.1 65.0993 171.5C65.8993 171.9 66.0993 172.2 66.8993 171.8C68.6993 171 70.3993 169.9 72.1993 168.9C73.0993 168.4 73.9993 167.9 74.8993 167.4C75.5993 167 76.2993 166.8 76.5993 166C76.7993 165.5 76.6993 164.9 76.6993 164.3C76.6993 163.6 76.8993 162.9 77.1993 162.3C77.5993 161.7 78.0993 161.2 78.6993 160.8C79.1993 160.5 79.8993 160.3 80.2993 159.9C80.7993 159.4 80.7993 158.9 80.7993 158.2C80.7993 157.1 80.7993 156.1 80.7993 155C80.7993 152.9 80.7993 150.8 80.7993 148.6C80.7993 148.2 80.5993 148 80.1993 147.9C78.5993 147.3 77.0993 146.3 76.6993 144.6C76.3993 143.5 76.9993 142.3 76.0993 141.3C75.6993 140.9 74.8993 140.6 74.3993 140.3C73.4993 139.8 72.5993 139.3 71.7993 138.9C70.0993 138 68.2993 137 66.5993 136.1C66.2993 135.9 65.9993 136 65.6993 136.2C63.4993 137.9 60.7993 138 58.6993 136.2C57.9993 135.6 56.8993 136.6 57.5993 137.3C60.3993 139.7 63.8993 139.6 66.7993 137.3C66.4993 137.3 66.1993 137.4 65.8993 137.4C67.6993 138.4 69.4993 139.4 71.3993 140.4C72.2993 140.9 73.2993 141.4 74.2993 141.9C74.4993 142 75.0993 142.2 75.1993 142.4C75.3993 142.7 75.1993 143.2 75.1993 143.5C74.9993 146.5 77.3993 148.4 79.8993 149.4C79.6993 149.2 79.4993 148.9 79.2993 148.7C79.2993 151.6 79.2993 154.4 79.2993 157.3C79.2993 157.7 79.3993 158.2 79.2993 158.5C79.1993 158.9 79.1993 158.9 78.8993 159.1C78.4993 159.4 77.9993 159.6 77.5993 159.9C76.9993 160.4 76.3993 161 75.9993 161.7C75.5993 162.4 75.3993 163.1 75.2993 163.8C75.1993 164.3 75.3993 164.8 75.2993 165.3C75.1993 165.9 74.1993 166.3 73.5993 166.6C71.0993 168 68.4993 169.4 65.9993 170.7C66.2993 170.7 66.4993 170.7 66.7993 170.7C65.3993 169.9 63.7993 169 62.1993 169C60.5993 169 59.1993 169.8 57.8993 170.7C58.1993 170.7 58.3993 170.7 58.6993 170.7C56.7993 169.7 54.9993 168.7 53.0993 167.7C52.1993 167.2 51.3993 166.8 50.4993 166.3C50.0993 166.1 49.3993 165.9 49.2993 165.4C49.1993 165.1 49.2993 164.7 49.2993 164.4C49.1993 163.3 48.9993 162.2 48.2993 161.3C47.9993 160.8 47.5993 160.4 47.0993 160.1C46.7993 159.9 46.4993 159.7 46.1993 159.5C45.9993 159.4 45.3993 159.2 45.1993 159C44.7993 158.4 45.0993 156.8 45.0993 156.1C45.0993 155.1 45.0993 154 45.0993 153C45.0993 152 44.9993 150.9 45.0993 149.9C45.1993 149.1 46.0993 149 46.6993 148.6C48.8993 147.1 49.4993 144.7 48.9993 142.2C48.8993 142.5 48.7993 142.8 48.6993 143C51.9993 141.2 55.2993 139.4 58.4993 137.6C59.0993 137.2 58.3993 135.9 57.4993 136.3Z" fill="#9777B4"/>
<path d="M95.4998 110.301C92.1998 108.501 88.8998 106.701 85.6998 105.001C85.3998 104.801 85.0998 104.901 84.7998 105.101C82.6998 106.901 79.8998 106.901 77.7998 105.101C77.4998 104.901 77.1998 104.801 76.8998 105.001C74.1998 106.501 71.4998 107.901 68.7998 109.401C67.8998 109.901 66.8998 110.201 66.8998 111.401C66.8998 112.501 66.9998 113.401 66.4998 114.501C65.8998 115.501 64.9998 116.101 63.9998 116.601C62.9998 117.101 62.7998 117.601 62.7998 118.701C62.7998 121.901 62.7998 125.101 62.7998 128.201C62.7998 128.401 62.8998 128.701 63.1998 128.801C64.3998 129.301 65.6998 129.901 66.4998 131.101C67.1998 132.201 67.0998 133.501 66.9998 134.801C66.9998 135.001 67.1998 135.301 67.3998 135.401C70.6998 137.201 73.8998 139.001 77.1998 140.701C77.4998 140.901 77.7998 140.801 78.0998 140.601C80.2998 138.901 82.9998 138.901 85.1998 140.601C85.4998 140.801 85.7998 140.901 86.0998 140.701C89.2998 138.901 92.5998 137.201 95.7998 135.401C96.0998 135.201 96.1998 134.901 96.0998 134.601C95.8998 133.301 95.8998 131.901 96.6998 130.901C97.0998 130.401 97.6998 129.901 98.1998 129.601C98.6998 129.301 99.3998 129.101 99.6998 128.601C100.1 128.001 99.9998 127.301 99.9998 126.701C99.9998 125.701 99.9998 124.801 99.9998 123.801C99.9998 121.801 99.9998 119.701 99.9998 117.701C99.9998 117.301 99.7998 117.101 99.3998 117.001C96.8998 116.101 95.4998 114.001 95.9998 111.401C96.1998 110.501 94.6998 110.101 94.5998 111.001C93.8998 114.501 95.6998 117.301 98.9998 118.501C98.7998 118.301 98.5998 118.001 98.3998 117.801C98.3998 119.901 98.3998 122.001 98.3998 124.101C98.3998 125.101 98.3998 126.201 98.3998 127.301C98.3998 128.001 98.2998 128.001 97.6998 128.301C97.3998 128.501 97.0998 128.601 96.8998 128.801C94.6998 130.401 94.1998 132.601 94.5998 135.201C94.6998 134.901 94.7998 134.601 94.8998 134.401C91.6998 136.201 88.3998 137.901 85.1998 139.701C85.4998 139.701 85.7998 139.801 86.0998 139.801C83.1998 137.501 79.7998 137.501 76.8998 139.801C77.1998 139.801 77.4998 139.701 77.7998 139.701C74.4998 137.901 71.2998 136.101 67.9998 134.401C68.0998 134.601 68.1998 134.801 68.3998 135.001C68.5998 133.501 68.5998 131.901 67.6998 130.601C66.7998 129.201 65.3998 128.401 63.8998 127.801C63.9998 128.001 64.0998 128.201 64.2998 128.401C64.2998 125.601 64.2998 122.701 64.2998 119.901C64.2998 119.501 64.1998 119.001 64.2998 118.701C64.3998 118.301 64.3998 118.301 64.7998 118.101C65.1998 117.801 65.6998 117.601 66.0998 117.301C66.7998 116.801 67.3998 116.201 67.7998 115.501C68.1998 114.801 68.3998 114.101 68.4998 113.301C68.4998 112.901 68.3998 112.201 68.4998 111.801C68.5998 111.301 69.5998 111.001 70.0998 110.701C72.6998 109.301 75.1998 107.901 77.7998 106.501C77.4998 106.501 77.1998 106.401 76.8998 106.401C79.6998 108.701 83.1998 108.701 85.9998 106.401C85.6998 106.401 85.3998 106.501 85.0998 106.501C88.3998 108.301 91.6998 110.101 94.8998 111.801C95.5998 112.001 96.2998 110.701 95.4998 110.301Z" fill="#9777B4"/>
<path d="M99.8002 52.7005L93.7002 53.8004C89.4002 54.6004 85.4002 51.8004 84.6002 47.5004C83.8002 43.2004 86.6002 39.2005 90.9002 38.4005L97.0002 37.3004C101.3 36.5004 105.3 39.3004 106.1 43.6004C106.8 47.9004 104 51.9005 99.8002 52.7005Z" fill="#D7C5E2"/>
</svg>
