<svg width="143" height="235" viewBox="0 0 143 235" fill="none" xmlns="http://www.w3.org/2000/svg">
<path d="M44.4005 58.2998C60.5005 61.8998 76.2006 61.6998 91.9006 59.1998C95.5006 58.5998 96.7005 59.0998 96.5005 63.1998C96.1005 71.7998 97.4005 80.3998 98.6005 88.8998C100.101 99.6998 107.601 107.1 113.901 115C121.501 124.4 128.901 133.9 134.001 145C146.101 171.4 139.901 197.8 117.401 215.9C116.001 217 114.801 217.8 114.601 220.1C114.301 223.5 111.201 225.2 108.401 226.8C102.401 230.2 95.7005 231.8 89.0005 232.3C72.9005 233.6 56.8005 234.8 41.0005 229.8C35.0005 227.9 28.4005 226.2 27.2005 218C27.0005 216.9 25.2005 215.9 24.0005 215C10.7005 204.5 3.00054 190.8 1.70054 173.8C0.800541 161.5 5.10054 150.3 10.7005 139.7C15.9005 129.8 22.4005 120.8 29.8005 112.7C40.5005 101.1 44.6005 87.4998 44.4005 72.0998C44.4005 67.5998 44.4005 62.9998 44.4005 58.2998Z" fill="#E9D8EB"/>
<path d="M36 9.29922C59.9 15.5992 83.3 14.9992 107.1 9.19922C106.2 17.8992 105.3 26.5992 104.5 35.2992C104.3 37.7992 103.8 39.5992 101.5 39.9992C82.2 42.6992 62.9 44.5992 43.5 40.6992C39.9 39.9992 39.2 37.8992 38.8 34.1992C37.9 25.8992 36.9 17.5992 36 9.29922Z" fill="#E3BAD4"/>
<path d="M98.7004 60.5996C98.7004 63.5996 96.3004 65.9996 93.3004 65.9996C93.3004 65.9996 75.3004 68.0996 69.6004 68.0996C64.4004 68.0996 49.8004 65.9996 49.8004 65.9996C46.8004 65.9996 44.4004 63.5996 44.4004 60.5996V58.9996C44.4004 55.9996 46.8004 53.5996 49.8004 53.5996H93.3004C96.3004 53.5996 98.7004 55.9996 98.7004 58.9996V60.5996Z" fill="#DAC9E4"/>
<path d="M103.201 37.9992L88.3008 40.3992V15.8992L107.101 9.19922L103.201 37.9992Z" fill="#CB9DB4"/>
<path d="M86.3006 66.7998L87.5006 88.9998C87.5006 88.9998 89.1006 103.7 95.8006 110.9C95.8006 110.9 123.201 128.1 126.301 166.3C126.301 166.3 134.601 189.8 102.501 220.9C102.501 220.9 79.0006 233.4 49.1006 222.3C49.1006 222.3 91.0006 233.6 117.301 216C117.301 216 140.401 209.1 140.801 170.7C140.801 170.7 145.701 145 109.701 109C109.701 109 96.4006 91.4998 98.0006 78.2998L97.3006 63.2998L86.3006 66.7998Z" fill="#DAC9E4"/>
<path d="M44.8004 59.6995C54.3004 61.7995 64.1004 62.6995 73.9004 62.4995C78.7004 62.3995 83.5004 61.9995 88.2004 61.3995C90.3004 61.0995 92.4004 60.5995 94.4004 60.5995C94.7004 60.5995 95.2004 60.5995 95.4004 60.6995C95.5004 60.7995 95.7004 61.0995 95.7004 61.4995C96.0004 63.4995 95.6004 65.5995 95.7004 67.5995C95.7004 69.9995 95.9004 72.4995 96.1004 74.8995C96.5004 79.6995 97.2004 84.4995 97.9004 89.2995C99.0004 97.2995 103.6 103.799 108.6 109.899C119.5 123.199 131.2 136.799 136.5 153.499C141 167.699 140.2 183.199 132.9 196.299C129.1 203.099 123.9 209.099 117.9 213.999C116.7 214.999 115.3 215.899 114.6 217.299C113.8 218.899 114.1 220.699 113 222.099C111.9 223.499 110.3 224.299 108.8 225.199C106.9 226.299 104.9 227.199 102.8 227.999C98.6004 229.499 94.3004 230.299 89.8004 230.699C85.1004 231.099 80.3004 231.499 75.6004 231.699C66.1004 232.099 56.4004 231.899 47.1004 229.599C43.6004 228.799 40.0004 227.699 36.7004 226.299C34.0004 225.199 31.6004 223.499 30.4004 220.799C29.7004 219.299 29.8004 217.399 28.8004 216.099C27.7004 214.799 26.0004 213.899 24.7004 212.799C21.8004 210.399 19.1004 207.799 16.6004 204.899C6.60043 193.199 1.80041 176.599 4.80041 161.399C6.50041 152.699 10.3004 144.599 14.6004 136.999C19.0004 129.199 24.2004 121.899 30.2004 115.299C32.9004 112.199 35.6004 109.199 37.9004 105.699C40.0004 102.499 41.7004 98.9995 43.0004 95.3995C45.8004 87.9995 46.8004 80.0995 46.7004 72.1995C46.7004 67.4995 46.7004 62.8995 46.7004 58.1995C46.7004 56.2995 43.7004 56.2995 43.7004 58.1995C43.7004 63.0995 43.7004 67.8995 43.7004 72.7995C43.7004 76.8995 43.4004 80.9995 42.7004 84.9995C41.3004 92.8995 38.2004 100.299 33.5004 106.799C30.9004 110.399 27.7004 113.499 24.9004 116.799C22.0004 120.299 19.3004 123.899 16.8004 127.699C11.8004 135.199 7.40041 143.299 4.30041 151.899C1.30041 160.299 0.20042 168.999 1.50042 177.899C2.50042 185.399 5.00041 192.799 8.90041 199.299C12.8004 205.899 18.2004 211.899 24.4004 216.399C25.0004 216.799 26.0004 217.299 26.4004 217.899C26.8004 218.499 26.8004 219.599 27.0004 220.299C27.5004 221.899 28.3004 223.399 29.3004 224.699C31.3004 227.099 34.1004 228.499 36.9004 229.599C45.2004 232.699 54.0004 234.299 62.9004 234.699C67.8004 234.899 72.7004 234.799 77.5004 234.499C82.3004 234.199 87.2004 233.999 92.0004 233.399C96.5004 232.899 101 231.899 105.2 230.099C107.2 229.299 109.1 228.299 111 227.199C112.5 226.299 114.1 225.299 115.2 223.899C115.7 223.199 116.1 222.499 116.4 221.699C116.7 220.799 116.6 219.799 117 218.899C117.6 217.499 119.4 216.499 120.5 215.599C123.6 212.999 126.5 210.099 129.1 206.899C138.8 194.999 143.6 179.899 141.8 164.699C139.7 146.999 129.9 131.999 119.1 118.199C116.5 114.899 113.8 111.599 111.1 108.299C108.6 105.199 106.1 102.099 104.2 98.5995C102.1 94.8995 101.1 90.9995 100.5 86.7995C99.8004 81.7995 99.1004 76.7995 98.8004 71.6995C98.6004 69.1995 98.6004 66.6995 98.7004 64.1995C98.7004 62.5995 98.9004 60.8995 98.2004 59.3995C96.6004 56.3995 92.5004 57.7995 89.9004 58.0995C80.1004 59.4995 70.1004 59.8995 60.2004 59.0995C55.3004 58.6995 50.4004 57.8995 45.6004 56.7995C43.7004 56.3995 42.9004 59.2995 44.8004 59.6995Z" fill="#AA7FB7"/>
<path d="M70 60.8C60.6 61 51.5 59.6 42.4 57.7C35.8 56.3 31.7 45.3 35.7 39.9C36.8 38.4 38.1 37.6 40.4 38.1C60.8 43 81.3 41.8 101.7 38.5C106.2 37.8 109.4 36.9 110.9 42.1C112.7 48.4 109.7 55.3 104.1 56.7C93.7999 59.4 83.1999 60.5 72.5999 60.7C71.6999 60.8 70.8 60.8 70 60.8Z" fill="#E9D8EB"/>
<path d="M70.0006 59.2992C63.3006 59.3992 56.7006 58.7992 50.1006 57.5992C48.5006 57.2992 46.9006 56.9992 45.4006 56.6992C44.2006 56.4992 42.8006 56.2992 41.7006 55.7992C40.0006 55.0992 38.6006 53.5992 37.7006 52.0992C35.9006 49.0992 34.7006 44.6992 36.5006 41.3992C36.9006 40.6992 37.5006 39.7992 38.3006 39.4992C39.5006 38.9992 41.3006 39.7992 42.5006 39.9992C45.7006 40.6992 48.9006 41.1992 52.1006 41.6992C65.4006 43.4992 78.9006 42.9992 92.2006 41.3992C95.4006 40.9992 98.6006 40.4992 101.801 39.9992C103.501 39.6992 105.701 38.9992 107.401 39.4992C109.201 39.9992 109.701 42.3992 110.001 43.9992C110.301 46.1992 110.001 48.5992 109.101 50.6992C108.101 52.8992 106.301 54.5992 104.001 55.1992C100.501 56.1992 96.8006 56.8992 93.1006 57.4992C85.2006 58.8992 77.6006 59.2992 70.0006 59.2992C68.1006 59.2992 68.1006 62.2992 70.0006 62.2992C77.4006 62.2992 84.8006 61.7992 92.1006 60.6992C95.8006 60.1992 99.4006 59.3992 103.001 58.4992C105.601 57.7992 107.901 56.7992 109.701 54.6992C113.001 50.6992 113.801 44.3992 111.401 39.6992C109.001 34.8992 103.401 36.6992 99.2006 37.2992C84.5006 39.5992 69.5006 40.6992 54.7006 38.9992C50.9006 38.5992 47.2006 37.9992 43.5006 37.1992C40.6006 36.5992 37.7006 35.4992 35.3006 37.6992C31.9006 40.7992 32.0006 46.1992 33.4006 50.1992C34.2006 52.4992 35.5006 54.6992 37.3006 56.3992C39.6006 58.4992 42.2006 58.9992 45.2006 59.5992C53.4006 61.1992 61.6006 62.2992 69.9006 62.0992C71.9006 62.2992 71.9006 59.2992 70.0006 59.2992Z" fill="#AA7FB7"/>
<path d="M35.8007 7.99933C54.2007 12.7993 73.3007 13.6993 92.1007 10.8993C97.5007 10.0993 102.801 8.99933 108.001 7.79933C107.501 7.59933 106.901 7.39933 106.401 7.19933C105.501 15.6993 104.601 24.0993 103.801 32.5993C103.701 33.7993 103.701 35.6993 102.801 36.6993C102.301 37.1993 101.501 37.0993 100.801 37.1993C99.7007 37.2993 98.7007 37.4993 97.6007 37.5993C93.4007 38.1993 89.2008 38.6993 84.9008 39.0993C76.5008 39.8993 68.1008 40.1993 59.7008 39.5993C55.4008 39.2993 51.1007 38.7993 46.8007 37.9993C45.4007 37.6993 43.8008 37.5993 42.6008 36.6993C41.7008 35.9993 41.3008 34.8993 41.1008 33.8993C40.7008 31.9993 40.6008 30.0993 40.4008 28.1993C40.2008 25.7993 39.9008 23.4993 39.7008 21.0993C39.2008 16.2993 38.6008 11.4993 38.1008 6.69933C38.0008 5.69933 35.1008 6.39933 35.2008 7.49933C35.7008 11.9993 36.2008 16.5993 36.7008 21.0993C37.2008 25.2993 37.4008 29.6993 38.1008 33.8993C38.5008 36.4993 39.9008 38.2993 42.5008 39.0993C46.7008 40.2993 51.3008 40.6993 55.7008 41.0993C64.7008 41.8993 73.9008 41.6993 82.9008 40.8993C87.5008 40.4993 92.0008 39.9993 96.5008 39.3993C98.6008 39.0993 100.901 38.9993 102.901 38.4993C104.201 38.0993 105.301 37.2993 105.901 36.0993C106.701 34.3993 106.601 32.1993 106.801 30.3993C107.001 27.8993 107.301 25.2993 107.601 22.7993C108.101 17.4993 108.701 12.2993 109.201 6.99933C109.301 6.19933 108.001 6.29933 107.601 6.39933C89.8007 10.6993 71.3008 12.1993 53.2008 9.59933C48.0008 8.89933 42.8008 7.79933 37.6008 6.39933C37.0008 6.19933 36.0008 6.49933 35.6008 6.89933C35.0008 7.39933 35.2007 7.89933 35.8007 7.99933Z" fill="#AA7FB7"/>
<path d="M71.7004 14.9997C62.1004 15.2997 52.6004 14.9997 43.2004 12.4997C42.0004 12.1997 40.8004 11.7997 39.6004 11.1997C38.5004 10.6997 36.8004 10.2997 37.1004 8.59969C37.2004 7.79969 38.6004 6.99969 39.6004 6.59969C43.8004 4.79969 48.3004 3.89969 52.7004 3.19969C69.5004 0.699694 86.2004 0.799693 102.7 4.99969C103.6 5.19969 104.5 5.49969 105.3 5.89969C106.5 6.49969 108.5 6.59969 108.3 8.79969C108.2 10.3997 106.6 10.7997 105.5 11.2997C98.6004 14.1997 91.4004 14.2997 84.2004 14.9997C80.0004 15.2997 75.8004 14.9997 71.7004 14.9997Z" fill="#E3BAD4"/>
<path d="M71.3009 13.7997C66.3009 13.9997 61.3009 13.9997 56.4009 13.4997C51.6009 13.0997 46.6009 12.4997 42.1009 10.8997C41.2009 10.5997 40.4009 10.1997 39.6009 9.89969C39.0009 9.59969 38.2009 9.39969 38.1009 8.69969C37.9009 7.79969 39.1009 7.49969 39.7009 7.19969C40.9009 6.69969 42.1009 6.29969 43.3009 5.89969C47.9009 4.49969 52.8009 3.79969 57.6009 3.29969C67.5009 2.19969 77.5009 1.99969 87.3009 3.19969C92.2009 3.79969 97.2009 4.59969 102.001 5.99969C102.901 6.19969 103.601 6.59969 104.401 6.99969C104.901 7.19969 105.601 7.29969 106.001 7.79969C107.301 9.49969 104.401 10.2997 103.301 10.6997C98.4009 12.5997 93.0009 13.0997 87.8009 13.4997C85.1009 13.6997 82.4008 13.9997 79.6008 13.9997C76.9008 13.8997 74.1009 13.7997 71.3009 13.7997C69.7009 13.7997 69.1009 15.7997 71.0009 15.7997C73.9009 15.7997 76.8008 15.8997 79.6008 15.8997C82.3008 15.8997 85.1009 15.5997 87.8009 15.3997C93.2009 14.9997 98.7009 14.3997 103.801 12.4997C105.401 11.8997 107.801 11.2997 108.701 9.69969C109.601 8.19969 109.101 6.39969 107.601 5.59969C105.701 4.59969 103.601 3.99969 101.501 3.49969C98.9009 2.89969 96.2009 2.29969 93.5009 1.89969C82.3009 -0.000309825 70.8009 -0.100309 59.4009 1.09969C53.9009 1.69969 48.4009 2.39969 43.1009 3.89969C40.8009 4.59969 38.1009 5.29969 36.1009 6.79969C34.7009 7.89969 34.4009 9.79969 36.0009 10.9997C37.8009 12.2997 40.4009 12.9997 42.6009 13.4997C45.7009 14.2997 48.8009 14.7997 51.9009 15.1997C58.2009 15.9997 64.6009 15.9997 70.9009 15.7997C72.6009 15.7997 73.3009 13.6997 71.3009 13.7997Z" fill="#AA7FB7"/>
<path d="M80.0004 198.6C76.8004 198.8 73.5004 198.7 70.4004 197.9C68.6004 197.5 66.9004 197.1 65.1004 196.5C61.3004 195.3 57.8004 193.4 54.5004 191.2C51.5004 189.1 48.8004 186.8 46.5004 183.9C45.4004 182.5 44.5004 181 43.4004 179.6C41.4004 177 40.4004 173.9 39.2004 170.8C38.2004 168.1 37.9004 165.3 37.4004 162.5C37.0004 160 37.3004 157.5 37.3004 155C37.3004 152.5 38.1004 150.2 38.6004 147.8C39.1004 145.4 40.2004 143.3 41.1004 141.1C43.4004 136 46.7004 131.8 50.8004 128.1C53.2004 126 55.8004 124.3 58.5004 122.8C61.1004 121.3 63.8004 120.1 66.7004 119.3C68.3004 118.9 70.0004 119.8 70.3004 121.3C70.5004 122.2 70.1004 122.9 69.6004 123.6C67.9004 126 66.3004 128.4 65.4004 131.2C64.5004 133.9 63.6004 136.7 63.7004 139.7C63.8004 141.8 63.6004 144 63.9004 146.1C64.4004 149.2 65.2004 152.3 66.8004 155.1C67.5004 156.3 68.2004 157.6 69.0004 158.8C71.0004 161.5 73.2004 164.1 76.1004 165.9C77.9004 167 79.7004 168.2 81.7004 169.1C83.8004 170 86.0004 170.7 88.2004 171.2C90.3004 171.6 92.5004 171.9 94.7004 171.8C98.2004 171.7 101.6 171.3 104.9 169.9C108.2 168.5 111.3 166.8 114 164.5C114.9 163.7 115.9 163.4 117.1 163.8C118.4 164.3 119 165.3 118.7 166.6C117.9 170.1 116.7 173.5 115.1 176.7C113.9 179 112.4 181.2 110.8 183.3C109.2 185.5 107.3 187.2 105.3 188.9C102.9 191.1 100.1 192.6 97.3004 194.2C93.6004 196.3 89.6004 197.5 85.4004 198.1C83.7004 198.4 81.9004 198.6 80.2004 198.9C80.0004 198.8 80.0004 198.7 80.0004 198.6Z" fill="#B399C9"/>
<path d="M80.0004 198.6C76.8004 198.8 73.5004 198.7 70.4004 197.9C68.6004 197.5 66.9004 197.1 65.1004 196.5C61.3004 195.3 57.8004 193.4 54.5004 191.2C51.5004 189.1 48.8004 186.8 46.5004 183.9C45.4004 182.5 44.5004 181 43.4004 179.6C41.4004 177 40.4004 173.9 39.2004 170.8C38.2004 168.1 37.9004 165.3 37.4004 162.5C37.0004 160 37.3004 157.5 37.3004 155C37.3004 152.5 38.1004 150.2 38.6004 147.8C39.1004 145.4 40.2004 143.3 41.1004 141.1C43.4004 136 46.7004 131.8 50.8004 128.1C53.2004 126 55.8004 124.3 58.5004 122.8C61.1004 121.3 63.8004 120.1 66.7004 119.3C68.3004 118.9 70.0004 119.8 70.3004 121.3C70.5004 122.2 70.1004 122.9 69.6004 123.6C67.9004 126 66.3004 128.4 65.4004 131.2C64.5004 133.9 63.6004 136.7 63.7004 139.7C63.8004 141.8 63.6004 144 63.9004 146.1C64.4004 149.2 65.2004 152.3 66.8004 155.1C67.5004 156.3 68.2004 157.6 69.0004 158.8C71.0004 161.5 73.2004 164.1 76.1004 165.9C77.9004 167 79.7004 168.2 81.7004 169.1C83.8004 170 86.0004 170.7 88.2004 171.2C90.3004 171.6 92.5004 171.9 94.7004 171.8C98.2004 171.7 101.6 171.3 104.9 169.9C108.2 168.5 111.3 166.8 114 164.5C114.9 163.7 115.9 163.4 117.1 163.8C118.4 164.3 119 165.3 118.7 166.6C117.9 170.1 116.7 173.5 115.1 176.7C113.9 179 112.4 181.2 110.8 183.3C109.2 185.5 107.3 187.2 105.3 188.9C102.9 191.1 100.1 192.6 97.3004 194.2C93.6004 196.3 89.6004 197.5 85.4004 198.1C83.7004 198.4 81.9004 198.6 80.2004 198.9C80.0004 198.8 80.0004 198.7 80.0004 198.6Z" stroke="#9577B4" stroke-miterlimit="10"/>
<path opacity="0.6" d="M69.5999 121.3C70.2999 120.7 69.4 122.9 68.9 123.6C67.2 126 65.6 128.4 64.7 131.2C63.8 133.9 62.9 136.7 63 139.7C63.1 141.8 62.9 144 63.2 146.1C63.7 149.2 64.5 152.3 66.1 155.1C66.8 156.3 67.4999 157.6 68.2999 158.8C70.2999 161.5 72.5 164.1 75.4 165.9C77.2 167 79 168.2 81 169.1C83.1 170 85.3 170.7 87.5 171.2C89.6 171.6 91.8 171.9 94 171.8C97.5 171.7 100.9 171.3 104.2 169.9C107.5 168.5 110.6 166.8 113.3 164.5C114.2 163.7 115.2 163.4 116.4 163.8C83.2 196.4 31.8999 155.1 69.5999 121.3Z" fill="#9577B4"/>
<path d="M102.501 54.4995L90.7008 55.9995C87.6008 56.3995 84.8008 54.1995 84.4008 51.1995L84.1007 49.1995C83.7007 46.0995 85.9008 43.2995 88.9008 42.8995L100.701 41.3995C103.801 40.9995 106.601 43.1995 107.001 46.1995L107.301 48.1995C107.701 51.2995 105.601 54.0995 102.501 54.4995Z" fill="#D3C0DF"/>
</svg>
