<svg width="164" height="211" viewBox="0 0 164 211" fill="none" xmlns="http://www.w3.org/2000/svg">
<path d="M109.9 52.0998C109.9 57.4998 110 62.6998 109.9 67.7998C109.8 72.3998 111.7 75.0998 116.1 76.6998C129.9 81.7998 142.3 88.9998 151.2 101C166 121.1 164.5 142.1 154 163.3C147.8 175.7 138.8 185.8 126.9 193.1C124.8 194.4 123.3 195.5 123.6 198.4C124 201.9 121 203.1 118.4 204.3C113.5 206.6 108.3 207.4 103 207.9C85.1003 209.4 67.1003 210.1 49.5003 205.5C44.9003 204.3 39.4003 203.5 40.2003 196.2C40.4003 194.1 37.5003 193.5 35.9003 192.4C18.6003 180.5 7.50031 164.4 3.40031 143.7C-1.69969 117.8 10.2003 94.0998 34.1003 82.3998C39.0003 79.9998 44.1003 77.9998 49.1003 75.9998C52.0003 74.7998 53.4003 72.9998 53.8003 69.6998C54.4003 63.8998 54.5003 58.0998 54.6003 51.7998C73.0003 56.1998 91.2003 55.2998 109.9 52.0998Z" fill="#E1C9E0"/>
<path d="M50.2998 7.59961C71.7998 12.8996 92.6998 12.6997 114.2 7.89966C113.4 14.8997 112.7 22.1996 111.8 29.4996C111.4 32.6996 108.3 32.4997 106.4 32.8997C93.5998 35.8997 80.5998 36.0996 67.6998 34.6996C53.7998 33.2996 53.8998 32.7996 52.0998 18.7996C51.5998 15.1996 50.8998 11.4996 50.2998 7.59961Z" fill="#D6A6BD"/>
<path d="M83.3 53.9993C73.4 54.2993 62.6001 53.0993 51.9001 50.2993C42.8001 47.8993 41.8 40.9993 43.8 31.9993C44.4 29.3993 46.8 27.6993 49.1 29.2993C58.2 35.2993 68.5001 34.6993 78.4001 34.8993C90.3001 35.0993 102.3 34.9993 113.4 29.4993C116.1 28.0993 118 29.9993 119.1 32.5993C122.2 40.6993 118.3 48.1993 110 50.4993C101.6 52.8993 93 53.1993 83.3 53.9993Z" fill="#E1C9E0"/>
<path d="M83.1 13.0993C75.1 12.3993 67.4001 12.7993 59.9001 11.2993C57.5001 10.7993 55.1 10.0993 52.8 9.29932C51.8 8.99932 50.2 8.69935 50.6 7.19935C50.8 6.49935 52.0001 5.89931 52.9001 5.59931C57.9001 3.59931 63.3 2.99935 68.5 2.69935C81.8 2.09935 95.1 1.39936 108.2 4.39936C110.5 4.89936 114.1 4.99931 114.2 7.59931C114.3 9.89931 110.7 9.99931 108.6 10.5993C100 12.9993 91.3 12.3993 83.1 13.0993Z" fill="#D6A6BD"/>
<path d="M112.2 30.7L92.0996 33.2V13.6L115.1 10L112.2 30.7Z" fill="#C999B3"/>
<path d="M113.8 76.7L96.5996 79.9L98.7996 58.5H109.9L110.6 70.2L113.8 76.7Z" fill="#CEABCE"/>
<path d="M79.7002 189.8C79.7002 189.8 120.2 198.3 137.6 170.2C137.6 170.2 159.8 150.4 153.1 122.8C153.1 122.8 138.7 76.5997 96.6002 79.8997H89.1002L116 76.5996C116 76.5996 159.7 91.5997 162 132.9C162 132.9 167.7 161.1 126.8 193C126.8 193.1 89.5002 195.7 79.7002 189.8Z" fill="#CEABCE"/>
<path d="M49.9001 9.09929C66.4001 13.0993 83.4001 14.0993 100.2 11.8993C105 11.2993 109.8 10.4993 114.6 9.39934C114 8.89934 113.3 8.39931 112.7 7.99931C112.2 12.3993 111.7 16.8993 111.2 21.2993C110.9 23.5993 110.7 25.7993 110.4 28.0993C110.2 29.4993 110.2 30.5993 108.7 30.9993C107.4 31.3993 106 31.4993 104.7 31.7993C102.5 32.2993 100.3 32.6993 98.1 32.9993C93.7 33.5993 89.3001 33.9993 84.9001 34.0993C77.3001 34.2993 69.5001 33.8993 61.9001 32.5993C60.2001 32.2993 58.5001 31.9993 57.2001 31.1993C56.8001 30.8993 56.3 30.4993 56.1 30.1993C55.6 29.4993 55.5001 29.0993 55.2001 28.3993C54.4001 26.0993 54.2001 23.5993 53.9001 21.1993C53.3001 16.4993 52.5001 11.8993 51.7001 7.2993C51.4001 5.3993 48.5001 6.19929 48.8001 8.09929C49.5001 12.4993 50.3001 16.8993 50.9001 21.3993C51.2001 23.8993 51.5001 26.3993 52.2001 28.7993C52.7001 30.3993 53.4001 31.9993 54.8001 33.1993C56.2001 34.3993 58.0001 34.9993 59.8001 35.3993C62.7001 35.9993 65.7 36.2993 68.6 36.4993C73.3 36.9993 78.0001 37.1993 82.7001 37.1993C91.6001 37.1993 100.3 35.9993 109 34.0993C110.5 33.7993 111.9 32.9993 112.7 31.5993C113.2 30.5993 113.3 29.4993 113.4 28.3993C113.6 26.9993 113.7 25.5993 113.9 24.2993C114.5 18.8993 115.1 13.4993 115.7 8.09929C115.8 7.09929 114.7 6.49933 113.8 6.69933C97.7001 10.1993 81.1001 11.2993 64.7001 8.99931C60.0001 8.39931 55.3001 7.3993 50.7001 6.2993C48.8001 5.6993 48.0001 8.59929 49.9001 9.09929Z" fill="#8E6BAA"/>
<path d="M56.9 107.8C56.6 108.4 56.3 109.1 56 109.7C55.2 111.5 56.6 113.6 58.7 113.6C59 113.6 59.2 113.3 59.5 113.1C62.5 110.2 65.7 107.8 69.6 106.1C72.5 104.9 75.4 104.6 78.4 105.7C81.2 106.7 84.1 107.5 87.1 107.1C88.2 107 89.4 106.8 90.5 106.4C95.7 104.7 101 104.8 106.2 106.4C108.7 107.1 111 108.2 113.1 109.8C114.1 110.6 115.1 111.3 116.1 112C117.4 113 118.1 114.3 118.7 115.7C119.6 118.1 120.4 120.5 121.3 122.8C121.9 124.3 122.8 125.5 124.2 126.4C124.5 126.6 124.8 127.1 124.9 127.5C125.7 130.2 125.4 132.8 125 135.5C124.7 137.7 123.9 139.9 123.6 142.2C123.3 144.6 123.1 147.1 123.3 149.6C123.4 151.7 123.3 153.6 122.1 155.3C120.6 157.5 119 159.6 117.3 161.7C115.9 163.4 114.2 165 112.7 166.6C112.6 166.7 112.5 166.8 112.4 166.9C107.8 169.8 103.4 172.9 98.1 174.4C97 174.7 95.9 175 94.8 175C94.1 175 93.3 174.7 92.7 174.4C91.3 173.7 90 173.6 88.6 174.2C86.6 175.1 84.6 175.1 82.7 173.9C81.1 172.9 79.3 173.3 77.6 173.2C73.9 172.9 70.3 171.8 66.9 170.5C63.7 169.3 60.5 167.8 57 167.3C56.8 167.3 56.5 167.2 56.4 167C53.7 164.9 51.2 162.6 49.8 159.3C49.6 158.9 49.4 158.4 49 158.1C45.6 154.8 44.5 150.7 44.5 146.1C44.6 142.2 45.8 138.5 47.2 134.9C48.2 132.3 49 129.6 49.9 127C50 126.6 50.2 126.1 50.2 125.7C50.2 123.9 51 122.4 52.2 121.2C53 120.3 53.1 119.4 52.9 118.3C52.7 117.2 52.3 116.1 52.2 115C52.1 114.2 52.1 113.4 52.3 112.7C52.7 111.4 52.7 110.3 52 109.1C50.1 109.5 48.1 109.7 46.1 108.8C47.1 108.3 48 107.7 48.9 107.3C49.1 107.2 49.5 107.3 49.8 107.5C50.5 107.9 51.2 108.4 51.9 108.9C52.3 108.5 52.6 108.1 53 107.6C53.2 108.1 53.4 108.4 53.6 108.9C54.1 108.4 54.6 107.9 54.9 107.4C55.1 107.2 55 106.7 54.9 106.4C54.3 104.5 53.8 102.6 54.3 100.6C54.4 100.3 54.5 100 54.6 99.5C55.5 100.8 56.4 101.9 57.1 103.1C57.2 103.3 57.1 103.7 57 104C56.5 105 55.9 106 55.3 107.1C56 107.3 56.5 107.6 56.9 107.8ZM121.1 133C121 133 121 133 120.9 133C120.9 132.4 121 131.9 120.9 131.3C120.7 129.8 120.7 128.3 119.1 127.3C118.3 126.8 117.8 125.8 117.4 125C116.5 122.8 115.9 120.6 114.9 118.4C114.4 117.2 113.5 116.1 112.6 115.1C112 114.4 111 113.9 110.3 113.3C108.4 111.8 106.2 110.7 103.8 110.1C99.3 108.8 94.7 108.7 90.1 110.1C88.5 110.6 86.7 110.8 85 110.7C83.2 110.6 81.3 110.1 79.5 109.5C76.8 108.6 74.1 108.7 71.5 109.8C66.3 112.1 62.2 115.6 59 120.2C58.5 120.9 57.9 121.6 57.2 122.1C55.6 123.5 54.3 124.9 54.2 127.1C54.2 127.6 54.1 128.1 53.9 128.5C52.9 131.4 51.9 134.2 50.9 137C49.9 139.7 49.2 142.4 49.2 145.3C49.2 149.3 50.1 152.9 53.1 155.8C53.4 156.1 53.6 156.4 53.7 156.8C54.9 159.7 57.1 161.8 59.5 163.7C59.7 163.8 59.9 164 60.1 164C63.2 164.3 66 165.7 68.9 166.8C72.1 168 75.3 169 78.8 169.2C79.9 169.3 81.2 169.1 82.2 169.6C84.5 170.7 86.8 170.8 89.1 169.8C89.8 169.5 90.4 169.6 91 169.9C92.8 170.9 94.6 170.8 96.5 170.3C101.2 168.9 105.3 166.2 109.3 163.6C109.4 163.5 109.5 163.4 109.6 163.3C110.9 161.9 112.2 160.6 113.5 159.2C115.6 157 117.5 154.7 118.6 151.8C118.9 151 119 150.2 118.9 149.3C118.7 146.3 118.8 143.4 119.5 140.5C120.1 138.2 120.6 135.6 121.1 133Z" fill="#A375A7"/>
<path d="M56.9004 107.8C58.2004 105.5 59.5004 103.2 60.8004 100.9C61.2004 100.2 61.6004 99.8996 62.3004 99.6996C63.4004 99.3996 64.6004 98.9996 65.8004 98.5996C65.6004 101.7 64.6003 104.3 62.1003 105.9C60.8003 106.8 59.2004 107.2 57.7004 107.8C57.5004 108 57.2004 107.8 56.9004 107.8Z" fill="#A375A7"/>
<path d="M53.0008 107.599C49.2008 104.999 45.6008 102.399 41.8008 99.7994C47.9008 98.9994 52.7008 101.599 53.0008 107.599Z" fill="#A375A7"/>
<path d="M58.4006 101.7C57.5006 100.4 56.6006 99.1996 55.8006 97.9996C55.7006 97.8996 55.7006 97.4997 55.8006 97.3997C57.7006 94.6997 60.4006 93.2996 63.7006 92.0996C61.9006 95.4996 60.2006 98.4996 58.4006 101.7Z" fill="#A375A7"/>
<path d="M42.6 105.399C44.3 105.499 46.2 104.099 47.7 106.099C46.8 106.599 45.9 107.099 44.9 107.499C44.7 107.599 44.2 107.499 44.1 107.399C43.5 106.799 43 106.199 42.5 105.599C42.5 105.599 42.6 105.499 42.6 105.399Z" fill="#A375A7"/>
<path d="M62.5 97.8992C63.4 96.1992 64.3 94.6992 65.1 93.1992C65.2 93.1992 65.3 93.1992 65.3 93.1992C65.5 94.2992 65.6 95.2992 65.7 96.3992C65.7 96.5992 65.5 96.8992 65.4 96.8992C64.6 97.1992 63.6 97.4992 62.5 97.8992Z" fill="#A375A7"/>
<path d="M44.2004 103.499C41.3004 103.899 41.3004 103.899 40.9004 101.199C42.0004 101.999 43.0004 102.699 44.2004 103.499Z" fill="#A375A7"/>
<path d="M121.101 133C120.601 135.6 120.201 138.2 119.601 140.7C118.901 143.6 118.801 146.5 119.001 149.5C119.101 150.3 119.001 151.2 118.701 152C117.601 154.9 115.601 157.1 113.601 159.4C112.301 160.8 111.001 162.1 109.701 163.5C109.601 163.6 109.501 163.7 109.401 163.8C105.301 166.4 101.301 169.1 96.6008 170.5C94.7008 171.1 92.8008 171.1 91.1008 170.1C90.5008 169.7 89.9008 169.7 89.2008 170C86.9008 171.1 84.6008 171 82.3008 169.8C81.4008 169.3 80.1008 169.5 78.9008 169.4C75.5008 169.2 72.2008 168.2 69.0008 167C66.1008 165.9 63.3008 164.5 60.2008 164.2C60.0008 164.2 59.8008 164 59.6008 163.9C57.2008 162 55.0008 159.9 53.8008 157C53.7008 156.6 53.4008 156.3 53.2008 156C50.3008 153.1 49.3008 149.5 49.3008 145.5C49.3008 142.6 50.0008 139.9 51.0008 137.2C52.1008 134.4 53.0008 131.5 54.0008 128.7C54.2008 128.2 54.3008 127.8 54.3008 127.3C54.4008 125.1 55.7008 123.6 57.3008 122.3C58.0008 121.7 58.6008 121.1 59.1008 120.4C62.3008 115.8 66.4008 112.3 71.6008 110C74.2008 108.8 76.9008 108.8 79.6008 109.7C81.4008 110.3 83.2008 110.8 85.1008 110.9C86.8008 111 88.6008 110.7 90.2008 110.3C94.8008 108.9 99.3008 109 103.901 110.3C106.301 111 108.501 112 110.401 113.5C111.201 114.1 112.101 114.6 112.701 115.3C113.601 116.3 114.501 117.4 115.001 118.6C116.001 120.7 116.601 123 117.501 125.2C117.901 126.1 118.401 127 119.201 127.5C120.801 128.5 120.801 130 121.001 131.5C121.101 132 121.001 132.6 121.001 133.2C121.001 133 121.001 133 121.101 133ZM56.9008 144.1C57.2008 145.6 57.2008 147.3 57.9008 148.6C59.2008 151.1 60.8008 153.4 62.4008 155.7C63.8008 157.7 65.8008 158.9 68.3008 159.3C69.3008 159.5 70.2008 159.8 71.1008 160.1C74.6008 161.6 78.2008 162.5 81.9008 163.3C84.0008 163.7 86.0008 164.1 88.2008 163.4C88.9008 163.2 89.8008 163.3 90.5008 163.5C93.0008 164.4 95.3008 164 97.6008 162.8C102.301 160.3 106.201 156.9 109.501 152.9C110.801 151.3 111.601 149.4 111.701 147.3C111.901 143.7 112.301 140.1 113.201 136.5C113.801 134.2 113.401 132 111.901 130C110.701 128.4 110.001 126.6 109.401 124.7C108.001 119.9 103.101 116.2 98.0008 115.8C95.8008 115.7 93.6008 116.1 91.6008 116.7C87.9008 117.8 84.3008 118.1 80.5008 117C79.0008 116.6 77.3008 116.5 75.8008 116.7C73.4008 117 71.6008 118.5 69.9008 120.1C65.6008 124.4 61.7008 129.1 59.5008 134.8C58.4008 137.9 57.1008 140.8 56.9008 144.1Z" fill="#E6C3DE"/>
<path d="M56.9004 144.1C57.1004 140.8 58.3004 137.9 59.5004 135C61.8004 129.3 65.6004 124.6 69.9004 120.3C71.5004 118.7 73.4004 117.2 75.8004 116.9C77.3004 116.7 79.0004 116.8 80.5004 117.2C84.3004 118.3 87.9003 117.9 91.6003 116.9C93.7003 116.3 95.8004 115.8 98.0004 116C103 116.3 108 120.1 109.4 124.9C109.9 126.8 110.6 128.6 111.9 130.2C113.4 132.1 113.8 134.3 113.2 136.7C112.3 140.2 111.8 143.8 111.7 147.5C111.6 149.6 110.8 151.5 109.5 153.1C106.2 157.1 102.3 160.6 97.6003 163C95.3003 164.2 93.0004 164.6 90.5004 163.7C89.8004 163.5 88.9004 163.4 88.2004 163.6C86.1004 164.3 84.0004 163.9 81.9004 163.5C78.2004 162.7 74.6003 161.8 71.1003 160.3C70.2003 159.9 69.2004 159.6 68.3004 159.5C65.8004 159 63.8004 157.8 62.4004 155.9C60.8004 153.6 59.2004 151.3 57.9004 148.8C57.3004 147.3 57.3004 145.6 56.9004 144.1ZM85.3004 157.7C86.4004 157.6 87.5004 157.6 88.7004 157.5C95.3004 157 100.6 154.1 104.4 148.8C105.1 147.9 105.3 146.7 105.7 145.6C105.9 144.9 105.9 144.2 106 143.5C106.3 140.7 106.7 138 106.9 135.2C107 134.3 106.9 133.2 106.3 132.6C105 131 104.4 129.1 103.6 127.3C102.3 124.3 99.9004 122.4 96.7004 122C94.7004 121.7 92.6004 122.1 90.5004 122.5C88.0004 122.9 85.7004 123.5 83.2004 122.7C80.1004 121.6 77.3004 122.3 74.9004 124.4C73.1004 126 71.3004 127.8 69.7004 129.7C66.0004 134.1 63.8003 139.1 64.6003 145C65.2003 149.1 67.2004 152.4 71.3004 154.1C72.1004 154.4 72.9003 154.6 73.6003 154.9C77.3003 156.6 81.2004 157.6 85.3004 157.7Z" fill="#A375A7"/>
<path d="M85.3005 157.699C81.2005 157.499 77.3004 156.599 73.6004 154.899C72.9004 154.599 72.0005 154.399 71.3005 154.099C67.2005 152.399 65.2004 149.099 64.6004 144.999C63.7004 139.099 66.0005 134.199 69.7005 129.699C71.3005 127.799 73.0005 125.999 74.9005 124.399C77.3005 122.299 80.1005 121.599 83.2005 122.699C85.7005 123.599 88.1005 122.899 90.5005 122.499C92.5005 122.099 94.7005 121.799 96.7005 121.999C99.9005 122.399 102.4 124.199 103.6 127.299C104.4 129.099 105 130.999 106.3 132.599C106.8 133.199 106.9 134.299 106.9 135.199C106.7 137.999 106.3 140.799 106 143.499C105.9 144.199 105.9 144.899 105.7 145.599C105.4 146.699 105.1 147.899 104.4 148.799C100.6 154.199 95.3005 156.999 88.7005 157.499C87.5005 157.599 86.4005 157.699 85.3005 157.699ZM85.9005 155.999C91.0005 155.999 95.5005 154.899 99.3005 151.799C101.7 149.799 104 147.699 104.1 144.299C104.1 143.799 104.2 143.299 104.3 142.699C104.6 140.099 104.9 137.499 105.2 134.899C105.2 134.399 105.1 133.699 104.8 133.399C103.4 131.899 102.8 130.099 102.2 128.299C101.4 125.899 99.4004 124.599 97.1004 123.799C95.2004 123.199 93.2005 123.699 91.2005 124.099C88.4005 124.699 85.7005 125.399 82.8005 124.399C80.1005 123.399 77.7005 123.999 75.7005 125.999C73.4005 128.299 71.0005 130.699 69.2005 133.399C66.7005 136.999 65.5005 141.099 66.5005 145.499C67.3005 149.099 69.3004 151.799 73.1004 152.999C74.0004 153.299 74.8005 153.599 75.7005 153.999C79.0005 155.399 82.5005 155.999 85.9005 155.999Z" fill="#E6C3DE"/>
<path d="M85.9002 156C82.5002 156 79.0001 155.4 75.6001 153.9C74.8001 153.5 73.9001 153.2 73.0001 152.9C69.2001 151.8 67.2002 149.1 66.4002 145.4C65.4002 141 66.7001 136.9 69.1001 133.3C70.9001 130.6 73.3001 128.2 75.6001 125.9C77.5001 124 80.0001 123.4 82.7001 124.3C85.5001 125.3 88.3001 124.6 91.1001 124C93.0001 123.6 95.0001 123.1 97.0001 123.7C99.3001 124.4 101.3 125.8 102.1 128.2C102.7 130 103.3 131.8 104.7 133.3C105 133.7 105.2 134.3 105.1 134.8C104.9 137.4 104.5 140 104.2 142.6C104.1 143.1 104.1 143.6 104 144.2C103.9 147.6 101.6 149.7 99.2001 151.7C95.5001 154.9 91.1002 156 85.9002 156ZM99.9002 138.3C100 135 98.6001 132.2 96.7001 129.7C95.1001 127.6 92.2002 126.9 89.9002 127.9C88.1002 128.7 86.3002 128.9 84.4002 128.7C79.8002 128.2 76.6001 130.2 74.6001 134.1C73.7001 135.9 72.9001 137.7 72.2001 139.6C71.8001 140.6 71.7001 141.8 71.7001 142.8C71.9001 145.1 73.6002 146.6 74.9002 148.2C75.8002 149.3 77.3001 149.4 78.6001 149.7C81.5001 150.5 84.3001 151.7 87.5001 151.4C88.8001 151.3 90.1002 151.5 91.4002 151.1C94.0002 150.3 95.7001 148.4 97.5001 146.5C98.7001 145.1 99.4001 143.6 99.6001 141.8C99.7001 140.7 99.8002 139.5 99.9002 138.3Z" fill="#A375A7"/>
<path d="M99.9003 138.3C99.8003 139.5 99.7003 140.7 99.6003 141.9C99.4003 143.7 98.7003 145.3 97.5003 146.6C95.8003 148.5 94.1003 150.4 91.4003 151.2C90.1003 151.6 88.8003 151.4 87.5003 151.5C84.3003 151.9 81.5003 150.6 78.6003 149.8C77.3003 149.5 75.8003 149.4 74.9003 148.3C73.6003 146.6 71.8003 145.1 71.7003 142.9C71.6003 141.8 71.8003 140.7 72.2003 139.7C72.9003 137.8 73.6003 136 74.6003 134.2C76.7003 130.3 79.8003 128.3 84.4003 128.8C86.3003 129 88.1003 128.8 89.9003 128C92.2003 127 95.1003 127.7 96.7003 129.8C98.6003 132.2 100 135 99.9003 138.3ZM84.7003 130.4C81.2003 129.8 78.3003 131 76.6003 134.1C75.3003 136.3 74.4003 138.7 73.5003 141.2C73.2003 142 73.4003 143.1 73.8003 143.9C74.2003 144.9 74.9003 145.7 75.6003 146.6C76.0003 147.1 76.6003 147.5 77.1003 147.7C77.8003 148 78.6003 148.1 79.4003 148.4C82.5003 149.4 85.7003 150.1 89.0003 150C89.4003 150 89.9003 149.9 90.3003 149.8C93.8003 148.9 95.8003 146.4 97.5003 143.6C97.7003 143.3 97.8003 142.8 97.9003 142.4C98.1003 141.1 98.2003 139.8 98.3003 138.4C98.5003 135.5 97.1003 133 95.5003 130.8C94.4003 129.3 92.3003 128.8 90.8003 129.4C88.8003 130.3 86.8003 130.6 84.7003 130.4Z" fill="#E6C3DE"/>
<path d="M84.7008 130.399C86.8008 130.599 88.8008 130.299 90.7008 129.399C92.2008 128.699 94.3008 129.299 95.4008 130.799C97.1008 132.999 98.4008 135.499 98.2008 138.399C98.1008 139.699 98.0008 141.099 97.8008 142.399C97.7008 142.799 97.7008 143.299 97.4008 143.599C95.7008 146.399 93.7008 148.899 90.2008 149.799C89.8008 149.899 89.4008 149.999 88.9008 149.999C85.6008 150.199 82.4008 149.499 79.3008 148.399C78.6008 148.099 77.7008 147.999 77.0008 147.699C76.4008 147.399 75.9008 146.999 75.5008 146.599C74.8008 145.799 74.1008 144.899 73.7008 143.899C73.4008 143.099 73.2008 141.999 73.4008 141.199C74.3008 138.799 75.2008 136.399 76.5008 134.099C78.3008 130.999 81.2008 129.899 84.7008 130.399ZM85.2008 145.399C86.4008 144.999 88.5008 144.599 90.5008 143.699C92.6008 142.799 93.5008 140.699 93.1008 138.299C92.8008 135.999 91.4008 134.299 89.2008 133.799C85.9008 132.999 80.8008 135.099 79.5008 138.699C78.3008 142.199 80.5008 145.399 85.2008 145.399Z" fill="#A375A7"/>
<path d="M85.2005 145.399C80.5005 145.399 78.3005 142.199 79.5005 138.699C80.8005 135.099 85.9005 132.899 89.2005 133.799C91.4005 134.399 92.8005 135.999 93.1005 138.299C93.4005 140.699 92.6005 142.799 90.5005 143.699C88.5005 144.599 86.4005 145.099 85.2005 145.399ZM87.6005 135.199C87.0005 135.299 86.5005 135.299 85.9005 135.499C83.7005 136.199 81.8005 137.099 81.0005 139.399C80.2005 141.899 82.0005 144.099 84.6005 143.699C86.1005 143.499 87.6005 142.999 89.1005 142.499C90.9005 141.799 91.7005 140.199 91.3005 138.399C91.0005 136.399 89.6005 135.299 87.6005 135.199Z" fill="#E6C3DE"/>
<path d="M87.6006 135.199C89.7006 135.299 91.0007 136.399 91.4007 138.399C91.8007 140.199 91.0006 141.799 89.2006 142.499C87.8006 142.999 86.2006 143.499 84.7006 143.699C82.1006 144.099 80.2006 141.899 81.1006 139.399C81.9006 137.099 83.8006 136.099 86.0006 135.499C86.4006 135.299 87.0006 135.299 87.6006 135.199Z" fill="#A375A7"/>
<path d="M109.9 59.9C109.9 59.9 89.8998 63.1 83.0998 63.1C76.2998 63.1 56.2998 60.3 56.2998 60.3V54H109.9V59.9Z" fill="#CEABCE"/>
<path d="M108.3 52.1C108.3 56.7 108.4 61.3001 108.3 66.0001C108.3 69.2001 108.3 72.3001 110.5 74.9001C112.7 77.5001 116.2 78.3 119.2 79.6C122.7 81 126.1 82.6001 129.3 84.4001C143.1 92.0001 154.6 104.4 158.8 119.9C163.1 135.5 158.6 152 151 165.9C147.4 172.5 142.8 178.4 137.2 183.5C134.5 186.1 131.5 188.4 128.4 190.4C125.8 192.1 122.4 193.6 122 197.1C121.8 198.7 122.4 200 121 201.2C119.9 202.2 118.4 202.7 117.1 203.3C113.1 205.1 108.8 205.9 104.4 206.3C95.3 207.2 86.1 207.7 76.9 207.6C67.7 207.4 58.5 206.4 49.6 204.1C47.4 203.5 44.8 203.2 43.1 201.6C42.2 200.8 41.7 199.7 41.6 198.5C41.4 196.9 42 195.4 41 194.1C40.1 192.9 38.7 192.4 37.4 191.7C35.9 190.9 34.5 189.8 33.1 188.7C30.3 186.6 27.6 184.2 25.1 181.7C20.2 176.8 15.9 171.3 12.6 165.2C5.89999 153.1 2.29999 138.6 4.09999 124.8C5.79999 111.8 12.5 99.9 22.6 91.5C28.5 86.5 35.5 83.1001 42.6 80.2001C44.7 79.3001 46.9 78.4 49.1 77.6C50.6 77 52 76.4001 53.1 75.2001C55.6 72.6001 55.5 68.5 55.8 65.1C56.1 60.7 56.1 56.3 56.2 51.8C55.6 52.3 54.9 52.8001 54.3 53.2001C72.8 57.5001 91.7 56.5001 110.3 53.4001C112.2 53.1001 111.4 50.2001 109.5 50.5001C91.5 53.6001 73 54.5 55.1 50.3C54.2 50.1 53.2 50.7001 53.2 51.7001C53.2 56.4001 53.1 61.0001 52.8 65.7001C52.6 69.1001 52.6 72.7 49.1 74.3C45 76.2 40.6 77.7 36.5 79.6C33 81.2 29.5 83.0001 26.2 85.2001C14.9 92.7001 6.30003 103.9 2.70003 117.1C-0.999974 130.8 0.900026 145.5 6.20003 158.5C11.6 171.9 20.8 183.2 32.4 191.8C33.7 192.8 35.1 193.8 36.6 194.5C37.1 194.8 37.8 195 38.3 195.4C38.9 195.9 38.6 196.5 38.6 197.2C38.5 200.1 39.7 202.7 42.1 204.3C44.3 205.8 47.2 206.3 49.7 206.9C54.3 208 58.9 208.9 63.6 209.4C72.9 210.5 82.3 210.5 91.6 210C100.5 209.5 109.9 209.4 118.2 205.8C121 204.6 124.3 203.2 124.9 199.8C125.2 198.3 124.5 196.8 125.6 195.5C126.7 194.3 128.4 193.6 129.7 192.7C136.1 188.5 141.9 183.2 146.7 177.2C151.7 170.9 155.5 163.9 158.5 156.5C161.5 149 163.4 141 163.5 132.8C163.7 116.3 155.6 100.7 143.2 90C137.4 85 130.8 81.1 123.9 78C122.1 77.2 120.3 76.4001 118.4 75.7001C116.8 75.1001 115.2 74.6 113.8 73.6C111.1 71.6 111.2 68.4001 111.3 65.4001C111.4 60.9001 111.3 56.3 111.3 51.8C111.3 50.1 108.3 50.1 108.3 52.1Z" fill="#9279A8"/>
<path d="M83.2998 52.4995C76.5998 52.6995 69.7998 52.1995 63.0998 51.1995C59.5998 50.5995 56.1998 49.8995 52.6998 48.9995C50.4998 48.3995 48.3998 47.5995 46.7998 45.9995C43.9998 43.0995 44.0998 38.5996 44.6998 34.8996C44.9998 33.0996 45.5998 29.0995 48.2998 30.6995C51.0998 32.2995 53.7998 33.6995 56.8998 34.5995C62.7998 36.2995 68.9998 36.3996 75.0998 36.3996C81.3998 36.4996 87.6998 36.6995 93.9998 36.0995C100.5 35.4995 107 34.1996 112.9 31.3996C113.9 30.8996 115 30.0995 116.1 30.7995C117.1 31.4995 117.7 32.8995 118 33.9995C118.7 36.2995 118.9 38.6995 118.3 40.9995C117.7 43.2995 116.2 45.3995 114.2 46.7995C111.6 48.6995 108.4 49.3995 105.3 49.9995C98.1998 51.5995 90.6998 51.8995 83.2998 52.4995C81.3998 52.6995 81.3998 55.6995 83.2998 55.4995C90.6998 54.8995 98.0998 54.5995 105.3 53.0995C111 51.9995 116.8 50.1996 119.8 44.8996C122.4 40.3996 122.3 33.5996 119 29.3996C118.2 28.3996 117.2 27.6996 116 27.3996C114.3 27.0996 112.8 27.8995 111.3 28.5995C108 30.0995 104.5 31.1996 100.9 31.8996C93.8998 33.2996 86.6998 33.3995 79.5998 33.1995C72.7998 33.0995 65.7998 33.3996 59.1998 31.8996C55.6998 31.0996 52.7998 29.6996 49.6998 27.8996C47.1998 26.3996 44.1998 27.1996 42.7998 29.8996C41.5998 32.0996 41.3998 35.3996 41.2998 37.8996C41.1998 40.1996 41.4998 42.4995 42.2998 44.5995C44.8998 50.8995 51.9998 52.0995 57.8998 53.2995C66.1998 54.9995 74.5998 55.7995 83.0998 55.4995C85.2998 55.4995 85.2998 52.4995 83.2998 52.4995Z" fill="#9279A8"/>
<path d="M83.0004 11.5996C74.2004 10.8996 65.2004 11.3997 56.6004 8.89966C55.6004 8.59966 54.5004 8.29966 53.5004 7.89966C53.0004 7.69966 52.2004 7.59963 51.8004 7.29963C52.1004 7.59963 51.9005 7.59963 52.4005 7.29963C52.8005 7.09963 53.2004 6.89963 53.6004 6.79963C54.6004 6.39963 55.6004 6.09963 56.6004 5.79963C60.8004 4.59963 65.2004 4.29961 69.5004 4.09961C78.5004 3.69961 87.6004 3.29961 96.7004 4.09961C100.9 4.49961 105 5.39961 109.2 6.09961C110.1 6.29961 111.9 6.39965 112.4 7.19965C112.9 8.09965 111.2 8.39964 110.7 8.49964C106.4 9.49964 102.2 10.4996 97.8004 10.7996C92.8004 11.1996 87.9004 11.1996 83.0004 11.5996C81.1004 11.7996 81.1004 14.7996 83.0004 14.5996C88.0004 14.0996 93.1004 14.1996 98.1004 13.7996C102.6 13.3996 107 12.3997 111.4 11.3997C112.9 11.0997 114.4 10.4996 115.1 8.99964C115.8 7.49964 115.2 5.59961 114 4.59961C112.7 3.59961 111 3.39961 109.5 3.09961C107.2 2.69961 104.9 2.09963 102.6 1.79963C92.1004 0.199627 81.5005 0.499639 70.9005 0.999639C65.9005 1.19964 60.8005 1.49963 55.9005 2.79963C53.9005 3.29963 51.3004 3.89966 49.7004 5.39966C48.3004 6.69966 48.5004 8.79963 50.0004 9.79963C50.8004 10.2996 51.7004 10.4996 52.5004 10.7996C53.9004 11.2996 55.3004 11.6996 56.7004 12.0996C59.5004 12.7996 62.3004 13.2996 65.1004 13.5996C71.0004 14.1996 76.9004 14.0996 82.8004 14.5996C85.0004 14.7996 85.0004 11.7996 83.0004 11.5996Z" fill="#8E6BAA"/>
<path d="M57.5006 108C57.2006 108.6 56.9006 109.3 56.6006 109.9C55.8006 111.7 57.2006 113.8 59.3006 113.7C59.6006 113.7 59.8006 113.4 60.1006 113.2C63.1006 110.4 66.3006 108 70.2006 106.3C73.1006 105.1 76.0006 104.9 79.0006 105.9C81.8006 106.9 84.7006 107.7 87.7006 107.3C88.8006 107.2 90.0006 107 91.1006 106.6C96.3006 104.9 101.601 105.1 106.801 106.6C109.301 107.3 111.601 108.4 113.701 109.9C114.701 110.7 115.701 111.4 116.701 112.1C118.001 113 118.701 114.4 119.301 115.8C120.201 118.1 121.001 120.5 121.901 122.8C122.501 124.3 123.401 125.5 124.801 126.4C125.101 126.6 125.401 127.1 125.501 127.5C126.301 130.1 126.001 132.8 125.601 135.4C125.301 137.6 124.501 139.8 124.201 142C123.901 144.4 123.701 146.9 123.901 149.3C124.001 151.3 123.901 153.2 122.701 154.9C121.201 157.1 119.601 159.2 117.901 161.2C116.501 162.9 114.801 164.4 113.301 166C113.201 166.1 113.101 166.2 113.001 166.3C108.401 169.1 104.001 172.2 98.7006 173.6C97.6006 173.9 96.5006 174.2 95.4006 174.2C94.7006 174.2 93.9006 173.9 93.3006 173.6C91.9006 172.9 90.6006 172.8 89.2006 173.4C87.2006 174.3 85.2006 174.3 83.3006 173.1C81.7006 172.1 79.9006 172.6 78.2006 172.4C74.5006 172.1 70.9006 171 67.5006 169.8C64.3006 168.6 61.1006 167.1 57.6006 166.7C57.4006 166.7 57.1006 166.6 57.0006 166.5C54.3006 164.4 51.8006 162.2 50.4006 159C50.2006 158.6 50.0006 158.1 49.6006 157.8C46.2006 154.5 45.1006 150.5 45.1006 146C45.2006 142.1 46.4006 138.5 47.8006 135C48.8006 132.4 49.6006 129.8 50.5006 127.2C50.6006 126.8 50.8006 126.3 50.8006 125.9C50.8006 124.1 51.6006 122.7 52.8006 121.5C53.6006 120.6 53.7006 119.7 53.5006 118.7C53.3006 117.6 52.9006 116.5 52.8006 115.4C52.7006 114.6 52.7006 113.8 52.9006 113.1C53.3006 111.9 53.3006 110.7 52.6006 109.5C50.7006 109.9 48.7006 110.1 46.7006 109.2C47.7006 108.7 48.6006 108.2 49.5006 107.7C49.7006 107.6 50.1006 107.7 50.4006 107.9C51.1006 108.3 51.8006 108.8 52.5006 109.3C52.9006 108.9 53.2006 108.5 53.6006 108C53.8006 108.5 54.0006 108.8 54.2006 109.3C54.7006 108.8 55.2006 108.3 55.5006 107.8C55.7006 107.6 55.6006 107.1 55.5006 106.9C54.9006 105 54.4006 103.1 54.9006 101.1C55.0006 100.8 55.1006 100.5 55.2006 100C56.1006 101.3 57.0006 102.4 57.7006 103.5C57.8006 103.7 57.7006 104.1 57.6006 104.4C57.1006 105.4 56.5006 106.4 55.9006 107.4C56.6006 107.6 57.1006 107.8 57.5006 108Z" stroke="#88579C" stroke-width="0.75" stroke-miterlimit="10"/>
<path d="M57.5 107.999C58.8 105.699 60.1 103.499 61.4 101.199C61.8 100.599 62.2 100.199 62.9 99.9994C64 99.6994 65.2 99.2994 66.4 98.8994C66.2 101.899 65.2 104.499 62.7 106.099C61.4 106.899 59.8 107.399 58.3 107.999C58 108.199 57.8 108.099 57.5 107.999Z" stroke="#88579C" stroke-width="0.75" stroke-miterlimit="10"/>
<path d="M53.6003 107.899C49.8003 105.299 46.2004 102.799 42.4004 100.199C48.5004 99.2992 53.3003 101.899 53.6003 107.899Z" stroke="#88579C" stroke-width="0.75" stroke-miterlimit="10"/>
<path d="M59.0002 102C58.1002 100.7 57.2002 99.4997 56.4002 98.3997C56.3002 98.2997 56.3002 97.9996 56.4002 97.7996C58.3002 95.1996 61.0002 93.7996 64.3002 92.5996C62.4002 95.8996 60.8002 98.8996 59.0002 102Z" stroke="#88579C" stroke-width="0.75" stroke-miterlimit="10"/>
<path d="M43.2006 105.7C44.9006 105.8 46.8006 104.5 48.3006 106.4C47.4006 106.9 46.5006 107.4 45.5006 107.8C45.3006 107.9 44.8006 107.8 44.7006 107.7C44.1006 107.1 43.6006 106.5 43.1006 105.9C43.1006 105.8 43.1006 105.7 43.2006 105.7Z" stroke="#88579C" stroke-width="0.75" stroke-miterlimit="10"/>
<path d="M63.1006 98.1996C64.0006 96.4996 64.9006 95.0996 65.7006 93.5996C65.8006 93.5996 65.9006 93.5996 65.9006 93.5996C66.1006 94.6996 66.2006 95.6996 66.3006 96.7996C66.3006 96.9996 66.1006 97.2996 66.0006 97.2996C65.1006 97.5996 64.2006 97.8996 63.1006 98.1996Z" stroke="#88579C" stroke-width="0.75" stroke-miterlimit="10"/>
<path d="M44.7004 103.8C41.8004 104.2 41.8004 104.2 41.4004 101.5C42.5004 102.3 43.5004 103 44.7004 103.8Z" stroke="#88579C" stroke-width="0.75" stroke-miterlimit="10"/>
</svg>
