<svg width="150" height="200" viewBox="0 0 150 200" fill="none" xmlns="http://www.w3.org/2000/svg">
<path d="M76.4001 197.4C61.8001 197.6 48.6001 196.8 35.6001 193.4C24.5001 190.5 17.1001 184.3 14.6001 172.3C11.6001 157.8 6.10008 143.8 3.50008 129.1C-0.399919 106.7 10.8001 83.7003 30.8001 73.1003C32.1001 72.4003 33.4001 71.6003 34.8001 71.1003C44.3001 67.7003 49.2001 61.4003 47.7001 51.0003C47.2001 47.8003 48.8001 48.0003 51.0001 48.4003C58.9001 49.7003 66.8001 50.5003 74.8001 50.5003C83.0001 50.5003 91.1001 50.1003 99.1001 48.6003C101.2 48.2003 103.9 47.3003 103.3 51.4003C101.9 61.3003 107.3 66.5003 115.6 70.5003C138.4 81.5003 149.4 100.1 148.3 125.3C147.9 134.2 144.6 142.7 142.3 151.4C140.1 159.5 137.4 167.5 135.5 175.7C133.8 183.2 129.3 187.8 122.5 190.8C114.9 194.1 106.9 195.3 98.9001 196.2C91.1001 197.2 83.2001 197.9 76.4001 197.4Z" fill="#D8C7DD"/>
<path d="M75.6998 50.8998C65.6998 50.7998 55.7998 50.4998 46.1998 47.4998C39.0998 45.2998 35.6998 37.7998 38.3998 31.2998C39.7998 27.9998 42.1998 26.3998 45.3998 28.3998C50.2998 31.3998 55.7997 32.1998 61.0997 32.3998C76.4997 32.9998 91.9998 33.8998 106.9 28.4998C110.5 27.1998 112.6 29.1998 113.5 32.4998C115.3 39.7998 111.6 45.8998 104.3 47.9998C94.8997 50.6998 85.2998 50.8998 75.6998 50.8998Z" fill="#D8C7DD"/>
<path d="M106.699 10.7998C105.999 16.5998 105.299 22.4998 104.699 28.4998C104.499 30.5998 102.799 30.5998 101.499 30.8998C88.9993 33.9998 76.1993 34.6998 63.3993 33.2998C47.9993 31.5998 48.0992 31.2998 45.5992 15.8998C45.2992 14.0998 44.3993 12.3998 44.8993 10.8998C65.4993 15.6998 85.8993 15.2998 106.699 10.7998Z" fill="#D6A6BD"/>
<path d="M103.499 31.4998L83.3994 33.8998V14.2998L106.499 10.7998L103.499 31.4998Z" fill="#C999B3"/>
<path d="M96.8 57.9002C96.8 57.9002 98.5 68.1002 103.9 71.3002C103.9 71.3002 129.6 82.8002 133.9 91.6002C137.8 99.6002 142.4 107.5 137.5 127.2C134.9 137.6 130 169.5 130 169.5C130 169.5 126.1 188 109 192.6L83.5 197.6C83.5 197.6 129.2 198.8 135.2 177.4L148.4 125.4C148.4 125.4 149.9 97.7002 130.7 79.6002C130.7 79.6002 101.9 65.4002 103.5 54.2002L96.8 57.9002Z" fill="#C0B5C6"/>
<path d="M71.3995 13.5999C66.0995 13.4999 57.0995 13.2999 48.3995 10.5999C46.8995 10.0999 44.5994 9.79998 44.6994 7.89998C44.7994 5.99998 46.9994 5.79995 48.4994 5.29995C59.3994 1.99995 70.6994 1.09993 81.9994 2.09993C89.2994 2.69993 96.5994 3.19997 103.499 5.69997C104.699 6.09997 106.399 6.29994 106.599 7.79994C106.899 9.79994 104.899 10.2 103.599 10.5C94.2994 13.2 84.6995 13.6999 71.3995 13.5999Z" fill="#DFB4C4"/>
<path d="M105 10.8005C104.5 15.0005 104 19.1005 103.6 23.3005C103.5 24.3005 103.4 25.3005 103.3 26.3005C103.2 26.9005 103.4 28.4006 102.9 28.9006C102.6 29.2006 102 29.2005 101.6 29.3005C100.7 29.5005 99.8998 29.7006 98.9998 29.9006C90.8998 31.7006 82.6999 32.6006 74.3999 32.5006C68.0999 32.4006 61.6998 32.0005 55.4998 30.8005C53.8998 30.5005 52.5998 30.1006 51.2998 29.4006C50.3998 28.9006 49.7998 28.0005 49.1998 26.8005C48.4998 25.2005 48.0998 23.0005 47.6998 21.1005C47.3998 19.7005 47.1998 18.3006 46.9998 16.9006C46.7998 16.0006 46.6999 15.0005 46.3999 14.1005C46.0999 13.2005 45.7998 12.2005 45.9998 11.3005C45.3998 11.6005 44.7998 12.0005 44.1998 12.3005C60.1998 16.1005 76.6999 16.9006 92.8999 14.7006C97.5999 14.1006 102.2 13.3005 106.8 12.3005C108.7 11.9005 107.9 9.00058 106 9.40058C85.7998 13.8006 65.0998 14.2006 44.9998 9.40058C44.1998 9.20058 43.3998 9.60058 43.1998 10.4006C42.6998 12.3006 43.3998 14.0005 43.7998 15.8005C44.0998 17.3005 44.2998 18.9006 44.5998 20.4006C44.9998 22.5006 45.2998 24.7005 46.0998 26.8005C47.2998 30.2005 49.5998 32.2006 52.9998 33.2006C55.1998 33.8006 57.4998 34.1006 59.7998 34.4006C63.7998 34.9006 67.6998 35.3006 71.6998 35.4006C80.6998 35.7006 89.7998 34.9006 98.5998 33.0006C99.7998 32.7006 100.9 32.5006 102.1 32.2006C102.8 32.0006 103.6 31.9006 104.2 31.5006C106.1 30.4006 106 28.3006 106.2 26.4006C106.8 21.2006 107.4 15.9006 108 10.7006C108.2 8.90056 105.2 8.90054 105 10.8005Z" fill="#8E6BAA"/>
<path d="M103.499 54.1002C99.1994 59.8002 82.4994 60.0002 75.4994 60.0002C68.4994 60.0002 51.9994 59.8002 47.7994 54.1002C46.8994 52.9002 47.7994 48.2002 47.7994 48.2002H103.499C103.499 48.2002 104.299 52.9002 103.499 54.1002Z" fill="#C0B5C6"/>
<path d="M76.1996 195.901C66.7996 196.001 57.3996 195.801 48.0996 194.401C40.6996 193.301 32.5996 192.001 26.0996 187.901C20.5996 184.301 17.3996 178.701 15.9996 172.301C13.8996 163.001 11.1996 153.901 8.59961 144.801C6.29961 136.601 3.99961 128.101 4.09961 119.501C4.19961 112.201 5.89963 104.901 8.99963 98.3007C12.0996 91.7007 16.4996 85.7007 21.9996 80.9007C24.7996 78.5007 27.8996 76.4006 31.0996 74.6006C32.8996 73.6006 34.7996 72.8007 36.6996 72.0007C38.2996 71.3007 39.7996 70.6007 41.1996 69.7007C46.4996 66.2007 49.4996 60.6007 49.2996 54.3007C49.2996 53.4007 49.1996 52.6007 49.0996 51.7007C49.0996 51.4007 48.6996 50.0007 48.9996 49.8007C48.7996 50.0007 49.6996 49.9007 49.7996 49.9007C50.7996 50.0007 51.8997 50.2007 52.8997 50.4007C57.6997 51.1007 62.4997 51.7007 67.3997 52.0007C77.1997 52.6007 87.2996 52.3007 96.9996 50.7007C98.3996 50.5007 99.9996 49.9007 101.5 49.9007C101.7 49.9007 101.7 49.8007 101.8 50.0007C102.2 50.6007 101.7 51.9006 101.7 52.6006C101.4 55.9006 101.8 59.2007 103.3 62.2007C106.4 68.4007 113 70.9006 118.8 74.1006C124.7 77.4006 130.2 81.5007 134.7 86.7007C143.5 96.8007 147.1 110.001 146.9 123.201C146.8 132.601 143.6 141.201 141.2 150.101C139.9 154.801 138.5 159.601 137.1 164.301C136.4 166.601 135.8 169.001 135.1 171.301C134.5 173.501 134.1 175.701 133.4 177.801C131 185.101 124.6 189.001 117.6 191.301C108.7 194.301 98.9996 195.101 89.6996 195.801C85.2996 196.001 80.6996 196.201 76.1996 195.901C74.2996 195.801 74.2996 198.801 76.1996 198.901C85.8996 199.601 95.8997 198.401 105.4 197.001C113.8 195.801 123.2 193.801 129.8 188.101C132.5 185.801 134.5 182.901 135.8 179.601C136.6 177.601 137 175.401 137.6 173.301C138.2 170.801 138.9 168.301 139.6 165.801C141 160.901 142.5 156.001 143.8 151.101C145.1 146.401 146.6 141.801 147.8 137.101C151.5 122.501 150.2 106.101 142.7 92.9007C139.4 87.0007 134.9 81.8006 129.6 77.6006C126.8 75.3006 123.8 73.3007 120.6 71.5007C117.4 69.7007 114 68.3007 111 66.2007C108.5 64.4007 106.3 62.1007 105.2 59.2007C104.7 57.7007 104.4 56.1007 104.4 54.5007C104.4 52.7007 105 50.8007 104.5 49.0007C103.6 45.8007 99.8996 46.9007 97.4996 47.4007C92.3996 48.3007 87.2996 48.8007 82.0996 49.0007C71.6996 49.4007 61.3996 48.7006 51.0996 47.1006C49.7996 46.9006 48.2996 46.6007 47.0996 47.3007C45.6996 48.2007 45.6997 49.9007 45.8997 51.3007C46.2997 54.5007 46.2997 57.9007 44.8997 60.9007C43.5997 63.7007 41.3996 65.9007 38.7996 67.5007C37.2996 68.4007 35.7996 69.1007 34.1996 69.7007C32.0996 70.5007 30.0996 71.6007 28.1996 72.7007C21.5996 76.5007 15.8997 81.7007 11.3997 87.9007C6.89966 94.0007 3.79961 101.201 2.09961 108.601C0.399607 116.401 0.599607 124.201 2.09961 132.001C3.99961 141.801 7.09964 151.201 9.69964 160.801C10.9996 165.401 11.8996 170.001 13.0996 174.601C13.9996 177.901 15.2997 181.201 17.3997 184.001C21.3997 189.501 27.2996 192.901 33.7996 194.701C42.6996 197.201 52.0997 198.301 61.3997 198.801C66.2997 199.001 71.0996 199.101 75.9996 199.001C78.1996 198.901 78.1996 195.901 76.1996 195.901Z" fill="#8A6AAC"/>
<path d="M75.6997 49.4002C69.1997 49.4002 62.6997 49.2002 56.2997 48.3002C53.0997 47.8002 49.8997 47.1002 46.7997 46.2002C44.5997 45.5002 42.5997 44.3002 41.1997 42.4002C38.5997 39.1002 38.0997 33.8002 40.6997 30.3002C42.3997 28.0002 44.2997 29.5002 46.2997 30.5002C48.8997 31.8002 51.5997 32.7002 54.4997 33.2002C60.4997 34.2002 66.7998 34.1002 72.8998 34.3002C79.2998 34.4002 85.5998 34.4002 91.8998 33.6002C94.9998 33.2002 97.9997 32.7002 101 31.9002C102.5 31.5002 104.1 31.1002 105.5 30.6002C106.7 30.2002 108 29.5002 109.3 29.6002C111.3 29.8002 112 32.2002 112.3 33.9002C112.7 36.0002 112.5 38.2002 111.7 40.1002C109.4 45.7002 103.1 47.0002 97.7997 47.9002C90.4997 49.3002 83.0997 49.4002 75.6997 49.4002C73.7997 49.4002 73.7997 52.4002 75.6997 52.4002C82.9997 52.3002 90.3997 52.2002 97.5997 51.0002C103.2 50.1002 109.3 48.8002 112.9 43.9002C115.8 40.0002 116.4 33.9002 114 29.6002C112.9 27.6002 110.9 26.4002 108.6 26.5002C107.1 26.6002 105.7 27.3002 104.3 27.7002C102.5 28.3002 100.7 28.8002 98.7997 29.2002C91.8997 30.8002 84.7997 31.2002 77.6997 31.2002C74.1997 31.2002 70.6997 31.1002 67.1997 31.0002C63.7997 30.9002 60.2998 30.9002 56.8998 30.5002C53.5998 30.1002 50.2997 29.3002 47.2997 27.7002C44.9997 26.5002 42.6997 25.2002 40.1997 26.6002C37.8997 27.9002 36.6997 30.6002 36.1997 33.1002C35.6997 35.6002 35.7997 38.2002 36.6997 40.5002C37.6997 43.1002 39.3997 45.3002 41.5997 46.9002C44.4997 49.0002 48.1997 49.7002 51.5997 50.4002C59.4997 52.0002 67.4997 52.2002 75.4997 52.3002C77.5997 52.5002 77.5997 49.5002 75.6997 49.4002Z" fill="#8A6AAC"/>
<path d="M71.1992 12.1002C67.5992 12.1002 64.0992 11.9003 60.4992 11.5003C56.1992 11.0003 52.0993 10.1003 47.8993 8.90028C47.2993 8.70028 45.0992 8.30026 46.2992 7.50026C46.7992 7.20026 47.4992 7.10028 48.0992 6.90028C49.1992 6.60028 50.2993 6.30026 51.3993 6.00026C55.8993 4.80026 60.3992 4.00023 65.0992 3.60023C74.1992 2.80023 83.5992 3.40027 92.6992 4.70027C94.8992 5.00027 97.0992 5.40026 99.2992 6.00026C100.399 6.30026 101.399 6.60026 102.399 7.00026C102.999 7.20026 104.199 7.40024 104.699 7.80024C105.499 8.60024 103.299 9.00023 102.799 9.10023C101.099 9.60023 99.4992 10.0002 97.7992 10.3002C89.0992 12.1002 80.0992 12.2002 71.1992 12.1002C69.2992 12.1002 69.2992 15.1002 71.1992 15.1002C80.3992 15.1002 89.6992 15.0003 98.6992 13.2003C100.599 12.8003 102.499 12.3002 104.299 11.8002C105.899 11.3002 107.499 10.6002 107.899 8.80024C108.299 6.70024 106.899 5.30027 105.099 4.70027C102.899 3.90027 100.599 3.20027 98.2992 2.70027C93.1992 1.50027 87.8992 1.10027 82.6992 0.700269C77.2992 0.300269 71.8992 0.100257 66.4992 0.500257C61.1992 0.900257 55.9993 1.70026 50.8993 3.00026C48.0993 3.70026 41.2992 4.80024 43.1992 9.30024C43.9992 11.2002 46.1992 11.5002 47.9992 12.1002C50.7992 13.0002 53.6992 13.6002 56.5992 14.1002C61.3992 14.8002 66.2992 15.1003 71.0992 15.2003C73.0992 15.2003 73.0992 12.2002 71.1992 12.1002Z" fill="#8E6BAA"/>
<path d="M106.1 43.1998L95.1998 44.7998C92.5998 45.1998 90.1998 43.3998 89.7998 40.7998C89.3998 38.1998 91.1998 35.7998 93.7998 35.3998L104.7 33.7998C107.3 33.3998 109.7 35.1998 110.1 37.7998C110.5 40.3998 108.7 42.7998 106.1 43.1998Z" fill="#C0B5C6"/>
<path d="M73.5996 173.9C61.4996 173.8 51.3996 164.9 48.2996 151.3C46.3996 142.9 47.6997 134.9 50.8997 127.6C53.6997 121.1 57.2997 115.2 60.3997 108.9C63.5997 102.6 66.5996 96.2002 69.6996 89.8002C70.4996 88.1002 71.6996 87.2002 73.1996 87.1002C74.4996 87.0002 75.4996 87.5002 76.1996 89.0002C82.2996 101.4 88.3996 113.9 94.4996 126.3C96.9996 131.5 98.6996 137.2 98.7996 143.3C98.8996 160.3 88.1996 171.2 78.0996 173.3C76.5996 173.7 75.0996 173.7 73.5996 173.9ZM73.2996 90.9002C72.9996 91.4002 72.7996 91.7002 72.5996 92.1002C67.2996 102.4 61.9996 112.8 56.5996 123.1C53.8996 128.2 51.8996 133.4 51.0996 139.5C50.1996 146.5 51.1996 152.9 54.5996 158.6C54.8996 159.1 55.2996 159.6 55.6996 159.9C58.9996 162.5 62.7996 163.5 66.5996 164.1C76.1996 165.4 84.8996 159.5 89.0996 148.9C91.3996 143 91.6996 136.7 90.7996 130.3C90.4996 128.2 90.2997 126.1 89.8997 124C89.6997 123 89.0996 122.1 88.5996 121.2C83.7996 111.5 78.8996 101.9 74.0996 92.3002C73.8996 91.8002 73.5996 91.4002 73.2996 90.9002Z" fill="#E8C5DF"/>
<path d="M73.2995 90.9004C73.5995 91.4004 73.8995 91.8004 74.0995 92.2004C78.8995 101.8 83.7995 111.5 88.5995 121.1C89.0995 122 89.6996 122.9 89.8996 123.9C90.2996 126 90.4995 128.1 90.7995 130.2C91.6995 136.6 91.3995 142.9 89.0995 148.8C84.9995 159.4 76.1995 165.3 66.5995 164C62.6995 163.5 58.9996 162.4 55.6996 159.8C55.2996 159.5 54.8995 159 54.5995 158.5C51.1995 152.8 50.1995 146.4 51.0995 139.4C51.8995 133.4 53.8995 128.1 56.5995 123C61.9995 112.7 67.2995 102.4 72.5995 92.0004C72.6995 91.7004 72.9995 91.4004 73.2995 90.9004Z" fill="#D4A9CF"/>
<path d="M73.5995 173.2C61.5995 173 52.6995 163.9 49.4995 152.8C47.3995 145.4 47.7995 137.6 50.2995 130.3C52.8995 122.8 57.1995 115.9 60.6995 108.8C62.4995 105.2 64.2995 101.5 65.9995 97.7999C66.8995 95.9999 67.7995 94.0999 68.5995 92.2999C69.3995 90.6999 69.9995 88.5999 71.1995 87.2999C72.2995 86.0999 74.2995 85.8999 75.2995 87.2999C76.3995 88.8999 77.0995 90.9999 77.8995 92.6999C79.6995 96.3999 81.4995 100.1 83.2995 103.9C86.8995 111.4 90.5995 118.8 94.0995 126.4C97.1995 133.2 98.5995 140.6 97.6995 148C96.2995 158.6 89.4995 169.5 78.6995 172.4C77.0995 172.8 75.2995 173 73.5995 173.2C72.6995 173.3 72.5995 174.8 73.5995 174.7C76.6995 174.3 79.4995 174 82.2995 172.7C84.6995 171.7 86.7995 170.2 88.7995 168.5C93.2995 164.6 96.4995 159.2 98.0995 153.5C100.199 146.2 99.8995 138.4 97.5995 131.3C96.2995 127.4 94.3995 123.7 92.6995 120C90.6995 115.9 88.7995 111.8 86.7995 107.7C84.7995 103.6 82.8995 99.4999 80.8995 95.3999C79.8995 93.2999 78.8995 91.1999 77.8995 89.0999C77.1995 87.6999 76.6995 85.8999 75.0995 85.1999C72.1995 83.7999 69.8995 86.2999 68.6995 88.6999C66.7995 92.7999 64.8995 96.7999 62.8995 100.9C59.0995 108.8 54.7995 116.4 51.0995 124.3C47.6995 131.7 45.7995 139.6 46.7995 147.8C48.3995 160 56.3995 172.1 69.1995 174.4C70.5995 174.6 71.9995 174.8 73.3995 174.8C74.5995 174.7 74.5995 173.2 73.5995 173.2Z" fill="#A073B0"/>
</svg>
