<svg width="151" height="223" viewBox="0 0 151 223" fill="none" xmlns="http://www.w3.org/2000/svg">
<path d="M121.8 7.00059C121.4 10.2006 120.9 13.2006 120.4 16.7006C115.3 17.5006 110.2 18.2006 105.1 19.0006C105.2 19.4006 105.2 19.8006 105.3 20.2006C110.2 19.6006 115.1 18.9006 120.2 18.2006C120.1 18.8006 119.9 19.6006 119.9 20.3006C119.3 26.8006 119.3 27.1006 113 28.1006C98.4004 30.3006 83.8004 30.0006 69.2004 26.4006C67.9004 19.7006 66.6004 13.1006 65.4004 6.60059C84.2004 10.6006 102.8 10.4006 121.8 7.00059Z" fill="white"/>
<path d="M92.2997 44.2008C83.2997 43.0008 73.7997 41.7008 64.2997 40.3008C59.4997 39.6008 59.2997 35.8008 59.0997 31.9008C58.8997 27.9008 61.4997 26.4008 64.5997 25.3008C65.2997 25.1008 66.6997 24.9008 66.8997 25.2008C69.4997 29.9008 74.4997 29.2008 78.4997 29.7008C90.5997 31.4008 102.9 31.7008 115 29.0008C117.1 28.5008 118.9 26.8008 120.9 25.7008C121.6 25.3008 122.9 25.0008 123.4 25.3008C125.1 26.5008 127.5 27.7008 127.9 29.3008C129.6 36.2008 128 39.1008 120.9 40.4008C111.7 42.2008 102.3 43.0008 92.2997 44.2008Z" fill="white"/>
<path d="M65.7998 3.90041C74.0998 -0.699592 113.6 -0.599593 121.9 4.00041C116.4 9.60041 71.6998 9.60041 65.7998 3.90041Z" fill="white"/>
<path d="M146.1 207.501C146.1 214.001 140.8 219.301 134.3 219.301H14.2004C7.70041 219.301 2.40039 214.001 2.40039 207.501C2.40039 207.501 3.20041 134.001 4.70041 132.001C8.90041 108.001 25.2004 88.1008 47.0004 78.9008V50.8008H100.8V78.5008C123.6 87.6008 140.5 108.101 144.5 133.001C145.5 134.701 146.1 207.501 146.1 207.501Z" fill="#EADAEC"/>
<path d="M46.9004 11.3007C66.3004 7.80072 84.7004 7.80072 104.1 11.2007C97.8004 17.8007 55.0004 17.8007 46.9004 11.3007Z" fill="#DCB4C2"/>
<path d="M45.5 11.5C65.3 15.9 84.7 15.7 104.1 12.2C103.9 14.3 103.7 16.7 103.5 19.2C103.4 22 105.4 34.8 94.9 36.1C80.9 37.9 67.3 38.4 53.6 35C52 34.6 49.7 33.5 49.4 32.3C47.8 25.4 46.7 18.4 45.5 11.5Z" fill="#D4A4BC"/>
<path d="M103.3 33.9C103.3 33.9 96.7 40.1 75.5 39.1C47.8 37.8 47.7 32.1 47.7 32.1L45.5 11.5H105.5L103.3 33.9Z" fill="#D4A4BC"/>
<path d="M103.3 33.9C103.3 33.9 96.7 40.1 75.5 39.1C47.8 37.8 47.7 32.1 47.7 32.1L45.5 11.5H105.5L103.3 33.9Z" stroke="#7563A6" stroke-miterlimit="10"/>
<path d="M111.301 42.1006C111.601 42.6006 111.801 43.1006 111.801 43.6006C111.801 48.8006 95.6006 52.9006 75.7006 52.9006C55.8006 52.9006 39.6006 48.7006 39.6006 43.6006C39.6006 43.1006 39.8006 42.6006 40.1006 42.1006C39.8006 41.3006 39.6006 40.4006 39.6006 39.5006C39.6006 37.5006 40.4006 35.6006 41.8006 34.3006C43.1006 33.0006 45.0006 32.1006 47.0006 32.1006H104.401C108.501 32.1006 111.801 35.4006 111.801 39.5006C111.801 40.4006 111.601 41.3006 111.301 42.1006Z" fill="#EADAEC"/>
<path d="M108.2 47.6H87.2004C84.8004 47.6 82.9004 45.7 82.9004 43.3V37.3C82.9004 34.9 84.8004 33 87.2004 33H108.2C110.6 33 112.5 34.9 112.5 37.3V43.3C112.5 45.7 110.6 47.6 108.2 47.6Z" fill="#CBACD1"/>
<path d="M112.001 42.1002C112.001 50.5002 95.8006 48.8002 75.9006 48.8002C56.0006 48.8002 39.6006 50.6002 39.8006 42.1002C39.8006 41.7002 39.8006 39.4002 39.8006 38.6002C39.8006 36.9002 40.6007 35.3002 42.0007 34.1002C43.3007 32.9002 45.2007 32.2002 47.2007 32.2002H104.601C108.701 32.2002 112.001 35.0002 112.001 38.5002C112.001 39.4002 112.001 41.7002 112.001 42.1002Z" stroke="#7563A6" stroke-width="2" stroke-miterlimit="10"/>
<path d="M102.6 30.8H89.9004V16.5L105.5 11.5L102.6 30.8Z" fill="#C494AE"/>
<path d="M75.5 16.5C92.0685 16.5 105.5 14.2614 105.5 11.5C105.5 8.73858 92.0685 6.5 75.5 6.5C58.9315 6.5 45.5 8.73858 45.5 11.5C45.5 14.2614 58.9315 16.5 75.5 16.5Z" fill="#D4A4BC"/>
<path d="M75.5 16.5C92.0685 16.5 105.5 14.2614 105.5 11.5C105.5 8.73858 92.0685 6.5 75.5 6.5C58.9315 6.5 45.5 8.73858 45.5 11.5C45.5 14.2614 58.9315 16.5 75.5 16.5Z" stroke="#7563A6" stroke-miterlimit="10"/>
<path d="M101 50.7002H89.9004V79.8002H101V50.7002Z" fill="#CBACD1"/>
<path d="M89.9004 79.8004L102.3 78.4004C125.1 87.5004 142.3 110 146.3 134.9L147.2 170.7C147.2 170.7 148.6 197 147.4 209.8C147.3 211.4 146.4 221.8 127.5 219.3C127.5 219.3 143.4 218.9 142.7 204.8L140.3 135C140.3 134.9 141.6 101.7 89.9004 79.8004Z" fill="#CBACD1"/>
<path d="M147.3 208.701C147.2 214.701 142.4 219.201 136.4 219.201C134.7 219.201 132.9 219.201 131.2 219.201C122.9 219.201 114.7 219.201 106.4 219.201C94.8002 219.201 83.2002 219.201 71.6002 219.201C60.4002 219.201 49.2002 219.201 37.9002 219.201C30.9002 219.201 23.8001 219.201 16.8001 219.201C14.8001 219.201 12.9002 219.301 11.0002 218.701C7.30016 217.501 4.50015 214.201 3.90015 210.301C3.80015 209.401 3.80014 208.501 3.80014 207.601C3.90014 199.401 4.00017 191.301 4.20017 183.101C4.40017 171.401 4.60016 159.701 5.00016 148.001C5.10016 143.901 5.30016 139.801 5.60016 135.701C5.60016 135.101 5.70014 134.401 5.80014 133.801C5.80014 133.601 5.90015 133.301 5.90015 133.101C5.90015 132.801 5.80015 133.501 5.90015 133.101C5.90015 133.001 5.90015 132.901 5.90015 132.801C6.00015 132.401 6.00015 132.001 5.90015 132.501C6.30015 130.401 6.80014 128.401 7.30014 126.301C11.7001 109.301 22.6001 94.4006 37.3001 84.9006C40.9001 82.6006 44.6002 80.6006 48.5002 79.0006C49.0002 78.8006 49.2002 78.2006 49.2002 77.7006C49.2002 69.3006 49.2002 60.9006 49.2002 52.5006C49.2002 51.3006 49.2002 50.1006 49.2002 49.0006C48.7002 49.5006 48.2002 50.0006 47.7002 50.5006C53.9002 50.5006 60.1002 50.5006 66.2002 50.5006C76.0002 50.5006 85.8002 50.5006 95.6002 50.5006C97.9002 50.5006 100.1 50.5006 102.4 50.5006C101.9 50.0006 101.4 49.5006 100.9 49.0006C100.9 57.2006 100.9 65.5006 100.9 73.7006C100.9 74.9006 100.9 76.0006 100.9 77.2006C100.9 77.9006 101.4 78.4006 102 78.6006C116 84.2006 128 94.4006 135.9 107.201C139.9 113.701 142.8 120.801 144.5 128.201C144.9 129.901 145.4 131.701 145.6 133.501C145.5 132.801 145.5 133.501 145.6 133.701C145.5 133.101 145.6 133.601 145.6 133.801C145.6 134.001 145.6 134.201 145.7 134.401C145.7 134.901 145.8 135.401 145.8 135.901C146.3 143.901 146.3 151.901 146.5 160.001C146.7 170.301 146.8 180.501 146.9 190.801C147 196.701 146.8 202.601 147.1 208.401C147.3 208.501 147.3 208.601 147.3 208.701C147.3 210.601 150.3 210.601 150.3 208.701C150.3 203.701 150.2 198.701 150.2 193.701C150.1 183.401 150 173.101 149.8 162.901C149.6 154.301 149.5 145.701 149.1 137.101C148.6 127.501 145.4 117.901 140.8 109.401C133.6 96.0006 122.1 84.9006 108.3 78.2006C106.6 77.4006 104.8 76.6006 103 75.9006C103.4 76.4006 103.7 76.9006 104.1 77.3006C104.1 69.1006 104.1 60.8006 104.1 52.6006C104.1 51.4006 104.1 50.3006 104.1 49.1006C104.1 48.3006 103.4 47.6006 102.6 47.6006C96.4002 47.6006 90.2002 47.6006 84.1002 47.6006C74.3002 47.6006 64.5002 47.6006 54.7002 47.6006C52.4002 47.6006 50.2002 47.6006 47.9002 47.6006C47.1002 47.6006 46.4002 48.3006 46.4002 49.1006C46.4002 57.5006 46.4002 65.9006 46.4002 74.3006C46.4002 75.5006 46.4002 76.7006 46.4002 77.8006C46.6002 77.4006 46.9002 76.9006 47.1002 76.5006C30.7002 83.5006 17.0001 96.5006 9.30014 112.601C7.40014 116.701 5.80016 120.901 4.60016 125.301C4.30016 126.401 4.10014 127.501 3.80014 128.501C3.60014 129.301 3.50015 130.401 3.40015 131.101C3.30015 131.501 3.10016 131.701 3.10016 132.101C2.60016 135.001 2.50015 138.101 2.40015 141.101C1.90015 152.401 1.70015 163.701 1.40015 174.901C1.20015 184.901 1.00015 194.801 0.90015 204.801C0.90015 207.501 0.700156 210.201 1.50016 212.801C3.40016 218.601 8.80014 222.201 14.8001 222.301C20.3001 222.301 25.8002 222.301 31.2002 222.301C42.0002 222.301 52.8002 222.301 63.6002 222.301C75.7002 222.301 87.7001 222.301 99.8001 222.301C109.2 222.301 118.6 222.301 128 222.301C130.5 222.301 132.9 222.301 135.4 222.301C139 222.301 142.4 221.601 145.3 219.301C148.5 216.701 150.3 212.801 150.4 208.801C150.4 206.701 147.4 206.701 147.3 208.701Z" fill="#7560A7"/>
<path d="M62.8999 129.501C64.7999 134.101 66.7999 138.701 68.7999 143.201C72.0999 150.601 75.3999 158.101 79.5999 165.101C82.0999 169.201 85.1999 172.901 88.2999 176.501C91.6999 180.601 95.2999 184.601 99.1999 188.301C103.6 192.501 108.3 196.601 113.8 199.301C115.6 200.201 117.7 201.101 119.8 201.001C120.3 201.001 121.5 200.801 121.7 200.301C122 199.801 121.4 199.801 121 199.801C121.6 199.801 121.2 199.801 121 199.801C120.7 199.701 121.2 199.801 120.9 199.801C120.7 199.801 120.6 199.701 120.4 199.701C119.3 199.501 118.2 199.101 117.2 198.601C112.1 196.301 107.7 192.601 103.7 188.901C100.1 185.601 96.7999 182.001 93.4999 178.401C89.8999 174.301 86.1999 170.201 83.2999 165.601C79.0999 159.101 75.8999 151.801 72.6999 144.801C70.2999 139.501 67.9999 134.201 65.7999 128.801C65.4999 128.001 62.6999 129.001 62.8999 129.501Z" fill="#8D71AE"/>
<path d="M103.4 135.601C103.4 135.601 83.3001 145.101 99.2001 184.801C99.2001 184.801 117.9 164.001 103.4 135.601Z" fill="#BDB3D9"/>
<path d="M55.7002 187.3C55.7002 187.3 64.3002 205 106.8 194.4C106.8 194.4 86.3002 177 55.7002 187.3Z" fill="#BDB3D9"/>
<path d="M30 128.9C30 128.9 31.1 149.7 70.6 147.5C70.7 147.5 59.4 124.4 30 128.9Z" fill="#BDB3D9"/>
<path d="M90.2996 121.4C90.2996 121.4 69.1996 126.1 79.8996 159.9C79.8996 159.9 101.1 146 90.2996 121.4Z" fill="#BDB3D9"/>
<path d="M49.1002 90.2998C49.1002 90.2998 34.9002 106.3 65.4002 132.3C65.4002 132.3 73.8002 107.5 49.1002 90.2998Z" fill="#BDB3D9"/>
<path d="M90.2996 121.4C90.2996 121.4 69.1996 126.1 79.8996 159.9C79.8996 159.9 101.1 146 90.2996 121.4Z" stroke="#8D71AE" stroke-miterlimit="10"/>
<path d="M49.1002 89.7002C49.1002 89.7002 34.9002 105.7 65.4002 131.7C65.4002 131.7 73.8002 106.9 49.1002 89.7002Z" stroke="#8D71AE" stroke-miterlimit="10"/>
<path d="M30 128.9C30 128.9 31.1 149.7 70.6 147.5C70.7 147.5 59.4 124.4 30 128.9Z" stroke="#8D71AE" stroke-miterlimit="10"/>
<path d="M55.7002 187.3C55.7002 187.3 64.3002 205 106.8 194.4C106.8 194.4 86.3002 177 55.7002 187.3Z" stroke="#8D71AE" stroke-miterlimit="10"/>
<path d="M103.4 135.601C103.4 135.601 83.3001 145.101 99.2001 184.801C99.2001 184.801 117.9 164.001 103.4 135.601Z" stroke="#8D71AE" stroke-miterlimit="10"/>
<path d="M98.2998 183.8L101.1 162.8L100.3 183.9L98.2998 183.8Z" fill="#8D71AE"/>
<path d="M105 194.7L76.9004 192.8L105.1 192.7L105 194.7Z" fill="#8D71AE"/>
<path d="M79.0996 158.801L85.2996 137.101L80.9996 159.201L79.0996 158.801Z" fill="#8D71AE"/>
<path d="M69.6998 147.2L51.2998 139.4L70.3998 145.3L69.6998 147.2Z" fill="#8D71AE"/>
<path d="M64.0004 130.5L58.4004 109.2L65.9004 129.9L64.0004 130.5Z" fill="#8D71AE"/>
</svg>
