<svg width="150" height="197" viewBox="0 0 150 197" fill="none" xmlns="http://www.w3.org/2000/svg">
<path d="M45.6002 49.9005C64.3002 52.4005 82.7002 52.9006 101.1 49.7006C104.2 49.2006 105.7 49.8005 105.1 53.3005C103.7 61.8005 107.9 67.1005 114.7 71.3005C123.7 76.9005 132.4 83.0005 138.5 92.1005C150.6 110.101 149.6 129.001 141.7 148.101C134.9 164.501 124 178.001 110.1 188.901C105.2 192.801 99.2003 193.601 93.4003 194.301C78.9003 196.001 64.4002 195.801 50.0002 192.701C44.7002 191.601 40.6002 189.001 36.7002 185.601C21.7002 172.301 9.80023 156.801 4.80023 136.901C-1.29977 112.501 7.0002 91.0005 27.7002 76.6005C30.5002 74.6005 33.4003 72.6005 36.4003 71.0005C43.0003 67.4005 46.6002 62.2005 45.6002 54.4005C45.4002 52.9005 45.6002 51.4005 45.6002 49.9005Z" fill="#EADBED"/>
<path d="M75.0003 51.3001C63.2003 51.1001 53.2003 50.1002 43.2003 48.2002C37.2003 47.0002 32.7003 36.1002 36.2003 31.1002C37.5003 29.2002 39.3003 29.5002 41.5003 29.9002C62.5003 34.0002 83.6003 35.0002 104.8 30.6002C105.4 30.5002 106.2 30.6002 106.8 30.4002C113.5 27.9002 115 29.0001 114.8 36.3001C114.6 43.9001 112.1 47.1002 105 48.4002C94.5003 50.2002 84.0003 51.1001 75.0003 51.3001Z" fill="#E9D9EC"/>
<path d="M43.4004 8.2002C65.0004 12.8002 86.3004 13.2002 107.9 9.00018C107 15.4002 105.9 21.9002 105.3 28.4002C105.1 30.6002 104.3 31.6002 102.2 31.9002C84.7003 34.6002 67.1003 34.1002 49.6003 32.0002C47.8003 31.8002 47.3003 30.9002 47.1003 29.1002C45.9003 22.3002 44.6004 15.3002 43.4004 8.2002Z" fill="#EEC5DE"/>
<path d="M43 7.09965C48.7 3.79965 54.6 3.09965 60.3 2.59965C74.4 1.49965 88.5 1.29963 102.4 4.39963C104.6 4.89963 108 5.19963 108.1 7.29963C108.3 9.89963 105 10.0996 102.8 10.4996C89.2 13.3996 75.4 12.5997 61.6 11.6997C55.5 11.3997 49.1 11.1996 43 7.09965Z" fill="#EEC5DE"/>
<path d="M103.8 30.2L83.7002 32.7V13L106.8 9.5L103.8 30.2Z" fill="#C999B3"/>
<path d="M104.801 56.6998C99.6006 61.8998 51.6006 61.8998 46.5006 56.6998C45.6006 55.7998 46.5006 51.2998 46.5006 51.2998H104.801C104.801 51.2998 105.701 55.6998 104.801 56.6998Z" fill="#DDC7E2"/>
<path d="M96.0004 59.3C96.0004 59.3 99.4003 71.0001 105.2 74.2001C105.2 74.2001 135.3 89.9 135.5 103.9C136 140.3 121.9 184 91.5004 191.5C91.5004 191.5 77.6004 195.2 73.4004 194.2C73.4004 194.2 107 196.1 119 182.5C119 182.5 133.6 163.4 138 155.7C138 155.7 150.4 136.1 147.6 111.3C147.6 111.3 140.4 86.4001 127.2 80.1001C127.2 80.1001 109 69.0001 105.2 63.6001C105.2 63.6001 103.9 60.0001 104.8 56.7001C105.7 53.4001 95.0004 56.7001 95.0004 56.7001L96.0004 59.3Z" fill="#DDC7E2"/>
<path d="M45.1003 51.4001C63.0003 53.8001 81.2003 54.3001 99.1003 51.5001C100 51.4001 101 51.1001 101.9 51.1001C102.3 51.1001 103 51.0001 103.3 51.2001C103.9 51.6001 103.4 53.3001 103.3 53.9001C102.9 57.1001 103.2 60.2001 104.5 63.2001C107.3 69.4001 113.6 72.4001 119 76.0001C125.4 80.3001 131.6 85.2001 136.2 91.5001C141 98.1001 144.4 105.8 145.6 113.9C148 129.4 142.4 145.4 134.7 158.7C131 165.1 126.5 171 121.4 176.4C118.8 179.1 116.1 181.7 113.3 184.2C110.3 186.8 107.4 189.3 103.7 190.7C100 192 96.1003 192.5 92.2003 192.9C87.8003 193.4 83.3004 193.7 78.8004 193.8C69.7004 194 60.5003 193.4 51.6003 191.6C47.7003 190.8 44.2004 189.6 40.9004 187.4C37.8004 185.4 35.2003 182.7 32.5003 180.2C27.2003 175.1 22.3003 169.6 18.1003 163.6C9.90031 151.9 4.20035 137.8 3.70035 123.4C3.30035 110.4 7.80036 97.8001 16.4004 88.0001C21.4004 82.4001 27.4004 77.8001 33.8004 73.9001C36.8004 72.1001 39.9004 70.5001 42.4004 68.0001C44.4004 65.9001 45.9003 63.2 46.5003 60.3C46.8003 58.8 46.9004 57.3 46.8004 55.8C46.7004 53.8 46.6003 51.9 46.6003 49.8C46.6003 47.9 43.6003 47.9 43.6003 49.8C43.6003 51.9 43.7004 53.9001 43.8004 55.9001C43.9004 57.5001 43.7004 59.1001 43.3004 60.6001C42.5004 63.4001 40.6003 65.8001 38.2003 67.6001C36.7003 68.7001 35.1003 69.6001 33.5003 70.5001C31.5003 71.7001 29.6003 72.9 27.7003 74.3C24.6003 76.4 21.6004 78.7001 18.9004 81.2001C8.90036 90.4001 2.30036 102.6 0.900359 116.1C-0.599641 130.7 3.90031 145.7 11.1003 158.3C14.8003 164.8 19.4004 170.8 24.4004 176.3C27.0004 179.1 29.6004 181.7 32.4004 184.3C35.2004 186.9 38.2003 189.5 41.6003 191.3C45.3003 193.3 49.2004 194.2 53.3004 194.9C57.9004 195.7 62.6004 196.2 67.3004 196.5C76.5004 197 85.8004 196.6 94.9004 195.4C98.8004 194.9 102.7 194.2 106.3 192.6C110 191 113 188.2 116 185.6C121.8 180.5 127 174.9 131.6 168.7C140.9 156.1 148 140.5 149 124.7C150.1 108.1 143.1 92.0001 130.7 80.9001C127.8 78.3001 124.6 76 121.4 73.8C118.4 71.7 115 70.0001 112.2 67.7001C109.9 65.8001 107.8 63.5001 106.8 60.6001C106.3 59.1001 106.1 57.6001 106.1 56.0001C106.1 54.3001 106.7 52.7001 106.4 51.0001C105.9 48.0001 103.1 47.7001 100.6 48.1001C95.9003 48.8001 91.3003 49.5 86.6003 49.8C77.3003 50.5 68.0003 50.4001 58.7003 49.7001C54.1003 49.4001 49.6003 48.9001 45.0003 48.2001C44.2003 48.1001 43.5003 49.0001 43.5003 49.7001C43.6003 50.8001 44.3003 51.3001 45.1003 51.4001Z" fill="#8864A8"/>
<path d="M75.0003 49.8C68.1003 49.7 61.2003 49.3 54.3003 48.5C51.1003 48.1 48.0003 47.6 44.8003 47C42.5003 46.6 41.0003 45.8 39.5003 44C37.2003 41.1 35.3002 36 37.1002 32.5C37.6002 31.5 38.3003 31 39.5003 31.1C41.0003 31.2 42.6002 31.6 44.1002 31.9C47.8002 32.6 51.5002 33.1 55.2002 33.6C69.7002 35.4 84.5003 35.5 98.9003 33.2C100.7 32.9 102.5 32.6 104.3 32.2C105 32.1 105.7 32 106.5 31.9C107.3 31.8 108.1 31.5 108.8 31.2C109.6 30.9 110.5 30.7 111.4 30.6C111.6 30.6 112.1 30.6 112.1 30.6C112.1 30.6 112.6 30.7 112.3 30.6C112.3 30.6 112.7 30.8 112.5 30.7C112.8 31 113 31.4 113.1 32C113.3 33 113.3 34.1 113.3 35.1C113.3 37.3 113.2 39.7 112.3 41.8C111.5 43.7 110.1 45 108.2 45.8C105.1 47.1 101.6 47.3 98.3003 47.8C90.6003 49 82.8003 49.6 75.0003 49.8C73.1003 49.8 73.1003 52.8 75.0003 52.8C82.6003 52.6 90.2002 52 97.7002 50.9C101.2 50.4 104.9 50.1 108.2 49C110.3 48.3 112.3 47.2 113.7 45.4C115.2 43.5 115.8 41.2 116.1 38.8C116.4 36.3 116.5 33.6 116 31.1C115.6 29.4 114.6 28 112.9 27.6C110.7 27.1 108.6 28.2 106.5 28.7C105.7 28.9 104.8 28.9 104 29C103 29.2 102.1 29.4 101.1 29.6C99.0002 30 96.8002 30.3 94.7002 30.6C90.7002 31.1 86.6003 31.5 82.5003 31.6C74.5003 31.9 66.6002 31.6 58.7002 30.8C54.6002 30.4 50.5003 29.8 46.5003 29.1C44.7003 28.8 42.9002 28.4 41.1002 28.1C39.7002 27.9 38.2003 27.8 36.9003 28.5C34.7003 29.7 33.9002 32.5 33.7002 34.8C33.5002 37.3 34.2002 39.8 35.2002 42.1C36.3002 44.6 38.0003 46.9 40.3003 48.4C41.5003 49.2 42.8002 49.5 44.2002 49.7C46.1002 50.1 48.1003 50.4 50.0003 50.7C58.3003 51.9 66.7002 52.5 75.1002 52.6C76.9002 52.8 76.9003 49.8 75.0003 49.8Z" fill="#8864A8"/>
<path d="M43.0005 8.69989C59.7005 12.1999 76.8005 13.3999 93.8005 11.6999C98.7005 11.1999 103.5 10.4999 108.3 9.59989C107.7 8.99989 107.1 8.39987 106.5 7.79987C106 11.1999 105.5 14.5999 105 17.8999C104.5 21.1999 104.3 24.5999 103.7 27.8999C103.5 28.7999 103.3 29.2999 102.5 29.4999C101 29.9999 99.3004 29.9999 97.7004 30.1999C94.3004 30.5999 90.8005 30.8999 87.4005 31.0999C80.5005 31.4999 73.6004 31.4999 66.7004 31.1999C63.2004 30.9999 59.6004 30.7999 56.1004 30.3999C54.5004 30.1999 52.8004 30.0999 51.2004 29.8999C50.2004 29.7999 49.0004 29.9999 48.6004 28.8999C48.1004 27.3999 48.1005 25.5999 47.8005 24.0999C47.5005 22.1999 47.2005 20.2999 46.9005 18.3999C46.2005 14.5999 45.6005 10.6999 44.9005 6.89988C44.6005 4.99988 41.7005 5.79989 42.0005 7.69989C42.6005 11.3999 43.3005 14.9999 43.9005 18.6999C44.5005 22.1999 44.9004 25.7999 45.6004 29.2999C45.8004 30.2999 46.3004 31.2999 47.2004 31.8999C48.4004 32.6999 50.0005 32.6999 51.5005 32.8999C55.3005 33.2999 59.0005 33.6999 62.8005 33.8999C70.3005 34.3999 77.9005 34.4999 85.4005 34.1999C89.2005 33.9999 93.0004 33.6999 96.7004 33.2999C98.5004 33.0999 100.3 32.8999 102 32.5999C103.2 32.3999 104.5 32.0999 105.3 31.1999C106.3 30.1999 106.5 28.8999 106.7 27.5999C107 25.3999 107.2 23.2999 107.5 21.0999C108.1 16.8999 108.7 12.6999 109.3 8.49988C109.5 7.29988 108.7 6.39989 107.5 6.69989C91.2005 9.79989 74.5005 10.2999 58.0005 8.29987C53.2005 7.69987 48.5005 6.89988 43.8005 5.89988C41.9005 5.39988 41.1005 8.29989 43.0005 8.69989Z" fill="#7D5C9E"/>
<path d="M44.1006 8.40008C51.7006 4.10008 60.9007 4.00009 69.4007 3.60009C78.7007 3.20009 88.1007 3.40008 97.3007 4.90008C99.3007 5.20008 101.401 5.70009 103.401 6.10009C104.201 6.30009 106.701 6.40008 107.001 7.40008C107.301 8.30008 105.501 8.6001 105.001 8.7001C103.201 9.1001 101.401 9.4001 99.6006 9.7001C90.5006 11.3001 81.1007 11.2001 71.9007 10.8001C67.0007 10.6001 62.1007 10.3001 57.3007 9.90008C52.6007 9.50008 48.1006 8.40007 44.1006 5.80008C42.5006 4.70008 41.0006 7.30008 42.6006 8.40008C46.5006 11.0001 50.9006 12.2001 55.5006 12.7001C60.1006 13.3001 64.9006 13.4001 69.5006 13.7001C79.7006 14.3001 90.0006 14.3001 100.201 12.6001C102.101 12.3001 104.101 12.0001 105.901 11.5001C107.301 11.2001 108.801 10.5001 109.601 9.2001C110.401 7.8001 110.001 6.00008 108.801 4.90008C107.601 3.80008 105.901 3.5001 104.301 3.2001C99.4007 2.2001 94.6006 1.40008 89.7006 0.900081C84.6006 0.400081 79.5007 0.300081 74.4007 0.400081C68.8007 0.500081 63.2006 0.800081 57.6006 1.40008C52.3006 2.00008 47.2006 3.10008 42.5006 5.80008C40.9006 6.80008 42.4006 9.40008 44.1006 8.40008Z" fill="#7D5C9E"/>
<path d="M106.501 44L96.3006 45C93.4006 45.3 90.7006 43.2 90.4006 40.2C90.1006 37.3 92.2005 34.6 95.2005 34.3L105.401 33.3C108.301 33 111.001 35.1 111.301 38.1C111.601 41.1 109.401 43.7 106.501 44Z" fill="#DDC7E2"/>
<path d="M75.6002 93.9004C94.9002 93.9004 110.5 109.8 110.5 129.6C110.5 149.2 94.8003 165.3 75.3003 165.1C56.2003 164.9 40.7003 148.9 40.8003 129.2C40.9003 109.8 56.5002 93.9004 75.6002 93.9004Z" fill="#D6ADD2"/>
<path d="M58.2005 111.7C55.2005 111.4 52.9006 112.5 51.3006 115.2C50.1006 117.3 49.1005 119.6 48.6005 122C48.0005 124.7 48.7005 127 50.6005 128.9C50.8005 129.1 51.0005 129.3 51.2005 129.5C51.2005 129.6 51.1005 129.6 51.1005 129.6C51.0005 129.7 50.9006 129.8 50.8006 129.9C48.9006 131.6 48.0006 133.7 48.5006 136.2C49.0006 139.1 50.2005 141.7 51.7005 144.2C52.6005 145.7 53.9006 146.6 55.5006 147C56.4006 147.2 57.4006 147.2 58.5006 147.3C58.5006 147.3 58.5006 147.4 58.5006 147.6C58.2006 150.8 59.5006 153.2 62.3006 154.6C64.2006 155.5 66.1005 156.4 68.1005 157C71.0005 157.9 73.4006 157.2 75.5006 154.9C75.6006 154.8 75.7006 154.7 75.9006 154.5C76.0006 154.6 76.1005 154.7 76.2005 154.8C77.8005 156.7 79.9006 157.7 82.4006 157.2C85.5006 156.6 88.4006 155.4 90.9006 153.5C92.0006 152.7 92.7006 151.5 93.0006 150.1C93.2006 149 93.2006 147.8 93.3006 146.7C96.2006 146.6 98.2006 145.8 99.4006 143.7C100.601 141.6 101.701 139.4 102.501 137.1C103.401 134.6 102.701 132.2 100.901 130.2C100.701 130 100.401 129.8 100.101 129.6C102.601 127.7 103.601 125.3 103.001 122.4C102.401 119.5 101.301 116.8 99.6005 114.4C98.6005 112.9 97.1005 112 95.2005 111.8C94.5005 111.7 93.8005 111.8 93.1005 111.8C93.1005 111.6 93.1005 111.5 93.1005 111.5C93.4005 108.4 92.3005 106.1 89.7005 104.6C87.6005 103.4 85.4006 102.4 83.0006 101.8C80.6006 101.2 78.4005 101.8 76.6005 103.5C76.3005 103.8 76.0005 104.1 75.7005 104.4C75.5005 104.2 75.4006 104.1 75.3006 104C73.6006 102.1 71.5006 101.2 69.0006 101.7C66.0006 102.3 63.3006 103.5 60.8006 105.3C59.6006 106.1 58.9005 107.3 58.6005 108.7C58.3005 109.6 58.3005 110.7 58.2005 111.7Z" fill="#D6ADD2"/>
<path d="M57.5003 111.7C57.6003 110.6 57.6003 109.6 57.9003 108.6C58.2003 107.2 59.0003 106 60.1003 105.2C62.6003 103.4 65.3004 102.2 68.3004 101.6C70.8004 101.1 72.9003 102 74.6003 103.9C74.7003 104 74.8003 104.2 75.0003 104.3C75.3003 104 75.6003 103.7 75.9003 103.4C77.7003 101.7 79.8004 101.1 82.3004 101.7C84.7004 102.3 86.9003 103.2 89.0003 104.5C91.6003 106 92.7003 108.4 92.4003 111.4C92.4003 111.5 92.4003 111.6 92.4003 111.7C93.1003 111.7 93.8003 111.6 94.5003 111.7C96.3003 111.9 97.8003 112.8 98.9003 114.3C100.6 116.7 101.7 119.4 102.3 122.3C102.9 125.2 101.8 127.6 99.4003 129.5C99.7003 129.7 99.9003 129.9 100.2 130.1C102 132.1 102.7 134.4 101.8 137C101 139.3 99.9003 141.5 98.7003 143.6C97.5003 145.7 95.5003 146.5 92.6003 146.6C92.5003 147.8 92.5004 148.9 92.3004 150C92.0004 151.4 91.3003 152.5 90.2003 153.4C87.6003 155.3 84.8003 156.6 81.7003 157.1C79.2003 157.5 77.2003 156.6 75.5003 154.7C75.4003 154.6 75.3003 154.5 75.2003 154.4C75.1003 154.5 74.9004 154.6 74.8004 154.8C72.8004 157.1 70.3003 157.9 67.4003 156.9C65.4003 156.2 63.5003 155.4 61.6003 154.5C58.8003 153.1 57.5004 150.7 57.8004 147.5C57.8004 147.4 57.8004 147.2 57.8004 147.2C56.8004 147.1 55.8004 147.1 54.8004 146.9C53.2004 146.5 51.9003 145.6 51.0003 144.1C49.5003 141.6 48.3004 139 47.8004 136.1C47.4004 133.6 48.3003 131.5 50.1003 129.8C50.2003 129.7 50.3003 129.6 50.4003 129.5C50.4003 129.5 50.4003 129.5 50.5003 129.4C50.3003 129.2 50.1003 129 49.9003 128.8C48.0003 126.9 47.3003 124.6 47.9003 121.9C48.5003 119.5 49.4003 117.2 50.6003 115.1C52.1003 112.5 54.5003 111.4 57.5003 111.7ZM76.2003 126.2C76.3003 126.2 76.3003 126.3 76.4003 126.3C77.1003 125.5 77.9003 124.7 78.6003 124C81.9003 120.6 85.2003 117.3 88.5003 113.9C90.6003 111.7 90.4004 108.3 87.8004 106.9C85.9004 105.8 83.8003 104.9 81.7003 104.3C78.8003 103.4 76.2003 105.6 76.2003 108.7C76.2003 114.3 76.2003 119.9 76.2003 125.5C76.2003 125.7 76.2003 125.9 76.2003 126.2ZM71.9003 128.2C71.7003 127.9 71.6003 127.8 71.4003 127.7C67.5003 123.7 63.6003 119.7 59.6003 115.7C57.4003 113.5 54.2003 113.8 52.7003 116.4C51.5003 118.4 50.6003 120.6 50.1003 123C49.5003 125.7 51.6003 128.3 54.2003 128.3C57.4003 128.3 60.6004 128.3 63.8004 128.3C66.5004 128.2 69.1003 128.2 71.9003 128.2ZM71.9003 130.8C71.6003 130.8 71.5003 130.8 71.4003 130.8C65.6003 130.8 59.9003 130.8 54.1003 130.8C51.6003 130.8 49.4003 133.5 50.1003 136C50.7003 138.2 51.5003 140.3 52.5003 142.3C53.9003 145.2 57.2003 145.6 59.5003 143.3C60.6003 142.2 61.7003 141 62.9003 139.9C65.9003 136.9 68.9003 133.9 71.9003 130.8ZM73.6003 126.4C73.6003 126 73.6003 125.9 73.6003 125.8C73.6003 119.9 73.6003 114.1 73.6003 108.2C73.6003 105.6 71.0003 103.5 68.5003 104.1C66.1003 104.6 63.9003 105.6 61.9003 106.9C61.5003 107.2 61.1004 107.5 60.8004 107.9C59.4004 109.7 59.6004 112.1 61.3004 113.8C64.7004 117.3 68.1003 120.7 71.5003 124.2C72.2003 124.9 72.8003 125.6 73.6003 126.4ZM78.0003 128.1C78.2003 128.1 78.3004 128.2 78.3004 128.2C84.1004 128.2 89.9003 128.2 95.7003 128.2C98.2003 128.2 100.3 125.5 99.6003 123C99.0003 120.8 98.2003 118.7 97.2003 116.7C95.8003 113.8 92.5003 113.4 90.2003 115.6C89.3003 116.5 88.3003 117.5 87.4003 118.5C84.3003 121.7 81.2003 124.8 78.0003 128.1ZM73.7003 132.7C73.6003 132.7 73.5003 132.7 73.5003 132.7C69.4003 136.9 65.2003 141.1 61.1003 145.4C59.3003 147.3 59.8003 150.7 62.1003 152C64.0003 153.1 66.1003 154 68.1003 154.6C71.0003 155.5 73.6003 153.3 73.6003 150.2C73.6003 144.6 73.6003 139 73.6003 133.4C73.7003 133.2 73.7003 132.9 73.7003 132.7ZM76.2003 132.6C76.2003 132.8 76.2003 133 76.2003 133.1C76.2003 139 76.2003 144.8 76.2003 150.7C76.2003 153.3 78.8004 155.4 81.3004 154.9C83.6004 154.4 85.8004 153.4 87.8004 152.2C88.2004 152 88.6004 151.6 88.8004 151.3C90.2004 149.5 90.1003 147 88.4003 145.3C84.4003 141.2 80.5003 137.2 76.5003 133.1C76.5003 132.8 76.4003 132.8 76.2003 132.6ZM78.0003 130.7C78.1003 130.9 78.2004 131 78.3004 131C82.2004 135 86.0003 139 90.0003 142.9C92.1003 145 95.4004 144.5 96.8004 141.8C97.7004 140.2 98.5003 138.6 99.2003 136.9C100.5 133.8 98.4003 130.7 95.1003 130.7C89.7003 130.7 84.4003 130.7 79.0003 130.7C78.6003 130.7 78.3003 130.7 78.0003 130.7Z" fill="white"/>
<path d="M76.2002 126.2C76.2002 126 76.2002 125.7 76.2002 125.5C76.2002 119.9 76.2002 114.3 76.2002 108.7C76.2002 105.6 78.8002 103.4 81.7002 104.3C83.8002 104.9 85.9003 105.8 87.8003 106.9C90.4003 108.3 90.6002 111.7 88.5002 113.9C85.2002 117.3 81.9002 120.6 78.6002 124C77.9002 124.8 77.1003 125.5 76.4003 126.3C76.3003 126.2 76.2002 126.2 76.2002 126.2Z" fill="#D6ADD2"/>
<path d="M71.9003 128.2C69.1003 128.2 66.5003 128.2 64.0003 128.2C60.8003 128.2 57.6003 128.2 54.4003 128.2C51.7003 128.2 49.7003 125.6 50.3003 122.9C50.8003 120.6 51.7003 118.4 52.9003 116.3C54.4003 113.8 57.6003 113.5 59.8003 115.6C63.7003 119.6 67.6003 123.6 71.6003 127.6C71.5003 127.8 71.7003 127.9 71.9003 128.2Z" fill="#D6ADD2"/>
<path d="M71.9007 130.8C68.8007 133.9 65.9006 136.9 63.0006 139.9C61.9006 141 60.8006 142.2 59.6006 143.3C57.3006 145.6 54.0006 145.2 52.6006 142.3C51.6006 140.3 50.8006 138.2 50.2006 136C49.5006 133.5 51.6006 130.8 54.2006 130.8C60.0006 130.8 65.7006 130.8 71.5006 130.8C71.6006 130.7 71.6007 130.7 71.9007 130.8Z" fill="#D6ADD2"/>
<path d="M73.6003 126.4C72.8003 125.6 72.2003 124.8 71.5003 124.2C68.1003 120.7 64.7003 117.3 61.3003 113.8C59.6003 112.1 59.4003 109.7 60.8003 107.9C61.1003 107.5 61.5003 107.1 61.9003 106.9C64.0003 105.6 66.2003 104.6 68.5003 104.1C71.0003 103.5 73.6003 105.6 73.6003 108.2C73.6003 114.1 73.6003 119.9 73.6003 125.8C73.7003 126 73.7003 126.1 73.6003 126.4Z" fill="#D6ADD2"/>
<path d="M78 128.1C81.2 124.8 84.3 121.7 87.4 118.5C88.3 117.5 89.3 116.6 90.2 115.6C92.5 113.3 95.8 113.8 97.2 116.7C98.2 118.7 99 120.8 99.6 123C100.3 125.5 98.2 128.2 95.7 128.2C89.9 128.2 84.1 128.2 78.3 128.2C78.3 128.2 78.2 128.1 78 128.1Z" fill="#D6ADD2"/>
<path d="M73.7003 132.7C73.7003 132.9 73.7003 133.2 73.7003 133.4C73.7003 139 73.7003 144.6 73.7003 150.2C73.7003 153.3 71.1003 155.5 68.2003 154.6C66.1003 153.9 64.1003 153 62.2003 152C59.8003 150.7 59.3003 147.4 61.2003 145.4C65.3003 141.1 69.5003 136.9 73.6003 132.7C73.5003 132.7 73.6003 132.7 73.7003 132.7Z" fill="#D6ADD2"/>
<path d="M76.2002 132.6C76.4002 132.8 76.5002 132.8 76.6002 132.9C80.6002 137 84.6002 141 88.5002 145.1C90.2002 146.8 90.3003 149.3 88.9003 151.1C88.6003 151.5 88.2003 151.8 87.9003 152C85.9003 153.2 83.7003 154.2 81.4003 154.7C78.9003 155.3 76.3003 153.2 76.3003 150.5C76.3003 144.6 76.3003 138.8 76.3003 132.9C76.2003 132.9 76.2002 132.8 76.2002 132.6Z" fill="#D6ADD2"/>
<path d="M78 130.7C78.4 130.7 78.6 130.7 78.9 130.7C84.3 130.7 89.6 130.7 95 130.7C98.3 130.7 100.4 133.8 99.1 136.9C98.4 138.6 97.6 140.2 96.7 141.8C95.3 144.5 92 145 89.9 142.9C86 139 82.1 135 78.2 131C78.2 131 78.1 130.9 78 130.7Z" fill="#D6ADD2"/>
<path d="M75.6002 93.9004C94.9002 93.9004 110.5 109.8 110.5 129.6C110.5 149.2 94.8003 165.3 75.3003 165.1C56.2003 164.9 40.7003 148.9 40.8003 129.2C40.9003 109.8 56.5002 93.9004 75.6002 93.9004Z" stroke="#8B65A9" stroke-miterlimit="10"/>
<path d="M58.0999 111.7C55.0999 111.4 52.7999 112.5 51.1999 115.2C49.9999 117.3 49 119.6 48.5 122C47.9 124.7 48.6 127 50.5 128.9C50.7 129.1 50.8999 129.3 51.0999 129.5C51.0999 129.6 51 129.6 51 129.6C50.9 129.7 50.7999 129.8 50.6999 129.9C48.7999 131.6 47.9 133.7 48.4 136.2C48.9 139.1 50.0999 141.7 51.5999 144.2C52.4999 145.7 53.8 146.6 55.4 147C56.3 147.2 57.3 147.2 58.4 147.3C58.4 147.3 58.4 147.4 58.4 147.6C58.1 150.8 59.3999 153.2 62.1999 154.6C64.0999 155.5 66 156.4 68 157C70.9 157.9 73.3 157.2 75.4 154.9C75.5 154.8 75.6 154.7 75.8 154.5C75.9 154.6 75.9999 154.7 76.0999 154.8C77.6999 156.7 79.8 157.7 82.3 157.2C85.4 156.6 88.3 155.4 90.8 153.5C91.9 152.7 92.6 151.5 92.9 150.1C93.1 149 93.0999 147.8 93.1999 146.7C96.0999 146.6 98.1 145.8 99.3 143.7C100.5 141.6 101.6 139.4 102.4 137.1C103.3 134.6 102.6 132.2 100.8 130.2C100.6 130 100.3 129.8 100 129.6C102.5 127.7 103.5 125.3 102.9 122.4C102.3 119.5 101.2 116.8 99.5 114.4C98.5 112.9 96.9999 112 95.0999 111.8C94.3999 111.7 93.7 111.8 93 111.8C93 111.6 93 111.5 93 111.5C93.3 108.4 92.1999 106.1 89.5999 104.6C87.4999 103.4 85.3 102.4 82.9 101.8C80.5 101.2 78.3 101.8 76.5 103.5C76.2 103.8 75.8999 104.1 75.5999 104.4C75.3999 104.2 75.2999 104.1 75.1999 104C73.4999 102.1 71.4 101.2 68.9 101.7C65.9 102.3 63.1999 103.5 60.6999 105.3C59.4999 106.1 58.8 107.3 58.5 108.7C58.3 109.6 58.2999 110.7 58.0999 111.7Z" stroke="#8B65A9" stroke-miterlimit="10"/>
<path d="M73.6003 126.4C72.8003 125.6 72.2003 124.8 71.5003 124.2C68.1003 120.7 64.7003 117.3 61.3003 113.8C59.6003 112.1 59.4003 109.7 60.8003 107.9C61.1003 107.5 61.5003 107.1 61.9003 106.9C64.0003 105.6 66.2003 104.6 68.5003 104.1C71.0003 103.5 73.6003 105.6 73.6003 108.2C73.6003 114.1 73.6003 119.9 73.6003 125.8C73.7003 126 73.7003 126.1 73.6003 126.4Z" stroke="#8B65A9" stroke-miterlimit="10"/>
<path d="M75.9008 132.6C76.7008 133.4 77.4007 134.1 78.1007 134.7C81.6007 138 85.2007 141.3 88.7007 144.6C90.5007 146.2 90.8007 148.6 89.5007 150.5C89.2007 150.9 88.9007 151.3 88.5007 151.6C86.5007 153 84.3007 154.1 82.0007 154.7C79.5007 155.4 76.9007 153.4 76.7007 150.8C76.4007 144.9 76.1008 139.1 75.8008 133.2C75.9008 133.1 75.9008 133 75.9008 132.6Z" stroke="#8B65A9" stroke-miterlimit="10"/>
<path d="M77.5 130.9C78.6 130.9 79.6 130.9 80.5 130.8C85.3 130.6 90 130.4 94.8 130.2C97.2 130.1 99 131.5 99.3 133.7C99.4 134.2 99.4 134.7 99.3 135.2C98.8 137.6 98 139.8 96.7 141.9C95.4 144.1 92.2 144.6 90.3 142.9C86.1 139.1 82 135.2 77.9 131.3C77.9 131.2 77.8 131.2 77.5 130.9Z" stroke="#8B65A9" stroke-miterlimit="10"/>
<path d="M78.1006 128.1C78.9006 127.3 79.6006 126.7 80.2006 126C83.5006 122.6 86.7006 119.1 90.0006 115.6C91.6006 113.9 93.9006 113.6 95.7006 115C96.1006 115.3 96.4006 115.6 96.7006 116.1C98.0006 118.1 99.0006 120.3 99.5006 122.7C100.101 125.2 98.1006 127.8 95.6006 127.9C89.9006 128 84.3006 128.1 78.6006 128.3C78.6006 128.2 78.5006 128.2 78.1006 128.1Z" stroke="#8B65A9" stroke-miterlimit="10"/>
<path d="M76.8007 126.1C76.8007 125 76.8007 124 76.8007 123.1C76.7007 118.3 76.6006 113.6 76.6006 108.8C76.6006 106.4 78.0006 104.7 80.2006 104.4C80.7006 104.3 81.2006 104.3 81.7006 104.5C84.0006 105.1 86.3007 105.9 88.3007 107.2C90.5007 108.6 90.9006 111.8 89.1006 113.6C85.1006 117.7 81.2006 121.7 77.2006 125.8C77.2006 125.8 77.1007 125.9 76.8007 126.1Z" stroke="#8B65A9" stroke-miterlimit="10"/>
<path d="M73.5001 132.9C73.5001 134 73.5001 135 73.5001 135.9C73.6001 140.7 73.8001 145.4 73.9001 150.2C74.0001 152.6 72.5001 154.3 70.3001 154.7C69.8001 154.8 69.3001 154.8 68.8001 154.7C66.5001 154.2 64.2001 153.3 62.1001 152.1C59.9001 150.8 59.4 147.5 61.2 145.7C65.1 141.6 69.0001 137.5 73.0001 133.4C73.2001 133.2 73.3001 133.1 73.5001 132.9Z" stroke="#8B65A9" stroke-miterlimit="10"/>
<path d="M72.1999 130.6C71.3999 131.4 70.7 132 70 132.6C66.6 135.9 63.2 139.3 59.8 142.6C58.1 144.3 55.8 144.4 54.1 143.1C53.7 142.8 53.4 142.4 53.1 142C51.9 139.9 51 137.7 50.5 135.3C50 132.8 52 130.2 54.5 130.3C60.2 130.3 65.8 130.4 71.5 130.5C71.7 130.5 71.7999 130.6 72.1999 130.6Z" stroke="#8B65A9" stroke-miterlimit="10"/>
<path d="M71.2004 127.6C70.1004 127.6 69.1004 127.5 68.2004 127.5C63.4004 127.5 58.7004 127.5 53.9004 127.4C51.5004 127.4 49.8004 125.9 49.5004 123.7C49.4004 123.2 49.5004 122.7 49.6004 122.2C50.2004 119.9 51.1004 117.7 52.5004 115.6C53.9004 113.5 57.2004 113.1 58.9004 114.9C62.9004 118.9 66.8005 123 70.8005 127.1C70.9005 127.2 71.0004 127.3 71.2004 127.6Z" stroke="#8B65A9" stroke-miterlimit="10"/>
</svg>
