<svg width="156" height="215" viewBox="0 0 156 215" fill="none" xmlns="http://www.w3.org/2000/svg">
<path d="M51.9001 52.8994C69.0001 57.3994 85.6001 57.6994 102.2 53.1994C104.9 52.4994 105.6 52.9994 105.5 55.7994C105.4 61.3994 105.7 66.9994 105.8 72.6994C105.9 79.2994 109.9 83.2994 114.7 86.6994C126.2 94.9994 137.7 103.299 149.3 111.299C155.9 115.899 155.5 122.199 154 128.799C149.8 147.599 145.5 166.399 141.2 185.099C140.3 189.099 139.3 193.199 138.7 197.299C137.9 203.099 134.5 205.999 129.2 207.599C118.7 210.899 107.8 212.499 97.0001 212.699C78.5001 212.999 60.0001 213.999 41.7001 210.699C37.0001 209.799 32.3001 208.599 27.6001 207.499C21.9001 206.099 18.8001 202.199 17.9001 196.599C14.1001 172.899 7.80013 149.799 3.20014 126.299C1.70014 118.599 3.30014 115.299 9.70014 110.799C21.7001 102.199 33.4001 93.2994 45.2001 84.4994C50.0001 80.8994 51.7001 75.5994 51.9001 69.7994C52.0001 64.2994 51.9001 58.7994 51.9001 52.8994Z" fill="#ECDEEF"/>
<path d="M77.6 56.9001C68.4 56.3001 58.9 55.8001 50.1 51.7001C42.9 48.3001 39.6 40.5001 42.5 33.2001C43.8 29.8001 45.5 27.1001 50 30.5001C53.9 33.4001 59.1001 33.7001 63.9001 34.1001C77.7001 35.3001 91.5 35.6001 105 32.2001C106 31.9001 107.2 31.8001 108 31.2001C111.7 28.6001 113.8 29.1001 115.5 33.3001C118.8 41.3001 115.7 48.6001 107.8 51.8001C98.2 55.6001 88 56.2001 77.6 56.9001Z" fill="#ECDEEF"/>
<path d="M98.8994 60.5996L100.299 77.7996C100.299 77.7996 98.9994 85.2996 107.099 90.5996C107.099 90.5996 140.699 106.5 141.799 116.9L151.099 111.3C151.099 111.3 92.2994 78.0996 107.199 67.7996L104.799 60.5996H98.8994Z" fill="#DAC9E4"/>
<path d="M106.7 7.39941C105.7 14.6994 104.5 21.7994 103.8 28.8994C103.5 31.7994 101.7 31.8994 99.8002 32.2994C84.5002 35.1994 69.2002 35.1994 53.9002 32.1994C51.3002 31.6994 49.7002 30.7994 49.4002 27.4994C48.8002 20.8994 47.3002 14.3994 46.2002 7.79941C66.6002 12.2994 86.5002 12.5994 106.7 7.39941Z" fill="#DCB0C1"/>
<path d="M104.599 34.3996H93.3994V9.49961L108.299 7.09961L104.599 34.3996Z" fill="#C796AD"/>
<path d="M108.3 7.10009C98.0998 13.5001 60.7998 13.9001 47.7998 7.70009C57.1998 1.20009 96.8998 0.800092 108.3 7.10009Z" fill="#DCB0C1"/>
<path opacity="0.75" d="M104.6 60.5998C104.6 60.5998 93.2996 66.3998 78.0996 66.3998C71.2996 66.3998 50.0996 61.7998 50.0996 61.7998V53.2998H104.7V60.5998H104.6Z" fill="#DAC9E4"/>
<path d="M56.5 210.4C56.5 210.4 121.3 206.6 125.6 184.6L139 192C139 192 144 211.5 113.2 210.4H56.5Z" fill="#DAC9E4"/>
<path opacity="0.75" d="M127.8 203.1L131.1 203.7C134.2 204.3 137.2 202.3 137.8 199.2L153.6 118.2C154.2 115.1 152.2 112.1 149.1 111.5L145.8 110.9C142.7 110.3 139.7 112.3 139.1 115.4L123.3 196.4C122.7 199.5 124.7 202.5 127.8 203.1Z" fill="#DAC9E4"/>
<path d="M50.6998 54.4002C59.4998 56.7002 68.6997 58.0002 77.7997 58.0002C82.2997 58.0002 86.6998 57.6002 91.1998 56.9002C93.4998 56.6002 95.7997 56.1002 97.9997 55.6002C99.0997 55.4002 100.2 55.1002 101.3 54.8002C101.8 54.7002 102.7 54.2002 103.3 54.4002C103 54.3002 103.2 54.3002 103.2 54.6002C103.1 55.5002 103.2 56.6002 103.2 57.6002C103.2 59.9002 103.2 62.2002 103.3 64.5002C103.4 66.9002 103.5 69.3002 103.5 71.7002C103.5 73.5002 103.6 75.4002 104.2 77.1002C106.4 84.4002 113.8 88.4002 119.6 92.6002C127.3 98.1002 135 103.7 142.7 109.1C145.9 111.3 149.9 113.3 151.6 117C153 119.8 152.8 123.1 152.2 126.1C151.4 130.4 150.3 134.8 149.4 139.1C148.4 143.7 147.3 148.3 146.3 152.9C144.2 162.1 142.1 171.3 140 180.6C139 185.1 137.8 189.5 137 194.1C136.4 197.3 136.3 200.6 133.8 203.1C131.4 205.5 128 206.3 124.9 207.2C120.5 208.4 116.1 209.3 111.7 210C102.6 211.4 93.4997 211.3 84.2997 211.5C74.9997 211.7 65.6998 211.8 56.3998 211.1C51.6998 210.8 46.9998 210.2 42.3998 209.4C37.7998 208.6 33.2997 207.5 28.7997 206.4C25.6997 205.7 22.8997 204.7 20.9997 202.1C18.7997 199.1 18.5997 195.4 17.9997 191.9C14.7997 173.6 10.2998 155.5 6.39977 137.4C5.49977 133.1 4.39975 128.7 3.69975 124.3C3.29975 121.8 3.39973 119.1 4.79973 116.9C6.49973 114.2 9.49974 112.4 11.9997 110.5C15.7997 107.8 19.4997 105 23.2997 102.2C30.7997 96.7002 38.2997 91.2002 45.5997 85.5002C48.3997 83.3002 50.3997 80.5002 51.4997 77.1002C52.6997 73.5002 52.6997 69.8002 52.7997 66.1002C52.7997 61.7002 52.7997 57.3002 52.7997 53.0002C52.7997 51.1002 49.7997 51.1002 49.7997 53.0002C49.7997 57.6002 49.8997 62.2002 49.7997 66.8002C49.7997 70.5002 49.6997 74.4002 48.0997 77.8002C46.3997 81.5002 43.0998 83.7002 39.8998 86.1002C35.9998 89.0002 32.1997 91.9002 28.2997 94.8002C24.3997 97.7002 20.5998 100.6 16.6998 103.4C13.1998 106 9.49974 108.4 5.99974 111.2C3.79974 113 1.89972 115.1 1.09972 117.8C0.199717 120.8 0.699729 124.1 1.29973 127.1C4.99973 145.9 9.79977 164.5 13.3998 183.2C14.2998 187.9 15.0998 192.6 15.8998 197.3C16.4998 200.3 17.7997 203.3 19.9997 205.4C22.6997 208 26.0998 208.8 29.6998 209.6C34.2998 210.7 38.8997 211.8 43.5997 212.6C52.9997 214.1 62.5997 214.5 72.0997 214.6C81.5997 214.6 91.0997 214.6 100.6 214.1C109.9 213.6 119.2 212.1 128.1 209.4C131.1 208.5 134.1 207.3 136.3 204.9C138.8 202.2 139.3 199 139.9 195.6C140.7 190.9 141.9 186.3 142.9 181.7C144 176.9 145.1 172.2 146.2 167.4C148.4 157.9 150.5 148.5 152.7 139C153.7 134.7 154.8 130.4 155.5 126C156 122.7 156 119.3 154.7 116.2C153.1 112.5 149.9 110.4 146.7 108.2C142.7 105.4 138.7 102.6 134.8 99.8002C130.8 97.0002 126.9 94.1002 122.9 91.3002C119.4 88.8002 115.7 86.4002 112.4 83.6002C109.8 81.4002 107.7 78.7002 107 75.3002C106.6 73.2002 106.7 71.0002 106.7 68.9002C106.6 66.4002 106.5 63.9002 106.5 61.5002C106.5 59.3002 106.6 57.1002 106.5 55.0002C106.4 53.8002 106 52.6002 104.9 52.0002C103.5 51.3002 101.8 51.9002 100.4 52.3002C98.0998 52.9002 95.8997 53.4002 93.5997 53.8002C84.3997 55.5002 74.8997 55.6002 65.5997 54.5002C60.9997 53.9002 56.3997 53.0002 51.7997 51.8002C49.6997 51.0002 48.8998 53.9002 50.6998 54.4002Z" fill="#8366A8"/>
<path d="M76.4001 55.1C70.0001 54.7 63.7 54.3 57.5 52.8C52.1 51.5 46.3001 49.4 43.4001 44.4C41.2001 40.4 41.2001 34.9 43.9001 31.1C45.3001 29.1 47.3001 31 48.7001 32C51.0001 33.5 53.8 34.3 56.6 34.7C62.9 35.6 69.3001 35.9 75.7001 36.1C82.6001 36.3 89.4001 36 96.2001 35C99.5001 34.5 102.9 34 106 33C107.3 32.6 108.2 31.7 109.4 31.2C110.1 30.9 110.8 30.7 111.4 31.2C112.1 31.7 112.6 32.7 112.9 33.5C113.4 34.7 113.8 36 114 37.3C114.4 39.5 114.1 41.9 113.2 43.9C110.5 49.6 103.7 51.4 98.1 52.7C90.9 54.2 83.6001 54.6 76.4001 55.1C74.5001 55.2 74.5001 58.2 76.4001 58.1C83.6001 57.7 90.9 57.2 98 55.6C103.8 54.3 110.5 52.5 114.3 47.6C117.7 43.2 117.9 37.4 115.9 32.4C115 30.2 113.6 27.8 111 27.6C109.9 27.5 108.9 27.9 108 28.3C107.4 28.6 106.8 29 106.2 29.4C105.5 29.8 104.8 30 104 30.2C89.3 33.7 74.3 33.4 59.3 31.9C56.2 31.6 53 31 50.3 29.3C48.2 27.9 45.7 26.1 43.1 27.7C41.2 28.9 40.2 31.4 39.6 33.5C38.8 36.2 38.6 39.1 39.3 41.8C40 44.8 41.6 47.6 43.8 49.7C46.3 52.1 49.6 53.5 52.8 54.6C60.4 57.2 68.5001 57.7 76.4001 58.2C78.3001 58.2 78.3001 55.2 76.4001 55.1Z" fill="#8366A8"/>
<path d="M106.899 7.00028C105.899 13.7003 104.799 20.5003 104.099 27.2003C103.999 28.2003 104.099 29.7003 103.199 30.2003C102.399 30.7003 100.999 30.7003 100.099 30.9003C96.6994 31.5003 93.1994 32.0003 89.7994 32.3003C82.9994 32.9003 76.0994 33.0003 69.2994 32.4003C65.7994 32.1003 62.3994 31.7003 58.9994 31.1003C57.2994 30.8003 54.0994 30.8003 53.0994 29.0003C52.3994 27.7003 52.4994 25.9003 52.2994 24.4003C52.0994 22.5003 51.7994 20.6003 51.3994 18.7003C50.6994 14.8003 49.9994 11.0003 49.2994 7.20028C48.6994 7.80028 48.0994 8.40028 47.4994 9.00028C63.1994 12.4003 79.2994 13.5003 95.1994 11.3003C99.7994 10.7003 104.299 9.80028 108.799 8.60028C110.699 8.10028 109.899 5.20028 107.999 5.70028C88.2994 10.6003 67.9994 10.4003 48.2994 6.10028C47.0994 5.80028 46.2994 6.80028 46.4994 7.90028C47.1994 11.7003 47.8994 15.4003 48.5994 19.2003C48.8994 21.1003 49.1994 22.9003 49.4994 24.8003C49.6994 26.3003 49.6994 28.0003 50.1994 29.4003C50.9994 31.7003 52.7994 32.8003 55.0994 33.3003C58.6994 34.1003 62.3994 34.6003 65.9994 34.9003C73.4994 35.7003 80.9994 35.8003 88.4994 35.2003C92.1994 34.9003 95.9994 34.4003 99.5994 33.8003C101.899 33.4003 104.899 33.3003 106.299 31.2003C107.199 29.7003 107.199 27.9003 107.399 26.2003C107.599 24.1003 107.899 22.0003 108.199 20.0003C108.799 15.8003 109.399 11.7003 109.999 7.50028C110.099 6.70028 109.799 5.90028 108.999 5.70028C108.099 5.80028 106.999 6.20028 106.899 7.00028Z" fill="#8366A8"/>
<path d="M107.4 5.49984C105 6.99984 101.9 7.69984 99.1997 8.29984C95.1997 9.09984 90.9997 9.59984 86.8997 9.79984C77.9997 10.3998 68.8997 10.1998 60.0997 8.79984C56.2997 8.19984 52.3997 7.39984 48.8997 5.79984C48.7997 6.19984 48.7997 6.69984 48.6997 7.09984C50.8997 5.59984 53.9997 4.89984 56.6997 4.29984C60.7997 3.39984 64.9997 2.99984 69.0997 2.69984C78.1997 2.09984 87.4997 2.29984 96.5997 3.69984C100.2 4.29984 104 4.99984 107.3 6.69984C108.3 7.19984 110.9 5.89984 109.6 5.19984C106.5 3.59984 103 2.79984 99.5997 2.09984C95.0997 1.29984 90.4997 0.899838 85.8997 0.699838C76.3997 0.299838 66.7997 0.599837 57.4997 2.29984C53.8997 2.99984 49.9997 3.89984 46.8997 5.99984C46.4997 6.29984 45.9997 6.99984 46.6997 7.29984C49.9997 8.79984 53.5997 9.69984 57.0997 10.2998C61.5997 11.0998 66.1997 11.4998 70.7997 11.6998C80.0997 12.0998 89.5997 11.7998 98.7997 10.0998C102.5 9.39984 106.3 8.49984 109.5 6.49984C110 6.19984 110.2 5.59984 109.7 5.19984C108.9 4.89984 107.9 5.19984 107.4 5.49984Z" fill="#8366A8"/>
<path d="M87.7997 138.8C90.7997 136.6 93.2997 134.6 95.9997 132.7C99.6997 130.1 103.7 128.8 108.2 129.9C113.2 131.1 117 135.1 117.5 139.6C118 144.6 115.1 149.5 110.3 151.8C105.4 154.1 100.2 154.4 94.8998 153.7C94.5998 153.7 94.2997 153.6 93.9997 153.6C93.8997 153.6 93.7997 153.7 93.4997 153.8C95.0997 154.8 96.6998 155.7 98.1998 156.7C102.7 159.7 106.2 163.5 107.5 169.1C109.1 175.8 105.5 182.2 99.1998 183.5C94.6998 184.5 90.9997 182.8 87.7997 179.6C83.9997 175.7 81.8997 170.9 80.7997 165.5C80.6997 165.1 80.6997 164.7 80.5997 164.4C80.5997 164.3 80.3998 164.2 80.1998 164C79.8998 165.6 79.5998 167.2 79.1998 168.6C77.5998 174.2 74.5997 178.9 69.4997 181.9C65.6997 184.1 61.6998 184.8 57.8998 182C53.8998 179.1 52.3997 175 52.9997 170C53.4997 165.6 55.7997 162.2 59.0997 159.6C61.4997 157.7 63.9998 155.8 66.3998 153.6C65.1998 153.8 63.9997 154 62.7997 154.2C57.7997 154.8 53.0997 154.3 48.7997 151.3C44.1997 148.1 42.1997 142.6 43.7997 137.5C45.3997 132.6 50.7997 129.2 56.0997 129.6C60.8997 129.9 64.8997 132.2 68.5997 135.2C69.6997 136.1 70.6997 137 72.0997 137.8C71.9997 137.4 71.7998 137 71.6998 136.6C70.5998 133.4 69.1997 130.3 68.5997 127C67.7997 122.9 68.8997 118.9 71.5997 115.6C74.4997 112 78.3997 110.5 82.7997 111.5C87.4997 112.6 90.1998 116.2 91.3998 120.8C92.6998 126 91.3998 131 89.3998 135.8C88.8998 136.8 88.3997 137.6 87.7997 138.8ZM85.5997 159.6C86.8997 161.4 88.0997 163.3 89.4997 164.9C89.8997 165.4 90.9997 165.4 91.7997 165.6C91.7997 164.8 92.0997 163.8 91.7997 163.2C90.7997 161.2 89.4998 159.3 88.1998 157.3C90.2998 154.9 90.9998 151.9 90.6998 148.8C93.0998 148 95.2997 147.2 97.4997 146.4C98.5997 146 99.4997 145.3 98.9997 143.9C98.4997 142.7 97.4998 142.8 96.3998 143.1C94.2998 143.8 92.0998 144.5 89.8998 145.2C88.2998 141.8 85.7997 139.7 82.5997 138.8C82.5997 136.7 82.7997 134.8 82.4997 133C82.3997 132.2 81.4997 130.9 80.7997 130.8C79.5997 130.6 78.9997 131.7 78.9997 133C78.9997 134.8 78.9997 136.6 78.9997 138.6C74.7997 139.1 71.9998 141.6 70.1998 145.2C68.1998 144.5 66.2997 143.9 64.4997 143.3C63.4997 143 62.1998 142.6 61.6998 144C61.1998 145.4 62.3998 145.9 63.3998 146.3C65.3998 147.1 67.3997 147.8 69.4997 148.5C69.2997 151.9 69.9997 154.9 72.2997 157.2C70.9997 159.1 69.5997 160.8 68.4997 162.7C68.1997 163.3 68.5997 164.3 68.5997 165.1C69.3997 164.9 70.3997 165 70.7997 164.5C72.2997 162.9 73.5997 161 74.9997 159.2C78.6997 161.5 82.1997 161.4 85.5997 159.6Z" fill="#B598C7"/>
<path d="M88.7996 139.8C90.9996 135.3 92.8996 130.6 92.6996 125.5C92.4996 121.4 90.9996 116.9 87.5996 114.3C84.2996 111.8 79.7996 111.6 75.9996 113C71.7996 114.6 68.5996 118.3 67.4996 122.6C65.9996 128.4 68.8996 134 70.6996 139.4C71.5996 139.1 72.5996 138.8 73.4996 138.5C71.2996 137.1 69.4996 135.3 67.3996 133.9C65.3996 132.6 63.2996 131.5 60.9996 130.9C56.6996 129.7 51.8996 130.4 48.1996 132.8C44.5996 135.1 42.4996 139 42.6996 143.3C42.9996 147.9 45.8996 151.7 49.7996 153.8C54.9996 156.6 60.6996 156 66.2996 155.1C65.9996 155 65.5996 154.8 65.2996 154.7C61.6996 158.2 56.8996 160.8 54.1996 165.2C51.9996 168.8 51.2996 173.8 52.7996 177.8C54.2996 181.9 58.3996 185.2 62.8996 185.1C67.4996 185 71.9996 182.5 75.0996 179.2C78.8996 175.1 80.3996 170 81.4996 164.7C80.5996 164.9 79.5996 165.2 78.6996 165.4C79.4996 166 79.4996 168 79.6996 169C80.0996 170.4 80.4996 171.7 80.9996 173C81.9996 175.3 83.1996 177.5 84.8996 179.5C87.9996 183.2 92.0996 185.6 96.9996 184.9C101.2 184.3 105.1 182.1 107 178.2C109 174.1 108.4 169.3 106.3 165.3C103.7 160.1 98.8996 157.2 94.0996 154.3C93.9996 154.5 93.8996 154.6 93.7996 154.8H93.6996C93.0996 154.9 92.5996 155 91.9996 155C100.8 156.3 114.3 154.9 117.1 144.6C118.3 140.5 117 136.2 113.8 133.4C110.3 130.3 105.4 129.6 100.9 130.7C95.0996 132.1 90.5996 136.5 85.8996 140C85.3996 140.4 86.3996 140.4 86.5996 140.4C87.2996 140.4 87.9996 140.1 88.4996 139.7C90.3996 138.3 92.2996 136.8 94.1996 135.4C95.9996 134 97.7996 132.6 99.9996 131.8C103.9 130.4 108.4 131.8 111.3 134.6C114.1 137.2 115.2 141.1 114.3 144.8C113.3 148.9 110.3 151.9 106.4 153.3C103.9 154.2 101.2 154.4 98.5996 154.3C96.0996 154.2 93.7996 153.4 91.4996 154.6C91.3996 154.7 90.9996 154.9 91.1996 155.1C94.9996 157.5 98.9996 159.8 101.7 163.5C104.1 166.8 105.5 171 105 175.1C104.5 178.7 102.1 182.6 98.3996 183.5C93.7996 184.6 89.4996 181.1 86.8996 177.7C85.3996 175.7 84.1996 173.4 83.2996 171.1C82.8996 169.9 82.4996 168.7 82.1996 167.4C81.9996 166.4 81.9996 164.9 81.1996 164.2C80.7996 163.8 78.4996 164.4 78.3996 164.9C77.4996 169.1 76.5996 173.1 74.0996 176.8C72.9996 178.5 71.5996 179.9 70.0996 181.1C68.3996 182.4 66.2996 183.7 64.0996 183.7C59.9996 183.6 56.3996 179.8 55.1996 176.1C53.9996 172.4 54.5996 168.1 56.5996 164.7C59.1996 160.3 63.9996 157.7 67.5996 154.2C68.1996 153.6 66.7996 153.8 66.5996 153.8C62.0996 154.5 57.6996 155 53.3996 153.1C49.6996 151.5 46.7996 148.6 45.6996 144.6C44.6996 141 45.4996 137 47.9996 134.3C49.2996 132.9 50.8996 131.8 52.6996 131.3C54.5996 130.8 56.6996 131.1 58.4996 131.7C60.6996 132.3 62.7996 133.4 64.6996 134.7C66.6996 136.1 68.3996 137.8 70.4996 139.1C70.8996 139.4 73.4996 138.9 73.2996 138.2C71.8996 134 69.7996 129.7 69.6996 125.2C69.5996 121 71.6996 116.5 75.1996 114.1C78.2996 111.9 82.5996 113 85.2996 115.4C88.0996 117.9 89.3996 121.8 89.5996 125.4C89.8996 130.5 87.9996 135.4 85.7996 139.9C85.5996 140.4 86.7996 140.2 86.9996 140.1C87.5996 140.5 88.5996 140.3 88.7996 139.8Z" fill="#8564A8"/>
<path d="M79.8997 142.6C84.0997 142.6 87.1996 145.8 87.0996 149.9C87.0996 153.9 83.8997 157.2 79.8997 157.1C75.6997 157.1 72.5996 153.9 72.5996 149.6C72.6996 145.7 75.7997 142.6 79.8997 142.6Z" fill="#B598C7"/>
<path opacity="0.75" d="M106.399 48.2999L88.0993 50.5999C84.8993 50.9999 81.8993 48.6999 81.4993 45.4999C81.0993 42.2999 83.3993 39.2999 86.5993 38.8999L104.899 36.5999C108.099 36.1999 111.099 38.4999 111.499 41.6999C111.899 44.9999 109.599 47.8999 106.399 48.2999Z" fill="#DAC9E4"/>
</svg>
