<svg width="141" height="187" viewBox="0 0 141 187" fill="none" xmlns="http://www.w3.org/2000/svg">
<path d="M51.5003 29.9C51.0003 27 50.3003 24.2 50.0003 21.5C49.7003 19.2 49.6003 16.8 50.0003 14.6C50.9003 9.49996 56.6003 5.3 62.5003 5.2C68.0003 5.1 73.5003 5.1 79.0003 5.2C86.8003 5.4 93.0003 12 91.9003 18.9C91.3003 22.4 90.7003 26 90.0003 29.7C90.8003 29.9 91.5003 30 92.2003 30.2C98.0003 31.3 102.3 35.4 103.1 40.9C103.9 45.7 98.5003 50.9 93.4003 53.1C91.9003 53.7 93.5003 54.6 93.6003 56.1C93.7003 61.7 93.7003 67.3 93.6003 72.8C93.6003 74 93.9003 74.6 95.2003 75.1C118.7 83.9 133.6 99.4 137.9 121.9C142.5 145.9 133.8 166.1 112.4 181.4C112.3 181.5 112.2 181.5 112.1 181.6C107.6 184.7 102.7 186.2 96.7003 186.1C77.6003 185.8 58.5003 186 39.4003 185.9C37.7003 185.9 35.8003 185.4 34.4003 184.6C16.0003 173.9 5.10033 158.7 2.70033 139C-0.599666 111.2 17.0003 85.2 45.9003 75C47.4003 74.5 47.9003 73.8 47.9003 72.3C47.8003 66.7 47.8003 61 47.9003 55.4C47.9003 54.3 47.6003 53.7 46.5003 53.2C41.0003 50.6 38.1003 45.3 39.2003 40C40.3003 34.9 44.8003 30.9 50.7003 30C50.8003 30.1 51.0003 30 51.5003 29.9Z" fill="#EBDBED"/>
<path d="M93.4999 61.3002C86.2999 66.9002 55.7999 66.4002 47.6999 61.3002C45.5999 60.0002 47.6999 53.7002 47.6999 53.7002H93.4999C93.4999 53.7002 95.3999 59.8002 93.4999 61.3002Z" fill="#DACADD"/>
<path d="M94.3998 57.7002H81.7998V73.6002H94.3998V57.7002Z" fill="#DACADD"/>
<path d="M81.8002 73.4994C81.8002 73.4994 82.9002 79.8994 90.3002 82.3994C90.3002 82.3994 129.4 88.8994 127.3 122.399C127.3 122.399 129.1 145.999 115.2 168.399C115.2 168.399 105.6 181.299 77.2002 184.099H104.9C104.9 184.099 122.7 177.299 136.9 150.299C136.9 150.299 149.8 115.699 121.7 89.4994C121.7 89.4994 108.4 78.6994 95.1002 73.2994L83.5002 67.8994L81.8002 73.4994Z" fill="#DACADD"/>
<path d="M92.0003 54.2C92.1003 58.4 92.1002 62.6 92.1002 66.8C92.1002 68.5 91.8003 70.6 92.2003 72.2C92.6003 73.7 93.8003 74.3 95.2003 74.8C100.9 77 106.4 79.7 111.5 83.1C120.8 89.3 128.4 97.9 132.8 108.3C137.3 119 138.9 131.4 136.5 142.8C134.1 154.5 127.4 164.6 118.7 172.6C113.8 177 108.5 181.2 101.8 182.5C98.0002 183.2 94.0003 182.8 90.2003 182.8C86.0003 182.8 81.7003 182.7 77.5003 182.7C69.0003 182.7 60.6003 182.7 52.1003 182.7C47.9003 182.7 43.6003 182.8 39.4003 182.7C36.0003 182.6 33.2003 180.5 30.4003 178.6C20.5003 171.9 12.2003 162.8 7.80025 151.6C3.50025 140.8 2.60026 128.6 5.40026 117.3C8.20026 106.1 14.6003 96.1 23.1003 88.4C27.6003 84.4 32.6003 81 38.0003 78.3C40.8003 76.9 43.8003 75.8 46.7003 74.6C50.2003 73.2 49.2003 69.3 49.2003 66.2C49.2003 62.1 49.2003 57.9 49.2003 53.8C49.2003 51.9 46.2003 51.9 46.2003 53.8C46.2003 58.1 46.1003 62.4 46.2003 66.7C46.2003 67.8 46.2003 68.9 46.2003 69.9C46.2003 70.4 46.4003 71.1 46.0003 71.5C45.6003 71.9 44.6003 72.1 44.1003 72.3C43.3003 72.6 42.6003 72.9 41.8003 73.2C36.0003 75.6 30.4003 78.7 25.4003 82.6C15.9003 89.8 8.50025 99.5 4.30025 110.7C0.10025 121.9 -0.299725 134.3 2.70027 145.9C5.80027 157.7 12.6003 168.1 21.8003 176C24.3003 178.1 26.9003 180 29.6003 181.8C32.5003 183.7 35.3003 185.6 38.9003 185.7C43.2003 185.9 47.6003 185.7 52.0003 185.7C56.3003 185.7 60.6003 185.7 65.0003 185.7C73.6003 185.7 82.3003 185.7 90.9003 185.8C94.8003 185.8 98.7002 186.1 102.6 185.4C105.9 184.8 109.1 183.5 111.9 181.7C117.5 178.2 122.6 173.5 126.8 168.6C130.7 164 134 159 136.3 153.4C141 142.2 141.5 129.7 138.9 117.8C136.4 106.5 130.7 96.2 122.4 88.1C118.1 84 113.3 80.5 108.1 77.6C105.3 76 102.5 74.7 99.5003 73.4C98.7003 73.1 98.0003 72.8 97.2003 72.5C96.6003 72.3 95.5002 72.1 95.1002 71.6C94.7002 71.2 94.9003 70.5 94.9003 70C94.9003 68.9 94.9003 67.9 94.9003 66.8C94.9003 62.6 94.9002 58.4 94.8002 54.2C94.9002 52.3 91.9003 52.3 92.0003 54.2Z" fill="#8864A8"/>
<path d="M76.7 126.9C84.4 125.4 90.6 129.6 93.3 135.9C92.2 135.4 91.2 134.8 90.1 134.4C85.4 132.7 81.1 133.2 77.1 136.2C74.9 137.8 72.6 139.1 69.9 139.6C65.9 140.4 62.2 139.6 58.6 137.7C57.5 137.1 56.6 136.4 55.5 135.8C55.1 135.5 55 135.3 55.2 134.7C56.1 132.3 56 129.9 54.6 127.8C53.2 125.8 51.4 124.4 48.9 124C45.8 123.6 42.6 126.3 42.7 129.3C42.8 130.9 43.9 132.4 45.4 133C47 133.6 48.5 133.2 49.5 132.1C50.2 131.3 50.5 130.4 50.3 129.4C50.3 129.2 49.9 129 49.7 128.8C49.5 129 49.2 129.2 49.2 129.4C49 131.3 48.2 132.2 46.6 132.1C44.8 132 43.6 130.5 43.7 128.8C43.8 127.2 45 125.9 47 125.3C48.2 124.9 49.3 125.1 50.4 125.7C51.9 126.4 53 127.7 53.8 129.2C54.4 130.4 54.7 131.5 54.5 132.8C54.1 135.1 52.9 136.8 50.6 137.6C46.6 138.9 42.7 138.6 39.2 136.1C37.4 134.8 36.5 132.8 36.5 130.5C36.5 129.2 36.6 127.9 36.9 126.7C37.7 123.1 40.3 121.3 43.8 120.7C45.7 120.4 47.6 120.4 49.5 120.7C50.3 120.8 50.5 120.7 50.5 119.8C50.5 117.3 51.3 115.2 53.7 114.1C56 113 58.4 112.7 60.8 113.5C63.6 114.3 64.9 116.5 65.4 119.3C65.4 119.5 65.4 119.6 65.5 119.8C65.7 120.4 66 120.5 66.5 120.1C66.9 119.8 67.2 119.5 67.6 119.3C69.6 118.2 71.3 118.8 72.9 120.1C75.2 122.1 76.1 125.6 75.1 128.5C74.3 131 71 132.3 68.7 131.1C67.6 130.5 66.7 129.1 67.1 127.7C67.4 126.8 67.9 126.3 68.7 126C69.1 125.8 69.6 125.7 69.4 125.2C69.2 124.7 68.7 124.8 68.3 125C66.9 125.4 66.1 126.4 65.9 127.9C65.8 129.5 66.1 130.8 67.5 131.8C71 134.3 76 131.7 76.4 127.8C76.6 127.4 76.7 127.2 76.7 126.9Z" fill="#BABAD4"/>
<path d="M108.3 110.399C106.6 110.099 104.8 109.699 103.1 109.499C101.4 109.299 99.9002 109.899 98.5002 110.799C96.6002 112.099 94.6002 112.699 92.3002 112.699C88.9002 112.699 86.3002 110.299 85.9002 106.999C85.8002 105.999 86.1002 105.099 87.0002 104.599C87.9002 104.099 88.8002 104.099 89.6002 104.699C89.8002 104.899 90.2002 104.699 90.6002 104.799C90.5002 104.499 90.5002 103.999 90.3002 103.899C89.3002 103.099 88.1002 102.999 86.9002 103.399C85.7002 103.899 85.0002 104.799 84.8002 106.099C84.4002 109.799 87.3002 113.299 91.1002 113.799C91.2002 113.799 91.4002 113.799 91.5002 113.799C88.7002 118.599 80.4002 118.899 76.1002 115.099C76.2002 114.999 76.3002 114.999 76.4002 114.899C80.0002 113.199 80.8002 110.599 80.3002 107.099C80.1002 105.599 79.5002 104.299 78.4002 103.199C76.0002 100.899 71.8002 101.999 71.0002 105.099C70.6002 106.799 70.8002 108.299 72.2002 109.599C73.1002 110.399 74.4002 110.599 75.3002 110.099C75.5002 109.999 75.6002 109.599 75.7002 109.399C75.4002 109.299 75.1002 109.099 74.9002 109.099C73.2002 109.499 72.1002 108.599 71.9002 106.799C71.8002 105.299 72.4002 104.199 73.6002 103.599C75.0002 102.899 76.5002 102.999 77.5002 104.099C79.2002 105.899 79.5002 108.099 79.0002 110.399C78.6002 112.499 77.0002 113.599 75.1002 114.199C72.9002 114.799 70.9002 114.099 69.2002 112.599C67.2002 110.899 66.0002 108.799 65.8002 106.099C65.6002 104.099 66.2002 102.399 67.6002 100.899C69.8002 98.4994 72.4002 97.0994 75.8002 97.6994C76.9002 97.8994 77.8002 98.3994 78.6002 99.1994C79.1002 99.6994 79.4002 99.5993 79.9002 99.0993C82.2002 96.6993 84.9002 95.0994 88.4002 95.3994C92.9002 95.7994 95.8002 98.0993 96.7002 102.499C96.9002 103.299 97.0002 104.099 97.1002 104.999C97.2002 105.599 97.4002 105.699 98.0002 105.599C100.1 105.199 102.1 105.099 104.2 105.999C105.9 106.399 108.1 108.699 108.3 110.399Z" fill="#BABAD4"/>
<path d="M102 156.3C100.5 156 99.1002 155.7 97.6002 155.6C96.0002 155.4 94.5002 156 93.1002 156.8C91.0002 158.1 88.9003 158.7 86.4003 158.2C84.1003 157.7 82.2003 155.5 82.2003 153.1C82.2003 152.3 82.4003 151.5 83.2003 151.1C84.0003 150.7 84.7003 150.8 85.4003 151.3C85.6003 151.4 86.0002 151.3 86.3002 151.3C86.2002 151 86.2003 150.5 86.0003 150.4C85.1003 149.6 84.0003 149.5 82.9003 150C81.8003 150.5 81.2002 151.3 81.1002 152.5C80.8002 155.9 83.5003 159 86.9003 159.3C87.0003 159.3 87.0002 159.3 87.1002 159.3C85.0002 163.2 77.5003 163.9 73.6003 160.5C73.7003 160.4 73.9003 160.4 74.0003 160.3C76.9003 158.8 77.7003 156.7 77.4003 153.7C77.3003 152.2 76.8003 150.9 75.7003 149.8C74.2003 148.4 71.8003 148.3 70.2003 149.6C68.7003 150.8 68.4003 153.1 69.4003 154.8C70.2003 156.1 71.6002 156.6 72.8002 156C73.0002 155.9 73.2002 155.5 73.3002 155.3C73.0002 155.2 72.7003 154.9 72.5003 155C71.1003 155.5 70.2003 154.4 70.0003 153.2C69.8003 151.8 70.4003 150.7 71.6003 150.2C72.9003 149.6 74.2003 149.8 75.2003 150.9C76.2003 152.1 76.5003 153.5 76.5003 155C76.6003 158.9 72.5003 160.5 69.9003 159.6C66.8003 158.5 65.1003 156.2 64.6003 153C64.1003 150.1 65.4002 148 67.8002 146.4C69.2002 145.5 70.6002 144.9 72.3002 144.9C73.7002 144.9 74.8002 145.4 75.8002 146.3C76.4002 146.9 76.6003 146.9 77.2003 146.2C79.7003 143.4 82.8003 142.4 86.4003 143.3C89.6003 144.1 91.3003 146.4 91.9003 149.6C92.0003 150.2 92.1003 150.8 92.2003 151.4C92.3003 152 92.6003 152.1 93.2003 152.1C94.5003 152 95.9003 151.8 97.2003 152C99.7003 152.3 101.2 154 102 156.3Z" fill="#BABAD4"/>
<path d="M71.9003 51.5999C62.1003 51.3999 53.8003 50.4 45.6003 48.5C40.6003 47.3 36.9003 36.4 39.8003 31.4C40.9003 29.5 42.4003 29.8 44.2003 30.2C61.6003 34.3 79.1003 35.3 96.6003 30.9C97.1003 30.8 97.7003 30.9 98.2003 30.7C103.8 28.2 105 29.2999 104.8 36.5999C104.6 44.1999 102.5 47.4 96.7003 48.7C88.1003 50.5 79.4003 51.3999 71.9003 51.5999Z" fill="#E7D8EC"/>
<path d="M45.7998 8.59961C63.6998 13.1996 81.2998 13.5997 99.1998 9.39966C98.4998 15.7997 97.5998 22.2996 96.9998 28.7996C96.7998 30.9996 96.1998 31.9996 94.3998 32.2996C79.8998 34.9996 65.2998 34.4997 50.7998 32.3997C49.2998 32.1997 48.8998 31.2996 48.6998 29.4996C47.7998 22.5996 46.7998 15.6996 45.7998 8.59961Z" fill="#EEC5DE"/>
<path d="M59.8 3.00004C71.5 1.90004 83.2 1.70002 94.7 4.80002C96.5 5.30002 99.3 5.60005 99.4 7.70005C99.6 10.3 96.8 10.5001 95 10.9001C83.7 13.8001 72.3 13 60.9 12.1C55.8 11.7 50.5 11.5001 45.5 7.40006C50.2 4.10006 55.1 3.40004 59.8 3.00004Z" fill="#EEC5DE"/>
<path d="M95.3002 31.9002L75.2002 34.4002V14.8002L98.3002 11.2002L95.3002 31.9002Z" fill="#C999B3"/>
<path d="M71.9007 53.9002C65.6007 53.7002 59.3007 53.2002 53.1007 52.0002C51.7007 51.7002 50.2007 51.4002 48.8007 51.1002C47.7007 50.8002 46.4007 50.7002 45.4007 50.2002C44.0007 49.5002 43.1007 47.9002 42.4007 46.5002C40.6007 43.0002 39.7007 38.5002 40.4007 34.6002C40.6007 33.8002 40.8008 32.9002 41.2008 32.2002C41.8008 31.3002 42.5007 31.5002 43.4007 31.7002C46.7007 32.5002 49.9008 33.4002 53.2008 34.0002C66.5008 36.6002 80.2007 36.8002 93.3007 33.5002C94.2007 33.3002 95.1008 33.0002 95.9008 32.8002C96.6008 32.6002 97.4007 32.6002 98.1007 32.4002C99.1007 32.2002 99.9008 31.5002 100.901 31.2002C101.501 31.0002 101.801 30.9002 102.401 30.9002C102.301 30.9002 102.501 31.0002 102.501 31.0002C102.401 30.9002 102.601 31.1002 102.701 31.3002C103.301 32.7002 103.201 34.8002 103.201 36.5002C103.201 39.0002 103.101 41.5002 102.501 43.9002C102.101 45.7002 101.301 47.5002 99.8007 48.7002C98.0007 50.1002 95.6008 50.5002 93.4008 51.0002C86.4008 52.7002 79.2007 53.6002 71.9007 53.9002C70.0007 54.0002 70.0007 57.0002 71.9007 56.9002C79.0007 56.7002 86.0008 55.8002 92.9008 54.3002C97.5008 53.3002 102.401 52.3002 104.601 47.7002C105.701 45.4002 106.101 43.0002 106.301 40.5002C106.501 37.8002 106.601 35.1002 106.201 32.4002C106.001 30.9002 105.501 29.2002 104.101 28.4002C102.601 27.6002 100.901 28.1002 99.5007 28.7002C99.0007 28.9002 98.4008 29.2002 97.9008 29.4002C97.3008 29.6002 96.5008 29.6002 95.9008 29.8002C94.0008 30.3002 92.1008 30.8002 90.2008 31.2002C86.4008 32.0002 82.5008 32.5002 78.7008 32.8002C71.2008 33.3002 63.6008 32.8002 56.2008 31.5002C52.5008 30.8002 48.9007 30.0002 45.3007 29.0002C42.6007 28.3002 40.2008 28.2002 38.7008 31.0002C36.7008 35.0002 37.3007 40.3002 38.6007 44.5002C39.4007 46.9002 40.4007 49.3002 42.1007 51.1002C43.9007 53.1002 46.4007 53.6002 49.0007 54.2002C56.6007 56.0002 64.3007 56.7002 72.1007 56.9002C73.9007 56.9002 73.9007 53.9002 71.9007 53.9002Z" fill="#8864A8"/>
<path d="M45.4001 9.00008C63.2001 13.6001 81.7 14.0001 99.6 9.80007C99 9.30007 98.3001 8.80011 97.7001 8.40011C97.0001 14.5001 96.2 20.7001 95.6 26.8001C95.5 27.5001 95.6 28.8001 95.1 29.4001C94.5 30.1001 92.9 30.1001 92.1 30.2001C89 30.7001 85.9001 31.1001 82.7001 31.3001C76.5001 31.8001 70.3001 31.7001 64.1001 31.3001C61.0001 31.1001 57.9001 30.8001 54.8001 30.4001C54.0001 30.3001 53.3001 30.2001 52.5001 30.1001C52.0001 30.0001 51.1001 30.1001 50.7001 29.8001C50.1001 29.4001 50.2001 28.1001 50.1001 27.5001C49.3001 20.7001 48.2001 13.9001 47.2001 7.10006C46.9001 5.20006 44.0001 6.00011 44.3001 7.90011C45.3001 14.7001 46.3001 21.5001 47.1001 28.3001C47.4001 30.8001 48.1001 32.6001 50.8001 33.0001C54.2001 33.5001 57.6001 33.9001 61.0001 34.2001C67.8001 34.8001 74.7 34.9001 81.6 34.5001C85 34.3001 88.4001 33.9001 91.8001 33.3001C94.1001 32.9001 96.8001 32.8001 97.9001 30.4001C98.5001 29.0001 98.5001 27.3001 98.7001 25.8001C98.9001 23.8001 99.1001 21.9001 99.3001 19.9001C99.7001 16.0001 100.2 12.2001 100.7 8.30007C100.8 7.30007 99.7001 6.70011 98.8001 6.90011C81.4001 10.9001 63.5001 10.5001 46.2001 6.10006C44.3001 5.70006 43.5001 8.60008 45.4001 9.00008Z" fill="#7D5C9E"/>
<path d="M60.1006 4.49974C66.8006 3.89974 73.5006 3.49977 80.2006 3.89977C83.5006 4.09977 86.8006 4.49972 90.1006 5.09972C91.7006 5.39972 93.2006 5.79976 94.7006 6.19976C95.7006 6.39976 96.7006 6.59974 97.6006 6.99974C98.2006 7.29974 98.5006 7.89974 97.9006 8.49974C97.3006 9.09974 96.1006 9.09973 95.4006 9.29973C92.2006 9.99973 89.0006 10.6997 85.7006 10.9997C79.1006 11.5997 72.5006 11.3998 66.0006 10.8998C59.4006 10.3998 52.2006 10.5997 46.8006 6.29973C46.7006 7.09973 46.6006 7.89976 46.5006 8.69976C50.6006 5.89976 55.2006 4.99974 60.1006 4.49974C62.0006 4.29974 62.0006 1.29974 60.1006 1.49974C54.7006 1.99974 49.6006 2.99976 45.0006 6.19976C44.3006 6.69976 43.9006 7.89972 44.7006 8.59972C47.4006 10.6997 50.4006 12.1998 53.8006 12.8998C57.0006 13.4998 60.3006 13.6998 63.6006 13.8998C71.1006 14.4998 78.7006 14.8997 86.2006 14.0997C89.8006 13.6997 93.2006 12.9998 96.7006 12.1998C98.9006 11.6998 101.201 10.5997 101.201 8.09972C101.301 5.19972 98.6006 4.19972 96.2006 3.59972C92.6006 2.69972 89.1006 1.99974 85.4006 1.49974C77.0006 0.399744 68.5006 0.79972 60.0006 1.59972C58.2006 1.69972 58.1006 4.69974 60.1006 4.49974Z" fill="#7D5C9E"/>
<path d="M97.0007 47.6994L88.5007 48.7993C86.1007 49.0993 83.9007 46.4993 83.6007 43.0993C83.3007 39.5993 85.0007 36.5993 87.5007 36.2993L96.0007 35.1994C98.4007 34.8994 100.601 37.4994 100.901 40.8994C101.101 44.2994 99.4007 47.3994 97.0007 47.6994Z" fill="#DACADD"/>
<path d="M108.3 111C106.6 110.7 104.8 110.3 103.1 110.1C101.4 109.9 99.9002 110.5 98.5002 111.4C96.6002 112.7 94.6002 113.3 92.3002 113.3C88.9002 113.3 86.3002 110.9 85.9002 107.6C85.8002 106.6 86.1002 105.7 87.0002 105.2C87.9002 104.7 88.8002 104.7 89.6002 105.3C89.8002 105.5 90.2002 105.3 90.6002 105.4C90.5002 105.1 90.5002 104.6 90.3002 104.5C89.3002 103.7 88.1002 103.6 86.9002 104C85.7002 104.5 85.0002 105.4 84.8002 106.7C84.4002 110.4 87.3002 113.9 91.1002 114.4C91.2002 114.4 91.4002 114.4 91.5002 114.4C88.7002 119.2 80.4002 119.5 76.1002 115.7C76.2002 115.6 76.3002 115.6 76.4002 115.5C80.0002 113.8 80.8002 111.2 80.3002 107.7C80.1002 106.2 79.5002 104.9 78.4002 103.8C76.0002 101.5 71.8002 102.6 71.0002 105.7C70.6002 107.4 70.8002 108.9 72.2002 110.2C73.1002 111 74.4002 111.2 75.3002 110.7C75.5002 110.6 75.6002 110.2 75.7002 110C75.4002 109.9 75.1002 109.7 74.9002 109.7C73.2002 110.1 72.1002 109.2 71.9002 107.4C71.8002 105.9 72.4002 104.8 73.6002 104.2C75.0002 103.5 76.5002 103.6 77.5002 104.7C79.2002 106.5 79.5002 108.7 79.0002 111C78.6002 113.1 77.0002 114.2 75.1002 114.8C72.9002 115.4 70.9002 114.7 69.2002 113.2C67.2002 111.5 66.0002 109.4 65.8002 106.7C65.6002 104.7 66.2002 103 67.6002 101.5C69.8002 99.1 72.4002 97.6999 75.8002 98.2999C76.9002 98.4999 77.8002 98.9999 78.6002 99.7999C79.1002 100.3 79.4002 100.2 79.9002 99.7C82.2002 97.3 84.9002 95.7 88.4002 96C92.9002 96.4 95.8002 98.6999 96.7002 103.1C96.9002 103.9 97.0002 104.7 97.1002 105.6C97.2002 106.2 97.4002 106.3 98.0002 106.2C100.1 105.8 102.1 105.7 104.2 106.6C105.9 107.1 108.1 109.3 108.3 111Z" stroke="#8D7BA5" stroke-width="0.75" stroke-miterlimit="10"/>
<path d="M75.6004 126.999C83.3004 125.499 89.5004 129.699 92.2004 135.999C91.1004 135.499 90.1004 134.899 89.0004 134.499C84.3004 132.799 80.0004 133.299 76.0004 136.299C73.8004 137.899 71.5004 139.199 68.8004 139.699C64.8004 140.499 61.1004 139.699 57.5004 137.799C56.4004 137.199 55.5004 136.499 54.4004 135.899C54.0004 135.599 53.9004 135.399 54.1004 134.799C55.0004 132.399 54.9004 129.999 53.5004 127.899C52.1004 125.899 50.3004 124.499 47.8004 124.099C44.7004 123.699 41.5004 126.399 41.6004 129.399C41.7004 130.999 42.8004 132.499 44.3004 133.099C45.9004 133.699 47.4004 133.299 48.4004 132.199C49.1004 131.399 49.4004 130.499 49.2004 129.499C49.2004 129.299 48.8004 129.099 48.6004 128.899C48.4004 129.099 48.1004 129.299 48.1004 129.499C47.9004 131.399 47.1004 132.299 45.5004 132.199C43.7004 132.099 42.5004 130.599 42.6004 128.899C42.7004 127.299 43.9004 125.999 45.9004 125.399C47.1004 124.999 48.2004 125.199 49.3004 125.799C50.8004 126.499 51.9004 127.799 52.7004 129.299C53.3004 130.499 53.6004 131.599 53.4004 132.899C53.0004 135.199 51.8004 136.899 49.5004 137.699C45.5004 138.999 41.6004 138.699 38.1004 136.199C36.3004 134.899 35.4004 132.899 35.4004 130.599C35.4004 129.299 35.5004 127.999 35.8004 126.799C36.6004 123.199 39.2004 121.399 42.7004 120.799C44.6004 120.499 46.5004 120.499 48.4004 120.799C49.2004 120.899 49.4004 120.799 49.4004 119.899C49.4004 117.399 50.2004 115.299 52.6004 114.199C54.9004 113.099 57.3004 112.799 59.7004 113.599C62.5004 114.399 63.8004 116.599 64.3004 119.399C64.3004 119.599 64.3004 119.699 64.4004 119.899C64.6004 120.499 64.9004 120.599 65.4004 120.199C65.8004 119.899 66.1004 119.599 66.5004 119.399C68.5004 118.299 70.2004 118.899 71.8004 120.199C74.1004 122.199 75.0004 125.699 74.0004 128.599C73.2004 131.099 69.9004 132.399 67.6004 131.199C66.5004 130.599 65.6004 129.199 66.0004 127.799C66.3004 126.899 66.8004 126.399 67.6004 126.099C68.0004 125.899 68.5004 125.799 68.3004 125.299C68.1004 124.799 67.6004 124.899 67.2004 125.099C65.8004 125.499 65.0004 126.499 64.8004 127.999C64.7004 129.599 65.0004 130.899 66.4004 131.899C69.9004 134.399 74.9004 131.799 75.3004 127.899C75.5004 127.499 75.6004 127.199 75.6004 126.999Z" stroke="#8D7BA5" stroke-miterlimit="10"/>
<path d="M102 156.3C100.5 156 99.1002 155.7 97.6002 155.6C96.0002 155.4 94.5002 156 93.1002 156.8C91.0002 158.1 88.9003 158.7 86.4003 158.2C84.1003 157.7 82.2003 155.5 82.2003 153.1C82.2003 152.3 82.4003 151.5 83.2003 151.1C84.0003 150.7 84.7003 150.8 85.4003 151.3C85.6003 151.4 86.0002 151.3 86.3002 151.3C86.2002 151 86.2003 150.5 86.0003 150.4C85.1003 149.6 84.0003 149.5 82.9003 150C81.8003 150.5 81.2002 151.3 81.1002 152.5C80.8002 155.9 83.5003 159 86.9003 159.3C87.0003 159.3 87.0002 159.3 87.1002 159.3C85.0002 163.2 77.5003 163.9 73.6003 160.5C73.7003 160.4 73.9003 160.4 74.0003 160.3C76.9003 158.8 77.7003 156.7 77.4003 153.7C77.3003 152.2 76.8003 150.9 75.7003 149.8C74.2003 148.4 71.8003 148.3 70.2003 149.6C68.7003 150.8 68.4003 153.1 69.4003 154.8C70.2003 156.1 71.6002 156.6 72.8002 156C73.0002 155.9 73.2002 155.5 73.3002 155.3C73.0002 155.2 72.7003 154.9 72.5003 155C71.1003 155.5 70.2003 154.4 70.0003 153.2C69.8003 151.8 70.4003 150.7 71.6003 150.2C72.9003 149.6 74.2003 149.8 75.2003 150.9C76.2003 152.1 76.5003 153.5 76.5003 155C76.6003 158.9 72.5003 160.5 69.9003 159.6C66.8003 158.5 65.1003 156.2 64.6003 153C64.1003 150.1 65.4002 148 67.8002 146.4C69.2002 145.5 70.6002 144.9 72.3002 144.9C73.7002 144.9 74.8002 145.4 75.8002 146.3C76.4002 146.9 76.6003 146.9 77.2003 146.2C79.7003 143.4 82.8003 142.4 86.4003 143.3C89.6003 144.1 91.3003 146.4 91.9003 149.6C92.0003 150.2 92.1003 150.8 92.2003 151.4C92.3003 152 92.6003 152.1 93.2003 152.1C94.5003 152 95.9003 151.8 97.2003 152C99.7003 152.3 101.2 154 102 156.3Z" stroke="#8D7BA5" stroke-miterlimit="10"/>
</svg>
