<svg width="163" height="217" viewBox="0 0 163 217" fill="none" xmlns="http://www.w3.org/2000/svg">
<path d="M50.0002 55.3002C52.2002 64.0002 46.6002 67.6002 39.5002 71.2002C9.40016 86.7002 -1.99987 114.1 4.10013 143.8C9.20013 169 24.5002 188.4 45.0002 204.7C51.5002 209.9 58.7001 213.5 67.8001 214.1C75.4001 214.7 83.0001 214.6 90.6001 214.7C103 214.9 113.7 211.2 122.7 203C129.7 196.6 136.6 190.1 142.3 182.5C157 162.8 164.2 141.1 160.5 117.2C157 94.3002 142 79.2002 120 69.7002C114.3 67.2002 111 64.0002 111.7 57.9002C111.8 57.0002 112.2 55.9002 111.2 55.2002C90.7002 59.1002 70.6002 59.6002 50.0002 55.3002Z" fill="#252526"/>
<path d="M49.9996 55.2998C70.6996 59.5998 90.7996 59.0998 111 55.2998C112 55.8998 111.6 57.0998 111.5 57.9998C110.8 64.0998 114.1 67.3998 119.8 69.7998C141.8 79.2998 156.8 94.3998 160.3 117.3C164 141.3 156.8 163 142.1 182.6C136.4 190.1 129.6 196.7 122.5 203.1C113.5 211.3 102.8 215 90.3996 214.8C82.7996 214.7 75.2996 214.8 67.5996 214.2C58.5996 213.5 51.3996 210 44.7996 204.8C24.3996 188.5 8.99964 169.1 3.89964 143.9C-2.10036 114.1 9.19961 86.6998 39.2996 71.2998C46.5996 67.5998 52.0996 63.9998 49.9996 55.2998Z" fill="#EBDBED"/>
<path d="M77.6996 58.2004C66.9996 57.8004 55.7996 57.2004 45.1996 53.2004C37.3996 50.3004 33.6996 39.3004 38.3996 32.8004C40.2996 30.2004 43.5996 29.2004 45.5996 30.7004C52.0996 35.6004 59.8996 35.4004 67.2996 36.1004C80.9996 37.4004 94.5996 36.8004 107.9 33.5004C110.2 32.9004 112.5 32.1004 114.4 30.9004C118.1 28.7004 121.3 29.1004 122.5 32.9004C125.2 41.1004 125 51.0004 112.2 54.1004C101.1 57.0004 89.6996 57.7004 77.6996 58.2004Z" fill="#EBDBED"/>
<path d="M46.8994 7.99982C69.4994 12.9998 91.1994 13.3998 113.399 7.7998C112.799 15.5998 112.099 23.2998 111.599 30.9998C111.499 33.0998 110.599 33.9998 108.499 34.4998C90.0994 38.9998 71.6994 38.7998 53.0994 35.2998C51.2994 34.9998 49.6994 34.2998 49.4994 31.9998C48.6994 23.9998 47.7994 15.9998 46.8994 7.99982Z" fill="#DEB0C1"/>
<path d="M96.8994 70.1004C96.8994 70.1004 141.599 80.4004 145.199 119.6C146.299 132 147.399 146.9 134.499 170.9C129.199 180.8 127.899 191.2 109.199 203C109.199 203 95.6994 214.1 74.3994 211.9L81.5994 214.7C81.5994 214.7 100.599 215.4 113.399 209.6C113.399 209.6 152.499 184.5 161.299 142.4C161.299 142.4 170.599 96.4004 128.199 73.8004C128.199 73.8004 111.999 66.9004 111.699 62.4004H94.0994L96.8994 70.1004Z" fill="#D8C5E2"/>
<path d="M113.599 7.80013C110.299 10.7001 105.999 11.2002 101.799 11.7002C85.1993 13.8002 68.5994 14.2001 52.1994 10.3001C50.0994 9.80013 46.5994 9.70015 46.6994 7.20015C46.7994 5.20015 50.1993 5.20013 52.2993 4.80013C70.9993 1.60013 89.7994 1.30014 108.499 5.00014C110.499 5.40014 112.399 5.80013 113.599 7.80013Z" fill="#DEB0C1"/>
<path d="M112.7 32.8L90.2998 35.9V11.4L116 7L112.7 32.8Z" fill="#C999B3"/>
<path d="M113.4 65.4004C113.4 65.4004 100.9 70.1004 80.7002 70.1004C57.3002 70.1004 49.7002 65.7004 49.7002 65.7004V54.9004L80.7002 58.1004L113.4 54.9004V65.4004Z" fill="#D8C5E2"/>
<path d="M128.2 132.1C128 132.2 127.7 132.3 127.5 132.5C121.7 135.8 115.4 137.9 108.6 138.5C103.7 139 98.7998 138.5 94.0998 137.2C93.9998 137.2 93.8998 137.2 93.7998 137.2C105.3 143 111.9 152.2 114.9 164C102.1 161.2 92.2998 155 85.9998 144.2C89.7998 155.8 86.8998 166.4 80.2998 176.6C73.5998 166.5 71.1998 155.9 74.6998 144.4C70.8998 150.9 65.5998 156.1 58.5998 159.7C54.5998 161.8 50.3998 163.2 45.6998 164.1C48.7998 152.2 55.5998 143.2 66.9998 137.3C54.5998 140.5 43.1998 138.4 32.2998 132C43.1998 125.7 54.5998 123.6 66.9998 126.7C59.2998 123 53.7998 117.3 49.6998 110.3C47.6998 107 45.8998 101.6 45.8998 99.9C58.5998 102.6 68.3998 108.8 74.6998 119.6C74.2998 117.8 73.8998 116.2 73.5998 114.6C72.3998 108 73.2998 101.6 75.9998 95.4C77.1998 92.7 78.7998 90.1 80.1998 87.5C80.2998 87.5 80.3998 87.5 80.5998 87.5C80.5998 87.6 80.6998 87.7 80.6998 87.8C83.1998 91.4 84.8998 95.4 86.2998 99.4C87.8998 104.2 88.0998 109.2 87.2998 114.3C86.9998 116.1 86.4998 117.9 86.0998 119.8C92.2998 108.9 102.2 102.7 115 99.8C112 111.7 105.4 120.8 93.8998 126.6C100.4 125.1 104.4 125 108.8 125.3C114.9 125.8 120.6 127.7 125.9 130.4C126.7 130.8 127.6 131.3 128.4 131.7C128.2 131.8 128.2 132 128.2 132.1ZM89.8998 131.9C89.8998 126.7 85.4998 123 80.0998 122.9C74.8998 122.8 70.4998 126.8 70.3998 131.8C70.2998 136.7 74.6998 140.9 79.9998 140.8C85.3998 140.8 89.8998 137.2 89.8998 131.9Z" fill="#AF79AE"/>
<path d="M84.2 131.9C84.2 129.8 82.3 128.1 80.1 128.1C77.9 128.1 76 129.8 76 131.9C76 134 77.9 135.7 80.1 135.7C82.3 135.7 84.2 134 84.2 131.9Z" fill="white"/>
<path d="M84.2 131.9C84.2 134 82.3 135.7 80.1 135.7C77.9 135.7 76 134 76 131.9C76 129.8 77.9 128.1 80.1 128.1C82.4 128.1 84.2 129.8 84.2 131.9Z" fill="#AF79AE"/>
<path d="M49.4998 56.6997C65.3998 59.9997 81.6998 60.5997 97.7998 58.7997C102.3 58.2997 106.9 57.5997 111.3 56.7997C110.9 56.6997 110.5 56.6997 110.1 56.5997C110.1 56.5997 109.8 58.0997 109.8 58.2997C109.7 59.0997 109.7 59.9997 109.8 60.7997C110 62.2997 110.4 63.6997 111.1 64.9997C112.6 67.5997 115.2 69.3997 117.9 70.6997C124.2 73.6997 130.3 76.5997 135.9 80.6997C146.3 88.2997 154.1 98.8997 157.4 111.5C161.4 126.5 159.9 142.8 154.5 157.2C151.7 164.7 147.8 171.7 143.3 178.3C138.3 185.5 132.3 191.9 125.9 198C122.9 200.8 120 203.7 116.6 206C113.5 208.1 110.2 209.8 106.7 211.1C103.1 212.3 99.3998 213.1 95.5998 213.4C91.1998 213.8 86.7998 213.5 82.3998 213.5C73.7998 213.4 64.7998 213.7 56.6998 210.5C49.5998 207.7 43.6998 202.5 38.0998 197.5C27.1998 187.7 17.6998 176.2 11.4998 162.8C5.69979 150.3 2.7998 136.1 4.1998 122.2C5.4998 109.6 10.7998 97.6997 19.3998 88.2997C24.0998 83.0997 29.6998 78.7997 35.6998 75.2997C40.8998 72.2997 47.9998 69.8997 50.6998 64.0997C51.9998 61.2997 51.9998 58.1997 51.2998 55.1997C50.8998 53.2997 47.9998 54.0997 48.3998 55.9997C49.1998 59.2997 48.7998 62.4997 46.4998 64.9997C44.0998 67.5997 40.7998 69.0997 37.7998 70.6997C30.6998 74.3997 24.0998 79.1997 18.4998 84.9997C8.39979 95.4997 2.2998 109.2 1.1998 123.7C-0.100201 139.6 4.19977 155.8 11.7998 169.7C19.7998 184.4 31.7998 197.1 45.0998 207.2C48.4998 209.8 52.1998 212 56.1998 213.6C60.3998 215.3 64.8998 216 69.3998 216.3C74.7998 216.6 80.2998 216.7 85.6998 216.7C90.3998 216.7 94.9998 216.8 99.6998 216.1C108.2 214.8 116 211.1 122.5 205.5C130 199.1 137.1 192 143.1 184.1C154 169.8 161.5 152.8 162.6 134.7C163.6 118.7 159.9 102.6 149.8 89.8997C145.2 84.1997 139.5 79.3997 133.2 75.4997C129.9 73.3997 126.4 71.5997 122.9 69.9997C119.8 68.5997 116.1 67.3997 114.1 64.3997C113.2 63.0997 112.9 61.5997 112.9 59.9997C112.9 58.2997 113.7 56.2997 112.3 54.8997C111.4 53.9997 110.3 54.3997 109.1 54.5997C107.8 54.7997 106.6 54.9997 105.3 55.1997C102.7 55.5997 99.9998 55.9997 97.2998 56.2997C86.8998 57.4997 76.2998 57.5997 65.8998 56.6997C60.6998 56.1997 55.4998 55.3997 50.2998 54.2997C48.3998 53.4997 47.5998 56.2997 49.4998 56.6997Z" fill="#9577B4"/>
<path d="M46.4998 9.39975C63.9998 13.0998 81.9998 14.2998 99.7998 11.9998C104.9 11.2998 109.9 10.3997 114.9 9.29975C114.3 8.79975 113.6 8.29975 113 7.89975C112.7 11.5998 112.4 15.3998 112.1 19.0998C111.8 22.7998 111.7 26.5998 111.3 30.1998C111.2 31.1998 110.9 31.5998 109.9 31.8998C108.3 32.3998 106.5 32.6998 104.9 32.9998C101.2 33.6998 97.3998 34.2998 93.6998 34.5998C86.3998 35.2998 79.0998 35.3998 71.8998 34.9998C68.1998 34.7998 64.3998 34.3998 60.6998 33.8998C58.8998 33.6998 57.0998 33.3998 55.2998 33.0998C54.1998 32.8998 52.3998 32.8998 51.5998 31.9998C51.1998 31.4998 51.1998 30.7998 51.0998 30.1998C50.9998 29.1998 50.8998 28.1998 50.7998 27.1998C50.5998 25.0998 50.2998 22.8997 50.0998 20.7997C49.5998 16.4997 49.0998 12.1998 48.5998 7.99976C48.3998 6.09976 45.3998 6.09976 45.5998 7.99976C46.0998 12.0998 46.5998 16.1998 46.9998 20.3998C47.1998 22.4998 47.4998 24.4998 47.6998 26.5998C47.8998 28.4998 47.8998 30.5998 48.3998 32.3998C49.2998 35.5998 52.6998 35.8997 55.4998 36.2997C59.4998 36.8997 63.4998 37.4997 67.5998 37.7997C75.7998 38.4997 83.9998 38.5998 92.0998 37.8998C96.0998 37.5998 100.1 36.9997 104.1 36.2997C106.1 35.8997 108.2 35.5998 110.2 35.0998C111.4 34.7998 112.7 34.2997 113.5 33.2997C114.5 31.9997 114.5 30.1998 114.6 28.5998C114.8 26.2998 114.9 24.0997 115.1 21.7997C115.5 17.1997 115.9 12.4998 116.3 7.89975C116.4 6.89975 115.3 6.19976 114.4 6.49976C97.3998 10.4998 79.8998 11.2998 62.5998 9.19977C57.5998 8.59977 52.5998 7.69977 47.5998 6.69977C45.3998 6.09977 44.5998 8.99975 46.4998 9.39975Z" fill="#956C9C"/>
<path d="M77.6994 56.7004C69.9994 56.4004 62.2994 56.0004 54.7994 54.4004C51.3994 53.7004 47.4994 52.9004 44.3994 51.2004C42.1994 50.0004 40.4993 48.1004 39.2993 45.8004C37.1993 41.8004 36.6993 34.9004 41.0993 32.1004C42.0993 31.5004 43.2994 31.1004 44.3994 31.7004C45.8994 32.5004 47.1994 33.6004 48.6994 34.3004C51.7994 35.7004 55.1993 36.4004 58.5993 36.8004C73.9993 38.7004 89.6994 39.0004 104.999 35.6004C108.699 34.8004 112.199 33.7004 115.499 31.9004C116.599 31.3004 117.999 30.7004 119.199 31.1004C120.299 31.4004 120.799 32.6004 121.099 33.6004C122.299 37.5004 123.099 42.1004 121.199 46.0004C118.599 51.5004 112.199 52.7004 106.799 53.7004C99.0993 55.2004 91.2994 55.9004 83.4994 56.3004C81.6994 56.5004 79.6994 56.6004 77.6994 56.7004C75.7994 56.8004 75.7994 59.8004 77.6994 59.7004C86.1994 59.3004 94.7994 58.9004 103.199 57.5004C107.099 56.9004 111.299 56.2004 114.999 54.9004C117.699 53.9004 120.299 52.4004 122.199 50.2004C125.499 46.2004 125.899 41.1004 124.999 36.2004C124.499 33.7004 123.799 30.6004 121.599 29.0004C118.799 27.1004 115.599 28.7004 112.999 30.1004C109.299 32.1004 104.899 32.8004 100.699 33.6004C96.2994 34.4004 91.8994 34.9004 87.4994 35.1004C78.9994 35.6004 70.5993 34.9004 62.0993 34.2004C58.3993 33.9004 54.6994 33.5004 51.2994 32.1004C49.3994 31.4004 47.8993 30.3004 46.2993 29.3004C45.0993 28.5004 43.5994 28.3004 42.1994 28.6004C35.8994 29.7004 34.1994 37.5004 35.1994 42.8004C35.7994 45.7004 37.0994 48.4004 38.9994 50.6004C41.0994 53.0004 43.6993 54.3004 46.5993 55.3004C54.6993 58.0004 63.1994 58.9004 71.6994 59.4004C73.6994 59.5004 75.6994 59.6004 77.6994 59.7004C79.5994 59.8004 79.5994 56.8004 77.6994 56.7004Z" fill="#9577B4"/>
<path d="M113.499 6.79995C110.399 9.29995 106.299 9.79995 102.399 10.2999C97.6993 10.8999 92.8993 11.4 88.0993 11.6C78.5993 12.1 68.9993 11.8 59.5993 10.2C57.2993 9.79997 54.9993 9.29995 52.7993 8.79995C51.5993 8.49995 50.1993 8.49995 48.9993 7.89995C47.7993 7.29995 48.7993 6.89997 49.6993 6.69997C51.2993 6.29997 53.0993 6.19995 54.6993 5.89995C64.2993 4.39995 73.9993 3.59995 83.6993 3.79995C89.0993 3.89995 94.4993 4.29995 99.8993 4.89995C102.599 5.19995 105.399 5.69997 108.099 6.19997C109.999 6.59997 112.199 6.69996 113.299 8.49996C114.299 10.1 116.899 8.59996 115.899 6.99996C114.799 5.19996 113.199 4.29995 111.199 3.79995C108.799 3.19995 106.399 2.79996 103.999 2.49996C98.5993 1.69996 93.0993 1.09995 87.6993 0.899954C76.7993 0.399954 65.8993 1.19995 55.1993 2.79995C53.1993 3.09995 51.1993 3.29997 49.2993 3.69997C47.6993 3.99997 46.0993 4.79996 45.5993 6.49996C44.5993 10.4 49.2993 11.1 51.8993 11.7C62.2993 13.9 72.6993 14.9999 83.3993 14.7999C89.4993 14.6999 95.4993 14.2 101.599 13.4C106.599 12.8 111.699 12.2 115.799 8.89995C117.099 7.69995 114.999 5.49995 113.499 6.79995Z" fill="#956C9C"/>
<path d="M110.099 52.7004L97.6993 53.8004C93.0993 54.2004 89.0992 51.1004 88.5992 46.8004C88.1992 42.5004 91.4992 38.8004 96.0992 38.4004L108.499 37.3004C113.099 36.9004 117.099 40.0004 117.599 44.3004C118.099 48.5004 114.699 52.3004 110.099 52.7004Z" fill="#D8C5E2"/>
<path d="M128.2 131.8C128 131.9 127.7 132 127.5 132.2C121.7 135.5 115.4 137.6 108.6 138.2C103.7 138.7 98.7998 138.2 94.0998 136.9C93.9998 136.9 93.8998 136.9 93.7998 136.9C105.3 142.7 111.9 151.9 114.9 163.7C102.1 160.9 92.2998 154.7 85.9998 143.9C89.7998 155.5 86.8998 166.1 80.2998 176.3C73.5998 166.2 71.1998 155.6 74.6998 144.1C70.8998 150.6 65.5998 155.8 58.5998 159.4C54.5998 161.5 50.3998 162.9 45.6998 163.8C48.7998 151.9 55.5998 142.9 66.9998 137C54.5998 140.2 43.1998 138.1 32.2998 131.7C43.1998 125.4 54.5998 123.3 66.9998 126.4C59.2998 122.7 53.7998 117 49.6998 110C47.6998 106.7 45.8998 101.3 45.8998 99.6002C58.5998 102.3 68.3998 108.5 74.6998 119.3C74.2998 117.5 73.8998 115.9 73.5998 114.3C72.3998 107.7 73.2998 101.3 75.9998 95.1002C77.1998 92.4002 78.7998 89.8002 80.1998 87.2002C80.2998 87.2002 80.3998 87.2002 80.5998 87.2002C80.5998 87.3002 80.6998 87.4002 80.6998 87.5002C83.1998 91.1002 84.8998 95.1002 86.2998 99.1002C87.8998 103.9 88.0998 108.9 87.2998 114C86.9998 115.8 86.4998 117.6 86.0998 119.5C92.2998 108.6 102.2 102.4 115 99.5002C112 111.4 105.4 120.5 93.8998 126.3C100.4 124.8 104.4 124.7 108.8 125C114.9 125.5 120.6 127.4 125.9 130.1C126.7 130.5 127.6 131 128.4 131.4C128.2 131.6 128.2 131.7 128.2 131.8ZM89.8998 131.7C89.8998 126.5 85.4998 122.8 80.0998 122.7C74.8998 122.6 70.4998 126.6 70.3998 131.6C70.2998 136.5 74.6998 140.7 79.9998 140.6C85.3998 140.5 89.8998 136.9 89.8998 131.7Z" stroke="#9A5F9A" stroke-miterlimit="10"/>
<path d="M84.2 131.9C84.2 134 82.3 135.7 80.1 135.7C77.9 135.7 76 134 76 131.9C76 129.8 77.9 128.1 80.1 128.1C82.4 128.1 84.2 129.8 84.2 131.9Z" stroke="#9A5F9A" stroke-miterlimit="10"/>
</svg>
