<svg width="157" height="204" viewBox="0 0 157 204" fill="none" xmlns="http://www.w3.org/2000/svg">
<path d="M105.2 47.2998C105.2 51.8998 105.5 56.0998 105.1 60.2998C104.4 67.9998 107.4 72.9998 114.8 76.2998C126.6 81.5998 136 89.8998 143.7 100.1C164.4 127.8 153.9 166.6 129.2 185.7C113.9 197.6 96.2002 201.8 76.9002 201.8C55.9002 201.8 37.6002 195.7 22.7002 181.5C-10.3998 150.2 -3.99981 100.3 36.6002 78.7998C47.9002 72.7998 52.0002 66.0998 50.5002 54.3998C49.7002 47.9998 50.3002 47.8998 56.8002 48.6998C72.9002 50.6998 89.0002 50.4998 105.2 47.2998Z" fill="#E8D9EC"/>
<path d="M76.4001 48.5002C67.5001 48.1002 58.5 47.7002 49.8 45.6002C41.5 43.6002 37.5 35.7002 41.1 28.2002C42.3 25.7002 44.2 23.9002 47.3 25.2002C60.7 30.7002 74.7 29.9002 88.6 29.0002C95.2 28.6002 101.8 27.7002 107.9 24.8002C110.6 23.5002 112.2 25.4002 113.4 27.3002C117.4 33.6002 114.2 42.4002 106.9 44.7002C97.1001 47.8002 86.7001 47.8002 76.4001 48.5002Z" fill="#E6D8EC"/>
<path d="M106.4 9.7C106.9 14.6 105.3 19.4 105.3 24.3C105.3 26.8 103.3 27 101.8 27.3C85.8002 30.6 69.8002 30.8 53.8002 27.7C51.4002 27.2 50.7002 26.1 50.5002 23.9C50.0002 19.2 49.3002 14.5 48.7002 9.5C67.9002 14.6 87.1002 14.5 106.4 9.7Z" fill="#DEB0C1"/>
<path d="M77.5999 12.2998C68.7999 12.3998 60.0999 12.2998 51.6999 9.3998C50.3999 8.9998 48.4999 8.6998 48.3999 7.3998C48.2999 5.4998 50.3999 5.39979 51.8999 4.99979C64.5999 1.29979 77.4999 1.7998 90.4999 2.6998C94.2999 2.8998 98.1999 3.59979 101.9 4.59979C103.7 5.09979 106.9 5.0998 106.7 7.3998C106.6 9.4998 103.6 9.79979 101.6 10.2998C95.9999 11.4998 90.2999 12.4998 84.4999 12.4998C82.1999 12.2998 79.8999 12.2998 77.5999 12.2998Z" fill="#DEB0C1"/>
<path d="M105.8 54.2004C105.7 54.8004 89.3 57.5004 78.6 57.5004C61.8 57.5004 50.5 54.2004 50.5 54.2004V44.4004L78.1 48.6004L105.7 44.4004V54.2004H105.8Z" fill="#DAC8E3"/>
<path d="M105.3 27.8002L89.3002 29.7002L88.7002 13.5002L106.4 9.7002L105.3 27.8002Z" fill="#C494AE"/>
<path d="M98.2998 55.8007V69.9007C98.2998 69.9007 97.9998 77.5007 105.8 80.4007C105.8 80.4007 141.3 91.8007 146.8 118.501C146.8 118.501 155.7 163.801 124.9 185.101C124.9 185.101 104.9 197.001 85.9998 198.601L72.7998 199.801C72.7998 199.801 106.4 209.501 137.9 177.401C137.9 177.401 154.7 158.501 154.7 136.701C154.7 136.701 157.8 114.901 142.2 97.0007C142.2 97.0007 134.4 83.2007 106.8 71.5007C106.8 71.5007 104.4 66.9007 104.4 58.3007C104.4 49.7007 97.3998 52.4007 97.3998 52.4007L98.2998 55.8007Z" fill="#DAC8E3"/>
<path d="M103.7 45.7999C103.7 48.4999 103.8 51.1999 103.8 53.8999C103.8 56.2999 103.5 58.6999 103.5 60.9999C103.5 64.3999 104.3 67.7999 106.4 70.5999C108.8 73.6999 112.1 75.3999 115.5 77.0999C119.6 79.0999 123.5 81.4999 127.1 84.1999C140.4 94.2999 150.7 109 152.8 125.8C154.7 141.2 150.4 157 141.8 169.8C132.2 184.1 117.2 193.6 100.6 197.7C91.7 199.9 82.5 200.6 73.3 200.3C64.5 200 55.7 198.5 47.5 195.4C32.3 189.7 19.1 178.3 11.1 164.1C4.4 152.1 1.60002 138 3.80002 124.5C6.00002 110.7 13.1 98.0999 23.5 88.6999C26.3 86.1999 29.3001 83.8999 32.4001 81.8999C35.8001 79.7999 39.4 78.0999 42.6 75.6999C45.4 73.6999 47.9 71.1999 49.6 68.1999C51.2 65.2999 52 62.0999 52.2 58.7999C52.3 56.9999 52.2 55.0999 52 53.2999C51.8 51.9999 51.5 50.1999 51.7 48.9999C51.7 48.7999 51.8001 48.5999 51.9001 48.3999C52.1001 48.3999 51.7001 48.2999 51.9001 48.3999C52.2001 48.2999 52.3 48.2999 52.5 48.2999C54.1 48.1999 55.7 48.4999 57.3 48.6999C68 49.9999 78.9 50.2999 89.7 49.3999C95.1 48.8999 100.4 48.1999 105.7 47.0999C107.6 46.6999 106.8 43.7999 104.9 44.1999C93.9001 46.3999 82.6001 47.1999 71.4001 46.7999C66.0001 46.5999 60.7 45.9999 55.3 45.3999C53.1 45.1999 50 44.8999 49.1 47.5999C48.7 48.7999 48.8001 50.1999 48.9001 51.4999C49.1001 53.4999 49.4001 55.3999 49.4001 57.3999C49.4001 60.5999 48.8 63.7999 47.1 66.6999C43.2 73.4999 35.5 76.0999 29.3 80.2999C17.1 88.5999 7.6 100.5 3.1 114.5C-1.2 127.9 -0.799972 142.6 4.00003 155.8C9.60003 170.9 20.7001 183.8 34.4001 192.2C50.0001 201.8 68.6 204.4 86.6 202.9C104.8 201.4 122.6 194.8 135.7 181.9C147 170.7 154.2 155.6 155.9 139.8C156.8 131.8 156.1 123.6 153.8 115.9C151.3 107.6 147 100.4 141.4 93.7999C135.5 86.7999 128.5 80.6999 120.5 76.2999C116.9 74.2999 112.8 72.9999 109.8 69.9999C107.4 67.4999 106.4 64.2999 106.5 60.7999C106.5 58.4999 106.8 56.1999 106.8 53.7999C106.8 51.0999 106.7 48.3999 106.7 45.6999C106.7 43.8999 103.7 43.8999 103.7 45.7999Z" fill="#805EA5"/>
<path d="M76.9998 46.9002C70.4998 46.6002 63.9998 46.3002 57.4998 45.4002C52.5998 44.7002 46.7998 44.1002 43.6998 39.8002C41.2998 36.6002 41.1997 31.7002 43.7997 28.4002C45.5997 26.2002 47.9998 27.8002 50.1998 28.5002C53.1998 29.5002 56.1998 30.2002 59.1998 30.7002C65.2998 31.7002 71.3997 31.9002 77.5997 31.8002C83.5997 31.7002 89.6998 31.4002 95.6998 30.6002C98.6998 30.2002 101.6 29.7002 104.5 28.8002C105.9 28.4002 107.2 27.9002 108.5 27.3002C109.6 26.8002 110.5 26.4002 111.6 27.3002C114.7 29.9002 115.1 34.8002 113.3 38.2002C110.5 43.5002 103.8 44.3002 98.4998 45.1002C91.3998 46.3002 84.1998 46.5002 76.9998 46.9002C75.0998 47.0002 75.0998 50.0002 76.9998 49.9002C84.0998 49.5002 91.1997 49.3002 98.2997 48.3002C103.9 47.5002 110.6 46.6002 114.4 42.0002C117.4 38.4002 118.3 33.3002 116.4 29.0002C115.5 26.9002 113.8 24.6002 111.5 23.9002C110.1 23.5002 108.8 24.0002 107.5 24.5002C105.8 25.2002 104.1 25.8002 102.3 26.3002C95.7997 28.0002 88.9998 28.2002 82.3998 28.5002C75.4998 28.8002 68.3997 28.9002 61.5997 27.9002C58.1997 27.4002 54.8997 26.7002 51.5997 25.6002C48.8997 24.7002 46.1998 23.2002 43.4998 24.8002C41.3998 26.0002 40.0998 28.6002 39.4998 30.9002C38.8998 33.2002 38.8997 35.7002 39.5997 37.9002C40.3997 40.4002 42.0998 42.6002 44.1998 44.2002C46.7998 46.2002 49.8998 46.9002 52.9998 47.6002C60.8998 49.1002 69.0997 49.5002 77.0997 49.8002C78.9997 50.0002 78.9998 47.0002 76.9998 46.9002Z" fill="#805EA5"/>
<path d="M105 8.70059C105.3 11.7006 104.8 14.7006 104.4 17.7006C104.2 19.0006 104 20.3006 103.9 21.6006C103.8 22.5006 104.1 24.2006 103.3 24.8006C102.9 25.1006 102.1 25.2006 101.6 25.3006C100 25.6006 98.3004 25.9006 96.7004 26.2006C93.8004 26.7006 90.9004 27.1006 88.0004 27.3006C82.0004 27.9006 76.0004 27.9006 69.9004 27.6006C66.8004 27.4006 63.8004 27.1006 60.8004 26.7006C59.3004 26.5006 57.9004 26.3006 56.4004 26.0006C55.3004 25.8006 53.9004 25.7006 53.0004 25.0006C52.2004 24.4006 52.1004 23.4006 51.9004 22.5006C51.7004 20.9006 51.6004 19.3006 51.4004 17.8006C51.0004 14.5006 50.5004 11.2006 50.1004 7.90059C49.3004 8.30059 48.5004 8.70058 47.8004 9.10058C67.2004 14.1006 87.3004 14.0006 106.7 9.20059C107.2 9.10059 108.1 8.70058 107.9 8.00058C107.7 7.40058 106.7 7.50058 106.2 7.60058C87.5004 12.3006 68.1004 12.3006 49.4004 7.40059C48.7004 7.20059 46.9004 7.60058 47.1004 8.60058C47.5004 11.9006 48.0004 15.2006 48.4004 18.5006C48.6004 20.0006 48.7004 21.6006 48.9004 23.1006C49.0004 24.1006 49.2004 25.1006 49.8004 25.8006C50.4004 26.5006 51.2004 26.9006 52.1004 27.1006C53.7004 27.6006 55.5004 27.8006 57.1004 28.0006C60.4004 28.5006 63.8004 28.9006 67.1004 29.2006C73.7004 29.7006 80.3004 29.6006 86.9004 29.0006C90.3004 28.7006 93.7004 28.3006 97.1004 27.7006C98.7004 27.4006 100.3 27.1006 101.8 26.8006C102.8 26.6006 103.7 26.4006 104.6 25.9006C107.2 24.4006 106.5 21.2006 106.9 18.7006C107.4 15.1006 108 11.5006 107.7 7.90059C107.8 6.90059 104.9 7.50059 105 8.70059Z" fill="#9475B3"/>
<path d="M77.6998 11.3003C69.5998 11.4003 61.1998 11.3003 53.3998 8.70028C52.5998 8.50028 50.1998 8.10028 49.8998 7.20028C49.5998 6.10028 51.9998 6.00028 52.5998 5.80028C56.5998 4.70028 60.5998 4.00028 64.6998 3.60028C72.9998 2.80028 81.3998 3.10028 89.6998 3.70028C93.7998 4.00028 97.6998 4.80028 101.6 5.70028C102.6 5.90028 104 5.90028 104.7 6.60028C105.6 7.50028 104.8 8.30028 103.9 8.60028C102.3 9.10028 100.5 9.40028 98.8998 9.70028C96.5998 10.2003 94.2998 10.6003 91.9998 10.9003C87.2998 11.4003 82.4998 11.3003 77.6998 11.3003C75.9998 11.3003 75.4998 13.4003 77.3998 13.4003C82.3998 13.4003 87.3998 13.5003 92.3998 12.8003C94.7998 12.5003 97.0998 12.1003 99.3998 11.6003C101.2 11.2003 103 11.0003 104.7 10.4003C106 10.0003 107.4 9.20028 107.9 7.80028C108.3 6.40028 107.7 5.20028 106.5 4.50028C105.3 3.80028 103.9 3.70028 102.6 3.40028C100.2 2.90028 97.8998 2.30028 95.3998 1.90028C90.5998 1.20028 85.6998 1.10028 80.7998 0.900282C75.8998 0.800282 70.9998 0.800282 66.0998 1.20028C61.2998 1.60028 56.4998 2.40028 51.7998 3.80028C50.3998 4.20028 48.7998 4.40028 47.6998 5.50028C46.6998 6.60028 46.5998 8.30028 47.7998 9.20028C48.4998 9.70028 49.2998 9.90028 50.0998 10.1003C51.1998 10.4003 52.2998 10.8003 53.4998 11.2003C55.9998 11.9003 58.5998 12.4003 61.1998 12.7003C66.5998 13.4003 71.9998 13.4003 77.3998 13.4003C79.0998 13.4003 79.6998 11.3003 77.6998 11.3003Z" fill="#9475B3"/>
<path d="M65.1999 116.2C59.1999 114.9 54.5999 117.5 52.2999 121C51.8999 121.6 51.7999 122.1 52.1999 122.7C52.7999 123.5 53.7999 123.4 54.3999 122.5C55.5999 120.7 57.2999 119.4 59.3999 118.8C63.1999 117.7 66.3999 118.7 69.0999 121.5C69.1999 121.6 69.2999 121.8 69.4999 122C67.4999 122.8 66.1999 124.1 65.7999 126.2C65.7999 126.3 65.6999 126.4 65.6999 126.5C66.0999 128.1 65.2999 129.1 64.4999 130.4C63.3999 131.9 63.5999 133.7 64.3999 135.4C64.4999 135.6 64.5999 135.8 64.7999 136.1V136.2C59.5999 138 53.4999 134.1 53.0999 128.7C53.0999 128.2 52.9999 127.7 52.9999 127.2C52.9999 126.3 52.4999 125.6 51.6999 125.6C50.8999 125.6 50.3999 126.2 50.2999 127.1C50.0999 131.7 52.7999 136.1 57.0999 138.1C57.2999 138.2 57.4999 138.3 57.8999 138.4C56.9999 138.7 56.1999 138.9 55.4999 139.2C52.9999 140 50.5999 140.8 48.0999 141.5C45.4999 142.3 43.0999 141.7 41.0999 139.8C39.0999 137.9 38.4999 135.6 39.1999 133C39.7999 130.8 39.6999 128.8 38.7999 126.7C36.8999 122.2 38.5999 116.9 42.8999 114.4C44.7999 113.3 46.0999 111.7 46.8999 109.6C47.7999 107.1 49.6999 105.6 52.3999 105.2C55.0999 104.8 57.3999 105.6 58.9999 107.8C61.1999 110.6 63.0999 113.4 65.1999 116.2Z" fill="#D4A9CF"/>
<path d="M65.2001 120.1C65.2001 120.1 56.8001 124.2 62.0001 136.2L64.7001 135.8C64.7001 135.8 63.9001 122.1 69.1001 121.6L66.4002 118.5L65.2001 120.1Z" fill="#C298C6"/>
<path d="M63.0998 113C63.0998 113 31.6999 117.6 53.6999 139.7L57.8999 138.3C57.8999 138.3 43.8999 128.1 50.9999 124C50.9999 124 54.5998 117.8 56.5998 116.7C58.4998 115.7 65.1999 116.1 65.1999 116.1L63.0998 113Z" fill="#C298C6"/>
<path d="M65.3998 115.2C62.0998 114.5 58.6998 114.8 55.7998 116.5C54.0998 117.5 49.9998 120.5 51.5998 122.9C52.3998 124 53.7998 124 54.6998 123.1C55.2998 122.5 55.7998 121.7 56.3998 121.1C57.0998 120.4 57.9998 119.9 58.8998 119.5C62.2998 118.2 66.6998 119 68.7998 122.1C68.8998 121.7 69.0998 121.4 69.1998 121C66.7998 122 64.6998 124 64.9998 126.7C65.1998 128.5 63.3998 129.8 62.9998 131.5C62.8998 132.2 62.8998 132.9 62.9998 133.6C63.0998 134 63.1998 134.4 63.3998 134.8C63.4998 134.9 63.8998 136 63.8998 135.5C64.0998 135.3 64.1998 135.2 64.3998 135C60.5998 136.2 54.9998 135.9 51.9998 132.9C50.6998 131.6 50.5998 129.9 50.3998 128.1C50.2998 127.4 49.8998 126.4 50.4998 126.1C51.0998 125.8 51.7998 125.9 52.2998 125.5C52.6998 125.1 52.4998 124.4 51.9998 124.2C50.7998 123.9 49.7998 125 49.5998 126.1C49.2998 127.8 49.6998 129.7 50.2998 131.2C51.5998 134.6 54.1998 137 57.4998 138.5C57.5998 138 57.5998 137.6 57.6998 137.1C55.0998 138 52.3998 138.8 49.7998 139.7C47.1998 140.5 44.7998 141.1 42.4998 139.4C40.2998 137.8 39.3998 135.3 40.0998 132.7C40.6998 130.2 40.3998 128.1 39.4998 125.7C37.8998 121.4 39.6998 116.9 43.5998 114.5C45.2998 113.4 46.6998 111.9 47.4998 110C48.3998 107.9 49.4998 106.3 51.8998 105.6C54.7998 104.8 57.1998 105.9 58.9998 108.2C60.9998 110.8 62.7998 113.4 64.6998 116C65.2998 116.8 66.5998 116 65.9998 115.2C63.9998 112.5 61.9998 109.7 59.9998 107.1C58.4998 105.2 56.4998 103.9 54.0998 103.9C51.8998 103.8 49.4998 104.6 47.9998 106.3C46.2998 108.1 45.9998 110.7 44.0998 112.4C43.1998 113.2 42.0998 113.7 41.1998 114.5C40.2998 115.3 39.4998 116.3 38.8998 117.3C37.6998 119.4 37.2998 121.8 37.6998 124.1C37.8998 125.4 38.4998 126.5 38.7998 127.7C39.2998 129.5 39.0998 131 38.6998 132.7C38.1998 135.1 38.6998 137.4 40.2998 139.2C42.1998 141.4 44.8998 142.4 47.7998 141.8C49.5998 141.4 51.3998 140.7 53.1998 140.2C54.8998 139.6 56.6998 139.1 58.3998 138.5C58.9998 138.3 59.1998 137.4 58.5998 137.1C56.2998 136.1 54.2998 134.7 52.9998 132.5C52.3998 131.5 51.8998 130.4 51.6998 129.2C51.5998 128.7 51.0998 125.4 51.9998 125.6C51.8998 125.2 51.7998 124.8 51.6998 124.3C52.0998 124 51.8998 124.2 51.5998 124.2C51.3998 124.2 51.1998 124.3 50.9998 124.3C50.5998 124.4 50.0998 124.6 49.6998 124.9C48.9998 125.5 49.1998 126.4 49.2998 127.2C49.5998 129.3 49.5998 131.5 51.0998 133.2C54.2998 137 60.8998 137.5 65.3998 136.1C65.5998 136 65.8998 135.8 65.8998 135.6C65.9998 135.1 65.7998 134.9 65.5998 134.4C65.1998 133.6 64.8998 132.8 64.8998 131.9C64.9998 130.4 66.1998 129.4 66.6998 128C67.0998 126.9 66.6998 125.7 67.1998 124.6C67.6998 123.3 68.7998 122.4 70.0998 121.9C70.4998 121.7 70.7998 121.2 70.4998 120.8C67.3998 116.2 60.4998 115.6 56.2998 118.9C55.6998 119.4 55.1998 119.9 54.6998 120.5C54.4998 120.7 54.3998 121 54.1998 121.2C53.8998 121.7 53.5998 121.5 53.2998 120.6C53.3998 120.5 53.4998 120.4 53.5998 120.2C54.1998 119.2 55.3998 118.2 56.3998 117.6C59.0998 115.8 62.2998 115.5 65.3998 116.1C65.9998 116.8 66.3998 115.4 65.3998 115.2Z" fill="#956CAC"/>
<path d="M91.0003 114.7C90.4003 108.1 85.3003 103.7 79.3003 103.7C73.7003 103.6 68.1003 107.6 67.3003 114.7C67.1003 114.4 66.8003 114.1 66.7003 113.9C65.0003 111.6 63.3003 109.2 61.5003 106.9C59.8003 104.6 59.5003 102.1 60.8003 99.5002C62.1003 96.9002 64.3003 95.7002 67.3003 95.6002C69.1003 95.6002 70.7003 95.0002 72.0003 93.8002C76.0003 90.0002 82.3003 90.0002 86.3003 93.8002C87.6003 95.0002 89.3003 95.6002 91.1003 95.6002C94.0003 95.6002 96.1003 96.9002 97.4003 99.4002C98.7003 101.9 98.5003 104.4 96.8003 106.7C95.0003 109.3 93.0003 111.9 91.0003 114.7Z" fill="#D4A9CF"/>
<path d="M100.4 138.4C106.9 135.6 109.2 129 107.3 123.6C105.4 118.4 99.9002 114.7 93.2002 116.2C93.4002 116 93.5002 115.8 93.6002 115.6C95.4002 113.2 97.2002 110.8 98.9002 108.4C100.6 106 102.9 105 105.8 105.4C108.7 105.8 110.6 107.5 111.5 110.2C112.1 112 113.3 113.4 114.9 114.3C118 116.1 119.7 118.7 120.1 122.2C120.3 123.8 120.1 125.4 119.4 126.9C118.4 129 118.3 131 119 133.2C119.8 135.8 119.1 138.2 117.1 140C115.1 141.8 112.8 142.4 110.2 141.6C106.9 140.6 103.8 139.5 100.4 138.4Z" fill="#D4A9CF"/>
<path d="M80.5 154.7C85.4 160 92.3 159.7 96.6 156.7C100.6 153.8 103.4 147.5 99.7 141C100 141.1 100.3 141.1 100.6 141.2C103.4 142.1 106.2 143 109 143.9C111.9 144.8 113.7 146.7 114.1 149.7C114.5 152.4 113.5 154.6 111.2 156.3C109.6 157.5 108.7 159.1 108.2 161C106.9 166.2 102.4 169.4 97.1 168.9C95.1 168.7 93.3 169.2 91.6 170.3C88.4 172.4 84.4 171.9 82 168.9C81.1 167.8 80.5 166.5 80.5 165C80.5 161.7 80.5 158.2 80.5 154.7Z" fill="#D4A9CF"/>
<path d="M58.6994 141C54.9994 147.3 57.5993 153.6 61.4993 156.5C65.4993 159.6 72.5993 160.2 77.7993 154.7C77.7993 154.8 77.8994 154.9 77.8994 155C77.8994 158.2 77.8994 161.4 77.8994 164.7C77.8994 167.4 76.5994 169.4 74.1994 170.7C71.7994 172 69.2993 171.9 66.9993 170.4C65.7993 169.6 64.5993 169 63.0993 168.8C62.5993 168.8 62.0993 168.8 61.5993 168.8C56.1993 169.4 51.4994 166.2 50.1994 161C49.6994 159 48.6994 157.4 46.9994 156.1C44.7994 154.5 43.8993 152.3 44.2993 149.6C44.6993 146.8 46.2993 144.9 49.0993 143.9C52.0993 142.9 55.1994 141.9 58.1994 141C58.2994 141 58.3994 141 58.6994 141Z" fill="#D4A9CF"/>
<path d="M88.8994 122.1C91.3994 118.6 96.5994 117.5 100.599 119.6C104.799 121.8 106.499 126.8 104.699 131.1C102.799 135.4 98.0994 137.6 93.7994 136.3C94.0994 135.2 94.4994 134.2 94.5994 133.1C94.7994 131.6 94.0994 130.3 92.9994 129.2C92.7994 129 92.5994 128.6 92.5994 128.4C92.9994 125.4 91.8994 123.6 89.1994 122.3C88.9994 122.1 88.9994 122.1 88.8994 122.1Z" fill="#D4A9CF"/>
<path d="M71.5993 120.5C68.8993 117 69.4994 111.7 72.9994 108.5C76.4994 105.4 81.8993 105.5 85.2993 108.7C88.6993 111.8 89.1994 117.2 86.4994 120.5C85.5994 119.5 84.5993 118.7 83.2993 118.4C81.8993 118.1 80.6994 118.3 79.3994 119C79.1994 119.1 78.8994 119.2 78.6994 119.1C75.4994 117.8 74.0993 118 71.5993 120.5Z" fill="#D4A9CF"/>
<path d="M80.5998 147.4C83.8998 148 85.5999 147.1 87.1999 144.4C87.2999 144.2 87.4999 144.1 87.6999 144C90.8999 143.4 92.3999 141.8 92.6999 138.8C96.2999 139.2 99.3998 144.1 98.7998 148.6C98.1998 153.3 93.4998 156.9 88.7998 156.3C83.9998 155.7 79.9998 151.4 80.5998 147.4Z" fill="#D4A9CF"/>
<path d="M65.5994 138.7C65.9994 141.9 67.4994 143.5 70.5994 144C70.7994 144 70.9994 144.2 71.0994 144.3C72.7994 147.1 74.5995 148 77.6995 147.4C78.3995 150.8 74.7995 155.1 70.6995 156.1C65.8995 157.2 60.9995 154.2 59.7995 149.6C58.5995 145 61.1994 140 65.5994 138.7Z" fill="#D4A9CF"/>
<path d="M54.4001 141.8C54.4001 141.8 48.6001 173.1 77.9001 159.9V155.5C77.9001 155.5 69.4001 161.3 61.4001 157.1C61.4001 157.1 56.4001 151.6 56.0001 149.3C55.6001 147.2 58.2001 141 58.2001 141L54.4001 141.8Z" fill="#C298C6"/>
<path d="M87.7996 115.9C87.7996 115.9 81.8996 109 70.0996 116.3L71.0996 118.7C71.0996 118.7 85.4996 115.1 86.9996 119.8L88.2996 116.6L87.7996 115.9Z" fill="#C298C6"/>
<path d="M82.7 151.3C82.7 151.3 92.1 152.6 95.5 139L93 137.8C93 137.8 85 150.3 80.5 147.7L81.8 151L82.7 151.3Z" fill="#C298C6"/>
<path d="M93.3 109.9C93.3 109.9 79.2 88.7001 65 111.2L67.3 114.7C67.3 114.7 69.9 103.7 77.2 103.1C77.2 103.1 85.6 103.9 87.4 105.3C89.1 106.7 91.2 113 91.2 113L93.3 109.9Z" fill="#C298C6"/>
<path d="M97.3998 136.2C97.3998 136.2 102.3 128.5 91.7998 119.5L89.7998 121.2C89.7998 121.2 97.4998 133.8 93.4998 136.7L96.8998 137L97.3998 136.2Z" fill="#C298C6"/>
<path d="M95.3998 113C95.3998 113 126.8 117.6 104.8 139.7L100.6 138.3C100.6 138.3 110.5 132.6 107.5 124C107.5 124 103.9 117.8 101.9 116.7C99.9998 115.7 93.2998 116.1 93.2998 116.1L95.3998 113Z" fill="#C298C6"/>
<path d="M103.899 142.4C103.899 142.4 109.899 171.3 80.9994 160.4L80.8994 156.3C80.8994 156.3 88.7994 160.7 96.9994 156.9C96.9994 156.9 101.799 151.5 102.199 149.4C102.599 147.4 99.9994 141.7 99.9994 141.7L103.899 142.4Z" fill="#C298C6"/>
<path d="M62.3998 141.5C62.3998 141.5 63.4998 150.8 76.4998 149.9L76.9998 147.2C76.9998 147.2 63.7998 143.4 64.9998 138.3L62.2998 140.5L62.3998 141.5Z" fill="#C298C6"/>
<path d="M91.6998 114.4C90.9998 107.8 85.8998 102.6 79.0998 102.6C72.2998 102.6 67.3998 107.8 66.5998 114.3C66.9998 114.1 67.4998 113.9 67.8998 113.8C66.0998 111.5 64.4998 109.2 62.7998 106.9C61.0998 104.5 60.0998 102.1 61.5998 99.3C62.5998 97.4 64.3998 96.2 66.5998 96C68.6998 95.8 70.5998 95.6 72.2998 94.2C74.0998 92.7 75.9998 91.5 78.4998 91.3C80.6998 91.1 82.8998 91.7 84.6998 93C85.5998 93.6 86.2998 94.4 87.1998 94.9C88.0998 95.4 88.9998 95.7 89.9998 95.8C92.2998 96.1 94.3998 96.1 95.9998 98C98.1998 100.6 97.8998 103.6 95.9998 106.2C94.0998 108.8 92.1998 111.3 90.2998 113.9C89.6998 114.7 90.9998 115.4 91.5998 114.7C93.5998 112 95.6998 109.4 97.4998 106.6C98.9998 104.4 99.4998 101.8 98.3998 99.3C97.4998 97.2 95.8998 95.5 93.6998 94.7C92.4998 94.3 91.2998 94.4 89.9998 94.2C88.3998 94 87.3998 93.2 86.1998 92.2C82.4998 89.1 76.9998 88.8 72.9998 91.4C71.8998 92.1 70.9998 93.2 69.7998 93.7C68.4998 94.3 67.0998 94.1 65.7998 94.4C63.5998 94.7 61.7998 95.9 60.5998 97.7C58.8998 100.2 58.7998 103.3 60.3998 105.9C61.3998 107.5 62.5998 109 63.7998 110.5C64.7998 111.9 65.7998 113.3 66.8998 114.6C67.3998 115.2 68.0998 114.6 68.1998 114.1C68.8998 108.4 73.3998 103.9 79.1998 103.9C85.0998 103.9 89.6998 108.4 90.2998 114.2C90.2998 115.3 91.7998 115.3 91.6998 114.4Z" fill="#956CAC"/>
<path d="M100.8 138.7C106.6 136.1 110.1 129.9 108.2 123.6C106.2 117 99.4998 113.8 92.9998 115.1C93.2998 115.5 93.5998 115.8 93.7998 116.2C95.1998 113.9 97.0998 111.7 98.6998 109.5C100.1 107.6 101.6 105.8 104.2 105.6C106.3 105.5 108.5 106.2 109.8 108C111.1 109.7 111.3 111.8 112.9 113.3C114.5 114.8 116.6 115.6 117.9 117.5C119.2 119.4 119.8 122 119.3 124.3C119.1 125.5 118.4 126.6 118.1 127.8C117.8 129 117.8 130.2 117.9 131.3C118.1 132.4 118.5 133.5 118.5 134.7C118.5 136.1 117.9 137.3 117 138.3C114.9 140.7 112.3 140.9 109.4 140C106.4 139.1 103.5 138.1 100.5 137.2C99.5998 136.9 99.1998 138.4 100.1 138.6C103.2 139.6 106.3 140.6 109.4 141.6C111.8 142.3 114.3 142.3 116.4 140.8C118.4 139.4 119.8 137.3 119.9 134.8C120 133.3 119.4 132 119.2 130.6C119.1 128.9 119.6 127.6 120.1 126.1C122 121.3 119.6 115.9 115.4 113.3C114.2 112.5 113.2 111.7 112.4 110.4C111.8 109.3 111.5 108.1 110.7 107C109.4 105.3 107.5 104.3 105.3 104.1C102.7 103.8 100.2 104.8 98.4998 106.8C97.3998 108.1 96.3998 109.6 95.3998 111C94.2998 112.5 93.0998 113.9 92.1998 115.4C91.7998 116 92.3998 116.6 92.9998 116.5C98.7998 115.3 104.9 118.3 106.5 124.3C108 129.9 104.7 135.1 99.6998 137.4C99.0998 137.8 99.8998 139.1 100.8 138.7Z" fill="#956CAC"/>
<path d="M79.9997 154.9C84.1997 159.3 90.8997 160.7 96.2997 157.5C98.7997 156 100.7 153.5 101.6 150.8C102.8 147.3 102.1 143.5 100.3 140.3C99.9997 140.7 99.6997 141 99.4997 141.4C102.3 142.1 105.1 143.1 107.8 144C110 144.7 112 145.6 112.9 147.9C113.8 150.1 113.4 152.7 111.8 154.5C111.1 155.3 110.2 155.8 109.5 156.6C108.8 157.4 108.3 158.2 107.9 159.2C107.1 161.3 106.7 163.4 105.1 165.1C103.7 166.5 101.9 167.5 99.8997 167.8C97.5997 168.2 95.2997 167.5 92.9997 168.4C91.8997 168.8 90.9997 169.6 89.8997 170C88.7997 170.5 87.4997 170.6 86.2997 170.4C83.2997 169.8 81.2997 167.3 81.1997 164.3C81.1997 161 81.1997 157.7 81.1997 154.4C81.1997 153.4 79.6997 153.4 79.6997 154.4C79.6997 157.9 79.5997 161.3 79.6997 164.8C79.7997 167.4 81.2997 169.6 83.3997 171C85.4997 172.3 88.0997 172.4 90.3997 171.5C91.5997 171 92.6997 170.1 93.8997 169.7C95.4997 169.2 96.8997 169.5 98.4997 169.4C103.1 169.2 107 166.3 108.5 161.9C108.9 160.6 109.2 159.3 110 158.2C110.8 157 112 156.4 113 155.3C114.6 153.5 115.1 151.2 114.7 148.8C114.2 146.3 112.6 144.3 110.3 143.3C108.7 142.6 107 142.2 105.4 141.7C103.6 141.1 101.7 140.4 99.8997 140C99.2997 139.9 98.6997 140.5 99.0997 141.1C102.1 146.4 100.8 153.3 95.2997 156.4C90.4997 159.1 84.7997 157.8 81.0997 153.9C80.3997 153.1 79.2997 154.2 79.9997 154.9Z" fill="#956CAC"/>
<path d="M57.9997 140.2C56.1997 143.4 55.5997 147.2 56.6997 150.7C57.5997 153.5 59.4997 155.9 61.9997 157.4C67.2997 160.6 73.9997 159.3 78.1997 154.9C77.7997 154.8 77.3998 154.7 76.8998 154.6C77.0998 156 76.8998 157.7 76.8998 159.1C76.8998 160.6 76.8998 162 76.8998 163.5C76.8998 166 76.2997 168 74.1997 169.4C73.0997 170.1 71.7997 170.6 70.4997 170.5C68.8997 170.5 67.6998 169.7 66.3998 169C65.4998 168.5 64.4998 168 63.3998 167.9C62.1998 167.7 61.0998 167.9 59.8998 167.9C55.4998 167.9 51.7997 164.9 50.6997 160.7C50.0997 158.6 49.1997 156.8 47.4997 155.4C45.5997 153.9 44.4997 152 44.7997 149.4C45.1997 146.8 46.7997 145.1 49.2997 144.3C50.7997 143.8 52.2998 143.3 53.8998 142.8C55.3998 142.3 56.9997 141.6 58.4997 141.4C59.3997 141.3 59.4997 139.8 58.4997 139.9C56.9997 140.1 55.5997 140.7 54.1997 141.2C52.4997 141.7 50.8997 142.3 49.1997 142.8C46.9997 143.5 45.0997 144.7 44.0997 146.9C43.0997 148.9 42.9997 151.5 43.9997 153.5C45.1997 156.1 47.9997 157.1 48.9997 159.8C49.3997 160.9 49.5997 162 50.0997 163.1C50.5997 164.2 51.2997 165.2 52.0997 166C53.6997 167.7 55.8997 168.8 58.1997 169.2C59.2997 169.4 60.3997 169.4 61.4997 169.3C63.3997 169.2 64.7998 169.7 66.3998 170.6C68.7998 172.1 71.4997 172.5 74.0997 171.2C76.4997 170.1 78.1997 168.1 78.4997 165.4C78.6997 163.6 78.5997 161.8 78.5997 160C78.5997 158.1 78.7997 156 78.4997 154.1C78.3997 153.5 77.5997 153.4 77.1997 153.8C73.4997 157.6 67.7997 158.9 62.9997 156.2C57.4997 153.1 56.2997 146.2 59.1997 140.9C59.7997 140.1 58.4997 139.4 57.9997 140.2Z" fill="#956CAC"/>
<path d="M89.4994 122.1C92.3994 118.1 98.5994 117.9 102.099 121.3C105.699 124.8 105.299 130.6 101.499 133.7C99.3994 135.4 96.5994 136 93.8994 135.2C94.0994 135.5 94.1994 135.8 94.3994 136.1C94.7994 134.5 95.4994 132.8 95.0994 131.1C94.8994 130.4 94.4994 129.7 94.0994 129.1C93.8994 128.8 93.4994 128.5 93.2994 128.1C93.1994 127.8 93.2994 127.3 93.2994 126.9C93.2994 125.7 92.9994 124.5 92.2994 123.5C91.4994 122.3 90.3994 121.8 89.1994 121.1C88.3994 120.6 87.5994 121.9 88.3994 122.4C89.3994 123 90.3994 123.4 91.0994 124.4C91.6994 125.4 91.7994 126.5 91.6994 127.6C91.5994 129.1 92.8994 129.7 93.3994 131C93.9994 132.6 93.2994 134.2 92.8994 135.7C92.7994 136.1 92.9994 136.5 93.3994 136.6C98.9994 138.2 105.099 134.4 105.899 128.5C106.699 122.7 102.099 117.4 96.1994 117.3C92.9994 117.2 89.9994 118.7 88.0994 121.3C87.5994 122.1 88.8994 122.9 89.4994 122.1Z" fill="#956CAC"/>
<path d="M72.3 119.8C69.3 115.8 70.9001 109.9 75.2001 107.7C79.6001 105.4 85.3 107.5 87.1 112.2C88 114.7 87.8 117.5 86.1 119.6C86.5 119.6 86.8001 119.6 87.2001 119.6C86.1001 118.4 84.8001 117.5 83.2001 117.3C82.3001 117.2 81.5 117.2 80.6 117.5C80.2 117.6 79.8 117.8 79.5 117.9C79.2 118.1 79.3001 118.1 78.9001 118C78.7001 117.9 78.5 117.9 78.3 117.8C77.1 117.4 75.8 117.1 74.5 117.4C73.2 117.7 72.1 118.7 71.1 119.6C70.4 120.3 71.5001 121.3 72.2001 120.7C73.0001 119.9 73.9 119.1 75 118.8C76.1 118.5 77.3001 119 78.4001 119.4C79.1001 119.6 79.5 119.6 80.1 119.3C80.8 119 81.5 118.8 82.3 118.8C83.9 118.8 85.1 119.6 86.1 120.8C86.3 121.1 86.9001 121.1 87.2001 120.8C90.8001 116.2 89.0001 109.2 83.9001 106.5C81.4001 105.2 78.3 104.9 75.6 106C72.9 107 70.9 109.1 69.8 111.8C68.7 114.7 69 118.2 71 120.7C71.6 121.3 72.9 120.5 72.3 119.8Z" fill="#956CAC"/>
<path d="M80.4 147.8C81.9 148 83.5 148.1 84.9 147.5C85.5 147.2 86.0999 146.8 86.5999 146.3C86.7999 146 87.1 145.7 87.3 145.4C87.5 145.1 87.7 144.6 87.9 144.4C88.2 144.2 88.7999 144.2 89.0999 144.1C89.3999 144 89.7999 143.9 90.0999 143.7C90.6999 143.4 91.3 143 91.8 142.5C92.9 141.4 93.3 139.9 93.5 138.4C93.2 138.6 92.8999 138.9 92.5999 139.1C94.8999 139.4 96.5 141.3 97.4 143.3C98.4 145.6 98.6 148.3 97.4 150.6C96.3 152.7 94.3 154.3 92 155C89.6 155.7 87 155.1 85 153.7C82.9 152.3 81.2 149.8 81.5 147.2C81.6 146.2 80.1 146.3 80 147.2C79.3 153.1 86.1 157.6 91.4 156.7C94.2 156.3 96.7 154.5 98.3 152.2C99.9 149.8 100.2 146.7 99.2 143.9C98.3 141.1 96.1 138.2 93 137.8C92.5 137.7 92.0999 138 92.0999 138.5C91.9999 139.7 91.6 140.9 90.7 141.7C90.3 142.1 89.7 142.4 89.2 142.6C88.6 142.8 87.8 142.9 87.2 143.2C86.7 143.6 86.4 144.3 86 144.8C85.6 145.3 85.2 145.7 84.7 146C83.6 146.7 82.2 146.6 80.9 146.4C79.8 146.2 79.4 147.7 80.4 147.8Z" fill="#956CAC"/>
<path d="M64.9 138.4C65.1 139.9 65.4999 141.3 66.4999 142.5C67.3999 143.6 68.6999 144.1 70.0999 144.4C70.7999 144.5 71.1999 145.6 71.6999 146.2C72.1999 146.7 72.8 147.2 73.4 147.6C74.8 148.3 76.4 148.2 77.9 147.9C77.6 147.7 77.2999 147.6 76.9999 147.4C77.3999 149.6 75.7999 151.8 74.2999 153.2C72.3999 154.8 69.9 155.7 67.4 155.3C62.5 154.5 59.1999 149.7 60.4999 144.8C61.1999 142.2 63.1999 140 65.7999 139.2C66.6999 138.9 66.3 137.5 65.4 137.8C59.7 139.6 56.9999 146.4 59.7999 151.6C62.5999 157 69.8999 158.4 74.6999 154.8C76.9999 153 78.9999 150.1 78.4999 147C78.3999 146.6 77.8999 146.4 77.5999 146.5C76.2999 146.7 75 146.8 73.9 146.1C73.4 145.8 72.8999 145.3 72.4999 144.8C72.0999 144.3 71.7999 143.5 71.1999 143.2C70.5999 142.9 70 142.9 69.4 142.7C68.9 142.5 68.3999 142.2 67.9999 141.8C67.0999 140.9 66.6999 139.7 66.4999 138.5C66.2999 137.4 64.8 137.4 64.9 138.4Z" fill="#956CAC"/>
<path d="M71.2996 124.9C72.2996 125 73.2997 124.9 73.8997 123.9C74.1997 123.3 74.0996 122.6 74.5996 122C75.2996 121.1 76.4997 121.1 77.3997 121.7C78.3997 122.5 79.2996 123.1 80.4996 122.2C81.2996 121.6 81.8996 121 82.9996 121.3C83.8996 121.6 84.0996 122.4 84.2996 123.2C84.5996 124.4 85.3996 124.9 86.5996 124.8C87.8996 124.7 89.3996 125.2 89.2996 126.9C89.1996 128.1 88.1996 128.9 89.0996 130C89.4996 130.6 90.2996 130.7 90.7996 131.2C91.4996 131.9 91.4996 133.1 90.7996 133.8C89.9996 134.7 88.6996 134.8 88.7996 136.3C88.8996 137.1 89.4997 137.7 89.3997 138.5C89.2997 139.7 88.2996 140.3 87.1996 140.2C85.9996 140.1 85.0996 140.2 84.5996 141.4C84.2996 142 84.2996 142.7 83.7996 143.3C83.1996 143.9 82.3996 144.1 81.6996 143.7C80.4996 143.1 79.5996 142.2 78.1996 142.9C77.4996 143.2 76.8996 144 76.0996 143.9C75.2996 143.8 74.6997 143.2 74.3997 142.5C73.9997 141.5 73.9996 140.5 72.7996 140.3C72.1996 140.2 71.5996 140.4 70.9996 140.3C69.6996 140.1 69.0997 138.9 69.3997 137.7C69.6997 136.6 70.1996 135.7 69.1996 134.8C68.6996 134.3 67.8996 134.1 67.4996 133.4C67.0996 132.6 67.2997 131.7 67.8997 131.1C68.7997 130.2 70.0996 130 69.6996 128.4C69.4996 127.6 68.9996 127 69.1996 126.2C69.2996 125.3 70.2996 124.9 71.2996 124.9C72.2996 124.9 72.2996 123.4 71.2996 123.4C69.8996 123.4 68.4997 124.1 67.8997 125.4C67.5997 126 67.4996 126.6 67.5996 127.2C67.6996 127.9 68.3997 128.7 67.8997 129.3C67.4997 129.8 66.6996 130 66.1996 130.7C65.7996 131.3 65.5996 132 65.5996 132.8C65.5996 133.4 65.7996 134 66.0996 134.5C66.4996 135.2 67.1996 135.4 67.7996 136C68.0996 136.3 68.0996 136.1 68.0996 136.5C68.0996 136.9 67.7996 137.3 67.6996 137.7C67.4996 138.5 67.4997 139.3 67.8997 140C68.1997 140.7 68.7996 141.3 69.4996 141.7C70.2996 142.1 70.9997 142 71.8997 142C72.7997 142 72.5997 142.8 72.8997 143.5C73.1997 144.1 73.5996 144.7 74.1996 145.1C75.3996 146 76.7996 145.9 78.0996 145C78.4996 144.7 78.9996 144.3 79.5996 144.5C80.0996 144.6 80.4996 145.1 80.9996 145.3C81.5996 145.6 82.1997 145.8 82.8997 145.7C84.2997 145.5 85.3996 144.5 85.7996 143.2C85.9996 142.7 85.8997 142.2 86.3997 142C86.6997 141.9 87.1996 142.1 87.4996 142.1C88.2996 142.1 88.9996 141.9 89.5996 141.4C90.9996 140.3 91.1996 138.7 90.5996 137.2C90.2996 136.5 90.3996 136.3 90.9996 135.9C91.2996 135.7 91.5996 135.5 91.7996 135.3C92.2996 134.8 92.6996 134.1 92.7996 133.4C92.8996 132.7 92.7996 132 92.4996 131.4C92.0996 130.6 91.4996 130.3 90.7996 129.7C90.2996 129.3 90.3996 129.1 90.5996 128.5C90.6996 128.2 90.7997 128 90.8997 127.6C90.9997 127 90.8996 126.3 90.6996 125.7C90.1996 124.5 88.9996 123.6 87.6996 123.5C87.2996 123.5 86.7996 123.6 86.4996 123.6C85.8996 123.5 85.9996 122.9 85.7996 122.4C85.5996 121.7 85.1996 121 84.5996 120.6C83.8996 120.1 82.8996 119.8 81.9996 120C80.9996 120.1 80.4996 120.8 79.6996 121.2C79.0996 121.5 78.8997 121 78.3997 120.6C77.9997 120.3 77.5996 120.1 77.1996 120C76.3996 119.8 75.4996 119.9 74.7996 120.3C74.0996 120.7 73.4996 121.3 73.1996 122C72.9996 122.4 73.0997 122.9 72.8997 123.2C72.5997 123.7 72.0996 123.6 71.5996 123.5C70.2996 123.3 70.2996 124.8 71.2996 124.9Z" fill="#956CAC"/>
<path d="M79.0994 123C75.0994 123.1 71.3994 125.5 69.9994 129.2C68.4994 133 69.7994 137.4 72.8994 139.9C76.0994 142.5 80.5994 142.8 84.0994 140.7C87.5994 138.6 89.3994 134.5 88.5994 130.6C87.6994 126.2 83.5994 123.1 79.0994 123C78.0994 123 78.0994 124.5 79.0994 124.5C82.4994 124.5 85.6994 126.6 86.8994 129.9C88.0994 133.1 86.9994 136.6 84.4994 138.8C81.7994 141.1 77.8994 141.3 74.8994 139.5C71.9994 137.8 70.3994 134.4 71.0994 131.1C71.8994 127.3 75.2994 124.6 79.1994 124.6C80.0994 124.5 80.0994 123 79.0994 123Z" fill="#956CAC"/>
<path d="M73.5995 132.6C73.5995 130.3 75.0995 128.2 77.2995 127.4C79.4995 126.6 82.0995 127.3 83.5995 129.1C85.0995 130.9 85.1995 133.5 83.9995 135.4C82.7995 137.4 80.4995 138.4 78.1995 138C75.4995 137.6 73.5995 135.3 73.5995 132.6C73.5995 131.6 72.0995 131.6 72.0995 132.6C72.0995 135.6 73.9995 138.2 76.7995 139.2C79.5995 140.2 82.7995 139.3 84.6995 137.1C86.5995 134.8 86.8995 131.6 85.2995 129C83.7995 126.4 80.7996 125.2 77.8996 125.7C74.5996 126.3 72.1995 129.3 72.0995 132.6C71.9995 133.6 73.4995 133.6 73.5995 132.6Z" fill="#956CAC"/>
<path d="M79.1992 128.101C77.2992 128.101 75.4992 129.301 74.7992 131.101C74.0992 132.901 74.6991 134.901 76.0991 136.101C77.5991 137.301 79.7992 137.601 81.4992 136.501C83.0992 135.501 83.9992 133.601 83.6992 131.701C83.2992 129.601 81.2992 128.101 79.1992 128.101C78.1992 128.101 78.1992 129.601 79.1992 129.601C80.4992 129.601 81.6991 130.401 82.0991 131.601C82.4991 132.801 82.0991 134.201 81.0991 135.001C80.0991 135.801 78.5992 135.901 77.4992 135.201C76.3992 134.501 75.7991 133.301 76.0991 132.001C76.3991 130.501 77.6992 129.601 79.1992 129.601C80.0992 129.601 80.1992 128.101 79.1992 128.101Z" fill="#956CAC"/>
<path d="M79.6002 132.6C79.6002 132.7 79.6002 132.7 79.6002 132.8C79.6002 132.7 79.6002 132.6 79.6002 132.6C79.6002 132.7 79.6002 132.8 79.5002 132.9C79.6002 132.8 79.4002 133 79.5002 132.9C79.5002 132.9 79.5002 133 79.4002 133C79.4002 133 79.4002 133 79.3002 133.1C79.5002 133 79.2002 133.2 79.3002 133.1C79.2002 133.1 79.1002 133.2 79.0002 133.2C79.1002 133.2 79.1002 133.2 79.2002 133.2C79.1002 133.2 79.0002 133.2 78.9002 133.2C79.0002 133.2 79.0002 133.2 79.1002 133.2C79.0002 133.2 78.9002 133.2 78.8002 133.1C78.9002 133.2 78.7002 133 78.8002 133.1C78.8002 133.1 78.7002 133.1 78.7002 133L78.6002 132.9C78.6002 132.8 78.5002 132.7 78.5002 132.6C78.5002 132.7 78.5002 132.7 78.5002 132.8C78.5002 132.7 78.5002 132.6 78.5002 132.5C78.5002 132.6 78.5002 132.6 78.5002 132.7C78.5002 132.6 78.5002 132.5 78.6002 132.4C78.7002 132.3 78.5002 132.5 78.6002 132.4C78.6002 132.4 78.6002 132.3 78.7002 132.3C78.7002 132.3 78.7002 132.3 78.8002 132.2C78.9002 132.1 78.6002 132.3 78.8002 132.2C78.9002 132.2 79.0002 132.1 79.1002 132.1C79.0002 132.1 79.0002 132.1 78.9002 132.1C79.0002 132.1 79.1002 132.1 79.2002 132.1C79.1002 132.1 79.1002 132.1 79.0002 132.1C79.1002 132.1 79.2002 132.1 79.3002 132.2C79.4002 132.3 79.4002 132.2 79.3002 132.2C79.3002 132.2 79.4002 132.2 79.4002 132.3L79.5002 132.4C79.6002 132.4 79.6002 132.4 79.6002 132.6V132.5C79.6002 132.5 79.6002 132.5 79.6002 132.6C79.6002 133 79.9002 133.4 80.4002 133.4C80.8002 133.4 81.2002 133.1 81.2002 132.6C81.2002 131.7 80.6002 131 79.8002 130.7C79.1002 130.5 78.2002 130.7 77.7002 131.3C77.4002 131.7 77.3002 132 77.2002 132.5C77.2002 132.9 77.3002 133.3 77.5002 133.6C78.0002 134.3 78.8002 134.7 79.6002 134.5C80.5002 134.3 81.1002 133.4 81.1002 132.5C81.1002 132.1 80.8002 131.7 80.3002 131.7C80.0002 131.8 79.6002 132.2 79.6002 132.6Z" fill="#956CAC"/>
<path d="M71.2995 124.5C71.3995 124.5 71.5995 124.5 71.7995 124.5C72.6995 124.6 73.2995 124.2 73.3995 123.3C73.5995 122.2 74.0995 121.4 75.1995 121C76.2995 120.6 77.2995 120.9 78.0995 121.7C78.8995 122.5 79.4995 122.5 80.2995 121.7C81.0995 120.9 82.0995 120.6 83.1995 121C84.2995 121.4 84.8995 122.2 84.9995 123.3C85.0995 124.2 85.6995 124.7 86.5995 124.5C89.2995 124 90.7995 126.6 89.5995 128.6C89.0995 129.4 89.3995 130.1 90.1995 130.5C91.2995 131 91.8995 131.9 91.8995 133C91.8995 134.1 91.2995 134.9 90.2995 135.5C89.3995 136 89.1995 136.6 89.6995 137.5C90.1995 138.5 90.1995 139.5 89.4995 140.4C88.7995 141.3 87.7995 141.7 86.5995 141.4C85.6995 141.2 85.0995 141.7 84.9995 142.7C84.6995 144.7 82.4995 145.8 80.9995 144.6C79.6995 143.5 78.7995 143.5 77.4995 144.6C75.9995 145.8 73.7995 144.7 73.4995 142.8C73.2995 141.5 72.8995 141.3 71.4995 141.4C70.4995 141.5 69.6995 141.2 68.9995 140.4C68.2995 139.6 68.1995 138.7 68.5995 137.7C69.1995 136.2 69.1995 136.1 67.6995 135.2C65.8995 134.1 65.9995 131.6 67.7995 130.6C69.0995 129.8 69.1995 129.6 68.5995 128.2C67.7995 126.4 69.0995 124.4 71.2995 124.5ZM79.1995 124.1C74.2995 124.1 70.2995 128 70.1995 132.9C70.1995 137.7 74.2995 141.8 79.1995 141.8C84.0995 141.8 88.1995 137.7 88.1995 132.9C88.0995 128.1 84.0995 124.1 79.1995 124.1Z" fill="#D4A9CF"/>
<path d="M72.7998 133C72.7998 129.5 75.5998 126.7 79.1998 126.7C82.6998 126.7 85.4998 129.5 85.4998 133C85.4998 136.5 82.6998 139.2 79.1998 139.3C75.6998 139.3 72.7998 136.5 72.7998 133ZM79.1998 129.2C77.0998 129.2 75.2998 130.8 75.2998 132.9C75.1998 135 76.9998 136.8 79.1998 136.8C81.2998 136.8 83.0998 135.1 83.0998 133C83.0998 130.9 81.2998 129.2 79.1998 129.2Z" fill="#D4A9CF"/>
<path d="M80.3994 132.9C80.3994 133.6 79.8994 134.2 79.1994 134.2C78.4994 134.2 77.9994 133.7 77.8994 133C77.8994 132.3 78.3994 131.7 79.0994 131.7C79.7994 131.7 80.3994 132.2 80.3994 132.9Z" fill="#D4A9CF"/>
<path d="M108.5 40.7007L90.4 44.3008C87.7 44.9008 85 43.1008 84.4 40.3008L84.3 39.7007C83.7 37.0007 85.5 34.3007 88.3 33.7007L106.4 30.1007C109.1 29.5007 111.8 31.3007 112.4 34.1007L112.5 34.7007C113 37.5007 111.2 40.1007 108.5 40.7007Z" fill="#DAC8E3"/>
</svg>
