<svg width="146" height="216" viewBox="0 0 146 216" fill="none" xmlns="http://www.w3.org/2000/svg">
<path d="M113.6 196.3C113.6 196.5 113.6 196.8 113.6 197C113.6 199.8 111.4 203.9 105.4 207.3C99.5 210.7 89.8 213.3 75 213.3C36.4 213.3 31.5 203.7 31.5 198V197C31.5 196.6 31.5 196.2 31.6 195.9C13.7 183 2 162 2 138.3C2 108.9 19.9 83.6998 45.4 72.8998V44.7998H99.2V72.4998C125.4 82.8998 143.8 108.5 143.8 138.4C143.8 162.3 131.8 183.5 113.6 196.3Z" fill="#E8D9EC"/>
<path d="M43.7998 5.39936C63.1998 1.89936 81.5998 1.89935 101 5.29935C94.6998 11.8994 51.8998 11.8994 43.7998 5.39936Z" fill="#DCB4C2"/>
<path d="M120.399 133.3C117.599 119.9 110.199 109.1 95.9993 106C89.0993 104.5 81.5993 104.9 74.5993 105.9C72.9993 106.1 71.6993 106.3 70.5993 106.6C69.5993 107.1 68.4993 107.6 67.4993 108.1C67.0993 108.6 66.7993 109.2 66.6993 109.9C66.4993 110.8 66.4993 111.9 66.5993 113.4C65.3993 112.6 64.0993 111.9 62.7993 111.3C62.1993 111.8 61.4993 112.3 60.8993 112.9C60.3993 112.3 59.5993 111.9 58.4993 111.8C55.1993 111.4 51.7993 110.9 48.3993 110.6C46.8993 110.5 45.3993 110.4 43.9993 110.5C33.1993 110.7 24.0993 117.8 20.6993 128C19.6993 130.9 18.9993 133.8 18.5993 136.7C18.2993 136.7 16.8993 153.8 21.0993 164.2C25.3993 174.7 33.8993 183.7 36.9993 186.4C41.0993 189.9 45.9993 192.7 51.7993 194.5C59.8993 197 67.6993 196.6 74.2993 190.6C74.5993 190.3 74.8993 190 75.1993 189.7C75.7993 189.1 77.4993 188.8 78.3993 189.2C78.4993 189.2 78.6993 189.3 78.7993 189.3C92.1993 193.6 104.199 187.4 111.399 177.5C120.899 164.1 123.799 149 120.399 133.3Z" fill="#D4A7CE"/>
<path d="M118.5 156.999C115 176.599 100.5 190.999 87.2998 191.699C96.6998 186.499 102.5 173.999 107.2 159.699C117.3 128.899 81.6998 109.299 80.2998 109.299C87.7998 108.499 92.7998 111.099 97.3998 111.899C119 115.799 122.3 135.399 118.5 156.999Z" fill="#C598C6"/>
<path d="M121 132.899C119.1 123.999 115 115.399 107.4 109.999C97.8998 103.199 85.3998 103.399 74.2998 104.799C71.4998 105.099 69.0998 105.399 66.7998 107.199C65.9998 107.799 64.9998 108.599 64.4998 109.599C63.8998 110.699 64.0998 112.399 64.1998 113.599C65.0998 113.299 65.8998 112.999 66.7998 112.699C65.8998 112.199 65.2998 112.199 64.2998 112.299C64.1998 112.299 63.9998 112.399 64.2998 112.399C64.0998 112.399 63.8998 112.199 63.6998 112.199C63.3998 112.199 63.1998 112.199 62.8998 112.299C61.7998 112.399 63.5998 112.599 62.9998 112.299C62.3998 111.999 61.4998 111.899 60.8998 111.699C60.1998 111.499 59.4998 111.199 58.7998 110.999C56.2998 110.399 53.4998 110.199 50.9998 109.899C48.1998 109.599 45.3998 109.399 42.5998 109.499C34.1998 109.899 26.3998 114.399 21.6998 121.399C18.5998 125.999 17.0998 131.399 16.2998 136.899C16.5998 136.599 16.7998 136.299 17.0998 135.899C15.9998 136.399 16.0998 137.899 15.9998 138.899C15.7998 140.999 15.7998 143.099 15.7998 145.199C15.7998 150.999 16.2998 156.999 17.9998 162.499C19.9998 168.799 23.7998 174.699 27.8998 179.799C31.1998 183.799 34.7998 187.599 39.0998 190.399C44.8998 194.199 51.9998 196.899 58.9998 196.999C62.2998 197.099 65.5998 196.399 68.5998 195.099C70.1998 194.399 71.6998 193.499 72.9998 192.399C74.0998 191.499 75.0998 189.899 76.5998 190.099C78.2998 190.399 79.9998 191.099 81.6998 191.399C83.2998 191.699 84.9998 191.799 86.6998 191.699C89.8998 191.699 93.0998 190.999 96.0998 189.899C102 187.699 107.2 183.699 111 178.699C119.8 167.299 123.6 152.799 121.9 138.499C121.7 136.599 121.4 134.699 121 132.899C120.7 131.499 117.8 132.299 118.1 133.699C120 142.599 119.9 151.899 117.3 160.599C114.9 168.799 110.4 177.199 103.8 182.799C97.5998 187.999 89.6998 190.499 81.6998 188.899C79.6998 188.499 77.6998 187.499 75.6998 187.799C73.4998 188.099 72.3998 189.799 70.6998 191.099C67.3998 193.599 63.2998 194.799 59.1998 194.699C50.8998 194.399 42.3998 190.299 36.3998 184.799C31.0998 179.899 26.4998 173.699 23.1998 167.299C19.6998 160.499 18.7998 152.899 18.6998 145.299C18.6998 142.799 18.6998 140.199 18.9998 137.699C18.9998 137.399 19.0998 137.099 19.0998 136.799C19.0998 136.599 19.1998 136.699 19.0998 136.699C19.1998 136.699 18.3998 137.399 18.6998 137.099C17.8998 137.899 18.7998 137.199 18.8998 136.999C19.4998 136.199 19.3998 134.699 19.5998 133.699C19.8998 132.299 20.1998 130.999 20.5998 129.599C22.7998 122.199 27.6998 115.799 35.0998 112.899C39.1998 111.299 43.3998 111.199 47.6998 111.599C50.2998 111.799 52.9998 112.199 55.5998 112.499C57.0998 112.699 58.3998 113.199 59.8998 113.599C61.0998 113.999 62.4998 114.499 63.6998 113.899C63.1998 113.899 62.6998 113.999 62.1998 113.999C62.6998 114.199 63.1998 114.299 63.7998 114.299C63.9998 114.299 64.1998 114.199 64.3998 114.199C64.8998 114.099 64.5998 114.199 64.4998 114.199C65.1998 114.599 67.0998 114.399 67.0998 113.299C67.0998 112.399 66.7998 110.899 67.1998 109.999C67.4998 109.299 68.3998 108.699 68.8998 108.299C70.6998 106.899 73.1998 106.999 75.2998 106.799C81.0998 106.099 86.9998 105.899 92.6998 106.799C101.3 108.199 108.5 112.999 113 120.499C115.4 124.599 117 129.099 118 133.799C118.4 134.999 121.3 134.299 121 132.899Z" fill="#7563A7"/>
<path d="M74.4997 115.199C76.1997 115.199 76.6997 113.099 74.7997 113.099C73.0997 112.999 72.5997 115.199 74.4997 115.199Z" fill="#7563A7"/>
<path d="M42.3994 5.59961C62.1994 9.99961 81.5994 9.79961 100.999 6.29961C100.799 8.39961 100.599 10.7996 100.399 13.2996C100.299 16.0996 102.299 28.8996 91.7994 30.1996C77.7994 31.9996 64.1994 32.4996 50.4994 29.0996C48.8994 28.6996 46.5994 27.5996 46.2994 26.3996C44.5994 19.4996 43.5994 12.4996 42.3994 5.59961Z" fill="#D4A4BC"/>
<path d="M143.399 141C135.899 173.6 131.999 177.2 113.499 196.3C112.699 197.2 80.0994 202.8 78.8994 202.7C96.8994 193 129.599 205.1 130.999 141.1C131.699 108.8 101.899 79.1999 85.2994 75.7999C90.0994 72.1999 95.7994 71.6999 100.799 74.1999C115.399 81.4999 151.099 107.8 143.399 141Z" fill="#D2BDDD"/>
<path d="M46.2 88.5996C46.2 88.5996 53.8 89.1996 61.7 101.4C61.7 101.4 67.1 109 68.2 115.4C69.1 120.3 61.8 118.6 61.8 118.6C61.8 118.6 63.9 106.9 47.6 97.6996C47.7 97.6996 39.5 95.5996 46.2 88.5996Z" fill="#9678B4"/>
<path d="M54.7002 114.799L58.0002 115.699C59.0002 116.099 60.1002 116.599 61.1002 116.899C62.1002 117.299 63.2002 117.599 64.2002 117.699C65.2002 117.799 66.2002 117.499 67.2002 117.099C69.2002 116.299 71.2002 115.199 73.1002 113.999C74.1002 113.399 75.0002 112.799 75.9002 112.199L79.0002 110.699C78.2002 111.499 77.3002 112.199 76.5002 112.999C75.6002 113.599 74.6002 114.199 73.6002 114.799C71.7002 115.999 69.7002 117.099 67.6002 117.999C67.1002 118.199 66.5002 118.399 65.9002 118.599C65.6002 118.699 65.3002 118.699 65.0002 118.799C64.7002 118.799 64.4002 118.799 64.1002 118.799C62.9002 118.699 61.8002 118.299 60.7002 117.999C59.6002 117.599 58.6002 117.199 57.5002 116.799C56.6002 115.999 55.6002 115.499 54.7002 114.799Z" fill="#7563A7"/>
<path d="M100.199 27.9996C100.199 27.9996 93.5994 34.1996 72.3994 33.1996C44.6994 31.8996 44.5994 26.1996 44.5994 26.1996L42.3994 5.59961H102.399L100.199 27.9996Z" fill="#D4A4BC"/>
<path d="M100.199 27.9996C100.199 27.9996 93.5994 34.1996 72.3994 33.1996C44.6994 31.8996 44.5994 26.1996 44.5994 26.1996L42.3994 5.59961H102.399L100.199 27.9996Z" stroke="#7563A6" stroke-miterlimit="10"/>
<path d="M108.2 36.1992C108.5 36.6992 108.7 37.1992 108.7 37.6992C108.7 42.8992 92.5 46.9992 72.6 46.9992C52.7 46.9992 36.5 42.7992 36.5 37.6992C36.5 37.1992 36.7 36.6992 37 36.1992C36.7 35.3992 36.5 34.4992 36.5 33.5992C36.5 31.5992 37.3 29.6992 38.7 28.3992C40 27.0992 41.9 26.1992 43.9 26.1992H101.3C105.4 26.1992 108.7 29.4992 108.7 33.5992C108.7 34.4992 108.5 35.3992 108.2 36.1992Z" fill="#E8D9EC"/>
<path d="M111.8 197.499C112 201.499 108.7 204.699 105.5 206.799C102.6 208.699 99.2997 209.899 95.8997 210.799C85.8997 213.499 75.1997 213.499 64.8997 212.899C57.3997 212.499 49.6997 211.799 42.5997 209.199C39.2997 207.999 35.7997 206.199 33.8997 203.099C33.3997 202.299 32.8997 201.199 32.7997 200.099C32.6997 199.699 32.6997 198.999 32.6997 198.799C32.6997 198.199 32.6997 197.599 32.6997 196.999C32.6997 196.399 32.6997 196.299 32.2997 195.899C31.7997 195.499 31.1997 195.099 30.6997 194.699C23.1997 188.999 16.9997 181.699 12.2997 173.599C2.69972 156.799 0.599714 136.299 6.39971 117.899C11.6997 100.699 23.8997 85.9994 39.6997 77.3994C41.6997 76.2994 43.6997 75.3994 45.6997 74.4994C45.9997 74.3994 46.5997 73.9994 46.5997 73.6994C46.5997 65.4994 46.5997 57.1994 46.5997 48.9994C46.5997 47.7994 46.5997 46.6994 46.5997 45.4994C45.8997 45.8994 45.2997 46.1994 44.5997 46.5994C50.6997 46.5994 56.6997 46.5994 62.7997 46.5994C72.3997 46.5994 82.0997 46.5994 91.6997 46.5994C93.8997 46.5994 96.0997 46.5994 98.3997 46.5994C98.0997 46.3994 97.7997 46.0994 97.4997 45.8994C97.4997 53.9994 97.4997 62.0994 97.4997 70.0994C97.4997 71.1994 97.4997 72.3994 97.4997 73.4994C97.4997 73.6994 97.5997 73.9994 97.7997 74.0994C115.5 81.1994 129.8 95.3994 137 113.099C144.6 131.899 143.7 153.499 134.4 171.499C129.2 181.499 121.7 190.199 112.5 196.699C112 196.999 111.7 197.599 112.3 197.899C112.8 198.299 113.9 197.999 114.4 197.699C131.4 185.699 142.7 166.799 144.8 146.099C146.8 126.099 140.2 105.899 126.7 90.9994C119.4 82.8994 110.3 76.5994 100.2 72.5994C100.3 72.7994 100.4 72.9994 100.5 73.1994C100.5 65.0994 100.5 56.9994 100.5 48.9994C100.5 47.8994 100.5 46.6994 100.5 45.5994C100.5 45.0994 100.1 44.8994 99.5997 44.8994C93.4997 44.8994 87.4997 44.8994 81.3997 44.8994C71.7997 44.8994 62.0997 44.8994 52.4997 44.8994C50.2997 44.8994 48.0997 44.8994 45.7997 44.8994C45.2997 44.8994 43.7997 45.1994 43.7997 45.9994C43.7997 54.1994 43.7997 62.4994 43.7997 70.6994C43.7997 71.8994 43.7997 72.9994 43.7997 74.1994C44.0997 73.8994 44.3997 73.5994 44.6997 73.3994C26.9997 80.8994 12.5997 95.3994 5.49971 113.299C-2.10029 132.299 -1.00029 154.399 8.49971 172.599C13.6997 182.599 21.2997 191.199 30.3997 197.899C30.2997 197.699 30.1997 197.499 30.0997 197.299C29.7997 200.199 30.1997 202.899 31.8997 205.199C34.2997 208.499 38.2997 210.299 41.9997 211.599C49.5997 214.199 57.8997 214.899 65.7997 215.199C76.1997 215.599 86.8997 215.599 96.8997 212.699C101 211.599 105 209.999 108.4 207.499C111.9 204.999 115 201.499 114.9 197.099C114.7 195.699 111.8 196.299 111.8 197.499Z" fill="#7563A6"/>
<path d="M108.799 37.7998C108.799 47.5998 92.5995 45.5998 72.6995 45.5998C52.7995 45.5998 36.3995 47.6998 36.5995 37.7998C36.5995 37.2998 36.5995 34.5998 36.5995 33.6998C36.5995 31.6998 37.3995 29.7998 38.7995 28.4998C40.0995 27.1998 41.9995 26.2998 43.9995 26.2998H101.399C105.499 26.2998 108.799 29.5998 108.799 33.6998C108.799 34.5998 108.799 37.2998 108.799 37.7998Z" stroke="#7563A6" stroke-width="2" stroke-miterlimit="10"/>
<path d="M99.4998 24.8996H86.7998V10.5996L102.4 5.59961L99.4998 24.8996Z" fill="#C494AE"/>
<path d="M72.3994 10.5996C88.968 10.5996 102.399 8.36103 102.399 5.59961C102.399 2.83819 88.968 0.599609 72.3994 0.599609C55.8309 0.599609 42.3994 2.83819 42.3994 5.59961C42.3994 8.36103 55.8309 10.5996 72.3994 10.5996Z" fill="#D4A4BC"/>
<path d="M72.3994 10.5996C88.968 10.5996 102.399 8.36103 102.399 5.59961C102.399 2.83819 88.968 0.599609 72.3994 0.599609C55.8309 0.599609 42.3994 2.83819 42.3994 5.59961C42.3994 8.36103 55.8309 10.5996 72.3994 10.5996Z" stroke="#7563A6" stroke-miterlimit="10"/>
<path d="M46.1998 88.5996C56.0998 92.4996 60.5998 96.5996 68.1998 115.3C69.0998 117.4 63.9998 118.5 61.8998 116.9C61.6998 110 53.1998 98.1996 45.9998 96.4996C41.4998 95.4996 43.8998 93.9996 46.1998 88.5996Z" stroke="#7563A7" stroke-miterlimit="10"/>
<path d="M100.699 41.6998H88.4992C86.0992 41.6998 84.1992 39.7998 84.1992 37.3998V36.0998C84.1992 33.6998 86.0992 31.7998 88.4992 31.7998H100.699C103.099 31.7998 104.999 33.6998 104.999 36.0998V37.3998C104.999 39.6998 103.099 41.6998 100.699 41.6998Z" fill="#D2BDDD"/>
<path d="M96.9998 47H88.7998V73.8H96.9998V47Z" fill="#D2BDDD"/>
</svg>
