<svg width="141" height="214" viewBox="0 0 141 214" fill="none" xmlns="http://www.w3.org/2000/svg">
<path d="M42.7002 57.9996C61.9002 62.0996 80.7002 61.7996 99.8002 57.5996C99.8002 62.4996 99.9002 66.8996 99.8002 71.3996C99.7002 74.3996 100.5 75.7996 104 75.9996C109.9 76.2996 115.8 77.4996 121.4 79.6996C132.8 84.1996 138.8 92.7996 138.8 104.9C138.9 131.9 138.6 158.9 139.4 185.9C139.9 204 131.3 209.4 116.3 210.6C86.4002 213 56.4002 212.5 26.5002 210.8C22.4002 210.6 18.3002 209.5 14.5002 207.8C7.10024 204.6 3.10024 198.9 3.00024 190.8C2.90024 161.8 2.70024 132.8 3.00024 103.8C3.10024 88.6996 12.7002 79.1996 29.0002 76.9996C31.8002 76.5996 34.6002 75.8996 37.4002 76.0996C41.6002 76.2996 42.6002 74.0996 42.6002 70.5996C42.7002 66.4996 42.7002 62.4996 42.7002 57.9996Z" fill="#E7D9EC"/>
<path d="M69.0999 60.9997C59.9999 61.3997 50.3999 60.1997 40.9999 57.8997C32.1999 55.7997 27.9999 42.7997 33.6999 35.6997C35.2999 33.6997 38.0999 32.8997 39.3999 34.1997C44.3999 39.1997 50.8999 38.1997 56.5999 38.5997C69.9999 39.4997 83.4999 39.6997 96.7999 36.8997C98.0999 36.5997 99.6999 36.4997 100.5 35.6997C104.6 31.9997 107.1 34.5997 109 37.9997C113.8 46.7997 110.6 54.3997 101.1 57.1997C90.8999 60.3997 80.2999 61.1997 69.0999 60.9997Z" fill="#E6D7EB"/>
<path d="M39.7002 10C58.2002 15.8 80.4002 16 101.4 10.6C100.5 17.9 99.5002 25.1 98.9002 32.3C98.7002 34.8 97.7002 35.4 95.7002 35.6C79.0002 37.8 62.3002 38 45.6002 35.6C44.3002 35.4 43.0002 35.6 42.8002 33.6C41.8002 25.8 40.8002 18 39.7002 10Z" fill="#DEB0C1"/>
<path d="M71.0999 14.5997C63.5999 14.8997 55.2999 14.5997 47.1999 12.5997C45.7999 12.1997 44.2999 11.8997 42.9999 11.1997C41.7999 10.5997 39.5999 10.4997 39.8999 8.5997C40.0999 7.1997 41.8999 7.19968 43.0999 6.79968C48.7999 4.99968 54.7999 4.5997 60.7999 4.0997C73.0999 2.9997 85.2999 3.7997 97.3999 6.4997C99.0999 6.8997 101.3 7.29969 101.4 8.89969C101.5 10.8997 99.0999 11.2997 97.4999 11.8997C89.1999 14.8997 80.5999 14.6997 71.0999 14.5997Z" fill="#DEB0C1"/>
<path d="M100.1 34.8L84.5002 35.8L83.7002 13.7L101.5 10L100.1 34.8Z" fill="#C494AE"/>
<path d="M99.5002 62.5C104.5 63 99.2002 65.7 71.2002 67.3C58.5002 68 41.7002 63.9 41.7002 63.9L42.2002 57.5L67.0002 60.8L99.9002 57.6L99.5002 62.5Z" fill="#DACAE4"/>
<path d="M94.6002 77.4998C92.2002 77.4998 90.2002 75.4998 90.2002 73.0998V64.6998C90.2002 62.2998 92.2002 60.2998 94.6002 60.2998C97.0002 60.2998 99.0002 62.2998 99.0002 64.6998V73.0998C99.0002 75.5998 97.1002 77.4998 94.6002 77.4998Z" fill="#DACAE4"/>
<path d="M90.2002 75.8996C90.2002 75.8996 117.5 86.9996 120.7 100.6C120.7 100.6 125.2 172.8 118.3 194.2C112.2 213.2 64.5002 211.9 54.2002 210.3H94.9002C94.9002 210.3 126.5 209.7 130 204.9C130 204.9 137.9 202.4 137 187.5V100.1C137 100.1 136.6 85.2996 118.2 78.2996L99.1002 73.0996L90.2002 75.8996Z" fill="#DACAE4"/>
<path d="M39.4002 11.3995C54.9002 16.1995 71.6002 16.9995 87.6002 14.7995C92.4002 14.0995 97.2002 13.1995 101.9 11.9995C101.3 11.4995 100.6 10.9995 100 10.5995C99.2002 17.4995 98.2002 24.3995 97.6002 31.3995C97.5002 32.1995 97.6002 33.3995 96.8002 33.8995C95.8002 34.4995 93.9002 34.3995 92.8002 34.5995C89.4002 34.9995 85.9002 35.2995 82.5002 35.5995C75.5002 36.0995 68.4002 36.1995 61.4002 35.7995C58.0002 35.5995 54.5002 35.3995 51.1002 34.9995C49.4002 34.7995 47.8002 34.5995 46.1002 34.3995C45.7002 34.2995 45.2002 34.3995 44.9002 34.1995C44.4002 33.9995 44.5002 33.9995 44.4002 33.2995C43.2002 25.5995 42.4002 17.7995 41.4002 10.0995C41.2002 8.19949 38.2002 8.19949 38.4002 10.0995C39.4002 17.7995 40.4002 25.3995 41.3002 33.0995C41.5002 34.3995 41.6002 35.7995 42.9002 36.5995C43.9002 37.1995 45.2002 37.1995 46.3002 37.3995C50.2002 37.8995 54.1002 38.3995 58.0002 38.5995C65.7002 39.0995 73.4002 39.0995 81.1002 38.6995C84.9002 38.4995 88.6002 38.0995 92.4002 37.6995C94.9002 37.3995 98.5002 37.5995 99.9002 34.9995C100.7 33.4995 100.6 31.5995 100.8 29.9995C101 27.8995 101.2 25.7995 101.5 23.6995C102 19.2995 102.6 14.9995 103.1 10.5995C103.2 9.59949 102 8.8995 101.2 9.1995C85.5002 13.1995 68.8002 14.2995 52.8002 11.5995C48.6002 10.8995 44.4002 9.89949 40.3002 8.59949C38.4002 7.89949 37.6002 10.7995 39.4002 11.3995Z" fill="#9475B3"/>
<path d="M71.0996 11.8998C62.4996 12.1998 53.6996 11.7998 45.3996 9.49978C43.9996 9.09978 42.5996 8.49978 41.1996 7.89978C40.9996 7.79978 40.7996 7.69979 40.7996 7.59979C40.9996 7.19979 42.2996 7.19979 42.6996 7.09979C46.8996 5.99979 50.9996 5.19977 55.3996 4.79977C64.3996 3.99977 73.3996 3.59978 82.4996 4.39978C86.9996 4.79978 91.3996 5.49977 95.7996 6.29977C96.6996 6.49977 97.4996 6.69978 98.3996 6.89978C98.8996 6.99978 100.1 7.19979 100.3 7.59979C100.8 8.39979 98.5996 8.79978 98.1996 8.99978C93.9996 10.3998 89.7996 11.2998 85.3996 11.6998C80.6996 12.0998 75.8996 11.9998 71.0996 11.8998C69.1996 11.8998 69.1996 14.8998 71.0996 14.8998C75.9996 14.9998 80.8996 15.0998 85.7996 14.6998C90.3996 14.2998 94.6996 13.2998 99.0996 11.8998C100.6 11.3998 102.2 10.8998 103 9.49978C103.9 7.89978 103.2 5.99978 101.7 4.99978C99.9996 3.89978 97.6996 3.69977 95.7996 3.29977C93.2996 2.79977 90.6996 2.39978 88.0996 1.99978C77.5996 0.599784 67.1996 0.69979 56.7996 1.59979C54.2996 1.79979 51.7996 2.09978 49.2996 2.49978C46.7996 2.89978 44.3996 3.49979 41.8996 4.09979C40.3996 4.49979 38.6996 4.79978 38.0996 6.39978C37.4996 8.09978 38.2996 9.69978 39.8996 10.4998C44.2996 12.5998 49.1996 13.4998 53.9996 14.1998C59.6996 14.8998 65.3996 15.0998 71.0996 14.8998C73.0996 14.7998 73.0996 11.7998 71.0996 11.8998Z" fill="#9475B3"/>
<path d="M68.5996 58.5C61.0996 58.8 53.5996 58 46.1996 56.6C43.3996 56.1 40.2996 55.7 37.8996 54.1C36.0996 52.9 34.6996 51.2 33.6996 49.3C31.6996 45.4 31.2996 40.4 33.5996 36.6C34.1996 35.6 34.8996 34.7 35.9996 34.3C37.3996 33.7 37.8996 34.5 38.9996 35.4C41.1996 37.2 43.8996 38.2 46.7996 38.6C49.4996 39 52.2996 38.9 55.0996 39.1C58.6996 39.3 62.2996 39.6 65.8996 39.7C73.4996 39.9 81.0996 39.8 88.6996 38.8C92.0996 38.4 95.6996 38 98.9996 37.1C100.5 36.7 101.3 35.6 102.6 35C103.6 34.5 104.4 34.6 105.3 35.3C107.2 36.8 108.3 39.7 108.9 42C109.5 44.2 109.5 46.6 108.6 48.7C106.1 54.6 98.2996 55.9 92.6996 57C84.7996 58.2 76.6996 58.6 68.5996 58.5C66.6996 58.5 66.6996 61.5 68.5996 61.5C76.4996 61.6 84.3996 61.3 92.1996 59.9C98.1996 58.8 105.6 57.6 109.6 52.5C113.2 48 112.7 42.2 110.3 37.2C109.2 34.9 107.5 32.2 104.8 31.6C103.4 31.3 102.1 31.7 100.9 32.4C100.1 32.8 99.5996 33.5 98.7996 33.9C98.0996 34.3 97.1996 34.3 96.4996 34.4C88.2996 35.9 80.1996 36.7 71.8996 36.7C67.7996 36.7 63.5996 36.6 59.4996 36.3C56.1996 36.1 52.8996 36 49.4996 35.8C46.2996 35.6 43.0996 34.9 40.6996 32.8C39.5996 31.8 38.6996 31 37.1996 31C35.6996 31 34.2996 31.7 33.1996 32.6C29.1996 35.9 28.4996 42.2 29.6996 46.9C30.8996 51.8 34.2996 56.2 39.0996 58C40.7996 58.6 42.6996 58.9 44.4996 59.3C46.4996 59.7 48.4996 60.1 50.4996 60.4C54.4996 61 58.4996 61.4 62.5996 61.5C64.5996 61.6 66.6996 61.6 68.6996 61.5C70.4996 61.4 70.4996 58.4 68.5996 58.5Z" fill="#A285BC"/>
<path d="M41.6998 58.9994C60.8998 62.9994 80.4998 62.6994 99.5998 58.5994C98.9998 58.0994 98.2998 57.5995 97.6998 57.1995C97.6998 61.4995 97.7998 65.7994 97.6998 70.0994C97.5998 72.7994 97.8998 75.5995 100.8 76.6995C102.4 77.2995 104.3 77.1994 106 77.2994C108.2 77.4994 110.4 77.8994 112.6 78.3994C116.4 79.2994 120.2 80.4994 123.6 82.2994C128.8 85.0994 133.1 89.4994 135.1 95.0994C136.1 98.0994 136.6 101.099 136.6 104.299C136.7 108.999 136.6 113.699 136.6 118.399C136.6 136.899 136.6 155.499 136.9 173.999C137 178.399 137.2 182.899 137.2 187.299C137.2 190.199 136.9 193.199 136.1 195.999C134.8 200.399 131.9 203.799 127.8 205.899C122.5 208.499 116.3 208.599 110.5 208.999C101.2 209.599 91.7998 209.999 82.4998 210.199C63.9998 210.499 45.3998 209.899 26.8998 208.899C19.8998 208.499 11.4998 206.299 7.0998 200.399C5.2998 197.999 4.2998 195.199 4.0998 192.299C3.6998 187.899 3.9998 183.499 3.9998 179.099C3.8998 160.399 3.89981 141.599 3.89981 122.899C3.89981 118.199 3.8998 113.599 3.9998 108.899C3.9998 105.299 3.8998 101.599 4.4998 97.9994C5.4998 92.6994 8.19981 87.8994 12.3998 84.4994C17.0998 80.5994 23.1998 78.8994 29.1998 77.9994C31.3998 77.6994 33.5998 77.1994 35.7998 77.0994C37.3998 77.0994 39.0998 77.1994 40.5998 76.4994C43.1998 75.2994 43.6998 72.4994 43.6998 69.8994C43.6998 65.7994 43.6998 61.6994 43.6998 57.5994C43.6998 55.6994 40.6998 55.6994 40.6998 57.5994C40.6998 61.8994 40.7998 66.0994 40.6998 70.3994C40.6998 71.3994 40.5998 72.6994 39.8998 73.3994C38.8998 74.3994 37.0998 73.9994 35.8998 74.0994C33.5998 74.1994 31.3998 74.5994 29.1998 74.9994C27.4998 75.2994 25.6998 75.4994 23.9998 75.8994C20.8998 76.5994 17.8998 77.6995 15.0998 79.1995C10.1998 81.7995 6.09981 85.8994 3.69981 90.8994C0.699805 97.4994 0.999805 104.599 0.999805 111.599C0.899805 130.699 0.899805 149.799 0.999805 168.799C0.999805 173.599 0.999803 178.499 1.0998 183.299C1.0998 187.299 0.799805 191.399 1.69981 195.299C3.09981 201.699 7.89981 206.299 13.7998 208.799C17.7998 210.499 21.9998 211.599 26.3998 211.799C31.0998 212.099 35.7998 212.299 40.4998 212.499C49.9998 212.899 59.4998 213.199 69.0998 213.199C78.5998 213.199 88.0998 213.099 97.5998 212.699C102.3 212.499 107 212.199 111.7 211.899C115.1 211.699 118.6 211.399 122 210.799C126.8 209.899 131.6 208.099 135 204.499C138.7 200.499 140.1 195.099 140.4 189.699C140.7 185.499 140.3 181.299 140.3 177.199C140.2 172.499 140.1 167.799 140.1 162.999C140 153.499 140 143.999 140 134.399C140 124.899 140 115.399 140 105.799C140 99.2994 138.9 92.9994 134.9 87.5994C130.9 82.0994 125 78.7995 118.6 76.6995C114.4 75.2995 110.1 74.4994 105.7 74.0994C104.5 73.9994 102.5 74.1994 101.5 73.3994C100.7 72.6994 101 70.8994 101 69.9994C101.1 65.6994 101 61.3994 101 57.0994C101 56.0994 99.9998 55.4995 99.0998 55.6995C80.4998 59.6995 61.3998 59.9994 42.7998 56.0994C40.5998 55.6994 39.7998 58.5994 41.6998 58.9994Z" fill="#A285BC"/>
<path d="M100.7 52.2993L81.2999 54.7993C78.5999 55.1993 76.0999 53.2993 75.7999 50.5993L75.3999 47.7993C74.9999 45.0993 76.8999 42.5993 79.5999 42.2993L98.9999 39.7993C101.7 39.3993 104.2 41.2993 104.5 43.9993L104.9 46.7993C105.3 49.4993 103.4 51.9993 100.7 52.2993Z" fill="#DACAE4"/>
<path d="M67.5994 184.6C62.9994 184.2 58.4994 183.8 53.8994 183.4C53.3994 183.4 52.8994 183.1 52.4994 182.9C50.6994 181.6 48.6994 180.9 46.5994 180.2C44.8994 179.7 43.2994 178.8 41.5994 178C40.6994 177.6 39.7994 177.3 38.9994 176.8C38.2994 176.4 37.6994 175.8 37.0994 175.3C35.6994 174 34.1994 172.7 32.7994 171.3C32.5994 171.1 32.3994 170.7 32.2994 170.4C31.7994 169 31.2994 167.6 30.3994 166.4C29.1994 164.9 27.8994 163.4 26.6994 161.9C26.4994 161.6 26.1994 161.3 26.0994 160.9C25.3994 158.9 24.7994 156.9 24.0994 154.9C23.7994 154 23.5994 153.1 23.2994 152.3C22.5994 150.5 23.3994 148.8 23.7994 147.1C23.8994 146.6 24.0994 146 23.9994 145.4C23.6994 144.2 23.6994 143.2 24.0994 142C24.7994 140.1 24.9994 138.1 24.7994 136.1C24.7994 135.7 24.8994 135.3 25.0994 135C25.6994 134.2 26.3994 133.6 26.9994 132.8C27.2994 132.4 27.3994 131.9 27.4994 131.4C27.6994 130.4 27.6994 129.4 27.8994 128.5C27.9994 128 28.4994 127.5 28.6994 127C29.2994 125.5 30.3994 124.7 31.7994 124C33.0994 123.4 33.9994 122.2 34.8994 121.1C35.9994 119.8 37.0994 118.4 38.2994 117.2C38.7994 116.7 39.6994 116.4 40.3994 116.3C41.9994 115.9 43.1994 115 44.3994 114C45.1994 113.3 45.9994 112.8 46.9994 112.5C49.0994 111.9 51.1994 111.3 53.1994 110.6C53.7994 110.4 54.3994 110.1 54.8994 109.8C56.1994 109 57.4994 108.5 58.9994 108.9C61.0994 109.4 63.1994 108.8 65.2994 108.7C67.4994 108.5 69.6994 108.5 71.8994 109.5C73.7994 110.3 75.8994 110.8 77.9994 111.1C80.4994 111.5 82.8994 112.4 85.1994 113.5C85.7994 113.8 86.4994 114 87.0994 114.2C88.9994 114.6 90.2994 115.9 91.6994 117C92.7994 117.9 94.0994 118.6 95.2994 119.5C96.4994 120.4 97.5994 121.3 98.6994 122.2C98.7994 122.3 98.8994 122.6 98.9994 122.8C99.7994 124.6 100.699 126.2 101.899 127.7C102.499 128.5 102.999 129.4 103.399 130.3C104.499 132.9 105.799 135.3 105.999 138.2C106.099 139.2 106.599 140.2 106.699 141.2C106.999 143.3 107.199 145.4 107.499 147.5C107.599 148 107.699 148.4 107.799 148.8C108.299 150.4 107.999 151.9 107.699 153.4C107.499 154.4 106.699 155.2 106.099 156.1C105.899 156.5 105.499 156.8 105.299 157.2C104.399 159.3 103.499 161.3 103.399 163.7C103.399 165 102.199 165.4 101.499 166.1C100.799 166.8 99.9994 167.4 99.5994 168.3C98.6994 170.4 97.0994 171.6 95.3994 172.9C94.6994 173.4 93.9994 173.9 93.3994 174.6C92.2994 175.9 90.6994 176.6 89.2994 177.5C88.5994 178 87.7994 178.5 87.1994 179.1C86.2994 180 85.2994 180.7 83.8994 180.7C80.6994 180.8 77.7994 182.1 74.7994 182.8C73.0994 183.2 71.4994 183.9 69.6994 184.4C69.3994 184.7 68.4994 184.6 67.5994 184.6ZM36.3994 133.4C37.2994 133.4 38.1994 132.7 38.1994 132C38.1994 131.3 37.2994 130.5 36.4994 130.5C35.6994 130.5 34.9994 131.1 34.9994 132C34.8994 132.8 35.4994 133.4 36.3994 133.4ZM48.3994 168.3C47.5994 168.3 46.7994 169 46.6994 169.8C46.6994 170.5 47.4994 171.3 48.3994 171.3C49.1994 171.3 50.1994 170.5 50.0994 169.8C50.0994 169 49.1994 168.3 48.3994 168.3ZM94.8994 132.3C95.7994 132.3 96.5994 131.7 96.5994 130.9C96.5994 130.1 95.8994 129.4 94.9994 129.4C93.9994 129.4 93.3994 129.9 93.2994 130.8C93.1994 131.7 93.8994 132.3 94.8994 132.3ZM98.4994 152.4C97.5994 152.4 96.8994 153.1 96.7994 153.9C96.7994 154.6 97.5994 155.4 98.4994 155.4C99.3994 155.4 100.099 154.8 100.099 153.9C100.099 153 99.3994 152.3 98.4994 152.4ZM57.4994 162.4C58.2994 162.4 59.1994 161.7 59.1994 161C59.1994 160.3 58.2994 159.5 57.4994 159.5C56.5994 159.5 55.7994 160.2 55.7994 161C55.7994 161.7 56.5994 162.4 57.4994 162.4ZM79.6994 161.4C79.6994 160.6 78.9994 159.9 78.0994 159.9C77.1994 159.9 76.3994 160.5 76.3994 161.4C76.3994 162.3 77.0994 162.9 77.9994 162.9C78.8994 162.8 79.6994 162.2 79.6994 161.4ZM72.0994 116.6C73.0994 116.6 73.6994 116 73.6994 115.1C73.6994 114.2 72.9994 113.7 72.0994 113.7C71.0994 113.7 70.4994 114.3 70.4994 115.2C70.4994 116 71.0994 116.6 72.0994 116.6ZM31.3994 146.6C32.1994 146.6 33.0994 145.9 33.1994 145.2C33.1994 144.5 32.2994 143.7 31.3994 143.7C30.5994 143.7 29.7994 144.5 29.6994 145.2C29.7994 145.9 30.5994 146.6 31.3994 146.6ZM60.7994 121.3C59.8994 121.3 59.2994 121.9 59.1994 122.7C59.1994 123.5 59.7994 124.2 60.6994 124.2C61.4994 124.2 62.4994 123.5 62.4994 122.8C62.5994 122.1 61.6994 121.3 60.7994 121.3ZM66.1994 135.5C67.1994 135.5 67.7994 134.9 67.7994 134C67.7994 133.1 67.0994 132.5 66.1994 132.6C65.1994 132.6 64.5994 133.2 64.5994 134.1C64.5994 134.9 65.1994 135.5 66.1994 135.5ZM76.5994 140.1C77.5994 140.1 78.2994 139.5 78.2994 138.7C78.2994 137.8 77.6994 137.2 76.6994 137.2C75.7994 137.2 75.0994 137.8 74.9994 138.6C74.9994 139.5 75.6994 140.1 76.5994 140.1ZM102.199 142.8C103.199 142.8 103.899 142.2 103.899 141.3C103.899 140.5 103.199 139.8 102.299 139.8C101.399 139.8 100.699 140.4 100.699 141.3C100.699 142.2 101.299 142.8 102.199 142.8ZM52.1994 144.2C52.1994 145.1 52.7994 145.7 53.7994 145.6C54.7994 145.6 55.3994 145 55.3994 144.1C55.3994 143.2 54.6994 142.6 53.7994 142.6C52.7994 142.7 52.1994 143.3 52.1994 144.2ZM46.5994 118.4C45.5994 118.4 44.9994 119 44.8994 119.8C44.8994 120.7 45.4994 121.3 46.4994 121.3C47.4994 121.3 48.0994 120.7 48.1994 119.9C48.1994 119.1 47.4994 118.4 46.5994 118.4ZM82.4994 153.2C83.4994 153.2 84.1994 152.6 84.1994 151.8C84.1994 150.9 83.4994 150.3 82.4994 150.3C81.5994 150.3 80.9994 150.9 80.9994 151.7C80.8994 152.6 81.5994 153.2 82.4994 153.2ZM34.7994 165.7C35.6994 165.7 36.4994 165 36.4994 164.2C36.4994 163.5 35.5994 162.7 34.7994 162.7C33.8994 162.7 33.2994 163.3 33.2994 164.2C33.2994 165.1 33.8994 165.7 34.7994 165.7ZM83.5994 175C84.4994 175 85.2994 174.3 85.2994 173.5C85.2994 172.8 84.3994 172 83.4994 172C82.5994 172 81.9994 172.7 81.9994 173.5C82.0994 174.4 82.6994 175 83.5994 175Z" fill="#CE99C5"/>
<path d="M65.5 108.799C65.5 108.799 100.3 103.599 108.1 148.899C108.1 148.899 108.8 176.799 70.2 184.199C69.4 184.399 68.4 184.199 67.7 184.599C66.2 185.599 125.7 157.299 65.5 108.799Z" fill="#C391BF"/>
<path d="M79.7001 130.1C81.3001 130.1 82.2001 129.7 83.5001 128.6C84.6001 127.7 84.8001 124.7 83.7001 123.5C81.9001 121.4 79.4001 121 77.4001 122.2C75.7001 123.2 74.7001 124.3 75.0001 126.5C75.2001 128.7 77.1001 130.1 79.7001 130.1Z" fill="#9D6AAA"/>
<path d="M66.2 169.199C63.8 169.099 61.5 170.799 61.5 173.399C61.5 175.899 63.9 177.799 66.2 177.799C68.7 177.799 70.9 176.299 70.9 173.499C70.8 171.099 68.8 169.199 66.2 169.199Z" fill="#9F6EA9"/>
<path d="M43.5995 150.399C41.0995 150.299 39.0995 152.499 39.8995 154.999C40.4995 156.599 42.5995 157.599 44.3995 157.199C46.1995 156.799 47.3995 155.499 47.4995 154.099C47.8995 152.399 45.4995 150.199 43.5995 150.399Z" fill="#9F6EA9"/>
<path d="M95.3996 144.2C95.3996 142.8 94.3996 141.8 92.7996 141.8C91.3996 141.8 90.0996 143 90.0996 144.2C90.0996 145.4 91.3996 146.6 92.7996 146.6C94.2996 146.6 95.3996 145.7 95.3996 144.2Z" fill="#9F6EA9"/>
<path d="M36.3994 133.399C35.4994 133.399 34.8994 132.799 34.8994 131.899C34.8994 131.099 35.5994 130.399 36.3994 130.399C37.1994 130.399 38.0994 131.199 38.0994 131.899C38.1994 132.699 37.2994 133.399 36.3994 133.399Z" fill="#9D68A5"/>
<path d="M48.3995 168.3C49.2995 168.3 50.0995 169 50.1995 169.8C50.1995 170.5 49.2995 171.3 48.4995 171.3C47.6995 171.3 46.7995 170.5 46.7995 169.8C46.6995 169 47.4995 168.3 48.3995 168.3Z" fill="#9F6EA9"/>
<path d="M94.8998 132.299C93.8998 132.299 93.2998 131.699 93.2998 130.799C93.2998 129.899 93.9998 129.399 94.9998 129.399C95.8998 129.399 96.5998 130.099 96.5998 130.899C96.4998 131.699 95.7998 132.399 94.8998 132.299Z" fill="#9D6AAA"/>
<path d="M98.4998 152.399C99.3998 152.399 100.1 152.999 100.1 153.899C100.1 154.699 99.3998 155.399 98.4998 155.399C97.6998 155.399 96.7998 154.599 96.7998 153.899C96.7998 153.099 97.5998 152.399 98.4998 152.399Z" fill="black"/>
<path d="M57.4998 162.4C56.5998 162.4 55.7998 161.7 55.7998 161C55.7998 160.2 56.5998 159.5 57.4998 159.5C58.2998 159.5 59.2998 160.3 59.1998 161C59.1998 161.7 58.2998 162.4 57.4998 162.4Z" fill="#9F6EA9"/>
<path d="M79.6994 161.399C79.6994 162.199 78.8994 162.899 77.9994 162.899C77.0994 162.899 76.3994 162.299 76.3994 161.399C76.3994 160.499 77.0994 159.899 78.0994 159.899C78.9994 159.899 79.6994 160.599 79.6994 161.399Z" fill="#9F6EA9"/>
<path d="M72.1 116.6C71.1 116.6 70.5 116.1 70.5 115.2C70.5 114.3 71.1 113.7 72.1 113.7C73.1 113.7 73.7 114.3 73.7 115.1C73.7 116 73.1 116.5 72.1 116.6Z" fill="#9F6EA9"/>
<path d="M31.3995 146.6C30.4995 146.6 29.6995 145.9 29.7995 145.1C29.7995 144.4 30.5995 143.6 31.4995 143.6C32.2995 143.6 33.2995 144.5 33.2995 145.1C33.0995 145.9 32.2995 146.6 31.3995 146.6Z" fill="#9D68A5"/>
<path d="M60.8002 121.3C61.7002 121.3 62.5002 122.1 62.5002 122.8C62.5002 123.5 61.5002 124.3 60.7002 124.2C59.8002 124.2 59.2002 123.5 59.2002 122.7C59.3002 121.9 60.0002 121.3 60.8002 121.3Z" fill="#9F6EA9"/>
<path d="M66.1996 135.5C65.1996 135.5 64.5996 135 64.5996 134.1C64.5996 133.2 65.1996 132.6 66.1996 132.6C67.1996 132.6 67.7996 133.2 67.7996 134C67.7996 134.9 67.1996 135.5 66.1996 135.5Z" fill="black"/>
<path d="M76.6 140.099C75.6 140.099 75 139.499 75 138.599C75 137.699 75.7 137.099 76.7 137.199C77.7 137.199 78.3 137.899 78.3 138.699C78.3 139.499 77.6 140.099 76.6 140.099Z" fill="#A270AE"/>
<path d="M102.2 142.799C101.3 142.799 100.7 142.199 100.7 141.399C100.7 140.499 101.4 139.899 102.3 139.899C103.3 139.899 103.9 140.499 103.9 141.399C103.9 142.199 103.2 142.799 102.2 142.799Z" fill="#8E6BAC"/>
<path d="M52.2002 144.2C52.2002 143.3 52.8002 142.7 53.8002 142.7C54.7002 142.7 55.4002 143.3 55.4002 144.2C55.4002 145.1 54.8002 145.7 53.8002 145.7C52.9002 145.7 52.2002 145.1 52.2002 144.2Z" fill="#9D6AA7"/>
<path d="M46.5994 118.399C47.4994 118.399 48.1994 118.999 48.1994 119.899C48.1994 120.699 47.4994 121.299 46.4994 121.299C45.4994 121.299 44.8994 120.699 44.8994 119.799C44.8994 118.999 45.5994 118.399 46.5994 118.399Z" fill="#9E68A9"/>
<path d="M82.4994 153.2C81.4994 153.2 80.8994 152.6 80.8994 151.7C80.8994 150.8 81.4994 150.3 82.3994 150.3C83.3994 150.3 84.0994 150.9 84.0994 151.8C84.1994 152.6 83.4994 153.2 82.4994 153.2Z" fill="black"/>
<path d="M34.7998 165.7C33.8998 165.7 33.2998 165.1 33.2998 164.2C33.2998 163.3 33.8998 162.7 34.7998 162.7C35.5998 162.7 36.4998 163.5 36.4998 164.2C36.4998 165 35.6998 165.7 34.7998 165.7Z" fill="#9F6EA9"/>
<path d="M83.5996 175C82.6996 175 82.0996 174.5 82.0996 173.6C82.0996 172.7 82.6996 172.1 83.5996 172.1C84.4996 172.1 85.2996 172.8 85.3996 173.6C85.2996 174.3 84.5996 174.9 83.5996 175Z" fill="#9F6EA9"/>
<path d="M50.5 136.3C48.2 136.3 46.6 135.3 45.6 133.3C44.9 131.8 44.9 130.6 45.7 129.2C46.3 128.1 47.3 127.7 48.3 127.2C51 125.8 53.2 126.9 54.9 128.5C56.4 130 56.2 133.4 54.6 134.8C52.9 136 52.3 136.3 50.5 136.3Z" fill="#9F6EA9"/>
<path d="M62.8999 150.1C62.7999 147.7 64.9999 145.8 67.5999 145.8C70.3999 145.8 72.3999 147.6 72.4999 150C72.4999 152.4 70.2999 154.4 67.6999 154.4C65.1999 154.4 62.6999 152.3 62.8999 150.1Z" fill="#9F6EA9"/>
<path d="M91.0994 161.699C91.7994 161.699 92.2994 162.299 92.2994 162.899C92.1994 163.499 91.6994 163.999 90.8994 163.899C90.1994 163.899 89.8994 163.399 89.8994 162.699C89.8994 162.099 90.3994 161.599 91.0994 161.699Z" fill="#9F6BAA"/>
<path d="M67.5998 183.1C65.2998 182.9 62.9998 182.7 60.7998 182.5C59.6998 182.4 58.4998 182.3 57.3998 182.2C56.2998 182.1 55.0998 182.2 53.9998 181.9C53.0998 181.6 52.2998 180.9 51.4998 180.5C50.5998 180.1 49.6998 179.7 48.7998 179.3C46.7998 178.6 44.8998 177.8 42.8998 176.9C41.9998 176.5 41.0998 176.1 40.2998 175.7C39.3998 175.2 38.6998 174.5 37.9998 173.9C36.4998 172.6 34.3998 171.2 33.6998 169.3C32.9998 167.4 31.9998 165.9 30.6998 164.3C29.9998 163.4 29.2998 162.6 28.4998 161.7C27.6998 160.8 27.3998 159.9 26.9998 158.8C26.2998 156.7 25.6998 154.6 24.9998 152.5C24.5998 151.5 24.4998 150.7 24.7998 149.7C24.9998 148.8 25.2998 147.9 25.4998 146.9C25.6998 145.9 25.2998 145 25.3998 144C25.3998 143 25.8998 142 26.1998 141C26.3998 140 26.4998 138.9 26.4998 137.9C26.4998 137.5 26.3998 136.9 26.4998 136.5C26.5998 136 27.0998 135.6 27.4998 135.2C28.0998 134.5 28.6998 133.8 28.9998 132.9C29.2998 132 29.2998 131 29.3998 130.1C29.5998 128.7 30.5998 127 31.8998 126.2C32.5998 125.7 33.3998 125.4 34.0998 124.9C34.7998 124.3 35.3998 123.6 35.8998 122.9C36.4998 122.1 37.1998 121.4 37.7998 120.6C38.3998 119.9 38.9998 119 39.7998 118.5C40.4998 118.1 41.3998 118 42.1998 117.7C42.9998 117.4 43.7998 116.9 44.4998 116.4C45.1998 115.9 45.7998 115.2 46.5998 114.7C47.4998 114.2 48.4998 114 49.3998 113.8C51.2998 113.2 53.3998 112.7 55.1998 111.8C55.9998 111.4 56.6998 110.8 57.5998 110.6C58.5998 110.4 59.5998 110.8 60.4998 110.9C62.5998 111 64.6998 110.4 66.7998 110.4C69.0998 110.3 70.7998 111 72.8998 111.7C74.8998 112.4 76.9998 112.7 79.0998 113.1C81.0998 113.6 82.9998 114.4 84.9998 115.2C85.8998 115.6 86.7998 115.7 87.6998 116.1C88.4998 116.4 89.2998 117 89.9998 117.6C91.4998 118.8 93.1998 119.9 94.7998 121C95.6998 121.7 96.6998 122.3 97.4998 123.1C98.0998 123.7 98.3998 124.8 98.8998 125.7C99.8998 127.5 101.3 129 102.2 130.9C103.1 132.8 103.9 134.7 104.4 136.7C104.7 137.7 104.7 138.8 104.9 139.8C105.1 140.9 105.5 141.9 105.6 142.9C105.9 145.1 106 147.4 106.6 149.6C106.9 150.7 106.8 151.8 106.6 153C106.4 154 105.8 154.6 105.3 155.4C104.2 156.9 103.5 158.5 102.9 160.3C102.6 161.2 102.4 162.2 102.3 163.2C102.2 164.1 102.2 164.2 101.5 164.8C100.1 165.9 99.0998 167.1 98.2998 168.6C97.3998 170.2 95.7998 171.3 94.3998 172.4C93.5998 173 92.9998 173.7 92.1998 174.4C91.4998 175 90.6998 175.4 89.8998 175.9C89.0998 176.4 88.2998 176.9 87.4998 177.5C86.7998 178 86.1998 178.8 85.3998 179.2C84.5998 179.6 83.4998 179.5 82.5998 179.6C81.5998 179.7 80.5998 180 79.5998 180.2C77.5998 180.7 75.5998 181.3 73.5998 181.9C72.5998 182.2 71.6998 182.6 70.6998 182.9C69.5998 183.1 68.6998 183.1 67.5998 183.1C68.0998 183.7 68.5998 184.2 69.0998 184.7V184.6C68.9998 182.7 65.9998 182.7 66.0998 184.6V184.7C66.0998 185.5 66.7998 186.2 67.5998 186.2C68.6998 186.1 69.6998 186.2 70.7998 185.9C71.8998 185.6 72.8998 185.2 73.8998 184.9C76.0998 184.2 78.2998 183.6 80.4998 183C81.5998 182.7 82.6998 182.5 83.7998 182.4C84.7998 182.3 85.6998 182.2 86.6998 181.8C87.5998 181.4 88.1998 180.7 88.9998 180.1C89.7998 179.4 90.7998 178.8 91.7998 178.2C93.5998 177.1 94.8998 175.7 96.4998 174.4C97.9998 173.2 99.5998 172 100.7 170.3C101.2 169.5 101.5 168.7 102.3 168C102.9 167.5 103.5 167 104.1 166.5C105.7 165.1 105.3 163 105.8 161.2C106.1 160.2 106.5 159.1 107 158.2C107.4 157.4 108.1 156.7 108.6 156C109.8 154.2 110.2 151.7 109.9 149.6C109.7 148.5 109.4 147.4 109.2 146.3C109 145 108.9 143.8 108.7 142.5C108.6 141.4 108.3 140.4 108 139.3C107.7 138.2 107.7 137 107.4 135.8C106.8 133.6 105.8 131.6 104.9 129.5C104 127.5 102.5 125.9 101.4 123.9C101 123.1 100.7 121.9 99.9998 121.2C99.1998 120.4 98.0998 119.7 97.1998 119C95.3998 117.6 93.4998 116.5 91.7998 115.1C91.0998 114.5 90.3998 114 89.5998 113.6C88.5998 113.1 87.5998 113 86.5998 112.6C84.4998 111.8 82.5998 110.8 80.3998 110.3C78.0998 109.7 75.7998 109.5 73.5998 108.7C71.3998 107.9 69.4998 107.3 67.0998 107.4C64.8998 107.5 62.5998 108.2 60.3998 107.9C59.2998 107.8 58.3998 107.5 57.2998 107.7C56.2998 107.9 55.2998 108.4 54.3998 108.9C52.4998 110 50.1998 110.5 48.1998 111.1C47.1998 111.4 46.1998 111.6 45.1998 112.1C44.2998 112.5 43.6998 113.2 42.8998 113.8C42.0998 114.4 41.2998 114.9 40.3998 115.2C39.4998 115.4 38.5998 115.7 37.7998 116.2C36.1998 117.4 34.8998 119.3 33.5998 120.9C32.9998 121.6 32.3998 122.4 31.5998 122.9C30.7998 123.4 29.9998 123.7 29.1998 124.4C28.5998 124.9 28.0998 125.6 27.6998 126.3C27.2998 127.1 26.6998 127.9 26.4998 128.9C26.2998 129.8 26.3998 130.8 26.0998 131.8C25.7998 132.8 24.7998 133.5 24.1998 134.4C22.8998 136.2 23.6998 138.6 23.1998 140.7C22.8998 141.8 22.4998 142.8 22.3998 143.9C22.2998 145.1 22.6998 146.1 22.3998 147.3C21.8998 149.4 21.2998 151.2 22.0998 153.3C22.8998 155.6 23.5998 158 24.3998 160.3C24.6998 161.3 24.9998 162.2 25.5998 163C26.2998 164 27.1998 165 27.9998 165.9C28.6998 166.7 29.4998 167.5 29.9998 168.5C30.4998 169.4 30.7998 170.5 31.1998 171.5C31.5998 172.5 32.3998 173.2 33.1998 173.9C34.0998 174.7 34.9998 175.5 35.8998 176.4C36.6998 177.1 37.3998 177.8 38.2998 178.4C39.1998 179 40.1998 179.4 41.1998 179.8C43.2998 180.7 45.2998 181.6 47.3998 182.4C48.3998 182.8 49.3998 183.2 50.3998 183.7C51.2998 184.2 52.1998 185 53.1998 185.3C54.1998 185.6 55.3998 185.6 56.3998 185.6C57.6998 185.7 58.9998 185.8 60.2998 186C62.6998 186.2 65.1998 186.4 67.5998 186.6C69.5998 186.3 69.4998 183.3 67.5998 183.1Z" fill="#8E6BAC"/>
<path d="M98.4999 150.9C97.8999 150.9 97.2999 151.1 96.7999 151.4C96.1999 151.8 95.7999 152.3 95.4999 153C94.9999 154.3 95.7999 155.6 96.8999 156.3C97.8999 156.9 99.2999 157 100.3 156.3C100.9 155.9 101.3 155.4 101.5 154.7C101.7 154.2 101.7 153.5 101.6 153C101.1 151.7 99.7999 150.9 98.4999 150.9C98.0999 150.9 97.6999 151.1 97.3999 151.3C97.0999 151.6 96.8999 152 96.9999 152.4C96.9999 152.8 97.0999 153.2 97.3999 153.5C97.6999 153.8 98.0999 153.9 98.4999 153.9C98.5999 153.9 98.6999 153.9 98.7999 153.9C98.6999 153.9 98.4999 153.9 98.3999 153.8C98.4999 153.8 98.6999 153.9 98.7999 153.9C98.6999 153.8 98.5999 153.8 98.3999 153.7C98.4999 153.8 98.5999 153.8 98.7999 153.9C98.6999 153.8 98.5999 153.7 98.4999 153.7C98.5999 153.8 98.6999 153.9 98.7999 154C98.6999 153.9 98.5999 153.8 98.5999 153.7C98.6999 153.8 98.6999 153.9 98.7999 154C98.6999 153.9 98.6999 153.8 98.5999 153.6C98.5999 153.7 98.5999 153.9 98.5999 154C98.5999 153.9 98.5999 153.7 98.6999 153.6C98.6999 153.7 98.6999 153.8 98.5999 153.9C98.6999 153.8 98.6999 153.7 98.7999 153.5C98.6999 153.6 98.5999 153.7 98.4999 153.8C98.5999 153.7 98.6999 153.6 98.7999 153.6C98.6999 153.7 98.5999 153.8 98.3999 153.8C98.4999 153.7 98.5999 153.7 98.7999 153.6C98.5999 153.7 98.4999 153.7 98.2999 153.7C98.3999 153.7 98.5999 153.7 98.6999 153.6C98.5999 153.6 98.3999 153.6 98.2999 153.6C98.3999 153.6 98.5999 153.6 98.6999 153.7C98.5999 153.7 98.3999 153.6 98.2999 153.6C98.3999 153.7 98.4999 153.7 98.6999 153.8C98.5999 153.7 98.3999 153.7 98.2999 153.6C98.3999 153.7 98.4999 153.8 98.5999 153.8C98.4999 153.7 98.2999 153.6 98.1999 153.4C98.2999 153.5 98.3999 153.6 98.3999 153.7C98.2999 153.6 98.2999 153.5 98.1999 153.4C98.2999 153.5 98.2999 153.6 98.3999 153.8C98.3999 153.7 98.2999 153.6 98.2999 153.5C98.2999 153.6 98.2999 153.8 98.3999 153.9C98.3999 153.8 98.3999 153.7 98.3999 153.7C98.3999 153.8 98.3999 154 98.2999 154.1C98.2999 154 98.2999 153.9 98.3999 153.8C98.2999 153.9 98.2999 154 98.1999 154.2C98.2999 154.1 98.3999 154 98.4999 153.9C98.3999 154 98.2999 154.1 98.1999 154.1C98.2999 154 98.4999 153.9 98.5999 153.9C98.4999 154 98.3999 154 98.1999 154.1C98.2999 154 98.4999 154 98.6999 154C98.5999 154 98.3999 154 98.2999 154.1C98.3999 154.1 98.3999 154.1 98.4999 154.1C98.8999 154.1 99.2999 153.9 99.5999 153.7C99.8999 153.4 100.1 153 99.9999 152.6C99.9999 152.2 99.8999 151.8 99.5999 151.5C99.1999 151 98.8999 150.8 98.4999 150.9Z" fill="#8E6BAC"/>
<path d="M66.2 137C66.8 137 67.4 136.9 67.9 136.5C68.5 136.1 68.9 135.6 69.1 134.9C69.2 134.6 69.2 134.3 69.2 134C69.2 133.7 69.2 133.4 69.1 133.1C68.9 132.4 68.5 131.9 67.9 131.5C67.7 131.3 67.4 131.2 67.1 131.1C66.8 131 66.5 131 66.2 131C65.6 131 65 131.1 64.4 131.4C64.2 131.5 63.9 131.7 63.8 131.9C63.5 132.2 63.4 132.5 63.2 132.9C63.1 133.2 63.1 133.5 63 133.8C63 134.1 63 134.4 63.1 134.7C63.1 134.8 63.1 134.9 63.2 135C63.3 135.2 63.3 135.4 63.5 135.6C63.7 136 64 136.2 64.4 136.5C64.6 136.7 64.9 136.8 65.2 136.9C65.5 136.9 65.9 137 66.2 137C66.6 137 67 136.8 67.3 136.6C67.6 136.3 67.8 135.9 67.7 135.5C67.7 135.1 67.6 134.7 67.3 134.4C67 134.1 66.6 134 66.2 134C66.1 134 66 134 65.8 134C65.9 134 66.1 134 66.2 134.1C66 134.1 65.9 134 65.7 134C65.8 134.1 65.9 134.1 66.1 134.2C66 134.1 65.9 134.1 65.9 134C66 134.1 66.1 134.2 66.1 134.3C66 134.2 66 134.1 65.9 134C66 134.1 66 134.2 66.1 134.4C66.1 134.3 66 134.2 66 134C66 134.1 66 134.3 66.1 134.4C66.1 134.2 66.1 134.1 66.1 133.9C66.1 134 66.1 134.2 66 134.3C66 134.2 66.1 134 66.1 133.9C66 134 66 134.1 65.9 134.3C66 134.2 66 134.1 66.1 134.1C66 134.2 65.9 134.3 65.8 134.3C65.9 134.2 66 134.2 66.1 134.1C66 134.2 65.9 134.2 65.7 134.3C65.9 134.2 66 134.2 66.2 134.2C66.1 134.2 65.9 134.2 65.8 134.3C66 134.3 66.2 134.3 66.4 134.3C66.3 134.3 66.1 134.3 66 134.2C66.2 134.2 66.3 134.3 66.4 134.3C66.3 134.2 66.2 134.2 66 134.1C66.1 134.2 66.2 134.2 66.3 134.3C66.2 134.2 66.1 134.1 66 134.1C66.1 134.2 66.2 134.2 66.2 134.3C66.1 134.2 66 134.1 66 134C66.1 134.1 66.1 134.2 66.2 134.3C66.1 134.2 66.1 134.1 66 133.9C66 134 66.1 134.1 66.1 134.2C66.1 134.1 66.1 133.9 66 133.8C66 134 66 134.1 66 134.3C66 134.2 66 134 66.1 133.9C66.1 134 66.1 134.2 66 134.3C66.1 134.2 66.1 134.1 66.2 133.9C66.1 134 66.1 134.1 66 134.1C66.1 134 66.2 133.9 66.3 133.9C66.2 134 66.1 134 66 134.1C66.1 134 66.2 134 66.4 133.9C66.2 134 66.1 134 65.9 134C66 134 66.2 134 66.3 133.9C66.2 133.9 66.1 133.9 66 133.9C65.6 133.9 65.2 134.1 64.9 134.3C64.6 134.6 64.4 135 64.5 135.4C64.8 136.3 65.4 137 66.2 137Z" fill="#8E6BAC"/>
<path d="M82.4998 154.7C83.0998 154.7 83.6998 154.6 84.2998 154.2C84.8998 153.8 85.2998 153.3 85.4998 152.6C85.5998 152.3 85.5998 152 85.5998 151.7C85.5998 151.4 85.5998 151.1 85.4998 150.8C85.3998 150.5 85.2998 150.3 85.0998 150C84.7998 149.6 84.5998 149.4 84.2998 149.2C83.7998 148.8 83.1998 148.7 82.5998 148.7C81.9998 148.7 81.3998 148.8 80.7998 149.1C80.5998 149.2 80.2998 149.4 80.0998 149.6C79.8998 149.8 79.6998 150 79.5998 150.3C79.3998 150.7 79.2998 151 79.2998 151.5C79.2998 151.8 79.2998 152.1 79.3998 152.4C79.4998 153.1 79.8998 153.6 80.3998 154C81.0998 154.5 81.7998 154.7 82.4998 154.7C82.8998 154.7 83.2998 154.5 83.5998 154.3C83.8998 154 84.0998 153.6 83.9998 153.2C83.9998 152.8 83.8998 152.4 83.5998 152.1C83.2998 151.8 82.8998 151.7 82.4998 151.7C82.3998 151.7 82.2998 151.7 82.1998 151.7C82.2998 151.7 82.4998 151.7 82.5998 151.8C82.3998 151.8 82.2998 151.7 82.1998 151.7C82.2998 151.8 82.3998 151.8 82.5998 151.9C82.4998 151.8 82.3998 151.8 82.3998 151.7C82.4998 151.8 82.5998 151.9 82.5998 152C82.4998 151.9 82.4998 151.8 82.3998 151.7C82.4998 151.8 82.4998 151.9 82.5998 152.1C82.4998 152 82.4998 151.9 82.4998 151.7C82.4998 151.8 82.4998 152 82.5998 152.1C82.5998 151.9 82.5998 151.8 82.5998 151.6C82.5998 151.7 82.5998 151.9 82.4998 152C82.4998 151.9 82.5998 151.7 82.5998 151.6C82.4998 151.7 82.4998 151.8 82.3998 152C82.4998 151.9 82.5998 151.8 82.5998 151.8C82.4998 151.9 82.3998 152 82.2998 152C82.3998 151.9 82.4998 151.9 82.5998 151.8C82.4998 151.9 82.3998 151.9 82.1998 152C82.3998 152 82.5998 152 82.7998 152C82.6998 152 82.4998 152 82.3998 151.9C82.5998 151.9 82.6998 152 82.8998 152C82.7998 151.9 82.6998 151.9 82.4998 151.8C82.5998 151.9 82.6998 151.9 82.7998 152C82.6998 151.9 82.5998 151.8 82.4998 151.8C82.5998 151.9 82.6998 152 82.6998 152C82.5998 151.9 82.4998 151.8 82.4998 151.7C82.5998 151.8 82.5998 151.9 82.6998 152C82.5998 151.9 82.5998 151.8 82.4998 151.6C82.5998 151.7 82.5998 151.8 82.5998 152C82.5998 151.9 82.5998 151.7 82.4998 151.6C82.4998 151.7 82.4998 151.9 82.4998 152C82.4998 151.9 82.4998 151.7 82.5998 151.6C82.5998 151.7 82.5998 151.8 82.4998 151.9C82.5998 151.8 82.5998 151.7 82.6998 151.5C82.5998 151.6 82.4998 151.7 82.4998 151.7C82.5998 151.6 82.6998 151.5 82.7998 151.5C82.6998 151.6 82.5998 151.6 82.4998 151.7C82.5998 151.6 82.6998 151.6 82.8998 151.5C82.6998 151.6 82.5998 151.6 82.3998 151.6C82.4998 151.6 82.6998 151.6 82.7998 151.5C82.6998 151.5 82.5998 151.5 82.4998 151.5C82.0998 151.5 81.6998 151.7 81.3998 151.9C81.0998 152.2 80.8998 152.6 80.9998 153C81.0998 154 81.6998 154.7 82.4998 154.7Z" fill="#8E6BAC"/>
</svg>
