<svg width="138" height="210" viewBox="0 0 138 210" fill="none" xmlns="http://www.w3.org/2000/svg">
<path d="M127 113.699C136.3 124.999 138.6 137.899 134.2 151.999C130.1 165.099 125.8 178.099 121.5 191.199C118 201.799 109.6 208.099 98.9995 208.099C78.9995 208.099 58.8995 208.099 38.8995 208.099C28.8995 208.099 20.3995 201.999 16.9995 192.099C12.3995 178.399 7.79952 164.699 3.69952 150.799C-0.500478 136.699 2.3995 123.999 11.7995 112.999C21.7995 101.399 31.9995 89.8994 42.1995 78.4994C47.9995 71.9994 51.0995 64.3994 50.9995 55.2994C50.8995 51.9994 50.9995 48.6994 50.9995 45.2994C49.5995 45.0994 93.5995 44.6995 87.4995 45.1995C87.3995 45.2995 87.2995 45.3994 87.2995 45.4994C87.3995 50.8994 85.9995 56.5995 87.7995 61.6995C90.6995 70.4995 121.4 106.999 127 113.699Z" fill="#E5D4E9"/>
<path d="M86.7002 57.4992C81.2002 61.6992 57.7002 61.3992 51.5002 57.4992C49.7002 56.3992 51.5002 51.1992 51.5002 51.1992H86.7002C86.7002 51.1992 88.3002 56.2992 86.7002 57.4992Z" fill="#CDB0D5"/>
<path d="M78.3 60.4996L119.1 117.1C119.1 117.1 129.8 126.5 128 139L124.4 153.2C124.4 153.2 116.9 188.4 110.5 195.2C110.5 195.2 94.5 206.4 60 206.1H103C103 206.1 114.2 211.5 125.7 178.1L136.3 148.3C136.3 148.3 140.9 130.6 126.9 113.6L87.7 61.6996L87.4 55.0996L76.8 57.5996L78.3 60.4996Z" fill="#CDB0D5"/>
<path d="M125.9 114.7C132.9 123.3 136.1 134 134.3 145C133.3 151.2 131 157.2 129 163.2C126.9 169.6 124.9 175.9 122.8 182.3C121 187.6 119.7 193.3 116.4 197.9C113.8 201.4 110.1 204.1 105.9 205.5C100.6 207.2 94.7998 206.5 89.2998 206.5C82.5998 206.5 75.8999 206.5 69.1999 206.5C62.3999 206.5 55.5998 206.5 48.7998 206.5C45.4998 206.5 42.1999 206.5 38.8999 206.5C36.4999 206.5 34.1999 206.1 31.8999 205.4C27.6999 204 23.9999 201.2 21.4999 197.6C19.9999 195.5 18.9999 193.1 18.1999 190.7C17.1999 187.6 16.0998 184.5 15.0998 181.3C12.9998 174.9 10.8998 168.5 8.79984 162.1C6.89984 156.2 4.69984 150.2 3.79984 144C2.19984 133.2 5.59986 122.6 12.6999 114.3C21.3999 104.1 30.3998 94.1 39.2998 84.1C43.0998 79.8 46.9999 75.7 49.4999 70.5C51.7999 65.6 52.6999 60.3 52.6999 54.8C52.6999 51.6 52.6999 48.5 52.6999 45.3C52.6999 44.7 52.1998 44 51.5998 43.9C51.2998 43.9 51.4999 43.7 52.1999 44.3C52.2999 44.9 52.3999 45.5 52.3999 46.1C52.2999 46.3 51.5999 46.9 51.1999 46.8H51.2998C51.3998 46.8 51.4999 46.8 51.4999 46.8C51.7999 46.8 52.0998 46.8 52.2998 46.8C53.1998 46.8 54.0999 46.8 54.9999 46.7C57.8999 46.6 60.7998 46.6 63.7998 46.6C70.2998 46.5 76.7998 46.5 83.2998 46.5C84.3998 46.5 85.5999 46.5 86.6999 46.5C86.9999 46.5 87.3999 46.5 87.6999 46.5C87.7999 46.5 87.8999 46.5 87.9999 46.5C87.7999 46.5 86.8998 46.2 86.7998 45.4C86.8998 45 86.8999 44.6 86.9999 44.2C87.3999 43.6 87.7999 43.5 87.9999 43.5C87.4999 43.5 86.9998 43.6 86.5998 44C85.7998 44.7 85.8999 45.7 85.8999 46.7C85.8999 48.1 85.7999 49.5 85.6999 50.8C85.3999 54.9 85.1999 59.2 86.8999 63.1C88.5999 67 91.2998 70.5 93.7998 74C101.2 84.3 109.2 94.1 117.2 103.9C120 107.6 123 111.1 125.9 114.7C127.1 116.2 129.2 114.1 128 112.6C122.2 105.6 116.4 98.7 110.8 91.6C104.1 83.2 97.0999 74.7 91.3999 65.5C90.8999 64.7 90.3999 63.9 89.9999 63C89.7999 62.6 89.5999 62.3 89.4999 61.9C89.2999 61.6 89.4999 61.9 89.3999 61.7C89.2999 61.6 89.2999 61.4 89.1999 61.3C88.2999 58.9 88.2999 56.2 88.3999 53.7C88.4999 52.3 88.5998 50.9 88.5998 49.6C88.5998 49 88.6999 48.4 88.6999 47.8C88.6999 47.5 88.6999 47.2 88.6999 46.9C88.6999 46.7 88.6999 46.6 88.6999 46.4C88.7999 45.8 88.6999 45.8 88.4999 46.3C88.0999 46.4 87.7999 46.6 87.3999 46.7C87.6999 46.7 88.0998 46.7 88.2998 46.6C89.3998 46.3 89.7999 44.9 88.9999 44.1C88.4999 43.5 87.5999 43.6 86.8999 43.6C84.1999 43.5 81.4998 43.5 78.7998 43.5C71.1998 43.5 63.5999 43.6 55.8999 43.7C54.5999 43.7 53.2999 43.7 51.9999 43.8C51.1999 43.8 49.8999 43.7 49.4999 44.6C49.1999 45.2 49.1999 46 49.6999 46.4C49.8999 46.6 50.0999 46.8 50.3999 46.8C49.9999 46.3 49.6998 45.8 49.2998 45.4C49.2998 48.8 49.2998 52.2 49.2998 55.6C49.2998 58.4 48.9999 61.2 48.3999 63.9C46.9999 69.4 44.0998 74.1 40.2998 78.3C31.0998 88.6 21.8998 99 12.7998 109.4C8.89984 113.9 5.39983 118.4 3.09983 123.8C0.999827 128.8 -0.000136416 134.3 0.199864 139.7C0.399864 146 2.29983 151.8 4.09983 157.8C6.09983 164.4 8.29988 171 10.3999 177.5C11.4999 180.8 12.5999 184.1 13.6999 187.3C14.6999 190.2 15.4998 193.1 16.7998 195.8C18.8998 200.1 22.1998 203.8 26.2998 206.2C30.7998 208.9 35.6999 209.5 40.8999 209.5C47.8999 209.5 54.9999 209.5 61.9999 209.5C68.9999 209.5 75.8999 209.5 82.8999 209.5C86.3999 209.5 89.8998 209.5 93.2998 209.5C96.2998 209.5 99.2999 209.6 102.2 209.3C112.1 208 119.5 201 122.6 191.7C127.1 178.5 131.5 165.3 135.5 151.9C138.8 141.1 138.2 129.6 132.7 119.6C131.3 117.1 129.6 114.7 127.8 112.5C126.8 111.1 124.7 113.2 125.9 114.7Z" fill="#8564A5"/>
<path d="M66.9004 53.0995C58.2004 52.8995 50.7003 51.8996 43.3003 49.8996C38.8003 48.6996 35.5003 37.3995 38.1003 32.1995C39.1003 30.1995 40.4003 30.4996 42.0003 30.8996C57.6003 35.1996 73.3003 36.1995 89.0003 31.5995C89.5003 31.4995 90.0003 31.5996 90.5003 31.3996C95.5003 28.8996 96.6004 29.8995 96.4004 37.4995C96.3004 45.2995 94.4003 48.6995 89.2003 49.9995C81.4003 51.8995 73.5004 52.8995 66.9004 53.0995Z" fill="#E5D4E9"/>
<path d="M43.4004 8.59961C59.5004 13.3996 75.2004 13.6996 91.3004 9.49963C90.6004 16.0996 89.9004 22.7996 89.3004 29.5996C89.1004 31.8996 88.5004 32.8996 87.0004 33.1996C74.0004 35.9996 61.0004 35.4996 47.9004 33.2996C46.5004 33.0996 46.2004 32.0996 46.0004 30.2996C45.3004 23.0996 44.3004 15.8996 43.4004 8.59961Z" fill="#EEC5DE"/>
<path d="M43.2002 7.49943C47.4002 4.09943 51.8002 3.39945 56.0002 2.89945C66.5002 1.79945 76.9002 1.59944 87.3002 4.69944C89.0002 5.19944 91.4002 5.49944 91.6002 7.69944C91.7002 10.3994 89.3002 10.5994 87.6002 10.9994C77.5002 13.9994 67.2002 13.0994 57.0002 12.1994C52.4002 11.8994 47.7002 11.6994 43.2002 7.49943Z" fill="#EEC5DE"/>
<path d="M88.3004 31.2994L73.4004 33.7994V13.4994L90.5004 9.89941L88.3004 31.2994Z" fill="#C999B3"/>
<path d="M66.9003 51.5993C61.3003 51.4993 55.7002 50.9993 50.1002 49.8993C48.8002 49.6993 47.6003 49.3993 46.4003 49.0993C45.4003 48.8993 44.3003 48.6993 43.4003 48.2993C42.1003 47.6993 41.3003 46.1993 40.7003 44.9993C39.2003 41.8993 38.3003 37.8993 39.0003 34.4993C39.1003 33.8993 39.3003 32.7993 39.9003 32.2993C40.5003 31.7993 41.5003 32.2993 42.3003 32.3993C45.2003 33.1993 48.1002 33.8993 51.1002 34.3993C62.8002 36.5993 74.7003 36.6993 86.3003 33.7993C87.7003 33.4993 89.0003 33.0993 90.3003 32.7993C91.3003 32.6993 92.1003 32.0993 93.0003 31.7993C93.5003 31.5993 94.0003 31.4993 94.4003 31.4993C94.6003 31.6993 94.2003 31.4993 94.4003 31.4993C94.7003 31.7993 94.3003 31.2993 94.5003 31.4993C94.5003 31.4993 94.5002 31.3993 94.6002 31.6993C95.1002 32.8993 95.1002 34.6993 95.1002 36.0993C95.1002 38.2993 95.0003 40.5993 94.5003 42.6993C94.1003 44.2993 93.4002 45.7993 92.1002 46.8993C90.4002 48.1993 88.1002 48.4993 86.1002 48.9993C79.6002 50.5993 73.2003 51.3993 66.9003 51.5993C65.0003 51.6993 65.0003 54.6993 66.9003 54.5993C73.2003 54.3993 79.6003 53.5993 85.8003 52.2993C89.9003 51.3993 94.3003 50.4993 96.3003 46.3993C97.2003 44.4993 97.6003 42.2993 97.8003 40.1993C98.0003 37.7993 98.1003 35.1993 97.7003 32.7993C97.5003 31.3993 97.1003 29.7993 95.8003 29.0993C94.5003 28.3993 92.9002 28.6993 91.6002 29.2993C91.2002 29.4993 90.7003 29.6993 90.3003 29.8993C89.7003 30.1993 89.1003 30.1993 88.4003 30.2993C86.7003 30.6993 85.1003 31.1993 83.4003 31.5993C80.1003 32.2993 76.7003 32.7993 73.4003 32.9993C66.7003 33.4993 60.0003 33.0993 53.4003 31.9993C50.1003 31.3993 46.7003 30.6993 43.5003 29.7993C41.2003 29.1993 38.9003 28.5993 37.3003 30.8993C34.9003 34.2993 35.6003 39.4993 36.7003 43.1993C37.4003 45.3993 38.3003 47.5993 39.9003 49.3993C41.5003 51.2993 43.7002 51.6993 46.1002 52.1993C53.0002 53.7993 60.0003 54.4993 67.0003 54.6993C68.8003 54.5993 68.8003 51.5993 66.9003 51.5993Z" fill="#8864A8"/>
<path d="M42.9996 9.09922C58.8996 13.7992 75.5996 14.1992 91.5996 9.99925C90.9996 9.49925 90.2996 8.99922 89.6996 8.59922C89.0996 14.4992 88.3996 20.2993 87.8996 26.1993C87.7996 27.3993 87.8996 28.7992 87.4996 29.9992C87.1996 30.7992 86.7996 30.7992 85.9996 30.9992C83.0996 31.5992 80.0996 32.0993 77.0996 32.3993C71.2996 32.9993 65.3996 32.8992 59.4996 32.4992C56.4996 32.2992 53.5996 31.8992 50.5996 31.4992C49.7996 31.3992 48.1996 31.4993 47.6996 30.8993C47.0996 30.2993 47.2996 28.2992 47.1996 27.5992C46.4996 20.9992 45.5996 14.3992 44.7996 7.79924C44.5996 5.89924 41.5996 5.89924 41.7996 7.79924C42.5996 14.3992 43.4996 20.9992 44.1996 27.5992C44.3996 29.6992 44.2996 32.5993 46.4996 33.6993C47.7996 34.2993 49.3996 34.2992 50.7996 34.4992C52.5996 34.7992 54.2996 34.9993 56.0996 35.1993C62.5996 35.8993 69.0996 36.0992 75.5996 35.5992C78.9996 35.2992 82.3996 34.8993 85.7996 34.1993C88.0996 33.7993 89.8996 33.0992 90.3996 30.5992C90.7996 29.0992 90.7996 27.3992 90.8996 25.7992C91.0996 23.7992 91.2996 21.8993 91.4996 19.8993C91.8996 16.1993 92.2996 12.3993 92.6996 8.69926C92.7996 7.69926 91.6996 6.99924 90.7996 7.29924C75.1996 11.3992 59.1996 10.9993 43.6996 6.39927C41.8996 5.59927 41.1996 8.49922 42.9996 9.09922Z" fill="#7D5C9E"/>
<path d="M44.4997 8.49961C49.5997 4.49961 56.1997 4.1996 62.3997 3.7996C69.3997 3.2996 76.4997 3.49959 83.2997 5.09959C84.7997 5.49959 86.2997 5.8996 87.8997 6.2996C88.5997 6.4996 89.8997 6.69963 90.1997 7.39963C90.5997 8.29963 89.7997 8.79961 89.0997 8.99961C87.8997 9.39961 86.6997 9.69961 85.4997 9.99961C78.5997 11.6996 71.4997 11.6996 64.3997 11.1996C60.7997 10.9996 57.1997 10.6996 53.5997 10.2996C50.1997 9.7996 47.0997 8.5996 44.4997 6.2996C43.0997 4.9996 40.8997 7.09963 42.3997 8.39963C44.9997 10.7996 48.0997 12.2996 51.5997 12.9996C54.9997 13.5996 58.5997 13.7996 62.0997 14.0996C70.1997 14.6996 78.3997 14.8996 86.3997 12.8996C88.6997 12.2996 92.0997 11.8996 93.0997 9.39963C94.2997 6.39963 91.9997 4.29961 89.3997 3.49961C81.7997 1.29961 74.0997 0.299609 66.0997 0.499609C61.7997 0.599609 57.4997 0.899585 53.2997 1.59958C49.2997 2.19958 45.5997 3.6996 42.3997 6.2996C40.7997 7.5996 42.9997 9.69961 44.4997 8.49961Z" fill="#7D5C9E"/>
<path d="M90.2997 45.5992L82.6997 46.6993C80.4997 46.9993 78.5997 44.7992 78.3997 41.7992C78.1997 38.7992 79.7997 36.0992 81.8997 35.7992L89.4997 34.6993C91.6997 34.3993 93.5997 36.5992 93.7997 39.5992C93.9997 42.5992 92.3997 45.2992 90.2997 45.5992Z" fill="#CDB0D5"/>
<path d="M65.7004 170.599C67.1004 165.899 67.6003 161.299 68.1003 156.599C68.2003 155.499 68.4004 154.399 68.4004 153.299C68.4004 152.899 68.3004 152.299 68.0004 151.999C65.5004 149.299 62.9004 146.699 60.4004 144.199C60.1004 143.899 59.7004 143.899 59.3004 143.899C56.8004 143.899 54.2004 143.899 51.8004 143.199C47.3004 141.799 43.6004 139.099 40.9004 134.799C38.9004 131.599 38.1004 128.099 38.0004 124.399C38.0004 122.999 38.0004 121.599 38.0004 120.299C38.0004 118.899 38.8004 117.999 40.0004 117.999C43.0004 117.999 45.9004 117.799 48.9004 118.599C51.9004 119.399 54.5004 120.899 56.9004 122.999C59.2004 125.099 60.7004 127.799 62.0004 130.699C63.3004 133.599 63.2004 136.699 63.2004 139.799C63.2004 140.599 63.4004 141.099 63.9004 141.699C65.5004 143.299 67.1004 144.999 68.9004 146.799C69.0004 145.599 69.1003 144.499 69.1003 143.399C69.2003 139.499 69.3004 135.599 69.3004 131.699C69.3004 131.199 69.1004 130.699 68.8004 130.299C67.7004 128.999 66.3004 127.899 65.4004 126.499C64.2004 124.699 63.4004 122.599 62.5004 120.599C61.2004 117.499 61.1004 114.199 61.9004 110.999C62.7004 107.699 64.0004 104.599 66.2004 102.099C67.4004 100.699 68.7004 99.4994 70.0004 98.1994C70.9004 97.2994 72.2003 97.2994 73.1003 98.1994C75.7003 100.599 78.0004 103.099 79.7004 106.299C80.9004 108.599 81.4004 111.199 81.5004 113.899C81.6004 116.799 81.3003 119.599 80.1003 122.199C78.8003 124.999 77.3004 127.599 74.9004 129.499C74.0004 130.199 73.5004 130.999 73.5004 132.399C73.5004 137.899 73.3003 143.299 73.1003 148.799C74.0003 147.999 74.8004 147.299 75.7004 146.499C77.0004 145.299 78.3004 144.099 79.5004 142.799C79.7004 142.599 79.8004 141.999 79.8004 141.599C79.8004 138.499 79.9003 135.499 81.1003 132.599C83.7003 126.099 88.3003 122.199 94.6003 120.799C97.4003 120.199 100.3 120.399 103.1 120.299C104 120.299 104.8 121.099 104.8 122.099C105 126.999 105 131.899 102.5 136.199C99.4004 141.699 94.8004 144.899 88.9004 145.899C86.9004 146.199 84.8004 146.099 82.7004 146.199C82.4004 146.199 81.9004 146.299 81.7004 146.499C78.8004 149.199 75.9003 151.999 73.1003 154.799C72.7003 155.199 72.4004 155.899 72.3004 156.499C71.8004 160.299 71.3004 164.099 70.8004 167.899C70.7004 168.599 70.4003 169.299 70.1003 170.399C71.2003 169.899 72.0004 169.399 72.8004 169.099C73.9004 168.799 74.0004 167.799 74.4004 166.899C75.4004 164.299 76.4004 161.599 78.3004 159.499C82.4004 154.799 87.4004 152.399 93.5004 152.599C97.0004 152.699 100.1 153.999 103.2 155.299C104.3 155.699 104.7 156.799 104.3 157.999C103.7 159.999 103.1 161.999 102.2 163.799C99.4004 169.599 94.8004 173.099 88.9004 174.499C84.8004 175.399 80.8004 174.699 76.9004 172.999C76.1004 172.599 75.4003 172.699 74.6003 172.999C72.9003 173.799 71.2004 174.599 69.5004 175.499C69.2004 175.699 68.9004 175.999 68.8004 176.399C68.4004 177.399 68.1004 178.499 67.7004 179.499C66.6004 182.499 65.0004 185.099 62.8004 187.299C62.4004 187.699 61.8004 187.999 61.3004 188.199C60.4004 188.499 59.5003 187.999 59.1003 187.199C58.7003 186.399 58.8004 185.299 59.5004 184.599C61.9004 182.399 63.3004 179.499 64.3004 176.399C64.5004 175.899 64.4003 175.599 64.1003 175.199C62.9003 173.999 61.7004 172.699 60.4004 171.499C60.1004 171.299 59.7004 171.199 59.3004 171.199C56.5004 171.199 53.7004 171.199 51.0004 170.199C46.8004 168.699 43.5004 166.099 40.9004 162.099C38.8004 158.899 38.0004 155.299 37.9004 151.499C37.9004 150.199 37.9004 148.899 37.9004 147.599C37.9004 146.299 38.6004 145.399 39.7004 145.299C43.3004 145.199 46.9004 144.999 50.4004 146.299C53.0004 147.299 55.3004 148.699 57.3004 150.699C59.4004 152.699 60.6004 155.199 61.8004 157.799C63.1004 160.699 63.1003 163.699 63.1003 166.699C63.1003 167.699 63.3004 168.399 64.0004 168.999C64.5004 169.299 65.0004 169.899 65.7004 170.599Z" fill="#C0C1DB"/>
<path d="M65.7004 170.599C67.1004 165.899 67.6003 161.299 68.1003 156.599C68.2003 155.499 68.4004 154.399 68.4004 153.299C68.4004 152.899 68.3004 152.299 68.0004 151.999C65.5004 149.299 62.9004 146.699 60.4004 144.199C60.1004 143.899 59.7004 143.899 59.3004 143.899C56.8004 143.899 54.2004 143.899 51.8004 143.199C47.3004 141.799 43.6004 139.099 40.9004 134.799C38.9004 131.599 38.1004 128.099 38.0004 124.399C38.0004 122.999 38.0004 121.599 38.0004 120.299C38.0004 118.899 38.8004 117.999 40.0004 117.999C43.0004 117.999 45.9004 117.799 48.9004 118.599C51.9004 119.399 54.5004 120.899 56.9004 122.999C59.2004 125.099 60.7004 127.799 62.0004 130.699C63.3004 133.599 63.2004 136.699 63.2004 139.799C63.2004 140.599 63.4004 141.099 63.9004 141.699C65.5004 143.299 67.1004 144.999 68.9004 146.799C69.0004 145.599 69.1003 144.499 69.1003 143.399C69.2003 139.499 69.3004 135.599 69.3004 131.699C69.3004 131.199 69.1004 130.699 68.8004 130.299C67.7004 128.999 66.3004 127.899 65.4004 126.499C64.2004 124.699 63.4004 122.599 62.5004 120.599C61.2004 117.499 61.1004 114.199 61.9004 110.999C62.7004 107.699 64.0004 104.599 66.2004 102.099C67.4004 100.699 68.7004 99.4994 70.0004 98.1994C70.9004 97.2994 72.2003 97.2994 73.1003 98.1994C75.7003 100.599 78.0004 103.099 79.7004 106.299C80.9004 108.599 81.4004 111.199 81.5004 113.899C81.6004 116.799 81.3003 119.599 80.1003 122.199C78.8003 124.999 77.3004 127.599 74.9004 129.499C74.0004 130.199 73.5004 130.999 73.5004 132.399C73.5004 137.899 73.3003 143.299 73.1003 148.799C74.0003 147.999 74.8004 147.299 75.7004 146.499C77.0004 145.299 78.3004 144.099 79.5004 142.799C79.7004 142.599 79.8004 141.999 79.8004 141.599C79.8004 138.499 79.9003 135.499 81.1003 132.599C83.7003 126.099 88.3003 122.199 94.6003 120.799C97.4003 120.199 100.3 120.399 103.1 120.299C104 120.299 104.8 121.099 104.8 122.099C105 126.999 105 131.899 102.5 136.199C99.4004 141.699 94.8004 144.899 88.9004 145.899C86.9004 146.199 84.8004 146.099 82.7004 146.199C82.4004 146.199 81.9004 146.299 81.7004 146.499C78.8004 149.199 75.9003 151.999 73.1003 154.799C72.7003 155.199 72.4004 155.899 72.3004 156.499C71.8004 160.299 71.3004 164.099 70.8004 167.899C70.7004 168.599 70.4003 169.299 70.1003 170.399C71.2003 169.899 72.0004 169.399 72.8004 169.099C73.9004 168.799 74.0004 167.799 74.4004 166.899C75.4004 164.299 76.4004 161.599 78.3004 159.499C82.4004 154.799 87.4004 152.399 93.5004 152.599C97.0004 152.699 100.1 153.999 103.2 155.299C104.3 155.699 104.7 156.799 104.3 157.999C103.7 159.999 103.1 161.999 102.2 163.799C99.4004 169.599 94.8004 173.099 88.9004 174.499C84.8004 175.399 80.8004 174.699 76.9004 172.999C76.1004 172.599 75.4003 172.699 74.6003 172.999C72.9003 173.799 71.2004 174.599 69.5004 175.499C69.2004 175.699 68.9004 175.999 68.8004 176.399C68.4004 177.399 68.1004 178.499 67.7004 179.499C66.6004 182.499 65.0004 185.099 62.8004 187.299C62.4004 187.699 61.8004 187.999 61.3004 188.199C60.4004 188.499 59.5003 187.999 59.1003 187.199C58.7003 186.399 58.8004 185.299 59.5004 184.599C61.9004 182.399 63.3004 179.499 64.3004 176.399C64.5004 175.899 64.4003 175.599 64.1003 175.199C62.9003 173.999 61.7004 172.699 60.4004 171.499C60.1004 171.299 59.7004 171.199 59.3004 171.199C56.5004 171.199 53.7004 171.199 51.0004 170.199C46.8004 168.699 43.5004 166.099 40.9004 162.099C38.8004 158.899 38.0004 155.299 37.9004 151.499C37.9004 150.199 37.9004 148.899 37.9004 147.599C37.9004 146.299 38.6004 145.399 39.7004 145.299C43.3004 145.199 46.9004 144.999 50.4004 146.299C53.0004 147.299 55.3004 148.699 57.3004 150.699C59.4004 152.699 60.6004 155.199 61.8004 157.799C63.1004 160.699 63.1003 163.699 63.1003 166.699C63.1003 167.699 63.3004 168.399 64.0004 168.999C64.5004 169.299 65.0004 169.899 65.7004 170.599Z" stroke="#786298" stroke-miterlimit="10"/>
<path d="M60.0998 140.8L44.2998 124.3L60.7998 140.1L60.0998 140.8Z" fill="#786298"/>
<path d="M70.9004 128.599L71.4004 105.699L71.9004 128.599H70.9004Z" fill="#786298"/>
<path d="M80.9004 143.4L100.3 131.5L81.4004 144.2L80.9004 143.4Z" fill="#786298"/>
<path d="M74.7002 170.4L94.2002 158.5L75.2002 171.2L74.7002 170.4Z" fill="#786298"/>
<path d="M62.2 170.5L46.5 154L62.9 169.8L62.2 170.5Z" fill="#786298"/>
</svg>
