<svg width="166" height="216" viewBox="0 0 166 216" fill="none" xmlns="http://www.w3.org/2000/svg">
<path d="M55.1005 50.7C73.4005 54.5 91.4004 53.9 110.4 50.5C110.4 59.3 110.5 67.9 110.4 76.5C110.4 80.2 111.6 83.4 113.3 86.7C129.3 116.6 145.1 146.5 161.1 176.3C165.8 185.1 165.2 188.9 157.5 195.1C147.4 203.2 135.4 206.8 123.2 209.5C90.6005 216.8 58.3005 216 26.5005 204.8C19.9005 202.5 13.6005 199.6 8.10046 195.1C1.40046 189.7 0.400456 185.1 4.30046 177.5C20.1005 147.5 35.9004 117.6 51.8004 87.7C54.1004 83.3 55.3005 78.9 55.2005 73.9C54.9005 66.1 55.1005 58.4 55.1005 50.7Z" fill="#ECDBED"/>
<path d="M53.8008 6.20041C73.2008 10.4004 92.4008 10.5004 111.901 5.90039C111.401 13.4004 110.801 20.8004 110.301 28.3004C110.201 30.3004 109.301 31.1004 107.501 31.4004C91.0008 33.8004 74.6008 33.8004 58.1008 31.4004C56.7008 31.2004 56.0008 30.9004 55.8008 29.3004C55.3008 21.5004 54.5008 13.8004 53.8008 6.20041Z" fill="#DEB0C1"/>
<path d="M77.0002 53.0005C71.7002 53.2005 63.9002 52.2005 56.2002 50.7005C48.9002 49.3005 45.5002 45.0005 45.4002 37.3005C45.3002 32.5005 46.5002 31.8005 51.0002 32.7005C71.0002 37.0005 91.0002 37.2005 110.9 32.3005C115.4 31.2005 116.6 33.8005 117.5 37.0005C119 42.4005 115 48.2005 109.1 49.7005C99.3002 52.1005 89.4002 52.9005 77.0002 53.0005Z" fill="#E9DBED"/>
<path d="M110.301 5.60048C91.2008 11.6005 72.0008 11.7005 52.8008 5.80046C71.9008 0.000464439 91.1008 0.100483 110.301 5.60048Z" fill="#DEB0C1"/>
<path d="M109.701 33.3004L90.6006 34.5004L89.6006 8.80038L111.401 4.40039L109.701 33.3004Z" fill="#C494AE"/>
<path d="M110.4 56.7998H101V81.1998H110.4V56.7998Z" fill="#D3C3DD"/>
<path d="M111.7 58.4998C111.7 58.4998 95.9002 61.0998 84.7002 61.0998C59.4002 61.0998 55.2002 58.4998 55.2002 58.4998V49.7998L82.9002 53.1998L111.7 49.7998V58.4998Z" fill="#D3C3DD"/>
<path d="M163.8 180.1L157.1 183.3L101 81.2L109.1 78L163.8 180.1Z" fill="#D3C3DD"/>
<path d="M40.8008 206.3C40.8008 206.3 148.801 208.2 155.801 180.9L163.801 176.5C163.801 176.5 166.801 195.7 150.501 199.8C150.501 199.7 102.101 224.9 40.8008 206.3Z" fill="#D3C3DD"/>
<path d="M54.6004 51.5002C73.2004 55.3002 92.1004 54.6002 110.7 51.3002C110.1 50.8002 109.4 50.3002 108.8 49.9002C108.8 58.2002 108.9 66.4002 108.8 74.7002C108.8 78.4002 109.4 81.7002 111 85.1002C112.7 88.8002 114.8 92.3002 116.7 95.8002C124.6 110.5 132.4 125.2 140.2 140C144.1 147.4 148.1 154.8 152 162.2C154 165.9 155.9 169.5 157.9 173.2C159.4 176.1 161.2 179 162.1 182.1C162.6 184.1 162.6 186.1 161.6 187.9C160.2 190.4 157.8 192.3 155.6 194C149.9 198.3 143.4 201.4 136.6 203.7C129.5 206.1 122.2 207.7 114.9 209.1C107.1 210.5 99.2004 211.5 91.3004 212C75.6004 212.9 59.7004 211.6 44.4004 208C36.7004 206.2 29.0004 204 21.8004 200.9C18.5004 199.5 15.2004 197.8 12.2004 195.8C9.50041 194 6.70039 191.9 4.90039 189.2C1.40039 183.8 5.60039 177.8 8.20039 172.9C12.1004 165.5 16.0004 158.1 19.9004 150.6C27.7004 135.8 35.5004 121.1 43.3004 106.3C45.2004 102.6 47.2004 99.0002 49.1004 95.3002C50.9004 91.8002 53.0004 88.4002 54.5004 84.8002C57.5004 77.6002 56.5004 69.8002 56.5004 62.2002C56.5004 58.2002 56.5004 54.1002 56.6004 50.1002C56.6004 48.2002 53.6004 48.2002 53.6004 50.1002C53.6004 54.3002 53.6004 58.5002 53.5004 62.7002C53.5004 66.9002 53.8004 71.1002 53.6004 75.2002C53.4004 78.8002 52.4004 82.3002 50.8004 85.5002C48.9004 89.3002 46.8004 93.1002 44.8004 96.8002C36.8004 111.9 28.8004 127 20.8004 142.2C16.8004 149.7 12.9004 157.2 8.90039 164.7C6.90039 168.5 4.90039 172.3 2.90039 176.2C1.50039 178.8 0.400391 181.6 0.400391 184.6C0.400391 190.9 6.00038 195.3 10.8004 198.5C17.2004 202.7 24.5004 205.4 31.8004 207.6C47.3004 212.5 63.4004 215 79.6004 215.2C95.7004 215.4 111.8 213.3 127.4 209.5C134.4 207.8 141.3 205.6 147.8 202.4C151.1 200.7 154.3 198.8 157.3 196.5C159.7 194.7 162 192.7 163.7 190.2C166.8 185.6 165.1 180.4 162.8 175.9C158.9 168.4 154.8 160.9 150.8 153.5C142.8 138.4 134.7 123.3 126.7 108.2C122.7 100.7 118.6 93.1002 114.6 85.6002C112.8 82.2002 111.8 78.9002 111.8 75.0002C111.8 70.8002 111.8 66.5002 111.8 62.3002C111.8 58.2002 111.8 54.1002 111.8 49.9002C111.8 48.9002 110.8 48.3002 109.9 48.5002C91.9004 51.7002 73.4004 52.4002 55.4004 48.7002C53.5004 48.2002 52.7004 51.1002 54.6004 51.5002Z" fill="#A285BC"/>
<path d="M78.3004 51.5C72.5004 51.6 66.7004 50.8 61.0004 49.9C56.9004 49.2 52.3004 48.5 49.9004 44.6C48.9004 43 48.4004 41 48.2004 39.1C48.1004 37.8 47.8004 35.2 48.5004 34.2C48.6004 34.1 48.6004 34.1 48.7004 34C49.0004 33.9 49.2004 33.9 49.5004 33.9C50.6004 33.9 51.6004 34.2 52.7004 34.4C55.9004 35.1 59.1004 35.6 62.4004 36.1C75.2004 37.9 88.1004 38 100.9 36.1C104.1 35.6 107.4 35 110.5 34.3C112.2 33.9 114.7 32.9 116 34.6C117.1 36 117.5 38.4 117.3 40.1C117.1 42.3 115.9 44.2 114.4 45.7C112.3 47.7 109.7 48.3 107 48.9C104.1 49.5 101.1 50 98.2004 50.4C91.8004 51.2 85.0004 51.4 78.3004 51.5C76.4004 51.5 76.4004 54.5 78.3004 54.5C84.9004 54.4 91.6004 54.2 98.2004 53.4C101.2 53 104.3 52.6 107.2 51.9C109.9 51.3 112.6 50.8 114.9 49.2C119.2 46.3 121.5 41.1 120 36C119.5 34.1 118.6 32.2 116.8 31.2C114.2 29.8 111 31.1 108.4 31.6C94.3004 34.7 79.7004 35.1 65.3004 33.4C61.5004 32.9 57.8004 32.3 54.1004 31.6C52.1004 31.2 49.8004 30.4 47.8004 31.2C45.9004 31.9 45.4004 33.9 45.2004 35.7C45.0004 38.1 45.3004 40.6 45.9004 42.9C47.4004 47.9 51.4004 50.9 56.4004 52C60.2004 52.8 64.0004 53.4 67.9004 53.8C71.4004 54.2 74.8004 54.5 78.3004 54.4C80.3004 54.5 80.3004 51.5 78.3004 51.5Z" fill="#A285BC"/>
<path d="M52.6004 8.80014C72.1004 13.0001 92.1004 13.0002 111.5 8.50016C110.9 8.00016 110.2 7.50016 109.6 7.10016C109.1 13.9002 108.6 20.7002 108.1 27.5002C108 28.3002 108.3 30.1002 107.6 30.7002C107.3 30.9002 106.9 31.0002 106.6 31.1002C105.7 31.3002 104.7 31.4002 103.7 31.5002C100.3 31.9002 97.0004 32.3002 93.6004 32.5002C86.9004 33.0002 80.1004 33.0002 73.4004 32.7002C70.0004 32.5002 66.6004 32.3002 63.3004 31.9002C61.6004 31.7002 59.9004 31.5001 58.3004 31.3001C58.0004 31.2001 57.0004 31.2002 56.8004 31.0002C56.7004 30.9002 56.7004 30.6001 56.7004 30.3001C56.2004 26.6001 56.1004 22.8002 55.7004 19.1002C55.4004 15.3002 55.0004 11.4002 54.6004 7.60016C54.4004 5.70016 51.4004 5.70016 51.6004 7.60016C52.3004 15.1002 52.9004 22.6002 53.6004 30.1002C53.7004 31.3002 53.8004 32.4001 54.7004 33.3001C55.7004 34.2001 57.2004 34.2002 58.5004 34.4002C62.2004 34.9002 66.0004 35.3002 69.8004 35.6002C77.4004 36.2002 85.0004 36.2002 92.5004 35.7002C96.1004 35.5002 99.8004 35.1002 103.4 34.7002C105.9 34.4002 109.4 34.5002 110.7 31.9002C111.5 30.4002 111.3 28.3002 111.4 26.7002C111.5 24.5002 111.7 22.4002 111.8 20.2002C112.1 15.9002 112.4 11.6001 112.8 7.30014C112.9 6.30014 111.8 5.60015 110.9 5.90015C92.0004 10.4001 72.5004 10.3002 53.6004 6.20017C51.5004 5.50017 50.7004 8.40014 52.6004 8.80014Z" fill="#A285BC"/>
<path d="M109.901 4.40013C100.701 7.20013 91.2006 8.90013 81.6006 8.90013C72.0006 8.90013 62.4006 7.40015 53.2006 4.60015C53.2006 5.60015 53.2006 6.50014 53.2006 7.50014C71.8006 1.90014 91.3006 1.90013 109.901 7.30013C111.801 7.80013 112.601 4.90013 110.701 4.40013C91.6006 -1.09987 71.5006 -1.09985 52.4006 4.60015C51.0006 5.00015 51.0006 7.10014 52.4006 7.50014C61.8006 10.4001 71.7006 12.0001 81.6006 11.9001C91.5006 11.9001 101.301 10.2001 110.701 7.30013C112.501 6.70013 111.701 3.80013 109.901 4.40013Z" fill="#A285BC"/>
<path d="M82.9 168.001C83.7 167.301 84.4 166.701 85.1 166.101C87.2 164.401 89.2 162.501 90.8 160.301C94.2 155.701 96 150.601 95.5 144.901C95.3 142.401 94.9 140.001 93.5 137.801C92.2 135.701 90.3 134.801 87.8 134.801C87.6 134.801 87.4 134.801 87.3 134.801C87.3 134.801 87.3 134.801 87.2 134.701C87.1 134.301 87.1 133.801 87 133.301C86.4 130.401 84.7 128.301 81.8 127.201C81.3 127.001 81.1 126.801 81.1 126.301C80.7 122.401 79.7 118.601 78.5 114.901C78.5 114.901 78.5 114.801 78.5 114.601C79.2 114.701 79.9 114.901 80.5 115.001C86.1 116.501 91.3 118.701 95.6 122.401C98.3 124.701 100.7 127.201 102.6 130.001C103.9 131.901 105.3 133.801 106.3 135.901C108.2 139.501 109.8 143.301 111.5 147.001C111.7 147.401 111.6 147.901 111.5 148.301C110.8 153.201 109.6 158.101 107.5 162.601C106.8 164.301 105.8 165.801 104.9 167.401C104.8 167.601 104.4 167.901 104.1 167.901C97.1 167.901 90.1 167.901 83.1 167.901C83.1 168.101 83 168.101 82.9 168.001Z" fill="#917FAD"/>
<path d="M55.6001 124.2C52.4001 122.8 50.0001 119.8 50.4001 116.2C50.6001 114.5 51.0001 112.9 52.0001 111.5C53.9001 108.7 56.8001 107.6 60.2001 108C60.3001 108 60.3001 108 60.4001 108C62.0001 108.2 62.1001 108.5 63.2001 106.8C64.7001 104.4 67.2001 103.1 70.0001 102.6C75.3001 101.7 80.3001 103.7 83.2001 108C83.3001 108.2 83.4001 108.4 83.5001 108.6C84.0001 109.6 85.0001 109.8 85.7001 109C87.1001 107.3 89.2001 107 91.2001 107.2C92.9001 107.4 94.7001 107.7 96.3001 108.4C100.1 110 103.4 112.4 105.9 115.6C107.6 117.7 109.1 120 110.1 122.5C111.5 126 112.4 129.5 112.5 133.2C112.6 136 112.4 138.9 112.4 141.7C112.4 141.8 112.4 142 112.3 142.3C112.1 141.9 112 141.6 111.8 141.4C110.1 137.8 108.2 134.2 106 130.8C104.3 128.2 102.3 125.9 100.2 123.6C97.3001 120.5 93.8001 118.1 90.0001 116.1C84.3001 113.2 78.3001 111.8 71.8001 111.8C68.1001 111.8 64.4001 112.5 61.2001 114.4C57.7001 116.5 55.8001 119.6 55.6001 123.5C55.6001 123.8 55.6001 123.9 55.6001 124.2Z" fill="#BCB0D7"/>
<path d="M44.8008 168.1C44.8008 166.4 44.8008 164.9 44.8008 163.3C47.5008 162.9 50.2008 162.6 52.8008 162C55.6008 161.4 58.4008 160.7 61.1008 159.7C65.4008 158.1 69.5008 156 72.8008 152.9C76.4008 149.5 78.9008 145.5 80.2008 140.9C80.2008 140.7 80.3008 140.6 80.4008 140.2C81.2008 141.2 82.0008 141.9 82.7008 142.8C84.4008 145.3 85.0008 148.1 84.8008 151.1C84.5008 156.5 82.3008 161.4 79.4008 166C79.3008 166.1 79.3008 166.2 79.2008 166.2C78.7008 168 77.4008 168.2 75.6008 168.1C65.6008 168 55.7008 168.1 45.7008 168.1C45.5008 168.1 45.2008 168.1 44.8008 168.1Z" fill="#917FAD"/>
<path d="M82.7 165C83.2 164.1 83.6 163.2 84.1 162.4C86 158.3 87.4 154 87.2 149.5C87 144.9 85.2 141.1 81.3 138.1C79.2 136.4 76.8 135.4 74.1 135.3C71.8 135.2 69.6 135.9 68 137.5C66.4 139 65.6 140.8 65.4 142.9C65.4 143 65.4 143.2 65.4 143.3C62.3 143.7 59.1 141 59 138C59 136.6 59.3 135.2 59.9 133.9C60.9 131.8 62.7 130.9 65.1 130.7C67 130.6 68.8 131 70.6 131.6C71.8 132 71.9 132 72.7 131.1C75.2 128.3 78.9 128.3 81.6 129.7C83.9 130.9 85.3 133.6 84.9 136C84.7 137.2 85.4 137.7 86.6 137.5C87.3 137.3 88 137.2 88.8 137.3C90.3 137.4 91.2 138.4 91.8 139.5C92.4 140.8 92.9 142.1 93.1 143.5C93.7 147.4 93.3 151.3 91.5 154.9C89.6 158.9 86.7 162.2 83.1 164.9C83 164.9 82.9 164.9 82.7 165Z" fill="#BAB0D7"/>
<path d="M55.9006 123.601C52.6006 122.101 50.5007 119.201 51.1007 115.501C51.7007 112.001 54.0007 109.101 57.7007 108.601C59.1007 108.401 60.3007 108.801 61.7007 108.801C62.7007 108.801 63.2007 108.001 63.6007 107.301C65.6007 104.301 69.0006 103.101 72.5006 103.101C75.8006 103.101 79.0006 104.401 81.4006 106.801C82.0006 107.401 82.5006 108.101 82.9006 108.801C83.2006 109.301 83.5007 109.801 84.1007 110.001C85.5007 110.601 86.2007 109.201 87.1007 108.501C88.6007 107.501 90.6006 107.601 92.3006 107.901C94.3006 108.201 96.0006 108.801 97.8006 109.701C101.101 111.401 103.801 113.701 106.001 116.601C108.701 120.101 110.401 124.101 111.301 128.501C111.801 130.801 111.901 133.101 111.901 135.501C111.901 137.601 112.001 140.001 111.701 142.101C112.101 142.101 112.501 142.001 112.801 142.001C110.201 137.001 107.901 131.901 104.401 127.501C101.201 123.301 97.5006 119.701 92.9006 117.001C88.2006 114.201 83.1007 112.301 77.7007 111.601C72.7007 110.901 67.3007 110.901 62.6007 113.001C60.4007 114.001 58.3006 115.501 56.9006 117.601C55.5006 119.601 55.1006 121.801 54.9006 124.101C54.8006 124.901 56.1007 124.901 56.2007 124.101C56.3007 122.001 56.7006 120.101 57.9006 118.301C59.2006 116.401 61.0006 115.101 63.0006 114.101C67.6006 111.901 73.1006 112.001 78.0006 112.801C82.9006 113.501 87.6006 115.301 91.9006 117.801C96.3006 120.301 99.8006 123.701 102.901 127.601C106.601 132.201 109.001 137.401 111.601 142.601C111.801 143.101 112.601 143.001 112.701 142.501C113.001 140.601 112.901 138.601 113.001 136.701C113.001 134.501 113.001 132.401 112.801 130.201C112.201 126.001 110.801 121.701 108.501 118.101C104.501 111.901 97.6006 106.201 89.9006 106.401C88.4006 106.401 86.9007 106.901 85.7007 107.901C85.1007 108.401 84.6006 109.101 84.0006 108.201C83.8006 107.901 83.7006 107.601 83.5006 107.301C83.0006 106.601 82.4007 105.901 81.7007 105.201C79.3007 102.901 76.0007 101.701 72.7007 101.601C69.4007 101.601 65.9007 102.501 63.6007 105.001C63.1007 105.601 62.7007 106.301 62.2007 106.901C61.7007 107.501 61.4007 107.301 60.7007 107.201C59.1007 107.001 57.5006 107.001 56.0006 107.501C52.1006 108.601 50.1007 112.201 49.6007 116.001C49.2007 119.801 51.7007 123.001 55.1007 124.501C56.0007 125.001 56.6006 123.901 55.9006 123.601Z" fill="#9071B0"/>
<path d="M82.9 168.001C83.7 167.301 84.4 166.701 85.1 166.101C87.2 164.401 89.2 162.501 90.8 160.301C94.2 155.701 96 150.601 95.5 144.901C95.3 142.401 94.9 140.001 93.5 137.801C92.2 135.701 90.3 134.801 87.8 134.801C87.6 134.801 87.4 134.801 87.3 134.801C87.3 134.801 87.3 134.801 87.2 134.701C87.1 134.301 87.1 133.801 87 133.301C86.4 130.401 84.7 128.301 81.8 127.201C81.3 127.001 81.1 126.801 81.1 126.301C80.7 122.401 79.7 118.601 78.5 114.901C78.5 114.901 78.5 114.801 78.5 114.601C79.2 114.701 79.9 114.901 80.5 115.001C86.1 116.501 91.3 118.701 95.6 122.401C98.3 124.701 100.7 127.201 102.6 130.001C103.9 131.901 105.3 133.801 106.3 135.901C108.2 139.501 109.8 143.301 111.5 147.001C111.7 147.401 111.6 147.901 111.5 148.301C110.8 153.201 109.6 158.101 107.5 162.601C106.8 164.301 105.8 165.801 104.9 167.401C104.8 167.601 104.4 167.901 104.1 167.901C97.1 167.901 90.1 167.901 83.1 167.901C83.1 168.101 83 168.101 82.9 168.001Z" stroke="#9071B0" stroke-miterlimit="10"/>
<path d="M83.3006 164.9C83.8006 164 84.2006 163.1 84.7006 162.3C86.6006 158.2 88.0006 153.9 87.8006 149.4C87.6006 144.8 85.8006 141 81.9006 138C79.8006 136.3 77.4006 135.3 74.7006 135.2C72.4006 135.1 70.2006 135.8 68.6006 137.4C67.0006 138.9 66.2006 140.7 66.0006 142.8C66.0006 142.9 66.0006 143.1 66.0006 143.2C62.9006 143.6 59.7006 140.9 59.6006 137.9C59.6006 136.5 59.9006 135.1 60.5006 133.8C61.5006 131.7 63.3006 130.8 65.7006 130.6C67.6006 130.5 69.4006 130.9 71.2006 131.5C72.4006 131.9 72.5006 131.9 73.3006 131C75.8006 128.2 79.5006 128.2 82.2006 129.6C84.5006 130.8 85.9006 133.5 85.5006 135.9C85.3006 137.1 86.0006 137.6 87.2006 137.4C87.9006 137.2 88.6006 137.1 89.4006 137.2C90.9006 137.3 91.8006 138.3 92.4006 139.4C93.0006 140.7 93.5006 142 93.7006 143.4C94.3006 147.3 93.9006 151.2 92.1006 154.8C90.2006 158.8 87.3006 162.1 83.7006 164.8C83.5006 164.8 83.4006 164.8 83.3006 164.9Z" stroke="#9071B0" stroke-width="0.75" stroke-miterlimit="10"/>
<path d="M44.8008 168.1C44.8008 166.4 44.8008 164.9 44.8008 163.3C47.5008 162.9 50.2008 162.6 52.8008 162C55.6008 161.4 58.4008 160.7 61.1008 159.7C65.4008 158.1 69.5008 156 72.8008 152.9C76.4008 149.5 78.9008 145.5 80.2008 140.9C80.2008 140.7 80.3008 140.6 80.4008 140.2C81.2008 141.2 82.0008 141.9 82.7008 142.8C84.4008 145.3 85.0008 148.1 84.8008 151.1C84.5008 156.5 82.3008 161.4 79.4008 166C79.3008 166.1 79.3008 166.2 79.2008 166.2C78.7008 168 77.4008 168.2 75.6008 168.1C65.6008 168 55.7008 168.1 45.7008 168.1C45.5008 168.1 45.2008 168.1 44.8008 168.1Z" stroke="#9071B0" stroke-miterlimit="10"/>
<path d="M109.601 45.7005L98.7007 47.1005C96.5007 47.4005 94.4006 45.9005 94.1006 43.7005C93.8006 41.6005 95.4006 39.6005 97.6006 39.3005L108.501 37.9005C110.701 37.6005 112.801 39.1005 113.101 41.3005C113.401 43.5005 111.801 45.5005 109.601 45.7005Z" fill="#D3C3DD"/>
</svg>
