<svg width="183" height="218" viewBox="0 0 183 218" fill="none" xmlns="http://www.w3.org/2000/svg">
<path d="M90.8008 216.2C65.7008 215.8 40.6009 214.8 16.0009 209.2C14.1009 208.8 12.2009 208.1 10.4009 207.4C1.70085 203.8 -0.299139 199.6 2.50086 190.6C12.4009 159.5 27.4009 130.9 44.5009 103.3C48.1009 97.5002 51.4008 91.6002 55.3008 86.0002C61.1009 77.8002 64.3009 69.0002 63.1009 58.9002C62.8009 56.0002 63.3009 54.8002 66.7009 55.3002C82.9009 57.6002 99.2009 57.7002 115.401 55.3002C118.601 54.8002 120.201 55.1002 119.801 59.1002C118.801 68.5002 121.601 76.6002 126.801 84.7002C145.201 113.2 162.501 142.3 174.301 174.3C176.501 180.2 178.501 186.1 180.301 192.1C182.701 200.1 180.901 203.8 173.201 206.9C164.201 210.5 154.601 211.7 145.101 212.8C127.101 215 109.001 216.6 90.8008 216.2Z" fill="#E5D4E9"/>
<path d="M92.5002 57.9996C82.8002 58.5996 72.9002 57.1996 63.0002 55.9996C54.7002 54.9996 49.7002 43.5996 54.2002 36.4996C55.8002 33.8996 58.2002 33.9995 60.8002 34.2995C74.9002 35.8995 89.0002 36.4996 103.1 36.0996C111.1 35.8996 119 35.4996 127 34.8996C131.4 34.4996 133.9 36.3996 134.3 40.3996C135.2 48.7996 133.5 54.7996 123.1 56.0996C113 57.2996 103 58.4996 92.5002 57.9996Z" fill="#ECDBED"/>
<path d="M60.4004 9.69922C82.7004 13.8992 104.3 14.1992 126.7 9.8992C125.7 17.1992 124.7 24.5992 123.6 31.9992C123.3 33.9992 121.6 33.3992 120.4 33.4992C103.6 34.1992 86.8004 34.4992 70.0004 33.4992C65.4004 33.1992 62.9004 31.7992 62.6004 26.7992C62.2004 21.0992 61.2004 15.3992 60.4004 9.69922Z" fill="#DBAFC2"/>
<path d="M60 6.90005C66.9 3.20005 74.2 3.20005 81.2 2.80005C94.3 2.10005 107.5 2.10006 120.5 4.60006C122.9 5.10006 126.9 4.60006 127 7.60006C127.1 10.1001 123.3 10.3001 120.9 10.6001C102.7 13.5001 84.5 13.3001 66.3 10.2001C64.3 10.1001 61.9 9.40005 60 6.90005Z" fill="#DCB1C4"/>
<path d="M123.8 33.8L108.2 34.9L107.4 12.8L125.1 9L123.8 33.8Z" fill="#C494AE"/>
<path d="M119 67.9994C119 67.9994 114.7 66.3994 89.8004 65.5994C62.0004 64.6994 63.4004 70.6994 63.4004 70.6994L65.2004 52.8994L92.4004 57.9994L117.6 53.9994L119 67.9994Z" fill="#DBCAE5"/>
<path d="M104.101 63.9998C104.101 63.9998 105.801 72.4998 111.801 81.2998C111.801 81.2998 166.301 164.8 166.301 192.5C166.301 192.5 164.401 198.7 152.701 204.8C152.701 204.8 137.701 212.7 114.601 216.2C105.401 217.6 96.8008 217.9 90.8008 216.1C90.8008 216.1 152.901 216.3 166.901 209.2C166.901 209.2 188.601 207.9 178.601 186.6L164.001 149.8L130.401 90.2998C130.401 90.2998 114.901 67.4998 119.001 61.7998L104.101 63.9998Z" fill="#DBCAE5"/>
<path d="M90.8004 214.6C70.7004 214.3 50.6004 213.6 30.8004 210.4C25.9004 209.6 20.9004 208.7 16.0004 207.5C12.5004 206.6 8.50045 205.2 5.70045 202.9C0.400448 198.5 3.90045 191 5.70045 185.6C11.8004 167.7 19.6004 150.5 28.5004 133.9C37.4004 117.2 47.3004 100.9 57.7004 85.1001C62.4004 78.0001 65.3004 69.8001 64.8004 61.2001C64.7004 60.2001 64.6004 59.2001 64.5004 58.2001C64.5004 57.8001 64.4004 57 64.6004 56.8C64.7004 56.7 65.0004 56.7001 65.3004 56.7001C66.3004 56.6001 67.4004 56.9 68.5004 57C73.6004 57.7 78.7004 58.1 83.8004 58.4C94.0004 58.8 104.2 58.3 114.2 57C115 56.9 117.5 56.2 118.2 56.8C118.8 57.3 118.3 59.8001 118.2 60.6001C117.9 64.8001 118.4 69.1001 119.7 73.2001C122.3 81.8001 128 89.2001 132.7 96.7001C137.7 104.7 142.6 112.8 147.3 121C156.7 137.5 165.2 154.4 171.9 172.2C173.7 176.8 175.3 181.5 176.8 186.2C177.6 188.5 178.3 190.8 179 193.2C179.4 194.7 179.8 196.2 179.8 197.8C179.8 200.3 178.7 202.2 176.7 203.6C173.3 205.9 169.1 207.1 165.2 208.1C155.7 210.6 145.9 211.4 136.2 212.4C126 213.4 115.8 214.3 105.6 214.6C100.7 214.7 95.8004 214.7 90.8004 214.6C88.9004 214.6 88.9004 217.6 90.8004 217.6C101.4 217.8 112.1 217.4 122.7 216.5C133.1 215.7 143.5 214.7 153.8 213.2C158.7 212.5 163.6 211.6 168.3 210.2C172 209.1 176.1 207.8 179.2 205.3C185.1 200.6 182.3 193.1 180.4 187.1C174.4 168.1 166.3 149.8 157 132.2C152.4 123.6 147.6 115.1 142.5 106.8C140 102.6 137.4 98.5 134.8 94.3C132.2 90.1 129.4 86 126.9 81.8C124.6 78 122.8 73.9 121.9 69.5C121.4 67.4 121.2 65.2 121.2 63C121.2 61 121.7 58.9 121.4 56.8C120.9 53.1 117.5 53.4 114.7 53.8C109.4 54.6 104.2 55 98.9005 55.3C88.3005 55.8 77.8004 55.2 67.3004 53.8C65.8004 53.6 64.1004 53.4 62.9004 54.5C61.9004 55.4 61.7004 56.7 61.7004 58C61.8004 60.2 62.1004 62.4001 62.0004 64.6001C61.9004 66.8001 61.6004 68.9 61.1004 71C60.0004 75.2 58.1004 79.2 55.8004 82.9C53.1004 87.1 50.2004 91.2001 47.6004 95.6001C42.5004 104 37.3004 112.4 32.5004 120.9C22.9004 137.8 14.2004 155.3 7.20045 173.5C5.40045 178.1 3.70045 182.8 2.20045 187.5C1.10045 190.9 -0.199557 194.4 0.100443 198C0.800443 205.1 8.10044 208.3 14.1004 210.1C19.0004 211.5 24.2004 212.3 29.2004 213.2C34.4004 214 39.5004 214.7 44.7004 215.3C55.0004 216.4 65.3004 217 75.7004 217.3C80.8004 217.5 85.9004 217.6 91.0004 217.7C92.7004 217.7 92.7004 214.7 90.8004 214.6Z" fill="#9273AA"/>
<path d="M92.5008 54.9993C85.1008 55.3993 77.8008 54.7993 70.4008 53.8993C68.6008 53.6993 66.8008 53.4993 65.0008 53.1993C63.7008 52.9993 62.3008 52.8993 61.0008 52.3993C59.1008 51.5993 57.4008 50.0993 56.3008 48.3993C54.0008 44.8993 53.1008 39.9993 55.2008 36.1993C56.7008 33.5993 59.2008 33.9993 61.8008 34.2993C65.4008 34.6993 69.0008 34.9993 72.6008 35.2993C87.3008 36.3993 102.101 36.1993 116.801 35.4993C120.301 35.2993 123.901 34.9993 127.401 34.7993C129.401 34.6993 131.501 35.0993 132.401 37.1993C133.201 39.0993 133.101 41.5993 133.001 43.5993C132.901 45.2993 132.601 47.0993 131.701 48.5993C128.901 53.4993 121.801 53.2993 117.001 53.7993C108.801 54.6993 100.701 55.3993 92.5008 54.9993C90.6008 54.8993 90.6008 57.8993 92.5008 57.9993C100.501 58.2993 108.501 57.6993 116.501 56.7993C121.901 56.1993 128.701 56.2993 132.801 51.9993C136.001 48.6993 136.301 43.7993 135.901 39.4993C135.701 37.0993 135.001 34.6993 133.001 33.1993C130.601 31.3993 127.501 31.7993 124.701 32.0993C108.601 33.2993 92.3008 33.6993 76.2008 32.5993C72.1008 32.2993 68.0008 31.9993 63.9008 31.5993C61.0008 31.2993 57.7008 30.4993 55.1008 32.1993C50.7008 35.0993 50.5008 42.0993 52.1008 46.4993C53.0008 48.9993 54.5008 51.3993 56.6008 53.1993C59.2008 55.2993 61.9008 55.8993 65.1008 56.2993C74.2008 57.3993 83.4007 58.5993 92.6007 58.0993C94.5007 57.8993 94.5008 54.8993 92.5008 54.9993Z" fill="#9273AA"/>
<path d="M60.0008 10.8001C77.2008 14.0001 94.7008 15.1001 112.101 13.3001C117.101 12.8001 122.101 12.0001 127.101 11.1001C126.501 10.5001 125.901 9.90012 125.301 9.30012C124.801 13.0001 124.301 16.8001 123.701 20.5001C123.501 22.1001 123.201 23.8001 123.001 25.4001C122.701 27.3001 122.201 29.4001 122.201 31.3001C122.201 31.9001 122.301 31.6001 121.901 31.7001C121.501 31.8001 120.901 31.7001 120.501 31.7001C118.701 31.7001 116.901 31.8001 115.101 31.9001C111.401 32.0001 107.701 32.1001 104.001 32.2001C96.7008 32.3001 89.3008 32.4001 82.0008 32.2001C78.4008 32.1001 74.7008 32.0001 71.1008 31.8001C69.2008 31.7001 66.6008 31.7001 65.3008 30.0001C64.7008 29.2001 64.4008 28.2001 64.3008 27.2001C64.0008 25.3001 64.0008 23.3001 63.7008 21.4001C63.2008 17.3001 62.5008 13.2001 61.9008 9.00013C61.8008 8.20013 60.8008 7.80013 60.1008 8.00013C59.2008 8.20013 58.9008 9.00012 59.1008 9.80012C59.7008 13.9001 60.4008 18.0001 60.9008 22.1001C61.2008 25.0001 61.0008 28.4001 62.5008 31.0001C63.6008 32.9001 65.6008 34.0001 67.7008 34.4001C71.1008 35.1001 74.7008 34.9001 78.2008 35.1001C86.3008 35.4001 94.3008 35.4001 102.401 35.3001C106.401 35.2001 110.301 35.1001 114.301 35.0001C116.301 34.9001 118.301 34.8001 120.201 34.8001C121.301 34.8001 122.401 35.0001 123.401 34.6001C125.301 33.9001 125.301 31.9001 125.501 30.2001C125.801 28.1001 126.101 25.9001 126.401 23.8001C127.001 19.2001 127.701 14.7001 128.301 10.1001C128.501 8.90014 127.701 8.00012 126.501 8.30012C109.701 11.5001 92.6008 12.1001 75.7008 10.2001C70.8008 9.70015 65.9008 8.90013 61.0008 8.00013C58.9008 7.50013 58.1008 10.4001 60.0008 10.8001Z" fill="#855F97"/>
<path d="M60.8008 8.1997C68.8008 4.0997 78.3008 4.3997 87.1008 4.0997C96.7008 3.7997 106.301 3.89968 115.801 5.39968C117.801 5.69968 119.801 6.19968 121.801 6.39968C122.701 6.49968 124.601 6.3997 125.301 7.1997C126.701 8.8997 120.401 9.39969 119.601 9.49969C109.901 10.9997 100.101 11.5997 90.2008 11.2997C84.8008 11.0997 79.4008 10.6997 74.0008 10.0997C71.4008 9.7997 68.8008 9.39968 66.2008 8.89968C64.1008 8.49968 62.4008 7.59968 61.1008 5.89968C59.9008 4.39968 57.8008 6.49969 59.0008 7.99969C61.9008 11.6997 66.6008 11.9997 71.0008 12.5997C76.3008 13.3997 81.7008 13.8997 87.1008 14.0997C97.8008 14.5997 108.601 14.0997 119.201 12.4997C121.101 12.1997 123.001 12.0997 124.801 11.5997C126.301 11.1997 127.801 10.4997 128.401 8.89968C128.901 7.29968 128.401 5.5997 127.001 4.5997C125.801 3.6997 124.201 3.49968 122.701 3.39968C120.601 3.19968 118.501 2.69968 116.401 2.39968C113.801 1.99968 111.101 1.69969 108.501 1.49969C103.201 0.999691 97.8008 0.899691 92.5008 0.999691C86.8008 1.09969 81.0008 1.2997 75.3008 1.6997C69.8008 2.0997 64.4008 3.0997 59.4008 5.6997C57.6008 6.4997 59.1008 9.0997 60.8008 8.1997Z" fill="#855F97"/>
<path d="M90.7 187.4L70.5 125.5L93.5 186.4L90.7 187.4Z" fill="#8E73B2"/>
<path d="M64.501 116C70.201 115 75.2009 115.9 78.4009 121.7C78.5009 121.6 78.601 121.5 78.601 121.5C78.701 118.6 79.4009 118.1 81.9009 119.3C84.3009 120.5 85.501 122.9 86.201 125.5C86.501 126.4 86.6009 127.4 86.9009 128.3C87.5009 128.1 88.2009 127.8 88.8009 127.7C91.3009 127.3 92.801 128.6 93.701 131.6C94.501 134.3 94.8009 137.3 95.3009 140.1C95.4009 140.9 95.601 141.7 95.701 142.3C96.501 142.1 97.201 142 97.901 141.9C98.001 142 98.0009 142.1 98.1009 142.2C98.4009 141.4 98.7009 140.7 99.1009 139.9C100.701 136.9 102.701 134.4 106.301 134.5C107.101 134.5 107.901 135 108.501 135.2C110.001 133.2 111.401 130.7 113.301 128.7C114.501 127.4 116.201 126.7 117.801 125.8C118.301 125.6 119.301 125.7 119.601 126.1C119.901 126.5 119.701 127.4 119.701 128.1C119.701 128.3 119.501 128.5 119.601 129C120.001 128.6 120.501 128.1 120.901 127.7C123.601 124.9 126.701 123 130.501 122.5C132.701 122.2 135.001 122.2 137.301 121.9C138.901 121.7 139.501 122.8 139.801 124.1C141.401 131 140.901 137.5 136.801 143.5C137.201 143.2 137.601 142.9 138.001 142.7C138.501 142.5 139.301 142 139.501 142.2C139.901 142.6 140.401 143.4 140.301 144.1C140.201 147 138.901 149.4 137.201 151.5C136.101 152.9 134.701 154.2 133.601 155.3C134.001 156 134.601 156.8 134.701 157.6C135.201 160.6 134.301 163.2 132.101 165.2C129.501 167.5 126.701 169.7 124.001 172C123.901 172.1 123.701 172.2 123.601 172.3C124.601 174.4 124.301 175.4 122.301 177.2C119.901 179.4 117.001 180.3 113.901 181.1C114.101 181.3 114.201 181.5 114.301 181.7C115.301 182.5 115.301 183.6 114.401 184.5C112.201 186.5 109.701 187.2 106.901 187.2C106.801 187.2 106.701 187.3 106.701 187.3C106.701 188.8 105.601 189.2 104.501 189.5C104.001 189.6 103.401 189.6 102.901 189.6C102.001 189.7 101.201 189.8 100.601 190.8C100.401 191.1 99.6009 191.3 99.1009 191.2C96.0009 190.7 93.701 188.8 91.501 186.6C91.101 186.2 90.7009 185.8 90.3009 185.4C88.5009 186.8 86.801 188.3 85.001 189.6C84.201 190.2 83.3009 190.5 82.4009 190.8C81.3009 191.1 80.901 190.3 80.701 189.3C77.101 189.3 76.601 188.6 76.701 187.1C75.401 186.8 73.901 186.8 72.701 186.2C68.901 184.2 69.6009 182.7 71.9009 180.6C70.5009 180 69.101 179.3 67.701 178.7C66.301 178.1 65.401 176.9 64.701 175.5C63.901 173.9 64.201 172.9 65.701 171.8C65.201 171.2 64.701 170.5 64.101 170C62.101 168 60.401 165.8 59.201 163.2C57.901 160.5 58.3009 157.1 59.8009 154.7C60.0009 154.3 60.6009 154.1 60.8009 153.9C60.0009 152.5 59.001 151 58.201 149.4C56.701 146.5 57.201 143.4 57.501 140.3C57.601 139.1 59.101 139 60.501 140.2C59.201 136.4 59.001 132.7 59.601 128.9C60.101 125.1 61.3009 121.6 62.9009 117.9L64.501 116Z" fill="#BDBED3"/>
<path d="M64.6008 116.399C67.1008 115.999 69.7008 115.799 72.1008 116.599C74.8008 117.499 76.7008 119.499 78.1008 121.899C78.3008 122.199 78.6008 122.099 78.7008 121.899C79.3008 121.199 78.7008 119.999 79.4008 119.299C80.2008 118.599 81.9008 119.699 82.6008 120.199C85.2008 122.099 85.8008 125.499 86.5008 128.499C86.5008 128.699 86.8008 128.799 87.0008 128.799C88.4008 128.299 89.9008 127.699 91.3008 128.499C92.5008 129.199 93.1008 130.699 93.4008 131.999C94.4008 135.399 94.7008 138.999 95.3008 142.499C95.3008 142.699 95.6008 142.799 95.8008 142.799C96.5008 142.699 97.3008 142.499 98.0008 142.399C97.9008 142.299 97.7008 142.299 97.6008 142.199C97.7008 142.299 97.7008 142.399 97.8008 142.499C97.9008 142.699 98.3008 142.699 98.4008 142.499C99.3008 140.499 100.301 138.399 101.901 136.799C102.601 136.099 103.501 135.499 104.501 135.199C105.901 134.799 107.001 135.199 108.401 135.699C108.601 135.799 108.701 135.699 108.801 135.499C110.401 133.199 111.801 130.499 113.901 128.699C114.901 127.799 116.101 127.199 117.201 126.599C118.301 126.099 119.201 125.999 119.201 127.499C119.201 127.999 119.001 128.499 119.101 129.099C119.101 129.399 119.501 129.599 119.701 129.399C122.201 126.899 124.601 124.499 128.101 123.499C129.901 122.899 131.801 122.799 133.701 122.699C135.301 122.599 138.101 121.699 138.901 123.599C139.501 125.099 139.701 126.999 139.901 128.699C140.101 130.299 140.101 131.899 139.901 133.599C139.501 137.199 138.201 140.599 136.201 143.499C136.001 143.799 136.401 144.199 136.701 143.999C137.201 143.699 137.601 143.299 138.101 143.099C138.501 142.899 138.701 142.699 139.101 142.899C139.501 143.099 139.601 143.799 139.601 144.199C139.701 145.599 139.101 147.299 138.501 148.499C137.201 151.099 135.101 153.099 133.101 155.099C133.001 155.199 133.001 155.399 133.001 155.599C133.501 156.499 134.001 157.299 134.101 158.399C134.201 159.199 134.101 160.099 133.901 160.899C133.601 162.399 132.701 163.799 131.601 164.799C130.301 165.999 128.901 167.199 127.501 168.399C126.101 169.599 124.701 170.899 123.101 171.999C122.901 172.099 122.901 172.299 123.001 172.499C123.501 173.599 123.701 174.599 123.001 175.599C122.301 176.599 121.201 177.499 120.201 178.099C118.201 179.399 115.801 180.099 113.501 180.699C113.301 180.799 113.101 180.999 113.301 181.299C113.501 181.599 114.201 182.199 114.301 182.499C114.601 183.399 114.201 183.999 113.601 184.499C112.801 185.199 111.901 185.699 110.901 186.099C110.001 186.399 109.101 186.599 108.201 186.699C107.501 186.799 106.801 186.699 106.201 186.899C106.101 186.999 106.001 187.099 106.001 187.199C105.801 189.299 103.601 188.899 102.101 189.099C101.501 189.199 101.001 189.299 100.501 189.699C99.8008 190.299 99.5008 190.799 98.4008 190.599C95.0008 189.999 92.5008 187.399 90.2008 184.999C90.0008 184.799 89.8008 184.899 89.7008 184.999C88.2008 186.199 86.8008 187.399 85.2008 188.499C84.1008 189.399 81.2008 191.399 80.7008 188.899C80.7008 188.699 80.5008 188.599 80.3008 188.599C78.8008 188.599 76.6008 188.799 76.7008 186.799C76.7008 186.599 76.6008 186.499 76.4008 186.399C74.3008 185.999 72.2008 185.899 70.6008 184.199C69.3008 182.799 70.8008 181.499 71.8008 180.499C72.0008 180.299 71.9008 179.999 71.7008 179.899C70.7008 179.399 69.7008 178.999 68.8008 178.499C67.9008 178.099 66.9008 177.799 66.2008 177.099C65.6008 176.499 65.0008 175.699 64.7008 174.899C64.1008 173.599 64.4008 172.599 65.5008 171.699C65.7008 171.499 65.7008 171.299 65.6008 171.099C63.5008 168.499 61.1008 166.299 59.5008 163.299C58.1008 160.599 57.5008 155.599 60.6008 153.799C60.8008 153.699 60.8008 153.499 60.7008 153.299C59.3008 150.999 57.6008 148.699 57.2008 145.999C57.0008 144.699 57.1008 143.399 57.2008 142.099C57.2008 141.499 57.2008 140.899 57.4008 140.299C57.8008 138.699 59.0008 139.399 59.9008 140.099C60.2008 140.299 60.5008 139.999 60.5008 139.699C58.9008 134.899 59.0008 129.899 60.3008 124.999C60.9008 122.799 61.6008 120.599 62.5008 118.399C62.9008 117.299 63.8008 116.799 64.7008 116.099C65.1008 115.799 64.5008 115.299 64.2008 115.599C63.5008 116.099 62.7008 116.599 62.2008 117.299C61.8008 117.799 61.6008 118.699 61.4008 119.299C61.2008 119.899 61.0008 120.499 60.8008 121.099C60.4008 122.399 60.0008 123.699 59.6008 124.999C58.4008 129.899 58.3008 134.999 59.9008 139.899C60.1008 139.799 60.3008 139.599 60.5008 139.499C59.7008 138.899 58.3008 138.199 57.4008 138.999C57.0008 139.399 57.0008 139.899 56.9008 140.399C56.8008 141.399 56.7008 142.299 56.7008 143.299C56.6008 144.999 56.7008 146.799 57.4008 148.499C58.2008 150.399 59.4008 152.099 60.4008 153.799C60.4008 153.599 60.5008 153.499 60.5008 153.299C57.7008 154.999 57.4008 159.499 58.4008 162.299C59.8008 166.099 62.8008 168.799 65.3008 171.799C65.3008 171.599 65.4008 171.399 65.4008 171.199C63.5008 172.699 63.6008 174.399 64.8008 176.299C66.3008 178.699 69.2008 179.499 71.7008 180.599C71.7008 180.399 71.6008 180.199 71.6008 179.999C70.5008 180.999 69.0008 182.499 69.8008 184.099C71.1008 186.499 74.2008 186.699 76.5008 187.199C76.4008 187.099 76.3008 186.999 76.2008 186.799C76.2008 189.299 78.6008 189.399 80.6008 189.399C80.5008 189.299 80.4008 189.199 80.2008 189.099C81.3008 194.199 88.7008 186.799 90.4008 185.499C90.2008 185.499 90.0008 185.499 89.9008 185.499C92.2008 187.799 94.5008 190.199 97.7008 191.099C98.7008 191.399 99.9008 191.599 100.701 190.899C101.301 190.399 101.401 190.099 102.101 189.899C102.501 189.799 103.001 189.799 103.501 189.799C104.101 189.799 104.801 189.699 105.301 189.399C105.701 189.199 106.101 188.999 106.401 188.599C106.701 188.299 106.701 187.599 107.001 187.499C107.501 187.199 108.601 187.299 109.201 187.199C110.001 187.099 110.801 186.799 111.601 186.499C112.801 185.999 114.301 185.199 115.001 184.099C115.901 182.699 114.801 181.899 114.101 180.799C114.001 180.999 114.001 181.199 113.901 181.399C116.801 180.599 119.801 179.699 122.101 177.699C123.001 176.999 124.001 176.099 124.301 174.899C124.601 173.899 124.201 172.999 123.801 172.099C123.801 172.299 123.701 172.399 123.701 172.599C125.401 171.399 127.001 169.899 128.601 168.599C130.201 167.299 132.001 165.999 133.301 164.399C134.201 163.199 134.801 161.799 135.001 160.299C135.101 159.399 135.101 158.499 135.001 157.699C134.801 156.799 134.301 156.099 133.901 155.299C133.901 155.499 133.901 155.599 133.801 155.799C136.501 152.999 139.401 150.299 140.301 146.399C140.601 145.199 140.901 142.999 139.601 142.199C138.701 141.599 137.201 142.899 136.501 143.399C136.701 143.599 136.801 143.699 137.001 143.899C139.201 140.599 140.601 136.899 140.901 132.999C141.001 131.099 140.901 129.099 140.701 127.199C140.501 125.699 140.401 123.799 139.401 122.599C138.401 121.399 136.701 121.899 135.401 121.999C133.201 122.199 131.001 122.199 128.901 122.699C125.001 123.699 122.201 126.199 119.401 128.999C119.601 129.099 119.801 129.199 120.001 129.299C119.901 128.199 120.701 126.499 119.401 125.899C118.101 125.299 116.801 126.299 115.801 126.799C112.301 128.699 110.501 132.199 108.301 135.399C108.401 135.299 108.601 135.299 108.701 135.199C107.401 134.699 106.501 134.299 105.101 134.499C104.001 134.699 103.101 135.099 102.201 135.799C100.101 137.399 98.9008 139.899 97.9008 142.299C98.1008 142.299 98.3008 142.299 98.5008 142.299C98.4008 142.199 98.4008 142.099 98.3008 141.999C98.2008 141.799 98.0008 141.799 97.9008 141.799C97.2008 141.899 96.4008 142.099 95.7008 142.199C95.9008 142.299 96.0008 142.399 96.2008 142.499C95.8008 140.299 95.5008 137.999 95.1008 135.799C94.8008 133.899 94.5008 131.999 93.6008 130.299C93.1008 129.299 92.3008 128.299 91.2008 127.899C89.7008 127.299 88.3008 127.799 86.9008 128.299C87.1008 128.399 87.2008 128.499 87.4008 128.599C86.6008 124.999 85.7008 120.999 82.1008 119.299C81.3008 118.899 80.1008 118.399 79.3008 118.999C79.0008 119.199 78.8008 119.599 78.7008 119.999C78.5008 120.499 78.7008 121.499 78.4008 121.899C78.6008 121.899 78.8008 121.899 79.0008 121.899C77.6008 119.399 75.6008 117.399 72.9008 116.399C70.3008 115.399 67.4008 115.599 64.7008 116.099C63.9008 115.799 64.1008 116.499 64.6008 116.399Z" fill="#8E73B2"/>
<path d="M99.9001 139.2C98.9001 142.1 98.0001 145.1 97.2001 148.1C96.7001 149.7 96.3001 151.4 95.9001 153C95.2001 155.7 94.4 156 92.6 154C91.6 156.4 91.7001 158.9 91.9001 161.4C92.0001 163.2 92.5 165.1 92.6 166.9C92.6 167.6 92.4001 168.6 91.9001 169C91.5001 169.3 90.7 169.1 90.1 168.9C89.4 168.6 88.8 168 88 167.4C88.1 168.4 88.2 169.2 88.3 170.1C88.2 170.1 88.2001 170.1 88.1001 170.1C87.1001 167.8 88.8 180.4 88.9 180.9C89.3 182.3 90.5 183.2 90.3 185.1" fill="#BDBED3"/>
<path d="M99.5001 139.1C98.4001 142.3 97.4001 145.6 96.5001 148.9C96.1001 150.4 95.7001 151.9 95.3001 153.3C95.2001 153.8 95.0001 154.8 94.3001 154.9C93.7001 155 93.1002 154.1 92.7002 153.7C92.5002 153.5 92.2001 153.6 92.1001 153.9C91.1001 156.7 91.2001 159.7 91.5001 162.6C91.7001 164.1 92.1001 165.6 92.1001 167.1C92.1001 167.4 92.0001 168.2 91.8001 168.4C91.4001 168.8 90.6001 168.8 90.1001 168.6C89.4001 168.3 88.7002 167.7 88.1002 167.2C87.9002 167 87.5001 167.3 87.5001 167.5C87.6001 168.4 87.7001 169.3 87.8001 170.2C87.9001 170.1 88.0002 170 88.1002 169.8C88.0002 169.8 88.0001 169.8 87.9001 169.8C88.0001 169.9 88.2001 169.9 88.3001 170C87.9001 169.2 87.4001 169.7 87.3001 170.3C87.2001 171.8 87.5002 173.4 87.7002 174.9C87.9002 176.6 88.1001 178.2 88.3001 179.9C88.6001 181.7 90.0001 183.2 89.8001 185.1C89.8001 185.6 90.5001 185.6 90.6001 185.1C90.7001 183.3 89.5002 182.2 89.2002 180.5C89.0002 179.3 88.9002 178.1 88.7002 176.9C88.5002 175.4 88.3002 173.9 88.2002 172.4C88.2002 171.8 88.1002 171.3 88.1002 170.7C88.1002 170.6 88.2002 170.3 88.1002 170.2C88.0002 170 87.5002 170.1 87.7002 170.4C87.8002 170.6 88.0002 170.6 88.1002 170.6C88.2002 170.6 88.2001 170.6 88.3001 170.6C88.4001 170.6 88.6002 170.4 88.6002 170.2C88.5002 169.3 88.4001 168.4 88.3001 167.5C88.1001 167.6 87.9002 167.7 87.7002 167.8C88.7002 168.5 90.2001 170.1 91.6001 169.5C92.6001 169.1 92.8001 167.6 92.8001 166.7C92.5001 162.4 91.2001 158.3 92.8001 154.1C92.6001 154.2 92.4002 154.2 92.2002 154.3C92.8002 154.9 93.7001 156 94.8001 155.6C95.8001 155.2 96.1001 153.5 96.3001 152.6C97.4001 148.1 98.8001 143.6 100.3 139.3C100.4 138.9 99.7001 138.7 99.5001 139.1Z" fill="#8E73B2"/>
<path d="M90.1006 185.5L130.501 133L92.5006 187.3L90.1006 185.5Z" fill="#8E73B2"/>
<path d="M112.801 155.999L113.301 138.199L113.801 155.999H112.801Z" fill="#8E73B2"/>
<path d="M80.8002 158.199L65.7002 148.899L81.3002 157.299L80.8002 158.199Z" fill="#8E73B2"/>
<path d="M115.801 151.7L133.001 147L116.101 152.7L115.801 151.7Z" fill="#8E73B2"/>
<path d="M76.6006 146.699L85.5006 132.199L77.5006 147.199L76.6006 146.699Z" fill="#8E73B2"/>
<path d="M105.8 166.3L121.1 167.7L105.7 167.3L105.8 166.3Z" fill="#8E73B2"/>
<path d="M98.3008 176.9L98.8008 157.5L99.3008 176.9H98.3008Z" fill="#8E73B2"/>
<path d="M88.7008 185.699L68.8008 122.699L91.6008 184.799L88.7008 185.699Z" fill="#8E73B2"/>
</svg>
