<svg width="179" height="176" viewBox="0 0 179 176" fill="none" xmlns="http://www.w3.org/2000/svg">
<path d="M110.849 41.4232C105.098 43.7607 96.1129 51.9248 92.005 58.5763C90.9562 60.2779 90.8862 60.9998 91.7603 61.0857C92.0574 61.1201 93.7181 60.7076 95.4486 60.1919C99.6265 58.9545 101.165 58.6623 103.42 58.6451L105.29 58.6279L106.549 55.7404C107.23 54.1591 107.825 52.8873 107.86 52.9044C107.877 52.9388 107.633 53.8841 107.3 55.0185C106.391 58.1123 104.871 64.0248 104.364 66.4482C103.944 68.4248 103.857 68.631 103.35 69.0263C98.4203 72.7904 95.099 75.7982 92.879 78.5138C90.6065 81.3154 90.0996 82.6388 90.7988 84.0654C91.568 85.6295 93.753 86.5576 97.826 87.0216C99.2069 87.1763 100.361 87.3138 100.396 87.3482C100.431 87.3826 99.9062 87.9841 99.2244 88.706C97.6861 90.3216 97.0918 91.4388 97.0918 92.7107C97.0918 93.5529 97.1442 93.7076 97.7561 94.292C98.1057 94.6357 98.5252 94.9623 98.665 95.0138C98.8573 95.0826 98.4728 95.5638 97.354 96.7154C94.5746 99.5513 92.3721 102.319 90.9387 104.776C90.4667 105.584 89.75 107.492 89.75 107.939C89.75 108.454 92.3896 110.156 94.9067 111.256C96.1828 111.806 99.137 112.579 100.745 112.786C101.619 112.889 101.672 112.872 101.567 112.579C101.462 112.304 101.217 111.376 100.413 107.956C100.326 107.595 100.273 107.251 100.308 107.234C100.343 107.2 100.728 107.887 101.182 108.764C104.608 115.364 109.346 120.451 115.219 123.872C116.635 124.697 119.309 125.986 119.379 125.883C119.397 125.848 120.026 125.092 120.795 124.198C123.68 120.829 127.455 115.983 128.487 114.367C128.889 113.697 129.081 113.542 129.483 113.542C130.654 113.542 134.325 115.089 135.863 116.223C136.598 116.773 136.405 117.186 135.252 117.564C134.465 117.839 134.395 117.839 134.238 117.547C134.15 117.375 133.731 116.911 133.329 116.515C132.787 115.983 132.385 115.759 131.668 115.604C131.161 115.484 130.584 115.433 130.375 115.45C130.025 115.519 126.616 119.644 125.078 121.844C124.431 122.772 124.449 122.961 125.27 124.233C126.826 126.673 130.165 127.859 133.154 127.034C135.776 126.312 137.542 125.006 138.153 123.339C138.521 122.342 138.555 122.308 139.499 122.015C140.426 121.74 140.478 121.74 140.653 122.015C140.88 122.445 141.492 122.978 142.104 123.304C142.471 123.511 143.048 123.597 143.939 123.579C145.076 123.579 145.408 123.511 146.422 123.012C147.855 122.308 149.358 120.812 149.988 119.472L150.425 118.526L158.151 116.051C162.399 114.676 168.482 112.734 171.646 111.72C176.943 110.036 177.467 109.829 178.061 109.245C178.411 108.901 178.761 108.403 178.83 108.145C178.988 107.526 178.184 105.395 177.484 104.553C176.908 103.865 175.876 103.487 175.055 103.659C174.792 103.711 172.765 104.467 170.562 105.326C157.539 110.397 148.799 113.714 148.502 113.714C148.397 113.714 148.187 113.525 148.03 113.284C147.89 113.061 147.348 112.665 146.859 112.425C145.093 111.565 142.926 111.961 140.006 113.714C139.045 114.281 138.083 114.883 137.874 115.037C137.192 115.501 137.437 115.106 138.468 114.04C139.01 113.473 139.919 112.769 140.478 112.459C141.038 112.167 141.492 111.858 141.492 111.789C141.492 111.669 137.105 107.853 133.923 105.223C132.787 104.295 131.93 103.47 132 103.419C132.07 103.35 132.595 103.006 133.154 102.628C135.794 100.909 136.772 98.3138 135.671 95.9591L135.217 94.9795L136.248 94.0169C138.818 91.6107 140.496 88.156 140.758 84.7357L140.88 83.2576L143.852 81.7623C149.935 78.7201 152.155 76.881 152.155 74.8701C152.155 73.5982 151.648 72.9966 148.834 70.9685C145.548 68.5966 141.51 66.2076 137.122 64.042L134.395 62.7013L133.469 61.1888C128.994 53.9185 122.473 46.7685 116.617 42.7123C113.978 40.8904 112.824 40.6326 110.849 41.4232ZM122.438 75.6435C124.099 76.4857 125.026 79.5966 124.256 81.7794C123.75 83.2748 122.316 84.5294 121.127 84.5294C118.54 84.5294 117.177 80.5763 118.768 77.6373C119.781 75.7638 121.18 75.0076 122.438 75.6435ZM135.671 75.7295C136.982 76.5029 137.979 78.806 137.769 80.542C137.472 83.0341 135.531 84.9591 133.783 84.4951C131.703 83.9451 130.637 80.6279 131.773 78.2044C132.385 76.8982 133.014 76.1591 133.853 75.7466C134.762 75.2998 134.972 75.2998 135.671 75.7295Z" fill="#C5A2D4"/>
<path d="M88.2991 111.686C88.1418 112.287 87.967 113.147 87.8971 113.628C87.8446 114.092 87.5125 115.329 87.1804 116.378C86.2889 119.197 85.9742 121.242 86.2015 122.789C86.4812 124.645 87.3552 126.278 88.8935 127.79C89.5752 128.461 90.2045 129.011 90.2919 129.011C90.3793 129.011 90.4492 129.079 90.4492 129.165C90.4492 129.251 90.0821 129.372 89.6276 129.44C88.9634 129.526 88.5963 129.458 87.9146 129.165C87.3901 128.925 86.5511 128.753 85.7819 128.701C84.7331 128.633 84.401 128.684 83.8066 128.994L83.0899 129.354L82.3558 128.77C78.4576 125.659 73.4058 123.958 68.1616 123.958C62.5504 123.975 57.8831 125.625 53.3207 129.183C52.569 129.767 51.9922 130.265 52.0271 130.317C52.0621 130.351 52.9536 130.3 53.985 130.214C55.1562 130.111 56.5021 130.111 57.551 130.214C58.4774 130.3 59.3864 130.386 59.5612 130.386C60.1031 130.386 59.8759 130.678 59.1592 130.884C57.8831 131.262 54.6667 132.947 53.1809 134.029C51.4853 135.25 49.003 137.587 47.7794 139.083C46.7655 140.337 45 143.07 45 143.379C45 143.792 47.5172 144.204 50.1043 144.204C51.4153 144.222 52.4467 144.273 52.3768 144.342C52.2719 144.445 48.8981 145.442 47.4647 145.803L46.8704 145.94L47.8144 146.456C50.3315 147.831 53.0061 148.622 56.1351 148.965C58.8271 149.24 61.2394 149.034 65.1025 148.158C65.4871 148.072 65.4696 148.123 64.8753 148.673C64.1236 149.344 62.0085 150.461 60.3479 151.079C59.6836 151.337 59.3515 151.526 59.5088 151.595C60.9422 152.094 65.7144 152.197 68.1791 151.784C71.378 151.234 74.8916 149.773 77.5486 147.917C80.9398 145.545 84.2611 141.42 85.3799 138.206C85.6596 137.398 85.712 137.347 86.4287 137.226C87.4775 137.054 88.4739 136.522 89.4878 135.611C90.0996 135.061 90.2569 134.837 90.0122 134.872C89.5228 134.94 88.7012 134.717 88.7012 134.511C88.7012 134.253 89.6801 134.304 90.3968 134.597C90.7289 134.734 91.2358 134.854 91.498 134.854H91.9875L91.6554 135.903C91.4806 136.47 91.3232 137.072 91.3232 137.244C91.3232 137.398 91.0436 137.931 90.6939 138.429C90.187 139.169 90.0821 139.461 90.1346 140.062L90.187 140.784L91.6029 141.248C92.6518 141.592 93.6831 141.781 95.536 141.919C96.917 142.039 98.0882 142.159 98.1231 142.194C98.1756 142.228 97.6337 142.778 96.952 143.414C95.536 144.737 95.2913 145.219 95.536 146.078C95.8682 147.298 100.326 151.767 103.647 154.242C106.706 156.511 108.629 157.147 109.975 156.339C111.705 155.308 111.373 152.609 108.891 147.625L107.79 145.425L108.174 144.995C108.402 144.754 108.996 143.964 109.503 143.225C110.01 142.503 110.552 141.901 110.709 141.901C111.094 141.901 117.142 141.248 117.894 141.128L118.505 141.042L117.771 141.369C117.369 141.558 116.408 141.919 115.639 142.176C114.24 142.64 113.873 142.967 113.873 143.775C113.873 144.342 115.009 145.769 117.194 147.917C121.844 152.506 124.851 154.242 126.599 153.348C128.05 152.609 127.84 150.22 125.952 145.648L125.113 143.62L125.585 143.276C125.847 143.087 126.599 142.125 127.228 141.145L128.399 139.34L129.308 139.169C129.815 139.065 130.934 138.859 131.791 138.704C133.818 138.344 135.898 137.708 136.493 137.244C136.877 136.951 136.947 136.762 136.947 136.04C136.947 134.339 134.954 127.808 134.43 127.808C134.325 127.808 133.853 127.928 133.364 128.083C132.892 128.237 131.86 128.358 131.091 128.375C128.836 128.392 127.001 127.653 125.533 126.106C124.624 125.144 124.204 124.439 124.152 123.7C124.134 123.408 124.064 123.167 124.012 123.184C123.959 123.184 123.103 124.078 122.106 125.161C121.023 126.329 120.166 127.12 119.974 127.12C119.467 127.12 117.631 126.467 115.848 125.659C111.164 123.511 106.549 120.073 104.696 117.323L103.909 116.172L102.039 115.983C99.4866 115.725 97.2142 115.123 94.6445 114.04C92.407 113.095 89.9772 111.754 89.2081 111.033C88.9634 110.809 88.7187 110.62 88.6662 110.62C88.6138 110.62 88.439 111.101 88.2991 111.686Z" fill="#C5A2D4"/>
</svg>
