<svg width="319" height="403" viewBox="0 0 319 403" fill="none" xmlns="http://www.w3.org/2000/svg">
<g filter="url(#filter0_d_490_6007)">
<path d="M213.835 122.043V42.7526H224.244C227.591 42.7526 230.3 40.074 230.3 36.7659V15.1766C230.3 6.80758 223.407 0 214.94 0H104.066C95.5991 0 88.712 6.80758 88.712 15.1766V36.7659C88.712 40.074 91.4219 42.7526 94.7687 42.7526H105.096V122.049C44.4422 144.391 4 201.734 4 266.094C4 317.543 29.875 365.357 73.2207 393.994C74.2073 394.648 75.3811 395 76.58 395H242.345C243.538 395 244.705 394.654 245.698 394C289.094 365.455 315 317.642 315 266.094C315.006 201.722 274.533 144.379 213.835 122.043ZM100.819 15.1766C100.819 13.4115 102.274 11.9673 104.066 11.9673H214.947C216.739 11.9673 218.193 13.4053 218.193 15.1766V30.7791H100.819V15.1766ZM245.847 375.644C93.3113 402.177 16.7315 365.66 16.1071 266.094C16.1071 205.425 55.0882 151.507 113.107 131.93C115.555 131.103 117.203 128.826 117.203 126.264V42.7526H201.728V126.264C201.728 128.826 203.376 131.103 205.83 131.93C263.887 151.495 302.893 205.412 302.893 266.094C302.893 313.025 284.953 349.216 245.847 375.644Z" fill="url(#paint0_linear_490_6007)"/>
</g>
<path d="M135.423 101.326C125.024 104.242 120.486 94.802 117.2 85.7571C116.931 87.1898 116.641 88.5945 116.641 90.3096C116.641 95.9812 112.592 101.159 112.592 107.174C112.592 111.325 112.179 114.113 110.006 117.68C108.031 120.919 107.446 130.172 101.964 130.172C100.09 130.172 96.3236 132.173 95.4414 133.806C94.1768 136.147 92.3782 136.488 91.1115 138.349C88.0016 142.917 80.2309 143.317 76.6036 146.98C73.4907 150.124 67.6867 151.034 64.9072 154.192C61.9649 157.534 54.5118 156.171 52.6486 161.063C49.3936 169.609 44.3994 177.42 40.7273 185.764C37.1323 193.932 26.6641 199 20.7086 205.013C11.4018 214.412 9.3497 222.753 9.3497 236.245C9.3497 241.578 8.60182 246.111 9.29347 251.349C10.0468 257.055 9.3497 263.419 9.3497 269.179C9.3497 278.37 10.171 288.487 11.599 297.572C12.0996 300.756 13.9254 303.43 14.8042 306.487C15.5376 309.037 15.4027 311.677 16.435 314.152C17.4004 316.468 19.1108 318.424 19.5278 320.739C20.2805 324.92 22.8514 327.61 24.7574 331.074C26.744 334.685 29.7338 338.049 32.0676 341.522C38.3659 350.895 44.7512 362.762 54.8979 368.325C64.4469 373.559 73.6348 380.522 84.2512 383.202C99.5798 387.072 117.966 384.678 133.679 384.678C150.023 384.678 166.388 387.523 182.433 390.016C192.499 391.58 203.033 390.811 213.248 390.811C220.844 390.811 226.337 390.693 233.492 388.767C239.666 387.104 244.055 379.636 249.687 378.602C253.481 377.906 256.129 373.998 259.359 372.186C261.587 370.936 268.916 367.307 269.93 365.258C271.891 361.299 273.442 356.018 276.341 352.766C279.722 348.972 284.036 345.907 288.656 343.283C295.624 339.325 298.77 328.862 301.87 321.818C302.665 320.012 304.395 318.355 305.469 316.651C306.984 314.247 306.961 311.491 307.718 308.815C309.222 303.5 307.937 297.455 309.18 292.12C311.322 282.928 310.98 273.695 310.98 264.069V246.693C310.98 241.911 308.64 238.954 308 234.428C306.847 226.284 299.941 220.709 297.878 213.418C296.615 208.955 292.457 207.93 290.511 204.218C288.511 200.403 286.936 196.023 284.663 192.294C282.728 189.118 280.323 183.277 279.546 179.745C278.662 175.729 276.523 172.758 274.766 169.012C270.498 159.914 268.328 152.383 259.921 146.98C252.223 142.033 242.331 141.424 235.516 135.794C232.634 133.412 228.263 132.642 224.944 130.967C221.07 129.011 217.578 126.736 213.81 124.834C205.95 120.866 208.193 111.667 202.452 105.868C200.16 103.554 195.613 104.776 193.004 102.518C191.074 100.848 192.191 98.2126 190.53 96.4423C187.58 93.297 186.021 89.6791 183.445 86.3347C177.193 78.2173 159.098 84.3288 152.573 88.89C147.263 92.6024 141.791 99.5394 135.423 101.326Z" fill="url(#paint1_linear_490_6007)"/>
<defs>
<filter id="filter0_d_490_6007" x="0" y="0" width="319" height="403" filterUnits="userSpaceOnUse" color-interpolation-filters="sRGB">
<feFlood flood-opacity="0" result="BackgroundImageFix"/>
<feColorMatrix in="SourceAlpha" type="matrix" values="0 0 0 0 0 0 0 0 0 0 0 0 0 0 0 0 0 0 127 0" result="hardAlpha"/>
<feOffset dy="4"/>
<feGaussianBlur stdDeviation="2"/>
<feComposite in2="hardAlpha" operator="out"/>
<feColorMatrix type="matrix" values="0 0 0 0 0 0 0 0 0 0 0 0 0 0 0 0 0 0 0.25 0"/>
<feBlend mode="normal" in2="BackgroundImageFix" result="effect1_dropShadow_490_6007"/>
<feBlend mode="normal" in="SourceGraphic" in2="effect1_dropShadow_490_6007" result="shape"/>
</filter>
<linearGradient id="paint0_linear_490_6007" x1="159.5" y1="0" x2="159.5" y2="395" gradientUnits="userSpaceOnUse">
<stop stop-color="#B296AE"/>
<stop offset="1" stop-color="#854289"/>
</linearGradient>
<linearGradient id="paint1_linear_490_6007" x1="160" y1="76" x2="160" y2="391" gradientUnits="userSpaceOnUse">
<stop stop-color="#B296AE"/>
<stop offset="1" stop-color="#854289"/>
</linearGradient>
</defs>
</svg>
