<svg width="39" height="55" viewBox="0 0 39 55" fill="none" xmlns="http://www.w3.org/2000/svg">
<path d="M26.6206 38.5312H11.8641V41.7019H26.6206V38.5312ZM34.1797 21.1981H4.305V24.9074C4.305 27.6596 5.02635 30.2297 6.26212 32.38C7.45859 34.4616 9.13827 36.1526 11.1116 37.2416C11.1671 37.2218 11.2249 37.2112 11.2861 37.2112H27.1986C27.2587 37.2112 27.3177 37.2218 27.372 37.2416C29.3476 36.1526 31.0284 34.4603 32.2237 32.38C33.4584 30.2284 34.1797 27.6596 34.1797 24.9074V21.1981ZM4.305 19.8781H34.1797V18.2862H4.305V19.8781ZM4.29228 4.6795C4.9986 3.87297 5.97427 3.37401 7.05167 3.37401C8.12792 3.37401 9.10359 3.87297 9.80991 4.6795C10.5174 5.48867 10.9555 6.60144 10.9555 7.83037C10.9555 9.0395 10.5313 10.1378 9.84459 10.9416L9.81222 10.9812C9.1059 11.7878 8.13023 12.2867 7.05283 12.2867C5.97543 12.2867 4.9986 11.7878 4.29344 10.9812C3.58827 10.1721 3.15015 9.0593 3.15015 7.83037C3.15015 6.60012 3.58712 5.48471 4.29344 4.6795H4.29228ZM14.2282 3.1496C14.6894 2.62292 15.3252 2.29688 16.0258 2.29688C16.7275 2.29688 17.3644 2.6216 17.8245 3.14696C18.2846 3.67497 18.569 4.40098 18.569 5.2009C18.569 6.00215 18.2846 6.72948 17.8245 7.25484C17.3644 7.78021 16.7275 8.10493 16.0258 8.10493C15.3426 8.10493 14.7206 7.79473 14.264 7.29181L14.2282 7.25353C13.7681 6.72816 13.4837 6.00083 13.4837 5.19958C13.4837 4.39966 13.7692 3.67365 14.2305 3.14696L14.2282 3.1496ZM20.2614 9.93975C20.7249 9.41043 21.3607 9.0857 22.0601 9.0857C22.7595 9.0857 23.3942 9.41043 23.8566 9.93711C24.319 10.4651 24.6033 11.1911 24.6033 11.9911C24.6033 12.7923 24.319 13.5196 23.8589 14.045C23.3965 14.5704 22.7618 14.8951 22.0601 14.8951C21.3769 14.8951 20.7561 14.5849 20.2984 14.082L20.2625 14.0437C19.8024 13.5183 19.5181 12.791 19.5181 11.9897C19.5181 11.1911 19.8024 10.4664 20.2625 9.93975H20.2614ZM30.284 16.9649L33.1266 10.6433C33.2052 10.4678 33.3439 10.349 33.5 10.3054C33.841 10.2051 34.1658 10.0242 34.4444 9.77079C34.7149 9.52527 34.945 9.21374 35.1103 8.84414C35.4247 8.14453 35.4606 7.36309 35.2652 6.67008C35.0698 5.97575 34.6433 5.36723 34.0317 5.00818C33.4179 4.64914 32.7347 4.6069 32.1266 4.82998C31.5186 5.05306 30.9857 5.54015 30.6712 6.23843C30.5036 6.61068 30.4146 7.00668 30.3973 7.40005C30.3799 7.80529 30.4412 8.21185 30.5707 8.58806C30.64 8.7887 30.6169 9.0065 30.5244 9.17678L27.0229 16.9649H30.2828H30.284Z" fill="#9444B6"/>
</svg>
