<svg width="50" height="30" viewBox="0 0 50 30" fill="none" xmlns="http://www.w3.org/2000/svg">
<path fill-rule="evenodd" clip-rule="evenodd" d="M40.1369 23.4209C45.2878 20.3201 50 10.4679 50 10.4679C35.4001 7.59419 28.3602 15.188 25.1853 24.6092C24.6445 22.2326 23.3719 20.4609 24.1737 18.3334C22.7838 17.3609 22.8443 15.1492 23.8522 13.5521C25.7337 10.573 28.7365 11.323 30.8676 8.32919C31.6636 7.21127 31.3705 5.4221 29.8446 5.06377C28.9804 4.86168 28.2751 5.16127 27.9858 5.93419C28.2713 5.72835 28.6495 5.6546 29.0107 5.76627C29.5987 5.94752 29.9183 6.56002 29.7217 7.13211C29.525 7.70461 28.8859 8.02086 28.2978 7.83961C26.1421 7.17377 27.4506 3.8921 29.9977 4.48835C31.9605 4.94752 32.4011 7.21419 31.3705 8.66003C29.1147 11.8275 27.1424 10.8092 25.3971 13.5725C24.4535 15.073 24.0375 16.3217 24.5102 17.4101C25.1116 15.7359 29.8389 15.6567 32.6904 12.0284C35.4984 8.45419 35.8123 0 35.8123 0C24.3911 1.48625 21.4885 8.52961 21.9859 16.0701C18.2267 9.5142 11.5309 5.17168 0 7.20086C0 7.20086 4.45882 17.1451 9.5284 20.3459C14.6736 23.5967 20.3389 21.9151 21.8629 23.6842C21.9008 22.2109 20.804 20.8767 18.9547 19.4492C15.5453 16.8126 13.6847 18.7659 9.46978 15.8421C7.5486 14.5075 6.97564 11.643 9.0916 10.3604C11.8353 8.69586 14.98 12.1088 12.7335 13.7117C12.119 14.1492 11.2075 14.0113 10.6951 13.405C10.1846 12.7975 10.2678 11.9471 10.8842 11.5092C11.2586 11.2417 11.7446 11.1896 12.1814 11.3259C11.4666 10.5163 10.4814 10.4234 9.55109 10.9888C7.90598 11.9846 8.42032 14.2267 9.91037 15.2596C13.8927 18.0234 17.1073 16.0009 20.7851 18.8434C22.7574 20.3701 23.8976 22.9767 22.712 24.6551C24.2153 26.3368 23.6612 26.5659 23.8579 29.6501C23.7028 30.4276 24.4857 29.9976 26.8455 27.4634C25.7034 25.7626 26.9098 23.1767 28.9199 21.6917C32.6715 18.9251 35.8331 21.0101 39.8835 18.3284C41.4 17.3242 41.973 15.095 40.3525 14.0642C39.4373 13.4817 38.4502 13.5538 37.7146 14.3484C38.1552 14.2213 38.6393 14.2838 39.008 14.5592C39.6112 15.0096 39.6717 15.8592 39.1461 16.4567C38.6204 17.0534 37.7052 17.1717 37.1001 16.7217C34.899 15.0759 38.1287 11.7271 40.829 13.4438C42.909 14.7692 42.2661 17.6217 40.3109 18.9167C36.0203 21.7567 34.2126 19.7659 30.7352 22.3334C28.848 23.7259 27.7173 25.0367 27.7173 26.5118C29.2848 24.7717 34.9066 26.5659 40.1369 23.4209Z" fill="#9444B6"/>
</svg>
