<svg width="38" height="39" viewBox="0 0 38 39" fill="none" xmlns="http://www.w3.org/2000/svg">
<path d="M19.0004 0.76709C8.63936 0.76709 0.210938 9.14606 0.210938 19.4463C0.210938 22.8086 1.11017 25.9507 2.67369 28.6792C2.67817 28.6836 2.6804 28.6881 2.6804 28.6926C2.70056 28.7393 2.72739 28.7793 2.76093 28.826L2.76765 28.8327C6.02224 34.3831 12.0751 38.1256 19.0004 38.1256C25.9257 38.1256 31.9786 34.3831 35.2332 28.8327L35.2399 28.826C35.2734 28.7793 35.3003 28.7393 35.3204 28.6926C35.3204 28.6881 35.3227 28.6836 35.3271 28.6792C36.8907 25.9507 37.7899 22.8086 37.7899 19.4463C37.7899 9.14606 29.3615 0.76709 19.0004 0.76709ZM34.5219 27.3583C31.0659 24.3229 25.2211 22.4683 19.0004 22.4683C12.7797 22.4683 6.9349 24.3229 3.47896 27.3583C2.25092 24.9834 1.55304 22.2949 1.55304 19.4463C1.55304 9.87987 9.3775 2.10132 19.0004 2.10132C28.6233 2.10132 36.4478 9.87987 36.4478 19.4463C36.4478 22.2949 35.7499 24.9834 34.5219 27.3583Z" fill="white"/>
<path d="M19 20.6875C22.2619 20.6875 24.9062 17.9173 24.9062 14.5C24.9062 11.0827 22.2619 8.3125 19 8.3125C15.7381 8.3125 13.0938 11.0827 13.0938 14.5C13.0938 17.9173 15.7381 20.6875 19 20.6875Z" fill="white"/>
</svg>
