<svg width="47" height="60" viewBox="0 0 47 60" fill="none" xmlns="http://www.w3.org/2000/svg">
<path fill-rule="evenodd" clip-rule="evenodd" d="M39.2428 2.61137L37.934 11.5483L45.9203 16.6145C47.7544 17.7755 47.1285 20.4177 44.9727 20.7784L35.4628 22.3789L32.7623 31.0308C32.1445 33.0138 29.2575 33.2771 28.2214 31.4801L28.2182 31.4816L25.0174 25.9226L4.6333 58.8405C3.01158 61.4655 -1.25749 59.169 0.359401 56.5508L20.7507 23.6217L13.9775 23.8174C11.7758 23.8774 10.611 21.4002 12.1321 19.9242L12.1305 19.9227L18.8161 13.4165L15.5461 4.93484C14.8004 2.99761 16.9667 1.20213 18.9383 2.09012L18.9399 2.08637L27.6454 6.00508L35.2874 0.483639C37.0547 -0.790598 39.5267 0.638888 39.2428 2.61137Z" fill="#9444B6"/>
</svg>
