<svg width="98" height="61" viewBox="0 0 98 61" fill="none" xmlns="http://www.w3.org/2000/svg">
<path d="M45.3808 0.194479C38.3296 2.85196 32.8729 7.24566 28.4083 14.1197C19.5501 15.0764 11.5776 18.0882 5.27053 24.289C4.84534 24.7142 4.9162 25.5291 5.4477 25.8835L8.24691 27.5842C5.4477 30.2063 2.01069 33.7142 0.097304 37.4701C-0.150728 37.9661 0.097304 38.6394 0.593367 38.852L52.6091 59.9346C53.0343 60.1118 53.4949 59.9701 53.7784 59.6512C61.7508 50.0488 70.9989 41.3323 79.68 37.0449C79.7863 37.0094 79.8926 36.9031 79.9989 36.7968C85.3138 30.6669 89.6012 26.2378 97.5028 21.915C98.1052 21.5961 98.176 20.6039 97.6091 20.2142L89.6367 14.2614C89.5304 14.1905 89.4241 14.1551 89.3532 14.1197L46.302 0.0527468C45.9123 -0.0889855 45.6997 0.0881799 45.3808 0.194479ZM46.054 2.07243L86.7312 15.3953C81.7351 19.0803 77.9792 23.6512 75.4989 29.7811L30.4989 14.474C34.6445 8.30865 39.6406 4.51731 46.054 2.07243ZM28.869 16.0331L71.6721 30.6315C63.5225 32.1551 58.0304 35.9464 52.7508 41.8638L7.89258 24.6787C13.7036 19.5055 20.7902 16.848 28.869 16.0331ZM91.3375 18.0173L92.365 18.7614C86.8375 22.4819 81.5579 26.8401 78.617 32.6512L78.1564 32.0842C83.1879 24.6433 85.491 22.2339 91.3375 18.0173ZM7.99888 30.5961L53.6012 49.9425C54.0264 50.1197 54.5934 49.9425 54.8414 49.5173C61.1839 39.2417 68.2705 36.3008 76.5619 33.289L76.7745 33.5724C67.3847 37.1866 59.4123 44.3441 53.7075 51.8205L6.29809 32.3677C6.86502 31.7299 7.43195 31.163 7.99888 30.5961ZM3.03825 36.6197L53.4595 56.9583C53.2115 57.2417 52.9634 57.5252 52.7154 57.8087L2.50675 37.4701C2.64849 37.1866 2.86108 36.9031 3.03825 36.6197Z" fill="#9444B6"/>
</svg>
