<svg width="833" height="675" viewBox="0 0 833 675" fill="none" xmlns="http://www.w3.org/2000/svg">
<g filter="url(#filter0_d_1676_4924)">
<path d="M447.686 286.584C435.782 286.584 424.165 286.584 412.085 286.584C412.085 288.473 412.085 290.392 412.085 292.302C412.078 300.877 407.946 306.728 399.842 309.435C386.324 313.947 374.512 321.09 364.775 331.746C356.3 341.04 350.481 351.752 347.433 363.953C343.879 378.179 342.886 392.5 347.343 406.734C351.578 420.27 360.119 430.771 370.78 439.669C372.92 441.451 375.141 443.138 377.405 444.74C381.823 447.874 383.409 451.8 382.018 456.501C380.781 460.683 376.617 463.285 371.921 463.382C360.362 463.382 262.483 463.088 232.293 463.072C229.805 463.07 228.887 462.844 227.461 462.615C225.813 462.072 225.924 461.842 225.924 461.842C225.34 460.409 224.528 460.508 224.014 459.702C223.432 458.793 223.027 458.728 222.851 455.112C224.273 453.384 227.807 450.816 228.39 447.674C230.391 447.08 225.745 449.11 226.969 448.446C226.997 448.428 227.301 448.135 227.966 447.864C228.227 447.756 228.39 447.38 228.699 447.183C231.137 445.652 235.425 443.017 235.686 442.747C237.149 441.236 238.441 439.801 239.608 438.437C242.41 435.167 274.965 369.623 304.27 307.572C341.199 229.376 384.883 141.467 393.765 129.557C395.476 127.254 398.705 124.871 400.64 124.19C408.509 121.419 413.787 122.099 415.34 122.099C425.261 122.099 432.767 122.099 442.089 122.142C448.238 122.232 453.349 122.101 459.168 122.101C461.543 122.101 465.531 123.618 467.418 124.882C471.941 127.903 474.998 133.054 477.561 138.4C481.846 147.342 599.39 395.743 621.052 435.915C622.702 438.975 624.148 440.418 624.592 440.863C631.144 446.307 629.477 444.827 633.538 446.624C636.787 448.066 637.884 451.123 637.81 455.076C637.367 461.918 635.643 462.919 632.726 463.383C627.545 463.383 622.147 463.378 617.477 463.383C595.855 463.421 509.232 463.168 487.624 463.383C485.337 463.406 482.755 463.714 481.05 462.615C479.873 461.858 479.202 461.036 478.444 459.923C476.697 457.374 476.357 452.975 477.748 449.828C478.66 447.782 480.604 446.012 482.453 444.61C496.404 434.012 506.788 420.744 511.925 403.728C520.144 376.538 511.239 341.917 486.639 323.708C478.779 317.891 470.569 312.883 461.264 310.142C452.79 307.637 446.934 300.966 447.644 291.113C447.77 289.71 447.686 288.301 447.686 286.584ZM429.99 230.246C423.711 230.246 417.43 230.23 411.153 230.253C405.578 230.274 401.574 234.306 401.559 239.891C401.545 247.373 401.805 254.867 401.472 262.331C401.242 267.449 404.796 272.666 411.273 272.743C423.551 272.877 435.837 272.939 448.121 272.771C454.734 272.682 458.201 268.748 458.201 262.115C458.201 254.726 458.227 247.334 458.198 239.95C458.181 234.554 453.924 230.281 448.553 230.261C442.37 230.228 436.181 230.246 429.99 230.246Z" fill="#E8E3DE"/>
<path d="M595.19 454.503C595.182 463.066 598.701 461.769 603.025 461.769C607.351 461.769 610.859 458.758 610.859 454.503C610.859 450.248 607.351 446.802 603.025 446.802C598.698 446.794 595.19 450.248 595.19 454.503Z" fill="#E8E3DE"/>
<path d="M222.851 454.503C222.844 463.067 225.774 462.688 231.304 461.842C235.629 461.842 238.519 458.758 238.519 454.503C238.519 450.248 235.628 446.826 231.304 446.826C226.978 446.818 222.851 450.248 222.851 454.503Z" fill="#E8E3DE"/>
</g>
<defs>
<filter id="filter0_d_1676_4924" x="-4" y="0" width="841" height="683" filterUnits="userSpaceOnUse" color-interpolation-filters="sRGB">
<feFlood flood-opacity="0" result="BackgroundImageFix"/>
<feColorMatrix in="SourceAlpha" type="matrix" values="0 0 0 0 0 0 0 0 0 0 0 0 0 0 0 0 0 0 127 0" result="hardAlpha"/>
<feOffset dy="4"/>
<feGaussianBlur stdDeviation="2"/>
<feComposite in2="hardAlpha" operator="out"/>
<feColorMatrix type="matrix" values="0 0 0 0 0 0 0 0 0 0 0 0 0 0 0 0 0 0 0.25 0"/>
<feBlend mode="normal" in2="BackgroundImageFix" result="effect1_dropShadow_1676_4924"/>
<feBlend mode="normal" in="SourceGraphic" in2="effect1_dropShadow_1676_4924" result="shape"/>
</filter>
</defs>
</svg>
