<svg width="65" height="54" viewBox="0 0 65 54" fill="none" xmlns="http://www.w3.org/2000/svg">
<path d="M35.2119 25.9327C33.3475 25.9327 31.5281 25.9327 29.6363 25.9327C29.6363 26.2305 29.6363 26.5328 29.6363 26.834C29.6353 28.1852 28.9881 29.1073 27.719 29.5339C25.6018 30.245 23.7519 31.3706 22.227 33.05C20.8998 34.5145 19.9884 36.2026 19.5111 38.1254C18.9544 40.3672 18.7989 42.6241 19.4969 44.8673C20.1603 47.0005 21.4979 48.6553 23.1674 50.0575C23.5026 50.3383 23.8505 50.6041 24.205 50.8566C24.8969 51.3506 25.1454 51.9693 24.9275 52.71C24.7338 53.3691 24.0817 53.7792 23.3461 53.7944C21.5359 53.7944 6.20696 53.7481 1.47879 53.7455C1.08922 53.7453 0.971537 53.6371 0.739497 53.6373C0.534439 53.6375 0.485457 53.4622 0.423192 53.463C0.331663 53.2372 0.262758 53.3414 0.182229 53.2146C0.0911152 53.0712 0.027604 53.061 0 52.4912C0.2227 52.2188 0.776234 51.8141 0.867556 51.319C1.18095 51.2254 0.453287 51.5453 0.645062 51.4406C0.649421 51.4379 0.696949 51.3916 0.801139 51.3489C0.842026 51.332 0.867556 51.2727 0.915915 51.2417C1.29781 51.0004 1.96923 50.5851 2.01011 50.5426C2.23925 50.3045 2.44161 50.0782 2.62446 49.8634C3.06321 49.3481 8.16165 39.019 12.7512 29.2403C18.5347 16.9174 25.3762 3.06381 26.7672 1.18691C27.0351 0.824047 27.5409 0.448499 27.8439 0.341078C29.0764 -0.0955817 29.9028 0.0116276 30.1461 0.0116276C31.6998 0.0116276 32.8753 0.0116271 34.3352 0.0183938C35.2983 0.0325614 36.0988 0.0118406 37.0101 0.0118406C37.382 0.0118406 38.0066 0.250999 38.3021 0.450192C39.0105 0.926183 39.4893 1.73797 39.8907 2.58042C40.5617 3.98957 58.9704 43.1352 62.363 49.4658C62.6214 49.9482 62.8479 50.1755 62.9174 50.2457C63.9435 51.1036 63.6824 50.8703 64.3184 51.1535C64.8273 51.3808 64.9991 51.8625 64.9875 52.4855C64.9182 53.5637 64.6482 53.7214 64.1913 53.7946C63.3798 53.7946 62.5345 53.7937 61.8031 53.7946C58.4169 53.8005 44.8507 53.7607 41.4666 53.7946C41.1084 53.7982 40.7819 53.6958 40.5148 53.5227C40.3305 53.4034 40.1476 53.4247 40.0289 53.2492C39.7554 52.8477 39.702 52.1543 39.9199 51.6584C40.0627 51.336 40.3672 51.0571 40.6567 50.8361C42.8416 49.166 44.468 47.0751 45.2724 44.3936C46.5596 40.1086 45.1649 34.6528 41.3124 31.7831C40.0814 30.8665 38.7957 30.0773 37.3382 29.6453C36.0112 29.2505 35.094 28.1993 35.2053 26.6466C35.225 26.4254 35.2119 26.2034 35.2119 25.9327ZM32.4405 17.0545C31.4571 17.0545 30.4734 17.0519 29.4904 17.0555C28.6173 17.0589 27.9902 17.6943 27.9878 18.5744C27.9857 19.7535 28.0264 20.9345 27.9743 22.1108C27.9382 22.9173 28.4948 23.7395 29.5091 23.7515C31.432 23.7727 33.3562 23.7824 35.28 23.756C36.3157 23.742 36.8586 23.122 36.8586 22.0768C36.8586 20.9123 36.8628 19.7474 36.8582 18.5837C36.8555 17.7335 36.1888 17.06 35.3476 17.0568C34.3792 17.0517 33.41 17.0545 32.4405 17.0545Z" fill="#854289"/>
</svg>
