<svg width="131" height="84" viewBox="0 0 131 84" fill="none" xmlns="http://www.w3.org/2000/svg">
<path d="M71.2119 25.9327C69.3475 25.9327 67.5281 25.9327 65.6363 25.9327C65.6363 26.2305 65.6363 26.5328 65.6363 26.834C65.6353 28.1852 64.9881 29.1073 63.719 29.5339C61.6018 30.245 59.7519 31.3706 58.227 33.05C56.8998 34.5145 55.9884 36.2026 55.5111 38.1254C54.9544 40.3672 54.7989 42.6241 55.4969 44.8673C56.1603 47.0005 57.4979 48.6553 59.1674 50.0575C59.5026 50.3383 59.8505 50.6041 60.205 50.8566C60.8969 51.3506 61.1454 51.9693 60.9275 52.71C60.7338 53.3691 60.0817 53.7792 59.3461 53.7944C57.5359 53.7944 42.207 53.7481 37.4788 53.7455C37.0892 53.7453 36.9715 53.637 36.7395 53.6373C36.5344 53.6375 36.4855 53.4622 36.4232 53.463C36.3317 53.2372 36.2628 53.3414 36.1822 53.2146C36.0911 53.0712 36.0276 53.061 36 52.4912C36.2227 52.2188 36.7762 51.8141 36.8676 51.319C37.181 51.2254 36.4533 51.5453 36.6451 51.4406C36.6494 51.4379 36.6969 51.3916 36.8011 51.3489C36.842 51.332 36.8676 51.2727 36.9159 51.2417C37.2978 51.0004 37.9692 50.5851 38.0101 50.5426C38.2392 50.3045 38.4416 50.0782 38.6245 49.8634C39.0632 49.3481 44.1617 39.019 48.7512 29.2403C54.5347 16.9174 61.3762 3.06381 62.7672 1.18691C63.0351 0.824047 63.5409 0.448499 63.8439 0.341078C65.0764 -0.0955817 65.9028 0.0116276 66.1461 0.0116276C67.6998 0.0116276 68.8753 0.0116271 70.3352 0.0183938C71.2983 0.0325614 72.0988 0.0118406 73.0101 0.0118406C73.382 0.0118406 74.0066 0.250999 74.3021 0.450192C75.0105 0.926183 75.4893 1.73797 75.8907 2.58042C76.5617 3.98957 94.9704 43.1352 98.363 49.4658C98.6214 49.9482 98.8479 50.1755 98.9174 50.2457C99.9435 51.1036 99.6824 50.8703 100.318 51.1535C100.827 51.3808 100.999 51.8625 100.987 52.4855C100.918 53.5637 100.648 53.7214 100.191 53.7946C99.3798 53.7946 98.5345 53.7937 97.8031 53.7946C94.4169 53.8005 80.8507 53.7607 77.4666 53.7946C77.1084 53.7982 76.7819 53.6958 76.5148 53.5227C76.3305 53.4034 76.1476 53.4247 76.0289 53.2492C75.7554 52.8477 75.702 52.1543 75.9199 51.6584C76.0627 51.336 76.3672 51.0571 76.6568 50.8361C78.8416 49.166 80.468 47.0751 81.2724 44.3936C82.5596 40.1086 81.1649 34.6528 77.3124 31.7831C76.0814 30.8665 74.7957 30.0773 73.3382 29.6453C72.0112 29.2505 71.094 28.1993 71.2053 26.6466C71.225 26.4254 71.2119 26.2034 71.2119 25.9327ZM68.4405 17.0545C67.4571 17.0545 66.4734 17.0519 65.4904 17.0555C64.6173 17.0589 63.9902 17.6943 63.9878 18.5744C63.9857 19.7535 64.0264 20.9345 63.9743 22.1108C63.9382 22.9173 64.4948 23.7395 65.5091 23.7515C67.432 23.7727 69.3562 23.7824 71.28 23.756C72.3157 23.742 72.8586 23.122 72.8586 22.0768C72.8586 20.9123 72.8628 19.7474 72.8582 18.5837C72.8555 17.7335 72.1888 17.06 71.3476 17.0568C70.3792 17.0517 69.41 17.0545 68.4405 17.0545Z" fill="#E8E3DE"/>
<path d="M94.3127 52.6384C94.3115 53.9879 94.8625 53.7834 95.5398 53.7834C96.2172 53.7834 96.7666 53.3089 96.7666 52.6384C96.7666 51.9678 96.2172 51.4248 95.5398 51.4248C94.8621 51.4235 94.3127 51.9678 94.3127 52.6384Z" fill="#E8E3DE"/>
<path d="M36 52.6384C35.999 53.9879 36.5496 53.7834 37.227 53.7834C37.9045 53.7834 38.4539 53.3089 38.4539 52.6384C38.4539 51.9678 37.9043 51.4248 37.227 51.4248C36.5496 51.4235 36 51.9678 36 52.6384Z" fill="#E8E3DE"/>
<path d="M9.03958 61.0776L14.8381 74.3635C15.1926 75.1374 15.4751 75.7179 15.6863 76.1049C15.8972 76.4918 16.0998 76.754 16.294 76.8917C16.4879 77.0296 16.7118 77.1239 16.965 77.1755C17.0323 77.3994 17.079 77.6398 17.1043 77.8978C17.1296 78.1558 17.1423 78.4398 17.1423 78.7491C16.8721 78.7145 16.5176 78.6929 16.0788 78.6844C15.6396 78.6758 15.1965 78.6715 14.7495 78.6715C14.302 78.6715 13.9431 78.6715 13.6733 78.6715C13.4708 78.6715 13.2005 78.6715 12.8631 78.6715C12.5252 78.6715 12.1707 78.6758 11.7996 78.6844C11.4281 78.6929 11.0779 78.7014 10.7487 78.7102C10.4196 78.7187 10.162 78.7318 9.97646 78.7491C9.97646 78.4053 9.99306 78.1086 10.0271 77.8591C10.0607 77.6098 10.1114 77.3819 10.179 77.1755C10.8033 77.0554 11.1748 76.8659 11.2932 76.6079C11.411 76.3497 11.3185 75.8771 11.0146 75.189L8.38124 68.946C8.02675 68.1551 7.7395 67.4239 7.52033 66.7532C7.30074 66.0824 7.09817 65.3859 6.91262 64.6635H7.46968C7.26712 65.4032 7.05583 66.1213 6.83666 66.8179C6.61707 67.5144 6.36386 68.2236 6.07703 68.946L3.84879 74.8021C3.59558 75.4902 3.53622 76.0402 3.67154 76.4531C3.80645 76.8659 4.17796 77.107 4.78566 77.1755C4.85291 77.3821 4.89961 77.6185 4.92493 77.8849C4.95025 78.1518 4.96291 78.4396 4.96291 78.7491C4.77695 78.7318 4.52809 78.7187 4.21594 78.7102C3.90337 78.7014 3.5742 78.6929 3.22842 78.6844C2.88223 78.6758 2.56572 78.6715 2.27889 78.6715C1.85673 78.6715 1.43458 78.6758 1.01284 78.6844C0.590684 78.6929 0.25321 78.7145 0 78.7491C0 78.4569 0.016604 78.1814 0.050642 77.9236C0.0842649 77.6656 0.143209 77.4165 0.227889 77.1755C0.514721 77.1239 0.759629 77.0167 0.962197 76.8532C1.16476 76.69 1.36297 76.4189 1.55724 76.0404C1.75109 75.6623 1.98334 75.1463 2.25357 74.4927L7.54565 61.2068C7.81546 61.1383 8.05601 61.0996 8.2673 61.0907C8.47817 61.0823 8.73573 61.0776 9.03958 61.0776ZM10.3816 72.2999L10.7614 73.7188C9.63027 73.7188 8.44454 73.7361 7.20381 73.7704C5.96309 73.8051 4.76864 73.8649 3.6209 73.951L4.02603 72.2999H10.3816Z" fill="#E8E3DE"/>
<path d="M26.7389 77.0978C27.4816 77.0978 28.0893 76.9864 28.562 76.7625C29.0344 76.5392 29.4269 76.178 29.7395 75.679C30.0516 75.1805 30.3258 74.5271 30.5624 73.7185C30.9841 73.7875 31.3557 73.8862 31.6765 74.015C31.997 74.144 32.2589 74.2948 32.4615 74.4667C32.2755 75.0516 32.1153 75.7267 31.9804 76.4918C31.8451 77.2571 31.7438 78.001 31.6765 78.7233C31.2544 78.706 30.7183 78.6975 30.0686 78.6975C29.4186 78.6975 28.7223 78.6931 27.9797 78.6844C27.2366 78.6757 26.5364 78.6715 25.878 78.6715C25.4223 78.6715 24.8482 78.6757 24.1562 78.6844C23.4638 78.6929 22.7548 78.7013 22.0292 78.7102C21.3032 78.7187 20.6322 78.7271 20.0162 78.736C19.3998 78.7445 18.9401 78.7491 18.6362 78.7491C18.6362 78.4395 18.6489 78.1471 18.6742 77.872C18.6995 77.5971 18.7458 77.3651 18.8135 77.1754C19.2693 77.1412 19.6194 77.0509 19.8643 76.9046C20.1088 76.7589 20.2821 76.4962 20.3834 76.1177C20.4847 75.7396 20.5353 75.1806 20.5353 74.4409V65.2824C20.5353 64.6117 20.4886 64.1002 20.396 63.7475C20.3031 63.3952 20.1302 63.1501 19.877 63.0122C19.6237 62.8748 19.2693 62.7798 18.8135 62.7282C18.7458 62.5392 18.7035 62.2899 18.6869 61.9803C18.6699 61.6705 18.6616 61.3956 18.6616 61.1548C19.1003 61.1721 19.5225 61.185 19.9276 61.1935C20.3327 61.2024 20.7418 61.2108 21.1557 61.2193C21.5691 61.2282 21.9952 61.2324 22.4344 61.2324C22.8225 61.2324 23.2403 61.2282 23.6878 61.2193C24.1348 61.2108 24.5779 61.2024 25.0171 61.1935C25.4559 61.185 25.844 61.1721 26.1819 61.1548C26.1819 61.4474 26.1732 61.7312 26.1566 62.0061C26.1395 62.2814 26.0889 62.5219 26.0046 62.7282C25.5655 62.7629 25.2197 62.8534 24.9665 62.9991C24.7133 63.1454 24.54 63.395 24.4474 63.7473C24.3544 64.1 24.3081 64.6288 24.3081 65.3338V74.3889C24.3081 75.1112 24.3671 75.6658 24.4854 76.0528C24.6033 76.4398 24.8185 76.7104 25.1311 76.8654C25.4432 77.0202 25.878 77.0976 26.4351 77.0976L26.7389 77.0978Z" fill="#E8E3DE"/>
<path d="M42.2604 78.9039C40.5045 78.9039 38.9896 78.5169 37.7153 77.7432C36.4405 76.9693 35.453 75.9073 34.7527 74.5572C34.052 73.2072 33.7019 71.6465 33.7019 69.8749C33.7019 68.5332 33.9171 67.3167 34.3476 66.2243C34.778 65.1323 35.377 64.1951 36.1454 63.4123C36.9133 62.6299 37.8166 62.0321 38.8547 61.6194C39.8929 61.2066 41.028 61 42.2604 61C43.9652 61 45.4591 61.3612 46.7422 62.0835C48.0249 62.8058 49.0294 63.8208 49.7554 65.1276C50.481 66.4349 50.8442 67.9654 50.8442 69.7197C50.8442 71.0442 50.6416 72.2652 50.2365 73.3829C49.8314 74.5011 49.249 75.4726 48.4893 76.2981C47.7297 77.1234 46.8221 77.7646 45.7673 78.22C44.7122 78.6759 43.543 78.9039 42.2604 78.9039ZM42.6655 77.253C43.5601 77.253 44.3197 76.9564 44.9444 76.363C45.5687 75.7697 46.0459 74.953 46.375 73.9122C46.7042 72.8719 46.8688 71.6723 46.8688 70.3132C46.8688 68.8859 46.6575 67.5875 46.2358 66.4178C45.8136 65.2484 45.2229 64.3197 44.4633 63.6316C43.7037 62.9439 42.8258 62.5997 41.8299 62.5997C41.0026 62.5997 40.2766 62.8665 39.6523 63.3994C39.0276 63.9325 38.5382 64.6935 38.1837 65.6825C37.8292 66.6717 37.652 67.854 37.652 69.2295C37.652 70.2788 37.7572 71.2893 37.9685 72.2608C38.1794 73.2328 38.4915 74.0924 38.9054 74.8405C39.3188 75.5887 39.8379 76.178 40.4626 76.6077C41.0869 77.0382 41.8212 77.253 42.6655 77.253ZM48.3121 83.8829C47.721 83.6765 47.2399 83.3883 46.8688 83.0187C46.4973 82.6486 46.1681 82.2487 45.8813 81.819C45.594 81.3889 45.2989 80.9679 44.9951 80.555C44.6912 80.1422 44.328 79.7848 43.9063 79.4843C43.4841 79.1832 42.9353 78.9897 42.2604 78.9039L44.8178 78.0528C45.5098 78.2074 46.1092 78.4184 46.6156 78.6846C47.122 78.9513 47.5817 79.2304 47.9956 79.5233C48.409 79.8155 48.8225 80.0864 49.2363 80.3359C49.6498 80.585 50.1138 80.7785 50.629 80.9163C51.1437 81.0536 51.7558 81.0969 52.4647 81.0451C52.4813 81.3033 52.4687 81.5782 52.4268 81.8706C52.3844 82.1629 52.3294 82.4295 52.2622 82.6704C51.6038 82.7736 50.9455 82.9239 50.2871 83.1218C49.6288 83.3196 48.9704 83.5733 48.3121 83.8829Z" fill="#E8E3DE"/>
<path d="M66.5177 71.6289C66.5177 73.1081 66.4168 74.3032 66.214 75.2148C66.0112 76.1266 65.6144 76.8832 65.0239 77.4848C64.5177 77.9665 63.9055 78.3232 63.188 78.5554C62.4705 78.7876 61.6475 78.9035 60.7194 78.9035C59.0988 78.9035 57.8158 78.6755 56.8706 78.22C55.925 77.7646 55.254 77.068 54.8576 76.1304C54.4607 75.193 54.2625 74.0194 54.2625 72.609V65.3598C54.2625 64.6375 54.2202 64.1002 54.1359 63.7475C54.0512 63.3952 53.8954 63.1541 53.6675 63.0251C53.4396 62.8963 53.1061 62.7974 52.6673 62.7285C52.6167 62.5052 52.5787 62.2558 52.5534 61.9805C52.528 61.7054 52.5154 61.4301 52.5154 61.155C52.8529 61.1723 53.3169 61.1897 53.908 61.2066C54.4987 61.2239 55.0981 61.2324 55.7058 61.2324C56.0097 61.2324 56.3554 61.2324 56.744 61.2324C57.1321 61.2324 57.5289 61.2282 57.9341 61.2193C58.3392 61.2108 58.7103 61.2024 59.0482 61.1935C59.3857 61.185 59.6559 61.1721 59.8585 61.1548C59.8585 61.4474 59.8497 61.7223 59.8331 61.9803C59.8161 62.2383 59.7738 62.4876 59.7065 62.7282C59.2508 62.7798 58.9002 62.8746 58.6557 63.0122C58.4108 63.1499 58.2462 63.3952 58.162 63.7475C58.0773 64.1002 58.0354 64.6375 58.0354 65.3598V72.1963C58.0354 73.2112 58.1493 74.0924 58.3772 74.8405C58.6051 75.5887 58.9805 76.1607 59.504 76.5561C60.027 76.9519 60.7194 77.1494 61.5803 77.1494C61.9854 77.1494 62.4115 77.072 62.859 76.9172C63.3058 76.7625 63.6821 76.496 63.9858 76.1175C64.2052 75.8595 64.3783 75.5544 64.5051 75.2017C64.6315 74.8494 64.7284 74.3806 64.796 73.7959C64.8633 73.2112 64.8973 72.4716 64.8973 71.5773V66.1082C64.8973 65.2657 64.8467 64.6119 64.7454 64.1478C64.6441 63.6834 64.471 63.348 64.2261 63.1414C63.9812 62.9351 63.6315 62.7976 63.1755 62.7287C63.1249 62.4364 63.0908 62.1611 63.0742 61.9033C63.0572 61.6454 63.0489 61.3963 63.0489 61.1552C63.2683 61.1726 63.53 61.1854 63.8336 61.1939C64.1377 61.2028 64.4542 61.2112 64.7834 61.2197C65.1126 61.2286 65.4035 61.2328 65.657 61.2328C66.0955 61.2328 66.5513 61.2244 67.0243 61.207C67.4965 61.1901 67.8935 61.1728 68.2144 61.1554C68.2144 61.4134 68.2055 61.6674 68.1888 61.9165C68.1718 62.1662 68.1297 62.4369 68.0625 62.7291C67.6401 62.7807 67.3194 62.9056 67.1 63.1034C66.8803 63.3013 66.7287 63.628 66.6445 64.0837C66.5598 64.5396 66.5177 65.1718 66.5177 65.9798V71.6289Z" fill="#E8E3DE"/>
<path d="M72.0374 65.2824C72.0374 64.6117 71.9953 64.1002 71.911 63.7475C71.8263 63.3952 71.6617 63.1501 71.4172 63.0122C71.1723 62.8748 70.8222 62.7798 70.3662 62.7282C70.299 62.5392 70.2483 62.2988 70.2147 62.0061C70.1807 61.7137 70.1641 61.4299 70.1641 61.1548C70.4677 61.1721 70.8434 61.185 71.2906 61.1935C71.7377 61.2024 72.2063 61.2108 72.696 61.2193C73.1851 61.2282 73.6243 61.2324 74.0126 61.2324C74.401 61.2324 74.8144 61.2282 75.2536 61.2193C75.6921 61.2108 76.1271 61.2024 76.5576 61.1935C76.9881 61.185 77.372 61.1721 77.7097 61.1548C77.7097 61.4474 77.7012 61.7223 77.6846 61.9803C77.6676 62.2383 77.6169 62.4876 77.5327 62.7282C77.0767 62.7629 76.7263 62.8534 76.4819 62.9991C76.2365 63.1454 76.068 63.395 75.9752 63.7473C75.8824 64.1 75.8362 64.6115 75.8362 65.2822V74.5952C75.8362 75.2662 75.8824 75.7866 75.9752 76.1562C76.068 76.5261 76.2411 76.7796 76.4945 76.9173C76.7475 77.0549 77.0933 77.141 77.5327 77.1752C77.5999 77.3473 77.6466 77.5795 77.6717 77.8718C77.6973 78.1644 77.7099 78.4569 77.7099 78.7489C77.271 78.7142 76.739 78.6927 76.1147 78.6842C75.49 78.6755 74.8316 78.6713 74.1397 78.6713C73.4473 78.6713 72.7424 78.6755 72.0252 78.6842C71.3072 78.6927 70.6871 78.7142 70.1641 78.7489C70.1641 78.474 70.1848 78.19 70.2274 77.8976C70.2691 77.6053 70.3162 77.3647 70.3664 77.1752C70.8224 77.141 71.1728 77.0551 71.4175 76.9173C71.6619 76.7798 71.8265 76.5261 71.9112 76.1562C71.9955 75.7866 72.0376 75.2662 72.0376 74.5952V65.2824H72.0374Z" fill="#E8E3DE"/>
<path d="M89.5339 78.9037L83.5328 65.2824H84.0139L83.2288 73.1766C83.1279 74.2432 83.1109 75.056 83.1781 75.6145C83.2454 76.1736 83.4145 76.5605 83.6848 76.7754C83.9544 76.9906 84.3261 77.1234 84.7987 77.1752C84.8659 77.3992 84.9085 77.6525 84.9255 77.9365C84.9417 78.2203 84.9506 78.4911 84.9506 78.7491C84.6295 78.7144 84.2076 78.6929 83.6846 78.6844C83.1613 78.6757 82.6715 78.6715 82.2159 78.6715C81.9119 78.6715 81.5742 78.6757 81.2029 78.6844C80.8316 78.6929 80.4769 78.7013 80.1396 78.7102C79.8015 78.7187 79.5319 78.7318 79.3293 78.7491C79.3293 78.4911 79.342 78.2203 79.3675 77.9365C79.3926 77.6525 79.4389 77.3992 79.5066 77.1752C79.9456 77.1236 80.2998 76.9906 80.5703 76.7754C80.8399 76.5603 81.0595 76.1691 81.2286 75.6016C81.3974 75.0338 81.5238 74.2083 81.6084 73.1248L82.2919 65.463C82.3591 64.7238 82.3552 64.1602 82.2792 63.7733C82.2033 63.3863 82.0343 63.1154 81.773 62.9606C81.5111 62.8058 81.1439 62.7282 80.6716 62.7282C80.5869 62.4876 80.5362 62.2383 80.5196 61.9803C80.5026 61.7221 80.4941 61.4472 80.4941 61.1548C80.7135 61.1721 80.9918 61.185 81.3299 61.1935C81.6672 61.2024 82.0134 61.2108 82.3681 61.2193C82.7224 61.2282 83.0175 61.2324 83.2543 61.2324C83.5077 61.2324 83.8114 61.2282 84.1661 61.2193C84.5203 61.2108 84.8622 61.2024 85.1911 61.1935C85.5203 61.185 85.7862 61.1721 85.989 61.1548L91.813 74.7502H91.0534L96.092 61.1548C96.3454 61.1721 96.6491 61.185 97.0038 61.1935C97.3581 61.2024 97.7084 61.2108 98.0546 61.2193C98.4004 61.2282 98.7003 61.2324 98.9537 61.2324C99.1897 61.2324 99.4726 61.2282 99.8018 61.2193C100.131 61.2108 100.464 61.2024 100.802 61.1935C101.139 61.185 101.426 61.1721 101.663 61.1548C101.663 61.4301 101.65 61.7054 101.625 61.9803C101.599 62.2556 101.553 62.5049 101.485 62.7282C100.793 62.7282 100.316 62.9217 100.055 63.3087C99.7928 63.6957 99.7127 64.44 99.814 65.5404L100.624 73.7699C100.709 74.6986 100.818 75.3996 100.953 75.8722C101.088 76.3455 101.278 76.6635 101.523 76.827C101.768 76.9904 102.101 77.0976 102.523 77.1492C102.591 77.3732 102.633 77.6225 102.65 77.8974C102.666 78.1727 102.675 78.4567 102.675 78.7487C102.489 78.7313 102.232 78.7182 101.903 78.7098C101.574 78.7009 101.207 78.6924 100.801 78.684C100.396 78.6753 100.004 78.6711 99.6239 78.6711C99.2441 78.6711 98.9191 78.6711 98.649 78.6711C98.2943 78.6711 97.8894 78.6753 97.4338 78.684C96.9778 78.6924 96.5432 78.7009 96.1298 78.7098C95.716 78.7182 95.3826 78.7313 95.1294 78.7487C95.1294 78.4565 95.146 78.1809 95.1801 77.9232C95.2137 77.6652 95.2643 77.4161 95.332 77.175C95.855 77.1065 96.2392 76.9904 96.4841 76.827C96.7286 76.6637 96.8681 76.3715 96.9021 75.9498C96.9357 75.5286 96.9102 74.9052 96.8263 74.0795L95.9146 65.2822H96.3195L91.0274 78.6971C90.8417 78.7656 90.6098 78.8172 90.3313 78.8517C90.0528 78.8863 89.7873 78.9037 89.5339 78.9037Z" fill="#E8E3DE"/>
<path d="M106.169 65.2824C106.169 64.6117 106.127 64.1002 106.043 63.7475C105.958 63.3952 105.794 63.1501 105.549 63.0122C105.304 62.8748 104.954 62.7798 104.498 62.7282C104.431 62.5392 104.38 62.2988 104.347 62.0061C104.313 61.7137 104.296 61.4299 104.296 61.1548C104.6 61.1721 104.975 61.185 105.423 61.1935C105.87 61.2024 106.338 61.2108 106.828 61.2193C107.317 61.2282 107.756 61.2324 108.145 61.2324C108.533 61.2324 108.946 61.2282 109.386 61.2193C109.824 61.2108 110.259 61.2024 110.69 61.1935C111.12 61.185 111.504 61.1721 111.842 61.1548C111.842 61.4474 111.833 61.7223 111.817 61.9803C111.8 62.2383 111.749 62.4876 111.665 62.7282C111.209 62.7629 110.858 62.8534 110.614 62.9991C110.369 63.1454 110.2 63.395 110.107 63.7473C110.015 64.1 109.968 64.6115 109.968 65.2822V74.5952C109.968 75.2662 110.015 75.7866 110.107 76.1562C110.2 76.5261 110.373 76.7796 110.627 76.9173C110.88 77.0549 111.225 77.141 111.665 77.1752C111.732 77.3473 111.779 77.5795 111.804 77.8718C111.829 78.1644 111.842 78.4569 111.842 78.7489C111.403 78.7142 110.871 78.6927 110.247 78.6842C109.622 78.6755 108.964 78.6713 108.272 78.6713C107.579 78.6713 106.875 78.6755 106.157 78.6842C105.439 78.6927 104.819 78.7142 104.296 78.7489C104.296 78.474 104.317 78.19 104.359 77.8976C104.401 77.6053 104.448 77.3647 104.498 77.1752C104.954 77.141 105.305 77.0551 105.55 76.9173C105.794 76.7798 105.959 76.5261 106.043 76.1562C106.128 75.7866 106.17 75.2662 106.17 74.5952L106.169 65.2824Z" fill="#E8E3DE"/>
<path d="M122.375 61.0776L128.173 74.3635C128.528 75.1374 128.81 75.7179 129.021 76.1049C129.232 76.4918 129.435 76.754 129.629 76.8917C129.823 77.0296 130.047 77.1239 130.3 77.1755C130.367 77.3994 130.414 77.6398 130.439 77.8978C130.465 78.1558 130.477 78.4398 130.477 78.7491C130.207 78.7145 129.853 78.6929 129.414 78.6844C128.975 78.6758 128.532 78.6715 128.085 78.6715C127.637 78.6715 127.278 78.6715 127.008 78.6715C126.806 78.6715 126.536 78.6715 126.198 78.6715C125.86 78.6715 125.506 78.6758 125.135 78.6844C124.763 78.6929 124.413 78.7014 124.084 78.7102C123.755 78.7187 123.497 78.7318 123.311 78.7491C123.311 78.4053 123.328 78.1086 123.362 77.8591C123.396 77.6098 123.446 77.3819 123.514 77.1755C124.138 77.0554 124.51 76.8659 124.628 76.6079C124.746 76.3497 124.653 75.8771 124.349 75.189L121.716 68.946C121.362 68.1551 121.075 67.4239 120.855 66.7532C120.636 66.0824 120.433 65.3859 120.248 64.6635H120.805C120.602 65.4032 120.391 66.1213 120.172 66.8179C119.952 67.5144 119.699 68.2236 119.412 68.946L117.184 74.8021C116.931 75.4902 116.871 76.0402 117.007 76.4531C117.142 76.8659 117.513 77.107 118.121 77.1755C118.188 77.3821 118.235 77.6185 118.26 77.8849C118.285 78.1518 118.298 78.4396 118.298 78.7491C118.112 78.7318 117.863 78.7187 117.551 78.7102C117.239 78.7014 116.909 78.6929 116.564 78.6844C116.217 78.6758 115.901 78.6715 115.614 78.6715C115.192 78.6715 114.77 78.6758 114.348 78.6844C113.926 78.6929 113.588 78.7145 113.335 78.7491C113.335 78.4569 113.352 78.1814 113.386 77.9236C113.419 77.6656 113.478 77.4165 113.563 77.1755C113.85 77.1239 114.095 77.0167 114.297 76.8532C114.5 76.69 114.698 76.4189 114.892 76.0404C115.086 75.6623 115.318 75.1463 115.589 74.4927L120.881 61.2068C121.151 61.1383 121.391 61.0996 121.602 61.0907C121.813 61.0823 122.071 61.0776 122.375 61.0776ZM123.717 72.2999L124.096 73.7188C122.965 73.7188 121.779 73.7361 120.539 73.7704C119.298 73.8051 118.103 73.8649 116.956 73.951L117.361 72.2999H123.717Z" fill="#E8E3DE"/>
</svg>
