<svg width="542" height="464" viewBox="0 0 542 464" fill="none" xmlns="http://www.w3.org/2000/svg">
<path d="M37.4116 328.316L61.4096 382.435C62.8767 385.588 64.0458 387.952 64.9202 389.528C65.7929 391.105 66.6313 392.173 67.4353 392.733C68.2375 393.295 69.1644 393.679 70.2123 393.889C70.4906 394.801 70.6839 395.781 70.7887 396.832C70.8935 397.883 70.9459 399.039 70.9459 400.3C69.8275 400.158 68.3604 400.07 66.5445 400.036C64.7269 400.001 62.893 399.983 61.0428 399.983C59.1909 399.983 57.7057 399.983 56.589 399.983C55.7507 399.983 54.6323 399.983 53.2356 399.983C51.8372 399.983 50.3701 400.001 48.8342 400.036C47.2967 400.07 45.8476 400.105 44.4853 400.141C43.1229 400.175 42.057 400.229 41.289 400.3C41.289 398.899 41.3578 397.69 41.4986 396.674C41.6378 395.659 41.8474 394.73 42.1274 393.889C44.7112 393.4 46.2487 392.628 46.7383 391.577C47.2262 390.526 46.8431 388.601 45.5856 385.798L34.687 360.367C33.2199 357.146 32.031 354.167 31.124 351.435C30.2152 348.703 29.3768 345.865 28.6089 342.923H30.9144C30.076 345.936 29.2016 348.861 28.2945 351.698C27.3857 354.536 26.3378 357.425 25.1507 360.367L15.9288 384.221C14.8808 387.024 14.6352 389.265 15.1952 390.947C15.7535 392.628 17.2911 393.61 19.8062 393.889C20.0845 394.731 20.2777 395.694 20.3825 396.779C20.4873 397.866 20.5397 399.038 20.5397 400.3C19.7701 400.229 18.7402 400.175 17.4483 400.141C16.1547 400.105 14.7923 400.07 13.3613 400.036C11.9285 400.001 10.6186 399.983 9.4315 399.983C7.68436 399.983 5.93721 400.001 4.19178 400.036C2.44463 400.07 1.04795 400.158 0 400.3C0 399.109 0.0687179 397.987 0.209589 396.937C0.348743 395.886 0.59269 394.871 0.943151 393.889C2.13025 393.679 3.14384 393.242 3.98219 392.577C4.82055 391.912 5.64086 390.807 6.44486 389.266C7.24714 387.725 8.20833 385.624 9.32671 382.961L31.2288 328.842C32.3454 328.563 33.341 328.405 34.2154 328.369C35.0881 328.335 36.1541 328.316 37.4116 328.316ZM42.9657 374.029L44.5377 379.809C39.8563 379.809 34.949 379.879 29.814 380.019C24.6791 380.16 19.7357 380.404 14.9856 380.754L16.6623 374.029H42.9657Z" fill="#9444B6"/>
<path d="M110.663 393.574C113.736 393.574 116.251 393.12 118.208 392.208C120.163 391.299 121.788 389.827 123.081 387.794C124.373 385.764 125.508 383.103 126.487 379.809C128.232 380.09 129.77 380.492 131.098 381.017C132.424 381.542 133.508 382.156 134.347 382.856C133.577 385.239 132.914 387.989 132.355 391.106C131.795 394.223 131.376 397.253 131.098 400.195C129.351 400.125 127.132 400.09 124.443 400.09C121.753 400.09 118.871 400.072 115.798 400.037C112.723 400.002 109.825 399.984 107.1 399.984C105.214 399.984 102.838 400.002 99.9739 400.037C97.1084 400.071 94.1741 400.106 91.1712 400.142C88.1665 400.177 85.3895 400.211 82.84 400.247C80.2889 400.282 78.3863 400.301 77.1287 400.301C77.1287 399.04 77.1811 397.848 77.2859 396.728C77.3907 395.608 77.5823 394.663 77.8623 393.89C79.7486 393.751 81.1977 393.383 82.2113 392.787C83.2231 392.193 83.9404 391.124 84.3595 389.582C84.7787 388.042 84.9883 385.764 84.9883 382.751V345.445C84.9883 342.713 84.795 340.629 84.4119 339.192C84.0271 337.757 83.3116 336.759 82.2637 336.198C81.2157 335.638 79.7486 335.251 77.8623 335.041C77.5823 334.271 77.407 333.255 77.3383 331.994C77.2679 330.732 77.2335 329.612 77.2335 328.631C79.0494 328.702 80.7965 328.755 82.4732 328.789C84.15 328.825 85.843 328.86 87.5558 328.894C89.2668 328.93 91.0303 328.947 92.8479 328.947C94.4542 328.947 96.1833 328.93 98.0352 328.894C99.8855 328.86 101.719 328.825 103.537 328.789C105.353 328.755 106.959 328.702 108.357 328.631C108.357 329.823 108.321 330.979 108.253 332.099C108.182 333.221 107.973 334.2 107.624 335.041C105.806 335.182 104.375 335.551 103.327 336.144C102.279 336.74 101.562 337.757 101.179 339.192C100.794 340.628 100.603 342.783 100.603 345.654V382.539C100.603 385.482 100.847 387.741 101.336 389.317C101.824 390.894 102.715 391.996 104.009 392.628C105.3 393.258 107.1 393.573 109.405 393.573L110.663 393.574Z" fill="#9444B6"/>
<path d="M174.9 400.93C167.633 400.93 161.364 399.354 156.09 396.202C150.814 393.05 146.727 388.724 143.829 383.224C140.929 377.725 139.48 371.368 139.48 364.151C139.48 358.686 140.371 353.73 142.152 349.281C143.934 344.833 146.413 341.015 149.592 337.826C152.771 334.639 156.509 332.204 160.805 330.523C165.102 328.842 169.8 328 174.9 328C181.956 328 188.139 329.471 193.449 332.414C198.757 335.356 202.915 339.49 205.919 344.814C208.922 350.139 210.426 356.373 210.426 363.519C210.426 368.914 209.587 373.888 207.911 378.441C206.234 382.996 203.824 386.953 200.68 390.316C197.536 393.678 193.78 396.289 189.414 398.145C185.047 400.002 180.209 400.93 174.9 400.93ZM176.577 394.206C180.279 394.206 183.423 392.997 186.009 390.58C188.592 388.163 190.567 384.837 191.929 380.597C193.292 376.359 193.973 371.473 193.973 365.937C193.973 360.123 193.098 354.834 191.353 350.069C189.606 345.306 187.161 341.522 184.017 338.72C180.874 335.918 177.24 334.516 173.119 334.516C169.695 334.516 166.69 335.603 164.106 337.774C161.521 339.945 159.496 343.045 158.028 347.074C156.561 351.103 155.828 355.919 155.828 361.522C155.828 365.796 156.263 369.913 157.138 373.87C158.01 377.83 159.302 381.331 161.015 384.378C162.726 387.426 164.874 389.826 167.46 391.577C170.044 393.33 173.083 394.206 176.577 394.206ZM199.946 421.212C197.5 420.371 195.509 419.197 193.973 417.691C192.435 416.184 191.073 414.555 189.886 412.805C188.697 411.053 187.476 409.338 186.218 407.656C184.961 405.974 183.457 404.519 181.712 403.295C179.965 402.068 177.694 401.28 174.9 400.93L185.485 397.463C188.348 398.093 190.829 398.953 192.925 400.037C195.021 401.123 196.923 402.26 198.636 403.453C200.347 404.644 202.058 405.747 203.771 406.763C205.482 407.778 207.403 408.566 209.535 409.128C211.665 409.687 214.198 409.863 217.132 409.652C217.201 410.704 217.149 411.824 216.975 413.015C216.8 414.205 216.572 415.292 216.294 416.273C213.569 416.693 210.845 417.305 208.12 418.112C205.396 418.917 202.671 419.951 199.946 421.212Z" fill="#9444B6"/>
<path d="M275.293 371.297C275.293 377.322 274.875 382.19 274.036 385.904C273.197 389.618 271.554 392.7 269.111 395.151C267.016 397.113 264.482 398.566 261.512 399.512C258.543 400.457 255.137 400.929 251.296 400.929C244.589 400.929 239.279 400.001 235.367 398.145C231.453 396.29 228.676 393.453 227.036 389.633C225.393 385.815 224.573 381.035 224.573 375.289V345.76C224.573 342.818 224.398 340.629 224.049 339.192C223.698 337.757 223.053 336.775 222.11 336.25C221.167 335.725 219.787 335.322 217.971 335.042C217.761 334.132 217.604 333.116 217.499 331.995C217.394 330.874 217.342 329.753 217.342 328.632C218.739 328.703 220.659 328.773 223.106 328.842C225.55 328.913 228.031 328.947 230.546 328.947C231.804 328.947 233.235 328.947 234.843 328.947C236.449 328.947 238.091 328.93 239.768 328.894C241.445 328.86 242.981 328.825 244.379 328.789C245.776 328.755 246.894 328.702 247.733 328.631C247.733 329.823 247.696 330.943 247.628 331.994C247.557 333.045 247.382 334.06 247.104 335.041C245.217 335.251 243.767 335.637 242.755 336.198C241.741 336.758 241.06 337.757 240.711 339.192C240.361 340.629 240.187 342.818 240.187 345.76V373.608C240.187 377.742 240.659 381.332 241.602 384.379C242.545 387.427 244.099 389.757 246.265 391.367C248.43 392.98 251.296 393.784 254.859 393.784C256.535 393.784 258.299 393.469 260.151 392.839C262 392.208 263.557 391.123 264.814 389.581C265.722 388.53 266.438 387.287 266.963 385.85C267.486 384.415 267.887 382.506 268.167 380.124C268.446 377.742 268.587 374.729 268.587 371.087V348.809C268.587 345.377 268.377 342.714 267.958 340.823C267.539 338.931 266.822 337.565 265.809 336.724C264.795 335.883 263.348 335.323 261.461 335.042C261.251 333.852 261.11 332.731 261.041 331.681C260.971 330.63 260.937 329.615 260.937 328.633C261.845 328.704 262.928 328.756 264.184 328.791C265.443 328.827 266.753 328.861 268.115 328.896C269.477 328.932 270.682 328.949 271.73 328.949C273.545 328.949 275.432 328.915 277.389 328.844C279.344 328.775 280.987 328.705 282.315 328.634C282.315 329.685 282.278 330.719 282.209 331.734C282.139 332.751 281.964 333.854 281.686 335.044C279.938 335.254 278.611 335.763 277.703 336.569C276.793 337.375 276.166 338.706 275.817 340.562C275.467 342.419 275.293 344.995 275.293 348.286V371.297Z" fill="#9444B6"/>
<path d="M298.137 345.445C298.137 342.713 297.962 340.629 297.614 339.192C297.263 337.757 296.582 336.759 295.57 336.198C294.557 335.638 293.108 335.251 291.22 335.041C290.942 334.271 290.733 333.291 290.593 332.099C290.452 330.908 290.384 329.752 290.384 328.631C291.64 328.702 293.195 328.755 295.046 328.789C296.897 328.825 298.836 328.86 300.862 328.894C302.887 328.93 304.705 328.947 306.312 328.947C307.919 328.947 309.63 328.93 311.447 328.894C313.262 328.86 315.063 328.825 316.844 328.789C318.626 328.755 320.215 328.702 321.613 328.631C321.613 329.823 321.577 330.943 321.509 331.994C321.438 333.045 321.229 334.06 320.88 335.041C318.993 335.182 317.543 335.551 316.531 336.144C315.516 336.74 314.818 337.757 314.434 339.192C314.05 340.628 313.859 342.712 313.859 345.444V383.38C313.859 386.113 314.05 388.233 314.434 389.739C314.818 391.245 315.534 392.278 316.583 392.839C317.63 393.399 319.061 393.75 320.88 393.889C321.158 394.591 321.351 395.536 321.455 396.727C321.561 397.919 321.613 399.11 321.613 400.3C319.797 400.158 317.595 400.071 315.011 400.036C312.426 400.001 309.701 399.984 306.837 399.984C303.972 399.984 301.055 400.001 298.086 400.036C295.115 400.071 292.548 400.158 290.384 400.3C290.384 399.18 290.47 398.023 290.646 396.832C290.818 395.641 291.013 394.661 291.221 393.889C293.108 393.75 294.558 393.4 295.571 392.839C296.583 392.279 297.264 391.245 297.615 389.739C297.963 388.233 298.138 386.113 298.138 383.38V345.445H298.137Z" fill="#9444B6"/>
<path d="M370.549 400.93L345.713 345.445H347.704L344.454 377.601C344.037 381.946 343.966 385.257 344.245 387.532C344.523 389.809 345.223 391.385 346.342 392.261C347.457 393.137 348.996 393.678 350.952 393.889C351.23 394.802 351.406 395.834 351.476 396.99C351.543 398.146 351.58 399.25 351.58 400.301C350.252 400.159 348.505 400.071 346.341 400.037C344.175 400.002 342.148 399.984 340.263 399.984C339.004 399.984 337.607 400.002 336.07 400.037C334.533 400.071 333.065 400.106 331.669 400.142C330.27 400.177 329.154 400.23 328.316 400.301C328.316 399.25 328.368 398.146 328.474 396.99C328.578 395.834 328.77 394.802 329.05 393.889C330.866 393.679 332.333 393.137 333.452 392.261C334.568 391.385 335.476 389.791 336.176 387.479C336.875 385.167 337.398 381.804 337.748 377.39L340.577 346.181C340.855 343.169 340.839 340.874 340.525 339.298C340.21 337.721 339.511 336.618 338.43 335.987C337.346 335.357 335.826 335.041 333.871 335.041C333.52 334.06 333.311 333.045 333.242 331.994C333.172 330.942 333.137 329.823 333.137 328.631C334.044 328.702 335.196 328.755 336.596 328.789C337.991 328.825 339.424 328.86 340.892 328.894C342.358 328.93 343.58 328.947 344.56 328.947C345.609 328.947 346.865 328.93 348.333 328.894C349.8 328.86 351.214 328.825 352.576 328.789C353.938 328.755 355.039 328.702 355.878 328.631L379.981 384.011H376.838L397.691 328.631C398.74 328.702 399.996 328.755 401.464 328.789C402.931 328.825 404.381 328.86 405.813 328.894C407.244 328.93 408.486 328.947 409.534 328.947C410.511 328.947 411.682 328.93 413.044 328.894C414.406 328.86 415.785 328.825 417.183 328.789C418.58 328.755 419.768 328.702 420.746 328.631C420.746 329.753 420.693 330.874 420.589 331.994C420.484 333.116 420.29 334.131 420.012 335.041C417.147 335.041 415.173 335.829 414.091 337.405C413.007 338.981 412.676 342.013 413.095 346.496L416.448 380.018C416.797 383.801 417.25 386.657 417.811 388.582C418.369 390.509 419.156 391.805 420.169 392.471C421.181 393.137 422.561 393.573 424.308 393.784C424.586 394.696 424.76 395.711 424.831 396.831C424.9 397.952 424.937 399.109 424.937 400.299C424.167 400.228 423.103 400.175 421.74 400.14C420.378 400.104 418.858 400.07 417.18 400.035C415.504 400 413.88 399.983 412.308 399.983C410.736 399.983 409.391 399.983 408.273 399.983C406.805 399.983 405.13 400 403.244 400.035C401.357 400.07 399.558 400.104 397.847 400.14C396.134 400.175 394.755 400.228 393.707 400.299C393.707 399.108 393.776 397.986 393.917 396.936C394.056 395.885 394.265 394.871 394.545 393.889C396.71 393.61 398.3 393.137 399.313 392.471C400.325 391.806 400.903 390.615 401.043 388.898C401.183 387.182 401.077 384.643 400.73 381.279L396.956 345.444H398.632L376.73 400.089C375.961 400.368 375.002 400.578 373.849 400.718C372.696 400.86 371.598 400.93 370.549 400.93Z" fill="#9444B6"/>
<path d="M439.398 345.445C439.398 342.713 439.224 340.629 438.875 339.192C438.525 337.757 437.843 336.759 436.832 336.198C435.818 335.638 434.369 335.251 432.482 335.041C432.203 334.271 431.994 333.291 431.855 332.099C431.714 330.908 431.645 329.752 431.645 328.631C432.902 328.702 434.457 328.755 436.308 328.789C438.158 328.825 440.097 328.86 442.124 328.894C444.148 328.93 445.966 328.947 447.573 328.947C449.18 328.947 450.891 328.93 452.709 328.894C454.524 328.86 456.324 328.825 458.106 328.789C459.887 328.755 461.476 328.702 462.874 328.631C462.874 329.823 462.839 330.943 462.77 331.994C462.699 333.045 462.49 334.06 462.141 335.041C460.254 335.182 458.804 335.551 457.792 336.144C456.777 336.74 456.079 337.757 455.695 339.192C455.311 340.628 455.12 342.712 455.12 345.444V383.38C455.12 386.113 455.311 388.233 455.695 389.739C456.079 391.245 456.796 392.278 457.845 392.839C458.892 393.399 460.323 393.75 462.141 393.889C462.419 394.591 462.613 395.536 462.717 396.727C462.822 397.919 462.875 399.11 462.875 400.3C461.058 400.158 458.856 400.071 456.273 400.036C453.687 400.001 450.962 399.984 448.099 399.984C445.233 399.984 442.316 400.001 439.347 400.036C436.376 400.071 433.81 400.158 431.645 400.3C431.645 399.18 431.731 398.023 431.907 396.832C432.08 395.641 432.275 394.661 432.483 393.889C434.37 393.75 435.82 393.4 436.832 392.839C437.844 392.279 438.525 391.245 438.876 389.739C439.225 388.233 439.399 386.113 439.399 383.38L439.398 345.445Z" fill="#9444B6"/>
<path d="M506.465 328.316L530.464 382.435C531.93 385.588 533.099 387.952 533.974 389.528C534.846 391.105 535.685 392.173 536.489 392.733C537.291 393.295 538.219 393.679 539.267 393.889C539.543 394.801 539.738 395.781 539.842 396.832C539.948 397.883 540 399.039 540 400.3C538.881 400.158 537.415 400.07 535.598 400.036C533.781 400.001 531.947 399.983 530.097 399.983C528.245 399.983 526.76 399.983 525.642 399.983C524.803 399.983 523.686 399.983 522.289 399.983C520.891 399.983 519.423 400.001 517.888 400.036C516.35 400.07 514.902 400.105 513.539 400.141C512.177 400.175 511.11 400.229 510.342 400.3C510.342 398.899 510.41 397.69 510.551 396.674C510.69 395.659 510.9 394.73 511.18 393.889C513.764 393.4 515.302 392.628 515.792 391.577C516.278 390.526 515.896 388.601 514.637 385.798L503.74 360.367C502.274 357.146 501.084 354.167 500.177 351.435C499.27 348.703 498.431 345.865 497.662 342.923H499.969C499.13 345.936 498.257 348.861 497.349 351.698C496.439 354.536 495.393 357.425 494.205 360.367L484.983 384.221C483.936 387.024 483.689 389.265 484.249 390.947C484.808 392.628 486.344 393.61 488.859 393.889C489.138 394.731 489.331 395.694 489.437 396.779C489.541 397.866 489.595 399.038 489.595 400.3C488.825 400.229 487.794 400.175 486.502 400.141C485.209 400.105 483.847 400.07 482.415 400.036C480.983 400.001 479.673 399.983 478.485 399.983C476.739 399.983 474.992 400.001 473.245 400.036C471.499 400.07 470.101 400.158 469.054 400.3C469.054 399.109 469.123 397.987 469.264 396.937C469.403 395.886 469.646 394.871 469.997 393.889C471.184 393.679 472.199 393.242 473.036 392.577C473.875 391.912 474.695 390.807 475.498 389.266C476.3 387.725 477.262 385.624 478.38 382.961L500.282 328.842C501.4 328.563 502.394 328.405 503.269 328.369C504.141 328.335 505.208 328.316 506.465 328.316ZM512.019 374.029L513.591 379.809C508.909 379.809 504.001 379.879 498.867 380.019C493.732 380.16 488.788 380.404 484.038 380.754L485.714 374.029H512.019Z" fill="#9444B6"/>
<path d="M291.292 185.536C283.546 185.536 275.987 185.536 268.127 185.536C268.127 186.759 268.127 188.002 268.127 189.239C268.123 194.79 265.434 198.578 260.162 200.33C251.365 203.252 243.68 207.876 237.345 214.775C231.83 220.792 228.044 227.727 226.061 235.626C223.748 244.836 223.102 254.107 226.002 263.323C228.758 272.086 234.315 278.884 241.252 284.645C242.644 285.799 244.089 286.89 245.562 287.928C248.437 289.957 249.469 292.499 248.564 295.542C247.759 298.25 245.05 299.934 241.994 299.997C234.473 299.997 170.787 299.806 151.144 299.796C149.525 299.795 148.928 299.649 148 299.5C146.928 299.149 147 299 147 299C146.62 298.072 146.092 298.136 145.757 297.615C145.379 297.026 145.115 296.984 145 294.643C145.925 293.524 148.225 291.861 148.604 289.828C149.906 289.443 146.883 290.757 147.68 290.327C147.698 290.316 147.896 290.126 148.328 289.95C148.498 289.881 148.604 289.637 148.805 289.51C150.392 288.518 153.181 286.812 153.351 286.638C154.303 285.66 155.144 284.73 155.904 283.847C157.726 281.73 178.908 239.297 197.976 199.124C222.005 148.5 250.428 91.5866 256.207 83.876C257.32 82.3853 259.422 80.8425 260.681 80.4012C265.801 78.6073 269.235 79.0478 270.245 79.0478C276.7 79.0478 281.584 79.0478 287.649 79.0756C291.65 79.1338 294.976 79.0486 298.763 79.0486C300.308 79.0486 302.902 80.0311 304.13 80.8495C307.073 82.8049 309.063 86.1399 310.73 89.6008C313.518 95.3898 389.999 256.207 404.094 282.214C405.168 284.196 406.108 285.13 406.397 285.418C410.66 288.942 409.576 287.984 412.218 289.147C414.332 290.081 415.046 292.06 414.998 294.619C414.71 299.049 413.588 299.697 411.69 299.997C408.318 299.997 404.806 299.994 401.768 299.997C387.699 300.022 331.337 299.858 317.278 299.997C315.789 300.012 314.11 300.211 313 299.5C312.234 299.01 311.798 298.478 311.305 297.757C310.168 296.107 309.946 293.259 310.852 291.222C311.445 289.897 312.71 288.751 313.913 287.843C322.99 280.982 329.747 272.393 333.089 261.377C338.437 243.773 332.643 221.36 316.637 209.571C311.523 205.805 306.181 202.563 300.126 200.788C294.612 199.166 290.802 194.848 291.264 188.469C291.346 187.56 291.292 186.648 291.292 185.536ZM279.778 149.063C275.692 149.063 271.605 149.052 267.521 149.067C263.894 149.081 261.289 151.691 261.278 155.307C261.27 160.151 261.439 165.003 261.222 169.835C261.072 173.148 263.385 176.526 267.599 176.575C275.588 176.662 283.582 176.702 291.575 176.594C295.877 176.536 298.133 173.989 298.133 169.695C298.133 164.911 298.15 160.126 298.131 155.345C298.12 151.852 295.351 149.085 291.856 149.072C287.832 149.051 283.805 149.063 279.778 149.063Z" fill="#9444B6"/>
<path d="M387.267 294.249C387.262 299.793 389.551 298.953 392.365 298.953C395.179 298.953 397.461 297.003 397.461 294.249C397.461 291.494 395.179 289.263 392.365 289.263C389.549 289.258 387.267 291.494 387.267 294.249Z" fill="#9444B6"/>
<path d="M145 294.249C144.996 299.793 146.902 299.547 150.5 299C153.314 299 155.195 297.003 155.195 294.249C155.195 291.494 153.314 289.278 150.5 289.278C147.686 289.273 145 291.494 145 294.249Z" fill="#9444B6"/>
</svg>
