<svg width="41" height="36" viewBox="0 0 41 36" fill="none" xmlns="http://www.w3.org/2000/svg">
<path d="M22.3299 26.9602C22.977 26.9602 23.5976 26.7141 24.0552 26.276C24.5128 25.8379 24.7699 25.2438 24.7699 24.6242V19.3682C24.7699 18.7487 24.5128 18.1545 24.0552 17.7164C23.5976 17.2783 22.977 17.0322 22.3299 17.0322C21.6828 17.0322 21.0621 17.2783 20.6046 17.7164C20.147 18.1545 19.8899 18.7487 19.8899 19.3682V24.6242C19.8899 25.2438 20.147 25.8379 20.6046 26.276C21.0621 26.7141 21.6828 26.9602 22.3299 26.9602Z" fill="#595957"/>
<path d="M22.3299 14.1124C23.6775 14.1124 24.7699 13.0666 24.7699 11.7764C24.7699 10.4863 23.6775 9.44043 22.3299 9.44043C20.9823 9.44043 19.8899 10.4863 19.8899 11.7764C19.8899 13.0666 20.9823 14.1124 22.3299 14.1124Z" fill="#595957"/>
<path d="M6.71999 35.7197H31.4799C33.7448 35.7197 35.917 34.8583 37.5186 33.325C39.1202 31.7917 40.0199 29.7121 40.0199 27.5437V8.85569C40.0199 6.68728 39.1202 4.60768 37.5186 3.07438C35.917 1.54109 33.7448 0.679688 31.4799 0.679688H13.1799C10.9149 0.679688 8.74276 1.54109 7.1412 3.07438C5.53964 4.60768 4.63989 6.68728 4.63989 8.85569V24.4426L2.66349 26.3348C1.85959 27.103 1.31182 28.0823 1.08952 29.1487C0.867224 30.2152 0.980395 31.3207 1.41471 32.3255C1.84902 33.3303 2.58495 34.1892 3.52935 34.7934C4.47374 35.3976 5.58414 35.72 6.71999 35.7197ZM6.10999 29.6402L9.26369 26.621C9.34345 26.5442 9.40659 26.453 9.44951 26.3528C9.49243 26.2526 9.51427 26.1453 9.51379 26.037V8.85569C9.51379 7.92637 9.8994 7.03511 10.5858 6.37799C11.2722 5.72086 12.2031 5.35169 13.1738 5.35169H31.4799C32.4506 5.35169 33.3815 5.72086 34.0679 6.37799C34.7543 7.03511 35.1399 7.92637 35.1399 8.85569V27.5437C35.1399 28.473 34.7543 29.3643 34.0679 30.0214C33.3815 30.6785 32.4506 31.0477 31.4799 31.0477H6.71999C6.54935 31.0484 6.38235 31.0005 6.24024 30.91C6.09812 30.8196 5.98732 30.6907 5.92192 30.5398C5.85652 30.389 5.83948 30.2228 5.87297 30.0626C5.90647 29.9025 5.98897 29.7554 6.10999 29.6402Z" fill="#595957"/>
</svg>
