<svg width="80" height="80" viewBox="0 0 80 80" fill="none" xmlns="http://www.w3.org/2000/svg">
<path d="M64.8239 0.723145H15.1759C7.2071 0.723145 0.7229 7.20755 0.7229 15.1761V64.8241C0.7229 72.7929 7.2073 79.2771 15.1759 79.2771H64.8239C72.7927 79.2771 79.2769 72.7927 79.2769 64.8241V15.1761C79.2769 7.20735 72.7925 0.723145 64.8239 0.723145ZM75.3709 64.8251C75.3709 70.6415 70.6404 75.3721 64.8239 75.3721H15.1759C9.3595 75.3721 4.6289 70.6416 4.6289 64.8251V15.1771C4.6289 9.36074 9.3594 4.63015 15.1759 4.63015H64.8239C70.6403 4.63015 75.3709 9.36064 75.3709 15.1771V64.8251Z" fill="#E8E3DE"/>
<path d="M40 18.9023C28.367 18.9062 18.906 28.3671 18.906 40.0003C18.906 51.6335 28.3708 61.0943 40 61.0943C51.633 61.0943 61.098 51.6295 61.098 40.0003C61.0941 28.3673 51.6332 18.9063 40 18.9023ZM40 57.1873C30.5234 57.1873 22.812 49.4764 22.812 39.9993C22.812 30.5222 30.5229 22.8113 40 22.8083C49.4766 22.8122 57.188 30.5231 57.188 39.9993C57.188 49.4755 49.4771 57.1873 40 57.1873Z" fill="#E8E3DE"/>
<path d="M64.7458 8.57812C59.7028 8.57812 55.5974 12.6797 55.5974 17.7265C55.5974 22.7695 59.699 26.8749 64.7458 26.8749C69.7888 26.8749 73.8903 22.7733 73.8903 17.7265C73.8942 12.6835 69.7887 8.57812 64.7458 8.57812ZM64.7458 22.9651C61.8552 22.9651 59.5036 20.6135 59.5036 17.7229C59.5036 14.8323 61.8552 12.4807 64.7458 12.4807C67.6364 12.4807 69.9841 14.8323 69.9841 17.7229C69.988 20.6174 67.6364 22.9651 64.7458 22.9651Z" fill="#E8E3DE"/>
</svg>
