<svg width="28" height="40" viewBox="0 0 28 40" fill="none" xmlns="http://www.w3.org/2000/svg">
<path d="M14.4931 39.8223C21.9411 39.8223 28 34.313 28 27.5409C28 23.2501 25.5988 19.3389 21.5766 17.0818C21.5685 17.0781 21.5624 17.0726 21.5562 17.0689C19.5379 15.9448 18.375 14.717 18.0023 13.3114C17.6479 11.9799 18.0145 10.4948 19.1041 8.77994L9.88616 8.7818C10.9737 10.4948 11.3403 11.9818 10.988 13.3133C10.6112 14.73 9.43198 15.9689 7.38108 17.0985C3.37704 19.3559 0.98584 23.2615 0.98584 27.5409C0.98584 34.3131 7.04524 39.8223 14.4931 39.8223ZM17.8475 19.6186C18.8434 19.6186 19.654 20.3556 19.654 21.2612C19.654 22.1667 18.8434 22.9037 17.8475 22.9037C16.8516 22.9037 16.041 22.1667 16.041 21.2593C16.041 20.3537 16.8516 19.6186 17.8475 19.6186ZM14.9168 10.8335C15.7518 10.8335 16.432 11.452 16.432 12.2132C16.432 12.9743 15.7518 13.5928 14.9168 13.5928C14.0797 13.5928 13.3995 12.9743 13.3995 12.2132C13.4015 11.452 14.0817 10.8335 14.9168 10.8335ZM12.76 16.4556C13.4728 16.4556 14.0512 16.9815 14.0512 17.6297C14.0512 18.2778 13.4728 18.8038 12.76 18.8038C12.0471 18.8038 11.4687 18.2778 11.4687 17.6297C11.4687 16.9815 12.0471 16.4556 12.76 16.4556ZM3.06545 26.8539C3.06748 26.8373 3.06952 26.8206 3.07563 26.8058C3.096 26.7447 3.59294 25.291 5.46256 24.5317C7.53588 23.691 10.3871 24.0409 13.9433 25.5687C20.0982 28.215 23.0555 26.5724 24.2713 25.3576C24.4872 25.141 24.8151 25.0576 25.1267 25.1354C25.4505 25.2187 25.6908 25.4558 25.754 25.7558C25.9047 26.4724 25.9739 27.2076 25.9576 27.9428C25.8395 33.38 21.0738 37.8595 15.1103 38.1449C14.9026 38.1542 14.6928 38.1597 14.4851 38.1597C11.5319 38.1597 8.75409 37.156 6.59923 35.2967C4.29374 33.3079 3.02288 30.6208 3.02288 27.7319C3.02491 27.4393 3.03897 27.1428 3.06545 26.8539ZM15.0838 37.6704C20.7783 37.4001 25.3263 33.1222 25.4378 27.9334C25.4541 27.2315 25.389 26.5297 25.2444 25.8445C25.2138 25.6982 25.0916 25.6186 24.9877 25.5908C24.9287 25.576 24.78 25.5538 24.6578 25.6742C23.3462 26.9853 20.1813 28.7723 13.7208 25.9945C10.3156 24.5316 7.61287 24.1816 5.68846 24.9575C4.14877 25.5779 3.64773 26.7482 3.58256 26.9186C3.55812 27.1871 3.5459 27.4593 3.5459 27.7297C3.5459 30.4871 4.75769 33.0521 6.95932 34.9498C9.15891 36.8498 12.0431 37.8167 15.0838 37.6704ZM17.654 32.3854C18.7212 32.3854 19.5888 33.1743 19.5888 34.1447C19.5888 35.1151 18.7212 35.9039 17.654 35.9039C16.5869 35.9039 15.7192 35.115 15.7192 34.1447C15.7192 33.1743 16.5869 32.3854 17.654 32.3854ZM14.7885 27.6706C15.5889 27.6706 16.2406 28.2632 16.2406 28.991C16.2406 29.7188 15.5889 30.3114 14.7885 30.3114C13.988 30.3114 13.3363 29.7188 13.3363 28.991C13.3363 28.2632 13.988 27.6706 14.7885 27.6706ZM9.37706 29.8077C10.2854 29.8077 11.0226 30.478 11.0226 31.3039C11.0226 32.1298 10.2854 32.8002 9.37706 32.8002C8.46877 32.8002 7.73148 32.1298 7.73148 31.3039C7.73148 30.4798 8.4708 29.8077 9.37706 29.8077ZM9.70903 1.88701C9.63368 1.41293 9.78846 0.931463 10.1327 0.57036C10.4789 0.207398 10.9799 0 11.5074 0H17.4787C18.0062 0 18.5052 0.207408 18.8514 0.57036C19.1976 0.933312 19.3524 1.41293 19.275 1.88701L18.6111 6.08888H10.3749L9.70903 1.88701ZM8.69886 7.47777V7.39259C8.69886 6.93518 9.10823 6.56296 9.61127 6.56296H19.3752C19.8782 6.56296 20.2876 6.93518 20.2876 7.39259V7.47777C20.2876 7.93518 19.8782 8.30741 19.3752 8.30741H9.61127C9.10823 8.30741 8.69886 7.93518 8.69886 7.47777Z" fill="#9444B6"/>
</svg>
